%TF.GenerationSoftware,KiCad,Pcbnew,9.0.0*%
%TF.CreationDate,2025-07-03T18:11:10+02:00*%
%TF.ProjectId,Obsidian,4f627369-6469-4616-9e2e-6b696361645f,rev?*%
%TF.SameCoordinates,Original*%
%TF.FileFunction,Other,ECO1*%
%FSLAX46Y46*%
G04 Gerber Fmt 4.6, Leading zero omitted, Abs format (unit mm)*
G04 Created by KiCad (PCBNEW 9.0.0) date 2025-07-03 18:11:10*
%MOMM*%
%LPD*%
G01*
G04 APERTURE LIST*
%ADD10C,0.050000*%
%ADD11C,0.010000*%
G04 APERTURE END LIST*
D10*
%TO.C,U11*%
X93014285Y-120508000D02*
X93014285Y-124808000D01*
X93014285Y-120508000D02*
X97714285Y-120508000D01*
X93014285Y-124808000D02*
X97714285Y-124808000D01*
X97714285Y-120508000D02*
X97714285Y-124808000D01*
%TO.C,U4*%
X93064285Y-98173000D02*
X97364285Y-98173000D01*
X93064285Y-102873000D02*
X93064285Y-98173000D01*
X93064285Y-102873000D02*
X97364285Y-102873000D01*
X97364285Y-102873000D02*
X97364285Y-98173000D01*
%TO.C,J8*%
X15014285Y-48708000D02*
X65014285Y-48708000D01*
X15014285Y-79808000D02*
X15014285Y-48708000D01*
D11*
X52564285Y-53488000D02*
X54564285Y-53488000D01*
X52564285Y-53738000D02*
X53564285Y-53738000D01*
X52564285Y-53988000D02*
X52564285Y-53488000D01*
X52564285Y-53988000D02*
X54564285Y-53488000D01*
X52564285Y-53988000D02*
X54564285Y-53988000D01*
X52564285Y-53988000D02*
X54564285Y-53988000D01*
X52564285Y-54288000D02*
X54564285Y-54288000D01*
X52564285Y-54538000D02*
X53564285Y-54538000D01*
X52564285Y-54788000D02*
X52564285Y-54288000D01*
X52564285Y-54788000D02*
X54564285Y-54288000D01*
X52564285Y-54788000D02*
X54564285Y-54788000D01*
X52564285Y-54788000D02*
X54564285Y-54788000D01*
X52564285Y-55088000D02*
X54564285Y-55088000D01*
X52564285Y-55588000D02*
X52564285Y-55088000D01*
X52564285Y-55588000D02*
X54564285Y-55088000D01*
X52564285Y-55588000D02*
X54564285Y-55588000D01*
X52564285Y-55588000D02*
X54564285Y-55588000D01*
X52564285Y-56138000D02*
X53564285Y-56138000D01*
X52564285Y-56388000D02*
X52564285Y-55888000D01*
X52564285Y-56388000D02*
X54564285Y-55888000D01*
X52564285Y-56388000D02*
X54564285Y-56388000D01*
X52564285Y-56388000D02*
X54564285Y-56388000D01*
X52564285Y-56688000D02*
X54564285Y-56688000D01*
X52564285Y-56938000D02*
X53564285Y-56938000D01*
X52564285Y-57188000D02*
X52564285Y-56688000D01*
X52564285Y-57188000D02*
X54564285Y-56688000D01*
X52564285Y-57188000D02*
X54564285Y-57188000D01*
X52564285Y-57188000D02*
X54564285Y-57188000D01*
X52564285Y-57488000D02*
X54564285Y-57488000D01*
X52564285Y-57738000D02*
X53564285Y-57738000D01*
X52564285Y-57988000D02*
X52564285Y-57488000D01*
X52564285Y-57988000D02*
X54564285Y-57488000D01*
X52564285Y-57988000D02*
X54564285Y-57988000D01*
X52564285Y-57988000D02*
X54564285Y-57988000D01*
X52564285Y-58538000D02*
X53564285Y-58538000D01*
X52564285Y-58788000D02*
X52564285Y-58288000D01*
X52564285Y-58788000D02*
X54564285Y-58288000D01*
X52564285Y-59088000D02*
X54564285Y-59088000D01*
X52564285Y-59338000D02*
X53564285Y-59338000D01*
X52564285Y-59588000D02*
X52564285Y-59088000D01*
X52564285Y-59588000D02*
X54564285Y-59088000D01*
X52564285Y-59588000D02*
X54564285Y-59588000D01*
X52564285Y-59588000D02*
X54564285Y-59588000D01*
X52564285Y-59888000D02*
X54564285Y-59888000D01*
X52564285Y-60138000D02*
X53564285Y-60138000D01*
X52564285Y-60388000D02*
X52564285Y-59888000D01*
X52564285Y-60388000D02*
X54564285Y-59888000D01*
X52564285Y-60388000D02*
X54564285Y-60388000D01*
X52564285Y-60388000D02*
X54564285Y-60388000D01*
X52564285Y-60688000D02*
X54564285Y-60688000D01*
X52564285Y-60938000D02*
X53564285Y-60938000D01*
X52564285Y-61188000D02*
X52564285Y-60688000D01*
X52564285Y-61188000D02*
X54564285Y-60688000D01*
X52564285Y-61188000D02*
X54564285Y-61188000D01*
X52564285Y-61188000D02*
X54564285Y-61188000D01*
X52564285Y-67738000D02*
X54564285Y-67738000D01*
X52564285Y-67988000D02*
X53564285Y-67988000D01*
X52564285Y-68238000D02*
X52564285Y-67738000D01*
X52564285Y-68238000D02*
X54564285Y-67738000D01*
X52564285Y-68238000D02*
X54564285Y-68238000D01*
X52564285Y-68238000D02*
X54564285Y-68238000D01*
X52564285Y-68538000D02*
X54564285Y-68538000D01*
X52564285Y-68788000D02*
X53564285Y-68788000D01*
X52564285Y-69038000D02*
X52564285Y-68538000D01*
X52564285Y-69038000D02*
X54564285Y-68538000D01*
X52564285Y-69038000D02*
X54564285Y-69038000D01*
X52564285Y-69038000D02*
X54564285Y-69038000D01*
X52564285Y-69338000D02*
X54564285Y-69338000D01*
X52564285Y-69588000D02*
X53564285Y-69588000D01*
X52564285Y-69838000D02*
X52564285Y-69338000D01*
X52564285Y-69838000D02*
X54564285Y-69338000D01*
X52564285Y-69838000D02*
X54564285Y-69838000D01*
X52564285Y-69838000D02*
X54564285Y-69838000D01*
X52564285Y-70138000D02*
X54564285Y-70138000D01*
X52564285Y-70638000D02*
X52564285Y-70138000D01*
X52564285Y-70638000D02*
X54564285Y-70138000D01*
X52564285Y-70638000D02*
X54564285Y-70638000D01*
X52564285Y-70638000D02*
X54564285Y-70638000D01*
X52564285Y-70938000D02*
X54564285Y-70938000D01*
X52564285Y-71188000D02*
X53564285Y-71188000D01*
X52564285Y-71438000D02*
X52564285Y-70938000D01*
X52564285Y-71438000D02*
X54564285Y-70938000D01*
X52564285Y-71438000D02*
X54564285Y-71438000D01*
X52564285Y-71438000D02*
X54564285Y-71438000D01*
X52564285Y-71738000D02*
X54564285Y-71738000D01*
X52564285Y-71988000D02*
X53564285Y-71988000D01*
X52564285Y-72238000D02*
X52564285Y-71738000D01*
X52564285Y-72238000D02*
X54564285Y-71738000D01*
X52564285Y-72238000D02*
X54564285Y-72238000D01*
X52564285Y-72238000D02*
X54564285Y-72238000D01*
X52564285Y-72538000D02*
X54564285Y-72538000D01*
X52564285Y-72788000D02*
X53564285Y-72788000D01*
X52564285Y-73038000D02*
X52564285Y-72538000D01*
X52564285Y-73038000D02*
X54564285Y-72538000D01*
X52564285Y-73038000D02*
X54564285Y-73038000D01*
X52564285Y-73038000D02*
X54564285Y-73038000D01*
X52564285Y-73588000D02*
X53564285Y-73588000D01*
X52564285Y-73838000D02*
X52564285Y-73338000D01*
X52564285Y-73838000D02*
X54564285Y-73338000D01*
X52564285Y-73838000D02*
X54564285Y-73838000D01*
X52564285Y-73838000D02*
X54564285Y-73838000D01*
X52564285Y-74138000D02*
X54564285Y-74138000D01*
X52564285Y-74388000D02*
X53564285Y-74388000D01*
X52564285Y-74638000D02*
X52564285Y-74138000D01*
X52564285Y-74638000D02*
X54564285Y-74138000D01*
X52564285Y-74938000D02*
X54564285Y-74938000D01*
X52564285Y-75188000D02*
X53564285Y-75188000D01*
X52564285Y-75438000D02*
X52564285Y-74938000D01*
X52564285Y-75438000D02*
X54564285Y-74938000D01*
X52564285Y-75438000D02*
X54564285Y-75438000D01*
X52564285Y-75438000D02*
X54564285Y-75438000D01*
X53564285Y-53738000D02*
X54564285Y-53738000D01*
X53564285Y-53988000D02*
X53564285Y-53488000D01*
X53564285Y-54538000D02*
X54564285Y-54538000D01*
X53564285Y-54788000D02*
X53564285Y-54288000D01*
X53564285Y-55338000D02*
X52564285Y-55338000D01*
X53564285Y-55338000D02*
X54564285Y-55338000D01*
X53564285Y-55588000D02*
X53564285Y-55088000D01*
X53564285Y-56388000D02*
X53564285Y-55888000D01*
X53564285Y-56938000D02*
X54564285Y-56938000D01*
X53564285Y-57188000D02*
X53564285Y-56688000D01*
X53564285Y-57738000D02*
X54564285Y-57738000D01*
X53564285Y-57988000D02*
X53564285Y-57488000D01*
X53564285Y-58788000D02*
X53564285Y-58288000D01*
X53564285Y-59338000D02*
X54564285Y-59338000D01*
X53564285Y-59588000D02*
X53564285Y-59088000D01*
X53564285Y-60138000D02*
X54564285Y-60138000D01*
X53564285Y-60388000D02*
X53564285Y-59888000D01*
X53564285Y-60938000D02*
X54564285Y-60938000D01*
X53564285Y-61188000D02*
X53564285Y-60688000D01*
X53564285Y-67988000D02*
X54564285Y-67988000D01*
X53564285Y-68238000D02*
X53564285Y-67738000D01*
X53564285Y-68788000D02*
X54564285Y-68788000D01*
X53564285Y-69038000D02*
X53564285Y-68538000D01*
X53564285Y-69588000D02*
X54564285Y-69588000D01*
X53564285Y-69838000D02*
X53564285Y-69338000D01*
X53564285Y-70388000D02*
X52564285Y-70388000D01*
X53564285Y-70388000D02*
X54564285Y-70388000D01*
X53564285Y-70638000D02*
X53564285Y-70138000D01*
X53564285Y-71188000D02*
X54564285Y-71188000D01*
X53564285Y-71438000D02*
X53564285Y-70938000D01*
X53564285Y-71988000D02*
X54564285Y-71988000D01*
X53564285Y-72238000D02*
X53564285Y-71738000D01*
X53564285Y-72788000D02*
X54564285Y-72788000D01*
X53564285Y-73038000D02*
X53564285Y-72538000D01*
X53564285Y-73838000D02*
X53564285Y-73338000D01*
X53564285Y-74388000D02*
X54564285Y-74388000D01*
X53564285Y-74638000D02*
X53564285Y-74138000D01*
X53564285Y-75188000D02*
X54564285Y-75188000D01*
X53564285Y-75438000D02*
X53564285Y-74938000D01*
X54564285Y-53988000D02*
X52564285Y-53488000D01*
X54564285Y-53988000D02*
X54564285Y-53488000D01*
X54564285Y-53988000D02*
X54564285Y-53488000D01*
X54564285Y-54788000D02*
X52564285Y-54288000D01*
X54564285Y-54788000D02*
X54564285Y-54288000D01*
X54564285Y-54788000D02*
X54564285Y-54288000D01*
X54564285Y-55588000D02*
X52564285Y-55088000D01*
X54564285Y-55588000D02*
X54564285Y-55088000D01*
X54564285Y-55588000D02*
X54564285Y-55088000D01*
X54564285Y-55888000D02*
X52564285Y-55888000D01*
X54564285Y-56138000D02*
X53564285Y-56138000D01*
X54564285Y-56388000D02*
X52564285Y-55888000D01*
X54564285Y-56388000D02*
X54564285Y-55888000D01*
X54564285Y-56388000D02*
X54564285Y-55888000D01*
X54564285Y-57188000D02*
X52564285Y-56688000D01*
X54564285Y-57188000D02*
X54564285Y-56688000D01*
X54564285Y-57188000D02*
X54564285Y-56688000D01*
X54564285Y-57988000D02*
X52564285Y-57488000D01*
X54564285Y-57988000D02*
X54564285Y-57488000D01*
X54564285Y-57988000D02*
X54564285Y-57488000D01*
X54564285Y-58288000D02*
X52564285Y-58288000D01*
X54564285Y-58538000D02*
X53564285Y-58538000D01*
X54564285Y-58788000D02*
X52564285Y-58288000D01*
X54564285Y-58788000D02*
X52564285Y-58788000D01*
X54564285Y-58788000D02*
X52564285Y-58788000D01*
X54564285Y-58788000D02*
X54564285Y-58288000D01*
X54564285Y-58788000D02*
X54564285Y-58288000D01*
X54564285Y-59588000D02*
X52564285Y-59088000D01*
X54564285Y-59588000D02*
X54564285Y-59088000D01*
X54564285Y-59588000D02*
X54564285Y-59088000D01*
X54564285Y-60388000D02*
X52564285Y-59888000D01*
X54564285Y-60388000D02*
X54564285Y-59888000D01*
X54564285Y-60388000D02*
X54564285Y-59888000D01*
X54564285Y-61188000D02*
X52564285Y-60688000D01*
X54564285Y-61188000D02*
X54564285Y-60688000D01*
X54564285Y-61188000D02*
X54564285Y-60688000D01*
X54564285Y-68238000D02*
X52564285Y-67738000D01*
X54564285Y-68238000D02*
X54564285Y-67738000D01*
X54564285Y-68238000D02*
X54564285Y-67738000D01*
X54564285Y-69038000D02*
X52564285Y-68538000D01*
X54564285Y-69038000D02*
X54564285Y-68538000D01*
X54564285Y-69038000D02*
X54564285Y-68538000D01*
X54564285Y-69838000D02*
X52564285Y-69338000D01*
X54564285Y-69838000D02*
X54564285Y-69338000D01*
X54564285Y-69838000D02*
X54564285Y-69338000D01*
X54564285Y-70638000D02*
X52564285Y-70138000D01*
X54564285Y-70638000D02*
X54564285Y-70138000D01*
X54564285Y-70638000D02*
X54564285Y-70138000D01*
X54564285Y-71438000D02*
X52564285Y-70938000D01*
X54564285Y-71438000D02*
X54564285Y-70938000D01*
X54564285Y-71438000D02*
X54564285Y-70938000D01*
X54564285Y-72238000D02*
X52564285Y-71738000D01*
X54564285Y-72238000D02*
X54564285Y-71738000D01*
X54564285Y-72238000D02*
X54564285Y-71738000D01*
X54564285Y-73038000D02*
X52564285Y-72538000D01*
X54564285Y-73038000D02*
X54564285Y-72538000D01*
X54564285Y-73038000D02*
X54564285Y-72538000D01*
X54564285Y-73338000D02*
X52564285Y-73338000D01*
X54564285Y-73588000D02*
X53564285Y-73588000D01*
X54564285Y-73838000D02*
X52564285Y-73338000D01*
X54564285Y-73838000D02*
X54564285Y-73338000D01*
X54564285Y-73838000D02*
X54564285Y-73338000D01*
X54564285Y-74638000D02*
X52564285Y-74138000D01*
X54564285Y-74638000D02*
X52564285Y-74638000D01*
X54564285Y-74638000D02*
X52564285Y-74638000D01*
X54564285Y-74638000D02*
X54564285Y-74138000D01*
X54564285Y-74638000D02*
X54564285Y-74138000D01*
X54564285Y-75438000D02*
X52564285Y-74938000D01*
X54564285Y-75438000D02*
X54564285Y-74938000D01*
X54564285Y-75438000D02*
X54564285Y-74938000D01*
X60764285Y-53088000D02*
X62764285Y-53088000D01*
X60764285Y-53338000D02*
X61764285Y-53338000D01*
X60764285Y-53588000D02*
X60764285Y-53088000D01*
X60764285Y-53588000D02*
X62764285Y-53088000D01*
X60764285Y-53588000D02*
X62764285Y-53588000D01*
X60764285Y-53588000D02*
X62764285Y-53588000D01*
X60764285Y-53888000D02*
X62764285Y-53888000D01*
X60764285Y-54138000D02*
X61764285Y-54138000D01*
X60764285Y-54388000D02*
X60764285Y-53888000D01*
X60764285Y-54388000D02*
X62764285Y-53888000D01*
X60764285Y-54388000D02*
X62764285Y-54388000D01*
X60764285Y-54388000D02*
X62764285Y-54388000D01*
X60764285Y-54688000D02*
X62764285Y-54688000D01*
X60764285Y-54938000D02*
X61764285Y-54938000D01*
X60764285Y-55188000D02*
X60764285Y-54688000D01*
X60764285Y-55188000D02*
X62764285Y-54688000D01*
X60764285Y-55188000D02*
X62764285Y-55188000D01*
X60764285Y-55188000D02*
X62764285Y-55188000D01*
X60764285Y-55488000D02*
X62764285Y-55488000D01*
X60764285Y-55738000D02*
X61764285Y-55738000D01*
X60764285Y-55988000D02*
X60764285Y-55488000D01*
X60764285Y-55988000D02*
X62764285Y-55488000D01*
X60764285Y-55988000D02*
X62764285Y-55988000D01*
X60764285Y-55988000D02*
X62764285Y-55988000D01*
X60764285Y-56288000D02*
X62764285Y-56288000D01*
X60764285Y-56538000D02*
X61764285Y-56538000D01*
X60764285Y-56788000D02*
X60764285Y-56288000D01*
X60764285Y-56788000D02*
X62764285Y-56288000D01*
X60764285Y-56788000D02*
X62764285Y-56788000D01*
X60764285Y-56788000D02*
X62764285Y-56788000D01*
X60764285Y-57088000D02*
X62764285Y-57088000D01*
X60764285Y-57338000D02*
X61764285Y-57338000D01*
X60764285Y-57588000D02*
X60764285Y-57088000D01*
X60764285Y-57588000D02*
X62764285Y-57088000D01*
X60764285Y-57588000D02*
X62764285Y-57588000D01*
X60764285Y-57588000D02*
X62764285Y-57588000D01*
X60764285Y-57888000D02*
X62764285Y-57888000D01*
X60764285Y-58388000D02*
X60764285Y-57888000D01*
X60764285Y-58388000D02*
X62764285Y-57888000D01*
X60764285Y-58688000D02*
X62764285Y-58688000D01*
X60764285Y-58938000D02*
X61764285Y-58938000D01*
X60764285Y-59188000D02*
X60764285Y-58688000D01*
X60764285Y-59188000D02*
X62764285Y-58688000D01*
X60764285Y-59188000D02*
X62764285Y-59188000D01*
X60764285Y-59188000D02*
X62764285Y-59188000D01*
X60764285Y-59488000D02*
X62764285Y-59488000D01*
X60764285Y-59738000D02*
X61764285Y-59738000D01*
X60764285Y-59988000D02*
X60764285Y-59488000D01*
X60764285Y-59988000D02*
X62764285Y-59488000D01*
X60764285Y-59988000D02*
X62764285Y-59988000D01*
X60764285Y-59988000D02*
X62764285Y-59988000D01*
X60764285Y-60288000D02*
X62764285Y-60288000D01*
X60764285Y-60538000D02*
X61764285Y-60538000D01*
X60764285Y-60788000D02*
X60764285Y-60288000D01*
X60764285Y-60788000D02*
X62764285Y-60288000D01*
X60764285Y-60788000D02*
X62764285Y-60788000D01*
X60764285Y-60788000D02*
X62764285Y-60788000D01*
X60764285Y-67338000D02*
X62764285Y-67338000D01*
X60764285Y-67838000D02*
X60764285Y-67338000D01*
X60764285Y-67838000D02*
X62764285Y-67338000D01*
X60764285Y-67838000D02*
X62764285Y-67838000D01*
X60764285Y-67838000D02*
X62764285Y-67838000D01*
X60764285Y-68138000D02*
X62764285Y-68138000D01*
X60764285Y-68388000D02*
X61764285Y-68388000D01*
X60764285Y-68638000D02*
X60764285Y-68138000D01*
X60764285Y-68638000D02*
X62764285Y-68138000D01*
X60764285Y-68638000D02*
X62764285Y-68638000D01*
X60764285Y-68638000D02*
X62764285Y-68638000D01*
X60764285Y-68938000D02*
X62764285Y-68938000D01*
X60764285Y-69188000D02*
X61764285Y-69188000D01*
X60764285Y-69438000D02*
X60764285Y-68938000D01*
X60764285Y-69438000D02*
X62764285Y-68938000D01*
X60764285Y-69438000D02*
X62764285Y-69438000D01*
X60764285Y-69438000D02*
X62764285Y-69438000D01*
X60764285Y-69738000D02*
X62764285Y-69738000D01*
X60764285Y-69988000D02*
X61764285Y-69988000D01*
X60764285Y-70238000D02*
X60764285Y-69738000D01*
X60764285Y-70238000D02*
X62764285Y-69738000D01*
X60764285Y-70238000D02*
X62764285Y-70238000D01*
X60764285Y-70238000D02*
X62764285Y-70238000D01*
X60764285Y-70538000D02*
X62764285Y-70538000D01*
X60764285Y-70788000D02*
X61764285Y-70788000D01*
X60764285Y-71038000D02*
X60764285Y-70538000D01*
X60764285Y-71038000D02*
X62764285Y-70538000D01*
X60764285Y-71038000D02*
X62764285Y-71038000D01*
X60764285Y-71038000D02*
X62764285Y-71038000D01*
X60764285Y-71338000D02*
X62764285Y-71338000D01*
X60764285Y-71588000D02*
X61764285Y-71588000D01*
X60764285Y-71838000D02*
X60764285Y-71338000D01*
X60764285Y-71838000D02*
X62764285Y-71338000D01*
X60764285Y-71838000D02*
X62764285Y-71838000D01*
X60764285Y-71838000D02*
X62764285Y-71838000D01*
X60764285Y-72638000D02*
X60764285Y-72138000D01*
X60764285Y-72638000D02*
X62764285Y-72138000D01*
X60764285Y-72638000D02*
X62764285Y-72638000D01*
X60764285Y-72638000D02*
X62764285Y-72638000D01*
X60764285Y-73438000D02*
X60764285Y-72938000D01*
X60764285Y-73438000D02*
X62764285Y-72938000D01*
X60764285Y-73738000D02*
X62764285Y-73738000D01*
X60764285Y-73988000D02*
X61764285Y-73988000D01*
X60764285Y-74238000D02*
X60764285Y-73738000D01*
X60764285Y-74238000D02*
X62764285Y-73738000D01*
X60764285Y-74238000D02*
X62764285Y-74238000D01*
X60764285Y-74238000D02*
X62764285Y-74238000D01*
X60764285Y-74538000D02*
X62764285Y-74538000D01*
X60764285Y-74788000D02*
X61764285Y-74788000D01*
X60764285Y-75038000D02*
X60764285Y-74538000D01*
X60764285Y-75038000D02*
X62764285Y-74538000D01*
X60764285Y-75038000D02*
X62764285Y-75038000D01*
X60764285Y-75038000D02*
X62764285Y-75038000D01*
X61764285Y-53338000D02*
X62764285Y-53338000D01*
X61764285Y-53588000D02*
X61764285Y-53088000D01*
X61764285Y-54138000D02*
X62764285Y-54138000D01*
X61764285Y-54388000D02*
X61764285Y-53888000D01*
X61764285Y-54938000D02*
X62764285Y-54938000D01*
X61764285Y-55188000D02*
X61764285Y-54688000D01*
X61764285Y-55738000D02*
X62764285Y-55738000D01*
X61764285Y-55988000D02*
X61764285Y-55488000D01*
X61764285Y-56538000D02*
X62764285Y-56538000D01*
X61764285Y-56788000D02*
X61764285Y-56288000D01*
X61764285Y-57338000D02*
X62764285Y-57338000D01*
X61764285Y-57588000D02*
X61764285Y-57088000D01*
X61764285Y-58138000D02*
X60764285Y-58138000D01*
X61764285Y-58138000D02*
X62764285Y-58138000D01*
X61764285Y-58388000D02*
X61764285Y-57888000D01*
X61764285Y-58938000D02*
X62764285Y-58938000D01*
X61764285Y-59188000D02*
X61764285Y-58688000D01*
X61764285Y-59738000D02*
X62764285Y-59738000D01*
X61764285Y-59988000D02*
X61764285Y-59488000D01*
X61764285Y-60538000D02*
X62764285Y-60538000D01*
X61764285Y-60788000D02*
X61764285Y-60288000D01*
X61764285Y-67588000D02*
X60764285Y-67588000D01*
X61764285Y-67588000D02*
X62764285Y-67588000D01*
X61764285Y-67838000D02*
X61764285Y-67338000D01*
X61764285Y-68388000D02*
X62764285Y-68388000D01*
X61764285Y-68638000D02*
X61764285Y-68138000D01*
X61764285Y-69188000D02*
X62764285Y-69188000D01*
X61764285Y-69438000D02*
X61764285Y-68938000D01*
X61764285Y-69988000D02*
X62764285Y-69988000D01*
X61764285Y-70238000D02*
X61764285Y-69738000D01*
X61764285Y-70788000D02*
X62764285Y-70788000D01*
X61764285Y-71038000D02*
X61764285Y-70538000D01*
X61764285Y-71588000D02*
X62764285Y-71588000D01*
X61764285Y-71838000D02*
X61764285Y-71338000D01*
X61764285Y-72388000D02*
X60764285Y-72388000D01*
X61764285Y-72388000D02*
X62764285Y-72388000D01*
X61764285Y-72638000D02*
X61764285Y-72138000D01*
X61764285Y-73188000D02*
X60764285Y-73188000D01*
X61764285Y-73188000D02*
X62764285Y-73188000D01*
X61764285Y-73438000D02*
X61764285Y-72938000D01*
X61764285Y-73988000D02*
X62764285Y-73988000D01*
X61764285Y-74238000D02*
X61764285Y-73738000D01*
X61764285Y-74788000D02*
X62764285Y-74788000D01*
X61764285Y-75038000D02*
X61764285Y-74538000D01*
X62764285Y-53588000D02*
X60764285Y-53088000D01*
X62764285Y-53588000D02*
X62764285Y-53088000D01*
X62764285Y-53588000D02*
X62764285Y-53088000D01*
X62764285Y-54388000D02*
X60764285Y-53888000D01*
X62764285Y-54388000D02*
X62764285Y-53888000D01*
X62764285Y-54388000D02*
X62764285Y-53888000D01*
X62764285Y-55188000D02*
X60764285Y-54688000D01*
X62764285Y-55188000D02*
X62764285Y-54688000D01*
X62764285Y-55188000D02*
X62764285Y-54688000D01*
X62764285Y-55988000D02*
X60764285Y-55488000D01*
X62764285Y-55988000D02*
X62764285Y-55488000D01*
X62764285Y-55988000D02*
X62764285Y-55488000D01*
X62764285Y-56788000D02*
X60764285Y-56288000D01*
X62764285Y-56788000D02*
X62764285Y-56288000D01*
X62764285Y-56788000D02*
X62764285Y-56288000D01*
X62764285Y-57588000D02*
X60764285Y-57088000D01*
X62764285Y-57588000D02*
X62764285Y-57088000D01*
X62764285Y-57588000D02*
X62764285Y-57088000D01*
X62764285Y-58388000D02*
X60764285Y-57888000D01*
X62764285Y-58388000D02*
X60764285Y-58388000D01*
X62764285Y-58388000D02*
X60764285Y-58388000D01*
X62764285Y-58388000D02*
X62764285Y-57888000D01*
X62764285Y-58388000D02*
X62764285Y-57888000D01*
X62764285Y-59188000D02*
X60764285Y-58688000D01*
X62764285Y-59188000D02*
X62764285Y-58688000D01*
X62764285Y-59188000D02*
X62764285Y-58688000D01*
X62764285Y-59988000D02*
X60764285Y-59488000D01*
X62764285Y-59988000D02*
X62764285Y-59488000D01*
X62764285Y-59988000D02*
X62764285Y-59488000D01*
X62764285Y-60788000D02*
X60764285Y-60288000D01*
X62764285Y-60788000D02*
X62764285Y-60288000D01*
X62764285Y-60788000D02*
X62764285Y-60288000D01*
X62764285Y-67838000D02*
X60764285Y-67338000D01*
X62764285Y-67838000D02*
X62764285Y-67338000D01*
X62764285Y-67838000D02*
X62764285Y-67338000D01*
X62764285Y-68638000D02*
X60764285Y-68138000D01*
X62764285Y-68638000D02*
X62764285Y-68138000D01*
X62764285Y-68638000D02*
X62764285Y-68138000D01*
X62764285Y-69438000D02*
X60764285Y-68938000D01*
X62764285Y-69438000D02*
X62764285Y-68938000D01*
X62764285Y-69438000D02*
X62764285Y-68938000D01*
X62764285Y-70238000D02*
X60764285Y-69738000D01*
X62764285Y-70238000D02*
X62764285Y-69738000D01*
X62764285Y-70238000D02*
X62764285Y-69738000D01*
X62764285Y-71038000D02*
X60764285Y-70538000D01*
X62764285Y-71038000D02*
X62764285Y-70538000D01*
X62764285Y-71038000D02*
X62764285Y-70538000D01*
X62764285Y-71838000D02*
X60764285Y-71338000D01*
X62764285Y-71838000D02*
X62764285Y-71338000D01*
X62764285Y-71838000D02*
X62764285Y-71338000D01*
X62764285Y-72138000D02*
X60764285Y-72138000D01*
X62764285Y-72638000D02*
X60764285Y-72138000D01*
X62764285Y-72638000D02*
X62764285Y-72138000D01*
X62764285Y-72638000D02*
X62764285Y-72138000D01*
X62764285Y-72938000D02*
X60764285Y-72938000D01*
X62764285Y-73438000D02*
X60764285Y-72938000D01*
X62764285Y-73438000D02*
X60764285Y-73438000D01*
X62764285Y-73438000D02*
X60764285Y-73438000D01*
X62764285Y-73438000D02*
X62764285Y-72938000D01*
X62764285Y-73438000D02*
X62764285Y-72938000D01*
X62764285Y-74238000D02*
X60764285Y-73738000D01*
X62764285Y-74238000D02*
X62764285Y-73738000D01*
X62764285Y-74238000D02*
X62764285Y-73738000D01*
X62764285Y-75038000D02*
X60764285Y-74538000D01*
X62764285Y-75038000D02*
X62764285Y-74538000D01*
X62764285Y-75038000D02*
X62764285Y-74538000D01*
D10*
X65014285Y-79808000D02*
X15014285Y-79808000D01*
X65014285Y-79808000D02*
X65014285Y-48708000D01*
%TO.C,U10*%
X58414285Y-113308000D02*
X62714285Y-113308000D01*
X58414285Y-118008000D02*
X58414285Y-113308000D01*
X58414285Y-118008000D02*
X62714285Y-118008000D01*
X62714285Y-118008000D02*
X62714285Y-113308000D01*
%TO.C,U5*%
X59314285Y-101570500D02*
X63614285Y-101570500D01*
X59314285Y-106270500D02*
X59314285Y-101570500D01*
X59314285Y-106270500D02*
X63614285Y-106270500D01*
X63614285Y-106270500D02*
X63614285Y-101570500D01*
%TO.C,U6*%
X42714285Y-113508000D02*
X47014285Y-113508000D01*
X42714285Y-118208000D02*
X42714285Y-113508000D01*
X42714285Y-118208000D02*
X47014285Y-118208000D01*
X47014285Y-118208000D02*
X47014285Y-113508000D01*
%TO.C,J9*%
X15014285Y-48708000D02*
X15014285Y-79808000D01*
X15014285Y-79808000D02*
X65014285Y-79808000D01*
D11*
X52564285Y-53078000D02*
X52564285Y-53578000D01*
X52564285Y-53078000D02*
X54564285Y-53078000D01*
X52564285Y-53078000D02*
X54564285Y-53078000D01*
X52564285Y-53078000D02*
X54564285Y-53578000D01*
X52564285Y-53328000D02*
X53564285Y-53328000D01*
X52564285Y-53578000D02*
X54564285Y-53578000D01*
X52564285Y-53878000D02*
X52564285Y-54378000D01*
X52564285Y-53878000D02*
X54564285Y-54378000D01*
X52564285Y-54128000D02*
X53564285Y-54128000D01*
X52564285Y-54378000D02*
X54564285Y-54378000D01*
X52564285Y-54678000D02*
X52564285Y-55178000D01*
X52564285Y-54678000D02*
X54564285Y-54678000D01*
X52564285Y-54678000D02*
X54564285Y-54678000D01*
X52564285Y-54678000D02*
X54564285Y-55178000D01*
X52564285Y-54928000D02*
X53564285Y-54928000D01*
X52564285Y-55478000D02*
X52564285Y-55978000D01*
X52564285Y-55478000D02*
X54564285Y-55478000D01*
X52564285Y-55478000D02*
X54564285Y-55478000D01*
X52564285Y-55478000D02*
X54564285Y-55978000D01*
X52564285Y-55728000D02*
X53564285Y-55728000D01*
X52564285Y-55978000D02*
X54564285Y-55978000D01*
X52564285Y-56278000D02*
X52564285Y-56778000D01*
X52564285Y-56278000D02*
X54564285Y-56278000D01*
X52564285Y-56278000D02*
X54564285Y-56278000D01*
X52564285Y-56278000D02*
X54564285Y-56778000D01*
X52564285Y-56528000D02*
X53564285Y-56528000D01*
X52564285Y-56778000D02*
X54564285Y-56778000D01*
X52564285Y-57078000D02*
X52564285Y-57578000D01*
X52564285Y-57078000D02*
X54564285Y-57078000D01*
X52564285Y-57078000D02*
X54564285Y-57078000D01*
X52564285Y-57078000D02*
X54564285Y-57578000D01*
X52564285Y-57328000D02*
X53564285Y-57328000D01*
X52564285Y-57578000D02*
X54564285Y-57578000D01*
X52564285Y-57878000D02*
X52564285Y-58378000D01*
X52564285Y-57878000D02*
X54564285Y-57878000D01*
X52564285Y-57878000D02*
X54564285Y-57878000D01*
X52564285Y-57878000D02*
X54564285Y-58378000D01*
X52564285Y-58378000D02*
X54564285Y-58378000D01*
X52564285Y-58678000D02*
X52564285Y-59178000D01*
X52564285Y-58678000D02*
X54564285Y-58678000D01*
X52564285Y-58678000D02*
X54564285Y-58678000D01*
X52564285Y-58678000D02*
X54564285Y-59178000D01*
X52564285Y-58928000D02*
X53564285Y-58928000D01*
X52564285Y-59178000D02*
X54564285Y-59178000D01*
X52564285Y-59478000D02*
X52564285Y-59978000D01*
X52564285Y-59478000D02*
X54564285Y-59478000D01*
X52564285Y-59478000D02*
X54564285Y-59478000D01*
X52564285Y-59478000D02*
X54564285Y-59978000D01*
X52564285Y-59728000D02*
X53564285Y-59728000D01*
X52564285Y-59978000D02*
X54564285Y-59978000D01*
X52564285Y-60278000D02*
X52564285Y-60778000D01*
X52564285Y-60278000D02*
X54564285Y-60278000D01*
X52564285Y-60278000D02*
X54564285Y-60278000D01*
X52564285Y-60278000D02*
X54564285Y-60778000D01*
X52564285Y-60528000D02*
X53564285Y-60528000D01*
X52564285Y-60778000D02*
X54564285Y-60778000D01*
X52564285Y-67328000D02*
X52564285Y-67828000D01*
X52564285Y-67328000D02*
X54564285Y-67328000D01*
X52564285Y-67328000D02*
X54564285Y-67328000D01*
X52564285Y-67328000D02*
X54564285Y-67828000D01*
X52564285Y-67578000D02*
X53564285Y-67578000D01*
X52564285Y-67828000D02*
X54564285Y-67828000D01*
X52564285Y-68128000D02*
X52564285Y-68628000D01*
X52564285Y-68128000D02*
X54564285Y-68128000D01*
X52564285Y-68128000D02*
X54564285Y-68128000D01*
X52564285Y-68128000D02*
X54564285Y-68628000D01*
X52564285Y-68378000D02*
X53564285Y-68378000D01*
X52564285Y-68628000D02*
X54564285Y-68628000D01*
X52564285Y-68928000D02*
X52564285Y-69428000D01*
X52564285Y-68928000D02*
X54564285Y-68928000D01*
X52564285Y-68928000D02*
X54564285Y-68928000D01*
X52564285Y-68928000D02*
X54564285Y-69428000D01*
X52564285Y-69178000D02*
X53564285Y-69178000D01*
X52564285Y-69428000D02*
X54564285Y-69428000D01*
X52564285Y-69728000D02*
X52564285Y-70228000D01*
X52564285Y-69728000D02*
X54564285Y-70228000D01*
X52564285Y-69978000D02*
X53564285Y-69978000D01*
X52564285Y-70528000D02*
X52564285Y-71028000D01*
X52564285Y-70528000D02*
X54564285Y-70528000D01*
X52564285Y-70528000D02*
X54564285Y-70528000D01*
X52564285Y-70528000D02*
X54564285Y-71028000D01*
X52564285Y-70778000D02*
X53564285Y-70778000D01*
X52564285Y-71028000D02*
X54564285Y-71028000D01*
X52564285Y-71328000D02*
X52564285Y-71828000D01*
X52564285Y-71328000D02*
X54564285Y-71328000D01*
X52564285Y-71328000D02*
X54564285Y-71328000D01*
X52564285Y-71328000D02*
X54564285Y-71828000D01*
X52564285Y-71578000D02*
X53564285Y-71578000D01*
X52564285Y-71828000D02*
X54564285Y-71828000D01*
X52564285Y-72128000D02*
X52564285Y-72628000D01*
X52564285Y-72128000D02*
X54564285Y-72128000D01*
X52564285Y-72128000D02*
X54564285Y-72128000D01*
X52564285Y-72128000D02*
X54564285Y-72628000D01*
X52564285Y-72378000D02*
X53564285Y-72378000D01*
X52564285Y-72928000D02*
X52564285Y-73428000D01*
X52564285Y-72928000D02*
X54564285Y-72928000D01*
X52564285Y-72928000D02*
X54564285Y-72928000D01*
X52564285Y-72928000D02*
X54564285Y-73428000D01*
X52564285Y-73428000D02*
X54564285Y-73428000D01*
X52564285Y-73728000D02*
X52564285Y-74228000D01*
X52564285Y-73728000D02*
X54564285Y-73728000D01*
X52564285Y-73728000D02*
X54564285Y-73728000D01*
X52564285Y-73728000D02*
X54564285Y-74228000D01*
X52564285Y-73978000D02*
X53564285Y-73978000D01*
X52564285Y-74228000D02*
X54564285Y-74228000D01*
X52564285Y-74528000D02*
X52564285Y-75028000D01*
X52564285Y-74528000D02*
X54564285Y-74528000D01*
X52564285Y-74528000D02*
X54564285Y-74528000D01*
X52564285Y-74528000D02*
X54564285Y-75028000D01*
X52564285Y-74778000D02*
X53564285Y-74778000D01*
X52564285Y-75028000D02*
X54564285Y-75028000D01*
X53564285Y-53078000D02*
X53564285Y-53578000D01*
X53564285Y-53328000D02*
X54564285Y-53328000D01*
X53564285Y-53878000D02*
X53564285Y-54378000D01*
X53564285Y-54128000D02*
X54564285Y-54128000D01*
X53564285Y-54678000D02*
X53564285Y-55178000D01*
X53564285Y-55478000D02*
X53564285Y-55978000D01*
X53564285Y-55728000D02*
X54564285Y-55728000D01*
X53564285Y-56278000D02*
X53564285Y-56778000D01*
X53564285Y-56528000D02*
X54564285Y-56528000D01*
X53564285Y-57078000D02*
X53564285Y-57578000D01*
X53564285Y-57328000D02*
X54564285Y-57328000D01*
X53564285Y-57878000D02*
X53564285Y-58378000D01*
X53564285Y-58128000D02*
X52564285Y-58128000D01*
X53564285Y-58128000D02*
X54564285Y-58128000D01*
X53564285Y-58678000D02*
X53564285Y-59178000D01*
X53564285Y-58928000D02*
X54564285Y-58928000D01*
X53564285Y-59478000D02*
X53564285Y-59978000D01*
X53564285Y-59728000D02*
X54564285Y-59728000D01*
X53564285Y-60278000D02*
X53564285Y-60778000D01*
X53564285Y-60528000D02*
X54564285Y-60528000D01*
X53564285Y-67328000D02*
X53564285Y-67828000D01*
X53564285Y-67578000D02*
X54564285Y-67578000D01*
X53564285Y-68128000D02*
X53564285Y-68628000D01*
X53564285Y-68378000D02*
X54564285Y-68378000D01*
X53564285Y-68928000D02*
X53564285Y-69428000D01*
X53564285Y-69178000D02*
X54564285Y-69178000D01*
X53564285Y-69728000D02*
X53564285Y-70228000D01*
X53564285Y-70528000D02*
X53564285Y-71028000D01*
X53564285Y-70778000D02*
X54564285Y-70778000D01*
X53564285Y-71328000D02*
X53564285Y-71828000D01*
X53564285Y-71578000D02*
X54564285Y-71578000D01*
X53564285Y-72128000D02*
X53564285Y-72628000D01*
X53564285Y-72928000D02*
X53564285Y-73428000D01*
X53564285Y-73178000D02*
X52564285Y-73178000D01*
X53564285Y-73178000D02*
X54564285Y-73178000D01*
X53564285Y-73728000D02*
X53564285Y-74228000D01*
X53564285Y-73978000D02*
X54564285Y-73978000D01*
X53564285Y-74528000D02*
X53564285Y-75028000D01*
X53564285Y-74778000D02*
X54564285Y-74778000D01*
X54564285Y-53078000D02*
X52564285Y-53578000D01*
X54564285Y-53078000D02*
X54564285Y-53578000D01*
X54564285Y-53078000D02*
X54564285Y-53578000D01*
X54564285Y-53878000D02*
X52564285Y-53878000D01*
X54564285Y-53878000D02*
X52564285Y-53878000D01*
X54564285Y-53878000D02*
X52564285Y-54378000D01*
X54564285Y-53878000D02*
X54564285Y-54378000D01*
X54564285Y-53878000D02*
X54564285Y-54378000D01*
X54564285Y-54678000D02*
X52564285Y-55178000D01*
X54564285Y-54678000D02*
X54564285Y-55178000D01*
X54564285Y-54678000D02*
X54564285Y-55178000D01*
X54564285Y-54928000D02*
X53564285Y-54928000D01*
X54564285Y-55178000D02*
X52564285Y-55178000D01*
X54564285Y-55478000D02*
X52564285Y-55978000D01*
X54564285Y-55478000D02*
X54564285Y-55978000D01*
X54564285Y-55478000D02*
X54564285Y-55978000D01*
X54564285Y-56278000D02*
X52564285Y-56778000D01*
X54564285Y-56278000D02*
X54564285Y-56778000D01*
X54564285Y-56278000D02*
X54564285Y-56778000D01*
X54564285Y-57078000D02*
X52564285Y-57578000D01*
X54564285Y-57078000D02*
X54564285Y-57578000D01*
X54564285Y-57078000D02*
X54564285Y-57578000D01*
X54564285Y-57878000D02*
X52564285Y-58378000D01*
X54564285Y-57878000D02*
X54564285Y-58378000D01*
X54564285Y-57878000D02*
X54564285Y-58378000D01*
X54564285Y-58678000D02*
X52564285Y-59178000D01*
X54564285Y-58678000D02*
X54564285Y-59178000D01*
X54564285Y-58678000D02*
X54564285Y-59178000D01*
X54564285Y-59478000D02*
X52564285Y-59978000D01*
X54564285Y-59478000D02*
X54564285Y-59978000D01*
X54564285Y-59478000D02*
X54564285Y-59978000D01*
X54564285Y-60278000D02*
X52564285Y-60778000D01*
X54564285Y-60278000D02*
X54564285Y-60778000D01*
X54564285Y-60278000D02*
X54564285Y-60778000D01*
X54564285Y-67328000D02*
X52564285Y-67828000D01*
X54564285Y-67328000D02*
X54564285Y-67828000D01*
X54564285Y-67328000D02*
X54564285Y-67828000D01*
X54564285Y-68128000D02*
X52564285Y-68628000D01*
X54564285Y-68128000D02*
X54564285Y-68628000D01*
X54564285Y-68128000D02*
X54564285Y-68628000D01*
X54564285Y-68928000D02*
X52564285Y-69428000D01*
X54564285Y-68928000D02*
X54564285Y-69428000D01*
X54564285Y-68928000D02*
X54564285Y-69428000D01*
X54564285Y-69728000D02*
X52564285Y-69728000D01*
X54564285Y-69728000D02*
X52564285Y-69728000D01*
X54564285Y-69728000D02*
X52564285Y-70228000D01*
X54564285Y-69728000D02*
X54564285Y-70228000D01*
X54564285Y-69728000D02*
X54564285Y-70228000D01*
X54564285Y-69978000D02*
X53564285Y-69978000D01*
X54564285Y-70228000D02*
X52564285Y-70228000D01*
X54564285Y-70528000D02*
X52564285Y-71028000D01*
X54564285Y-70528000D02*
X54564285Y-71028000D01*
X54564285Y-70528000D02*
X54564285Y-71028000D01*
X54564285Y-71328000D02*
X52564285Y-71828000D01*
X54564285Y-71328000D02*
X54564285Y-71828000D01*
X54564285Y-71328000D02*
X54564285Y-71828000D01*
X54564285Y-72128000D02*
X52564285Y-72628000D01*
X54564285Y-72128000D02*
X54564285Y-72628000D01*
X54564285Y-72128000D02*
X54564285Y-72628000D01*
X54564285Y-72378000D02*
X53564285Y-72378000D01*
X54564285Y-72628000D02*
X52564285Y-72628000D01*
X54564285Y-72928000D02*
X52564285Y-73428000D01*
X54564285Y-72928000D02*
X54564285Y-73428000D01*
X54564285Y-72928000D02*
X54564285Y-73428000D01*
X54564285Y-73728000D02*
X52564285Y-74228000D01*
X54564285Y-73728000D02*
X54564285Y-74228000D01*
X54564285Y-73728000D02*
X54564285Y-74228000D01*
X54564285Y-74528000D02*
X52564285Y-75028000D01*
X54564285Y-74528000D02*
X54564285Y-75028000D01*
X54564285Y-74528000D02*
X54564285Y-75028000D01*
X60764285Y-53478000D02*
X60764285Y-53978000D01*
X60764285Y-53478000D02*
X62764285Y-53478000D01*
X60764285Y-53478000D02*
X62764285Y-53478000D01*
X60764285Y-53478000D02*
X62764285Y-53978000D01*
X60764285Y-53728000D02*
X61764285Y-53728000D01*
X60764285Y-53978000D02*
X62764285Y-53978000D01*
X60764285Y-54278000D02*
X60764285Y-54778000D01*
X60764285Y-54278000D02*
X62764285Y-54278000D01*
X60764285Y-54278000D02*
X62764285Y-54278000D01*
X60764285Y-54278000D02*
X62764285Y-54778000D01*
X60764285Y-54528000D02*
X61764285Y-54528000D01*
X60764285Y-54778000D02*
X62764285Y-54778000D01*
X60764285Y-55078000D02*
X60764285Y-55578000D01*
X60764285Y-55078000D02*
X62764285Y-55578000D01*
X60764285Y-55878000D02*
X60764285Y-56378000D01*
X60764285Y-55878000D02*
X62764285Y-55878000D01*
X60764285Y-55878000D02*
X62764285Y-55878000D01*
X60764285Y-55878000D02*
X62764285Y-56378000D01*
X60764285Y-56678000D02*
X60764285Y-57178000D01*
X60764285Y-56678000D02*
X62764285Y-56678000D01*
X60764285Y-56678000D02*
X62764285Y-56678000D01*
X60764285Y-56678000D02*
X62764285Y-57178000D01*
X60764285Y-56928000D02*
X61764285Y-56928000D01*
X60764285Y-57178000D02*
X62764285Y-57178000D01*
X60764285Y-57478000D02*
X60764285Y-57978000D01*
X60764285Y-57478000D02*
X62764285Y-57478000D01*
X60764285Y-57478000D02*
X62764285Y-57478000D01*
X60764285Y-57478000D02*
X62764285Y-57978000D01*
X60764285Y-57728000D02*
X61764285Y-57728000D01*
X60764285Y-57978000D02*
X62764285Y-57978000D01*
X60764285Y-58278000D02*
X60764285Y-58778000D01*
X60764285Y-58278000D02*
X62764285Y-58278000D01*
X60764285Y-58278000D02*
X62764285Y-58278000D01*
X60764285Y-58278000D02*
X62764285Y-58778000D01*
X60764285Y-58528000D02*
X61764285Y-58528000D01*
X60764285Y-58778000D02*
X62764285Y-58778000D01*
X60764285Y-59078000D02*
X60764285Y-59578000D01*
X60764285Y-59078000D02*
X62764285Y-59078000D01*
X60764285Y-59078000D02*
X62764285Y-59078000D01*
X60764285Y-59078000D02*
X62764285Y-59578000D01*
X60764285Y-59328000D02*
X61764285Y-59328000D01*
X60764285Y-59578000D02*
X62764285Y-59578000D01*
X60764285Y-59878000D02*
X60764285Y-60378000D01*
X60764285Y-59878000D02*
X62764285Y-59878000D01*
X60764285Y-59878000D02*
X62764285Y-59878000D01*
X60764285Y-59878000D02*
X62764285Y-60378000D01*
X60764285Y-60128000D02*
X61764285Y-60128000D01*
X60764285Y-60378000D02*
X62764285Y-60378000D01*
X60764285Y-60678000D02*
X60764285Y-61178000D01*
X60764285Y-60678000D02*
X62764285Y-60678000D01*
X60764285Y-60678000D02*
X62764285Y-60678000D01*
X60764285Y-60678000D02*
X62764285Y-61178000D01*
X60764285Y-61178000D02*
X62764285Y-61178000D01*
X60764285Y-67728000D02*
X60764285Y-68228000D01*
X60764285Y-67728000D02*
X62764285Y-67728000D01*
X60764285Y-67728000D02*
X62764285Y-67728000D01*
X60764285Y-67728000D02*
X62764285Y-68228000D01*
X60764285Y-67978000D02*
X61764285Y-67978000D01*
X60764285Y-68228000D02*
X62764285Y-68228000D01*
X60764285Y-68528000D02*
X60764285Y-69028000D01*
X60764285Y-68528000D02*
X62764285Y-68528000D01*
X60764285Y-68528000D02*
X62764285Y-68528000D01*
X60764285Y-68528000D02*
X62764285Y-69028000D01*
X60764285Y-68778000D02*
X61764285Y-68778000D01*
X60764285Y-69028000D02*
X62764285Y-69028000D01*
X60764285Y-69328000D02*
X60764285Y-69828000D01*
X60764285Y-69328000D02*
X62764285Y-69328000D01*
X60764285Y-69328000D02*
X62764285Y-69328000D01*
X60764285Y-69328000D02*
X62764285Y-69828000D01*
X60764285Y-69578000D02*
X61764285Y-69578000D01*
X60764285Y-69828000D02*
X62764285Y-69828000D01*
X60764285Y-70128000D02*
X60764285Y-70628000D01*
X60764285Y-70128000D02*
X62764285Y-70628000D01*
X60764285Y-70628000D02*
X62764285Y-70628000D01*
X60764285Y-70928000D02*
X60764285Y-71428000D01*
X60764285Y-70928000D02*
X62764285Y-70928000D01*
X60764285Y-70928000D02*
X62764285Y-70928000D01*
X60764285Y-70928000D02*
X62764285Y-71428000D01*
X60764285Y-71178000D02*
X61764285Y-71178000D01*
X60764285Y-71428000D02*
X62764285Y-71428000D01*
X60764285Y-71728000D02*
X60764285Y-72228000D01*
X60764285Y-71728000D02*
X62764285Y-71728000D01*
X60764285Y-71728000D02*
X62764285Y-71728000D01*
X60764285Y-71728000D02*
X62764285Y-72228000D01*
X60764285Y-71978000D02*
X61764285Y-71978000D01*
X60764285Y-72228000D02*
X62764285Y-72228000D01*
X60764285Y-72528000D02*
X60764285Y-73028000D01*
X60764285Y-72528000D02*
X62764285Y-72528000D01*
X60764285Y-72528000D02*
X62764285Y-72528000D01*
X60764285Y-72528000D02*
X62764285Y-73028000D01*
X60764285Y-72778000D02*
X61764285Y-72778000D01*
X60764285Y-73028000D02*
X62764285Y-73028000D01*
X60764285Y-73328000D02*
X60764285Y-73828000D01*
X60764285Y-73328000D02*
X62764285Y-73328000D01*
X60764285Y-73328000D02*
X62764285Y-73328000D01*
X60764285Y-73328000D02*
X62764285Y-73828000D01*
X60764285Y-73578000D02*
X61764285Y-73578000D01*
X60764285Y-73828000D02*
X62764285Y-73828000D01*
X60764285Y-74128000D02*
X60764285Y-74628000D01*
X60764285Y-74128000D02*
X62764285Y-74128000D01*
X60764285Y-74128000D02*
X62764285Y-74128000D01*
X60764285Y-74128000D02*
X62764285Y-74628000D01*
X60764285Y-74378000D02*
X61764285Y-74378000D01*
X60764285Y-74628000D02*
X62764285Y-74628000D01*
X60764285Y-74928000D02*
X60764285Y-75428000D01*
X60764285Y-74928000D02*
X62764285Y-74928000D01*
X60764285Y-74928000D02*
X62764285Y-74928000D01*
X60764285Y-74928000D02*
X62764285Y-75428000D01*
X60764285Y-75178000D02*
X61764285Y-75178000D01*
X60764285Y-75428000D02*
X62764285Y-75428000D01*
X61764285Y-53478000D02*
X61764285Y-53978000D01*
X61764285Y-53728000D02*
X62764285Y-53728000D01*
X61764285Y-54278000D02*
X61764285Y-54778000D01*
X61764285Y-54528000D02*
X62764285Y-54528000D01*
X61764285Y-55078000D02*
X61764285Y-55578000D01*
X61764285Y-55328000D02*
X60764285Y-55328000D01*
X61764285Y-55328000D02*
X62764285Y-55328000D01*
X61764285Y-55878000D02*
X61764285Y-56378000D01*
X61764285Y-56128000D02*
X60764285Y-56128000D01*
X61764285Y-56128000D02*
X62764285Y-56128000D01*
X61764285Y-56678000D02*
X61764285Y-57178000D01*
X61764285Y-56928000D02*
X62764285Y-56928000D01*
X61764285Y-57478000D02*
X61764285Y-57978000D01*
X61764285Y-57728000D02*
X62764285Y-57728000D01*
X61764285Y-58278000D02*
X61764285Y-58778000D01*
X61764285Y-58528000D02*
X62764285Y-58528000D01*
X61764285Y-59078000D02*
X61764285Y-59578000D01*
X61764285Y-59328000D02*
X62764285Y-59328000D01*
X61764285Y-59878000D02*
X61764285Y-60378000D01*
X61764285Y-60128000D02*
X62764285Y-60128000D01*
X61764285Y-60678000D02*
X61764285Y-61178000D01*
X61764285Y-60928000D02*
X60764285Y-60928000D01*
X61764285Y-60928000D02*
X62764285Y-60928000D01*
X61764285Y-67728000D02*
X61764285Y-68228000D01*
X61764285Y-67978000D02*
X62764285Y-67978000D01*
X61764285Y-68528000D02*
X61764285Y-69028000D01*
X61764285Y-68778000D02*
X62764285Y-68778000D01*
X61764285Y-69328000D02*
X61764285Y-69828000D01*
X61764285Y-69578000D02*
X62764285Y-69578000D01*
X61764285Y-70128000D02*
X61764285Y-70628000D01*
X61764285Y-70378000D02*
X60764285Y-70378000D01*
X61764285Y-70378000D02*
X62764285Y-70378000D01*
X61764285Y-70928000D02*
X61764285Y-71428000D01*
X61764285Y-71178000D02*
X62764285Y-71178000D01*
X61764285Y-71728000D02*
X61764285Y-72228000D01*
X61764285Y-71978000D02*
X62764285Y-71978000D01*
X61764285Y-72528000D02*
X61764285Y-73028000D01*
X61764285Y-72778000D02*
X62764285Y-72778000D01*
X61764285Y-73328000D02*
X61764285Y-73828000D01*
X61764285Y-73578000D02*
X62764285Y-73578000D01*
X61764285Y-74128000D02*
X61764285Y-74628000D01*
X61764285Y-74378000D02*
X62764285Y-74378000D01*
X61764285Y-74928000D02*
X61764285Y-75428000D01*
X61764285Y-75178000D02*
X62764285Y-75178000D01*
X62764285Y-53478000D02*
X60764285Y-53978000D01*
X62764285Y-53478000D02*
X62764285Y-53978000D01*
X62764285Y-53478000D02*
X62764285Y-53978000D01*
X62764285Y-54278000D02*
X60764285Y-54778000D01*
X62764285Y-54278000D02*
X62764285Y-54778000D01*
X62764285Y-54278000D02*
X62764285Y-54778000D01*
X62764285Y-55078000D02*
X60764285Y-55078000D01*
X62764285Y-55078000D02*
X60764285Y-55078000D01*
X62764285Y-55078000D02*
X60764285Y-55578000D01*
X62764285Y-55078000D02*
X62764285Y-55578000D01*
X62764285Y-55078000D02*
X62764285Y-55578000D01*
X62764285Y-55578000D02*
X60764285Y-55578000D01*
X62764285Y-55878000D02*
X60764285Y-56378000D01*
X62764285Y-55878000D02*
X62764285Y-56378000D01*
X62764285Y-55878000D02*
X62764285Y-56378000D01*
X62764285Y-56378000D02*
X60764285Y-56378000D01*
X62764285Y-56678000D02*
X60764285Y-57178000D01*
X62764285Y-56678000D02*
X62764285Y-57178000D01*
X62764285Y-56678000D02*
X62764285Y-57178000D01*
X62764285Y-57478000D02*
X60764285Y-57978000D01*
X62764285Y-57478000D02*
X62764285Y-57978000D01*
X62764285Y-57478000D02*
X62764285Y-57978000D01*
X62764285Y-58278000D02*
X60764285Y-58778000D01*
X62764285Y-58278000D02*
X62764285Y-58778000D01*
X62764285Y-58278000D02*
X62764285Y-58778000D01*
X62764285Y-59078000D02*
X60764285Y-59578000D01*
X62764285Y-59078000D02*
X62764285Y-59578000D01*
X62764285Y-59078000D02*
X62764285Y-59578000D01*
X62764285Y-59878000D02*
X60764285Y-60378000D01*
X62764285Y-59878000D02*
X62764285Y-60378000D01*
X62764285Y-59878000D02*
X62764285Y-60378000D01*
X62764285Y-60678000D02*
X60764285Y-61178000D01*
X62764285Y-60678000D02*
X62764285Y-61178000D01*
X62764285Y-60678000D02*
X62764285Y-61178000D01*
X62764285Y-67728000D02*
X60764285Y-68228000D01*
X62764285Y-67728000D02*
X62764285Y-68228000D01*
X62764285Y-67728000D02*
X62764285Y-68228000D01*
X62764285Y-68528000D02*
X60764285Y-69028000D01*
X62764285Y-68528000D02*
X62764285Y-69028000D01*
X62764285Y-68528000D02*
X62764285Y-69028000D01*
X62764285Y-69328000D02*
X60764285Y-69828000D01*
X62764285Y-69328000D02*
X62764285Y-69828000D01*
X62764285Y-69328000D02*
X62764285Y-69828000D01*
X62764285Y-70128000D02*
X60764285Y-70128000D01*
X62764285Y-70128000D02*
X60764285Y-70128000D01*
X62764285Y-70128000D02*
X60764285Y-70628000D01*
X62764285Y-70128000D02*
X62764285Y-70628000D01*
X62764285Y-70128000D02*
X62764285Y-70628000D01*
X62764285Y-70928000D02*
X60764285Y-71428000D01*
X62764285Y-70928000D02*
X62764285Y-71428000D01*
X62764285Y-70928000D02*
X62764285Y-71428000D01*
X62764285Y-71728000D02*
X60764285Y-72228000D01*
X62764285Y-71728000D02*
X62764285Y-72228000D01*
X62764285Y-71728000D02*
X62764285Y-72228000D01*
X62764285Y-72528000D02*
X60764285Y-73028000D01*
X62764285Y-72528000D02*
X62764285Y-73028000D01*
X62764285Y-72528000D02*
X62764285Y-73028000D01*
X62764285Y-73328000D02*
X60764285Y-73828000D01*
X62764285Y-73328000D02*
X62764285Y-73828000D01*
X62764285Y-73328000D02*
X62764285Y-73828000D01*
X62764285Y-74128000D02*
X60764285Y-74628000D01*
X62764285Y-74128000D02*
X62764285Y-74628000D01*
X62764285Y-74128000D02*
X62764285Y-74628000D01*
X62764285Y-74928000D02*
X60764285Y-75428000D01*
X62764285Y-74928000D02*
X62764285Y-75428000D01*
X62764285Y-74928000D02*
X62764285Y-75428000D01*
D10*
X65014285Y-48708000D02*
X15014285Y-48708000D01*
X65014285Y-48708000D02*
X65014285Y-79808000D01*
%TD*%
M02*
