%TF.GenerationSoftware,KiCad,Pcbnew,9.0.0*%
%TF.CreationDate,2025-07-03T18:11:10+02:00*%
%TF.ProjectId,Obsidian,4f627369-6469-4616-9e2e-6b696361645f,rev?*%
%TF.SameCoordinates,Original*%
%TF.FileFunction,Other,Comment*%
%FSLAX46Y46*%
G04 Gerber Fmt 4.6, Leading zero omitted, Abs format (unit mm)*
G04 Created by KiCad (PCBNEW 9.0.0) date 2025-07-03 18:11:10*
%MOMM*%
%LPD*%
G01*
G04 APERTURE LIST*
%ADD10C,0.100000*%
%ADD11C,0.001000*%
%ADD12C,0.050000*%
G04 APERTURE END LIST*
D10*
%TO.C,Y6*%
X81064285Y-63458000D02*
X81564285Y-63458000D01*
X81064285Y-64558000D02*
X81564285Y-64558000D01*
X81114285Y-63058000D02*
X81114285Y-63858000D01*
X81114285Y-63058000D02*
X82014285Y-63058000D01*
X81114285Y-63858000D02*
X82014285Y-63858000D01*
X81114285Y-64158000D02*
X81114285Y-64958000D01*
X81114285Y-64158000D02*
X82014285Y-64158000D01*
X81114285Y-64958000D02*
X82014285Y-64958000D01*
X81564285Y-62958000D02*
X81564285Y-63458000D01*
X81564285Y-63458000D02*
X81564285Y-63958000D01*
X81564285Y-63458000D02*
X82064285Y-63458000D01*
X81564285Y-64058000D02*
X81564285Y-64558000D01*
X81564285Y-64558000D02*
X81564285Y-65058000D01*
X81564285Y-64558000D02*
X82064285Y-64558000D01*
X81764285Y-64008000D02*
X82264285Y-64008000D01*
X82014285Y-63058000D02*
X82014285Y-63858000D01*
X82014285Y-64158000D02*
X82014285Y-64958000D01*
X82264285Y-63508000D02*
X82264285Y-64008000D01*
X82264285Y-64008000D02*
X82264285Y-64508000D01*
X82264285Y-64008000D02*
X82764285Y-64008000D01*
X82464285Y-63458000D02*
X82964285Y-63458000D01*
X82464285Y-64558000D02*
X82964285Y-64558000D01*
X82514285Y-63058000D02*
X82514285Y-63858000D01*
X82514285Y-63058000D02*
X83414285Y-63058000D01*
X82514285Y-63858000D02*
X83414285Y-63858000D01*
X82514285Y-64158000D02*
X82514285Y-64958000D01*
X82514285Y-64158000D02*
X83414285Y-64158000D01*
X82514285Y-64958000D02*
X83414285Y-64958000D01*
X82964285Y-62958000D02*
X82964285Y-63458000D01*
X82964285Y-63458000D02*
X82964285Y-63958000D01*
X82964285Y-63458000D02*
X83464285Y-63458000D01*
X82964285Y-64058000D02*
X82964285Y-64558000D01*
X82964285Y-64558000D02*
X82964285Y-65058000D01*
X82964285Y-64558000D02*
X83464285Y-64558000D01*
X83414285Y-63058000D02*
X83414285Y-63858000D01*
X83414285Y-64158000D02*
X83414285Y-64958000D01*
%TO.C,LD1*%
X23114285Y-122958000D02*
X23114285Y-123458000D01*
X23114285Y-122958000D02*
X23514285Y-123208000D01*
X23114285Y-122958000D02*
X23914285Y-122958000D01*
X23114285Y-123458000D02*
X23339285Y-123458000D01*
X23114285Y-124708000D02*
X23114285Y-125208000D01*
X23114285Y-124708000D02*
X23339285Y-124708000D01*
X23114285Y-125208000D02*
X23914285Y-125208000D01*
X23160285Y-123729000D02*
X23514285Y-124083000D01*
X23339285Y-123458000D02*
X23339285Y-123758000D01*
X23339285Y-123758000D02*
X23689285Y-123758000D01*
X23339285Y-124408000D02*
X23339285Y-124708000D01*
X23339285Y-124408000D02*
X23514285Y-124558000D01*
X23339285Y-124408000D02*
X23689285Y-124408000D01*
X23514285Y-123608000D02*
X23339285Y-123758000D01*
X23514285Y-123608000D02*
X23689285Y-123758000D01*
X23514285Y-124083000D02*
X23160285Y-124437000D01*
X23514285Y-124083000D02*
X23868285Y-124437000D01*
X23514285Y-124958000D02*
X23114285Y-125208000D01*
X23514285Y-124958000D02*
X23914285Y-125208000D01*
X23689285Y-123458000D02*
X23689285Y-123758000D01*
X23689285Y-123458000D02*
X23914285Y-123458000D01*
X23689285Y-124408000D02*
X23514285Y-124558000D01*
X23689285Y-124408000D02*
X23689285Y-124708000D01*
X23689285Y-124708000D02*
X23914285Y-124708000D01*
X23868285Y-123729000D02*
X23514285Y-124083000D01*
X23914285Y-122958000D02*
X23514285Y-123208000D01*
X23914285Y-122958000D02*
X23914285Y-123458000D01*
X23914285Y-124708000D02*
X23914285Y-125208000D01*
D11*
%TO.C,D2*%
X36039285Y-116858000D02*
X36039285Y-115058000D01*
X37489285Y-115058000D02*
X36039285Y-115058000D01*
X37489285Y-116858000D02*
X36039285Y-116858000D01*
X37489285Y-116858000D02*
X37489285Y-115058000D01*
D10*
%TO.C,SW2*%
X78600000Y-55550000D02*
X80750000Y-55550000D01*
X78600000Y-56650000D02*
X78600000Y-55550000D01*
X78600000Y-56650000D02*
X80750000Y-56650000D01*
X79175000Y-56100000D02*
X79675000Y-56100000D01*
X79675000Y-55600000D02*
X79675000Y-56100000D01*
X79675000Y-56100000D02*
X80175000Y-56100000D01*
X79675000Y-56600000D02*
X79675000Y-56100000D01*
X80750000Y-56650000D02*
X80750000Y-55550000D01*
X83300000Y-56100000D02*
X83800000Y-56100000D01*
X83800000Y-56100000D02*
X83800000Y-55600000D01*
X83800000Y-56100000D02*
X84300000Y-56100000D01*
X83800000Y-56600000D02*
X83800000Y-56100000D01*
X86850000Y-55550000D02*
X89000000Y-55550000D01*
X86850000Y-56650000D02*
X86850000Y-55550000D01*
X86850000Y-56650000D02*
X89000000Y-56650000D01*
X87425000Y-56100000D02*
X87925000Y-56100000D01*
X87925000Y-56100000D02*
X87925000Y-55600000D01*
X87925000Y-56100000D02*
X87925000Y-56600000D01*
X87925000Y-56100000D02*
X88425000Y-56100000D01*
X89000000Y-56650000D02*
X89000000Y-55550000D01*
%TO.C,J1*%
X15264285Y-63609000D02*
X17664285Y-63609000D01*
X15264285Y-79157000D02*
X15264285Y-63609000D01*
X15264285Y-79157000D02*
X17664285Y-79157000D01*
X53064285Y-67988000D02*
X53564285Y-67988000D01*
X53064285Y-68788000D02*
X53564285Y-68788000D01*
X53064285Y-69588000D02*
X53564285Y-69588000D01*
X53064285Y-70388000D02*
X53564285Y-70388000D01*
X53064285Y-71188000D02*
X53564285Y-71188000D01*
X53064285Y-71988000D02*
X53564285Y-71988000D01*
X53064285Y-72788000D02*
X53564285Y-72788000D01*
X53064285Y-73588000D02*
X53564285Y-73588000D01*
X53064285Y-74388000D02*
X53564285Y-74388000D01*
X53064285Y-75188000D02*
X53564285Y-75188000D01*
X53564285Y-67988000D02*
X54064285Y-67988000D01*
X53564285Y-68788000D02*
X54064285Y-68788000D01*
X53564285Y-69588000D02*
X54064285Y-69588000D01*
X53564285Y-70388000D02*
X54064285Y-70388000D01*
X53564285Y-71188000D02*
X54064285Y-71188000D01*
X53564285Y-71988000D02*
X54064285Y-71988000D01*
X53564285Y-72788000D02*
X54064285Y-72788000D01*
X53564285Y-73588000D02*
X54064285Y-73588000D01*
X53564285Y-74388000D02*
X54064285Y-74388000D01*
X53564285Y-75188000D02*
X54064285Y-75188000D01*
X53564285Y-75688000D02*
X53564285Y-67488000D01*
X57164285Y-66588000D02*
X57664285Y-66588000D01*
X57164285Y-71383000D02*
X57664285Y-71383000D01*
X57164285Y-76188000D02*
X57664285Y-76188000D01*
X57664285Y-66588000D02*
X57664285Y-66088000D01*
X57664285Y-66588000D02*
X58164285Y-66588000D01*
X57664285Y-67088000D02*
X57664285Y-66588000D01*
X57664285Y-71383000D02*
X57664285Y-70883000D01*
X57664285Y-71383000D02*
X58164285Y-71383000D01*
X57664285Y-71883000D02*
X57664285Y-71383000D01*
X57664285Y-76188000D02*
X57664285Y-75688000D01*
X57664285Y-76188000D02*
X58164285Y-76188000D01*
X57664285Y-76688000D02*
X57664285Y-76188000D01*
X61264285Y-67588000D02*
X61764285Y-67588000D01*
X61264285Y-68388000D02*
X61764285Y-68388000D01*
X61264285Y-69188000D02*
X61764285Y-69188000D01*
X61264285Y-69988000D02*
X61764285Y-69988000D01*
X61264285Y-70788000D02*
X61764285Y-70788000D01*
X61264285Y-71588000D02*
X61764285Y-71588000D01*
X61264285Y-72388000D02*
X61764285Y-72388000D01*
X61264285Y-73188000D02*
X61764285Y-73188000D01*
X61264285Y-73988000D02*
X61764285Y-73988000D01*
X61264285Y-74788000D02*
X61764285Y-74788000D01*
X61764285Y-67588000D02*
X62264285Y-67588000D01*
X61764285Y-68388000D02*
X62264285Y-68388000D01*
X61764285Y-69188000D02*
X62264285Y-69188000D01*
X61764285Y-69988000D02*
X62264285Y-69988000D01*
X61764285Y-70788000D02*
X62264285Y-70788000D01*
X61764285Y-71588000D02*
X62264285Y-71588000D01*
X61764285Y-72388000D02*
X62264285Y-72388000D01*
X61764285Y-73188000D02*
X62264285Y-73188000D01*
X61764285Y-73988000D02*
X62264285Y-73988000D01*
X61764285Y-74788000D02*
X62264285Y-74788000D01*
X61764285Y-75288000D02*
X61764285Y-67088000D01*
X63164285Y-63609000D02*
X63964285Y-63609000D01*
X63164285Y-79157000D02*
X63964285Y-79157000D01*
X63964285Y-65606000D02*
X63964285Y-63609000D01*
X63964285Y-79157000D02*
X63964285Y-77160000D01*
X58439285Y-66588000D02*
G75*
G02*
X56889285Y-66588000I-775000J0D01*
G01*
X56889285Y-66588000D02*
G75*
G02*
X58439285Y-66588000I775000J0D01*
G01*
X58439285Y-76188000D02*
G75*
G02*
X56889285Y-76188000I-775000J0D01*
G01*
X56889285Y-76188000D02*
G75*
G02*
X58439285Y-76188000I775000J0D01*
G01*
%TO.C,LD2*%
X56964285Y-110133000D02*
X56964285Y-109333000D01*
X56964285Y-111783000D02*
X56964285Y-110983000D01*
X57364285Y-109733000D02*
X56964285Y-109333000D01*
X57364285Y-109733000D02*
X57764285Y-109333000D01*
X57364285Y-110558000D02*
X56864285Y-110558000D01*
X57364285Y-110558000D02*
X57364285Y-110058000D01*
X57364285Y-110983000D02*
X57364285Y-110133000D01*
X57364285Y-111058000D02*
X57364285Y-110558000D01*
X57364285Y-111383000D02*
X56964285Y-110983000D01*
X57364285Y-111383000D02*
X57764285Y-110983000D01*
X57764285Y-109333000D02*
X56964285Y-109333000D01*
X57764285Y-110133000D02*
X56964285Y-110133000D01*
X57764285Y-110133000D02*
X57764285Y-109333000D01*
X57764285Y-110983000D02*
X56964285Y-110983000D01*
X57764285Y-111783000D02*
X56964285Y-111783000D01*
X57764285Y-111783000D02*
X57764285Y-110983000D01*
X57864285Y-110558000D02*
X57364285Y-110558000D01*
%TO.C,L14*%
X30464285Y-99058000D02*
X30964285Y-99058000D01*
X30564285Y-98158000D02*
X31364285Y-98158000D01*
X30564285Y-99958000D02*
X30564285Y-98158000D01*
X30564285Y-99958000D02*
X31364285Y-99958000D01*
X30964285Y-99058000D02*
X30964285Y-98558000D01*
X30964285Y-99058000D02*
X31464285Y-99058000D01*
X30964285Y-99558000D02*
X30964285Y-99058000D01*
X31264285Y-99058000D02*
X31764285Y-99058000D01*
X31364285Y-99958000D02*
X31364285Y-98158000D01*
X31764285Y-99058000D02*
X31764285Y-98558000D01*
X31764285Y-99058000D02*
X32264285Y-99058000D01*
X31764285Y-99558000D02*
X31764285Y-99058000D01*
X32064285Y-99058000D02*
X32564285Y-99058000D01*
X32164285Y-98158000D02*
X32964285Y-98158000D01*
X32164285Y-99958000D02*
X32164285Y-98158000D01*
X32164285Y-99958000D02*
X32964285Y-99958000D01*
X32564285Y-99058000D02*
X32564285Y-98558000D01*
X32564285Y-99058000D02*
X33064285Y-99058000D01*
X32564285Y-99558000D02*
X32564285Y-99058000D01*
X32964285Y-99958000D02*
X32964285Y-98158000D01*
%TO.C,LD3*%
X109464285Y-44933000D02*
X109464285Y-44133000D01*
X109464285Y-46583000D02*
X109464285Y-45783000D01*
X109864285Y-44533000D02*
X109464285Y-44133000D01*
X109864285Y-44533000D02*
X110264285Y-44133000D01*
X109864285Y-45358000D02*
X109364285Y-45358000D01*
X109864285Y-45358000D02*
X109864285Y-44858000D01*
X109864285Y-45783000D02*
X109864285Y-44933000D01*
X109864285Y-45858000D02*
X109864285Y-45358000D01*
X109864285Y-46183000D02*
X109464285Y-45783000D01*
X109864285Y-46183000D02*
X110264285Y-45783000D01*
X110264285Y-44133000D02*
X109464285Y-44133000D01*
X110264285Y-44933000D02*
X109464285Y-44933000D01*
X110264285Y-44933000D02*
X110264285Y-44133000D01*
X110264285Y-45783000D02*
X109464285Y-45783000D01*
X110264285Y-46583000D02*
X109464285Y-46583000D01*
X110264285Y-46583000D02*
X110264285Y-45783000D01*
X110364285Y-45358000D02*
X109864285Y-45358000D01*
%TO.C,SW1*%
X39939285Y-44908000D02*
X42089285Y-44908000D01*
X39939285Y-46008000D02*
X39939285Y-44908000D01*
X39939285Y-46008000D02*
X42089285Y-46008000D01*
X40514285Y-45458000D02*
X41014285Y-45458000D01*
X41014285Y-44958000D02*
X41014285Y-45458000D01*
X41014285Y-45458000D02*
X41514285Y-45458000D01*
X41014285Y-45958000D02*
X41014285Y-45458000D01*
X42089285Y-46008000D02*
X42089285Y-44908000D01*
X44639285Y-45458000D02*
X45139285Y-45458000D01*
X45139285Y-45458000D02*
X45139285Y-44958000D01*
X45139285Y-45458000D02*
X45639285Y-45458000D01*
X45139285Y-45958000D02*
X45139285Y-45458000D01*
X48189285Y-44908000D02*
X50339285Y-44908000D01*
X48189285Y-46008000D02*
X48189285Y-44908000D01*
X48189285Y-46008000D02*
X50339285Y-46008000D01*
X48764285Y-45458000D02*
X49264285Y-45458000D01*
X49264285Y-45458000D02*
X49264285Y-44958000D01*
X49264285Y-45458000D02*
X49264285Y-45958000D01*
X49264285Y-45458000D02*
X49764285Y-45458000D01*
X50339285Y-46008000D02*
X50339285Y-44908000D01*
%TO.C,J3*%
X22979285Y-81193000D02*
X22479285Y-81193000D01*
X22979285Y-81193000D02*
X22979285Y-80693000D01*
X22979285Y-81693000D02*
X22979285Y-81193000D01*
X22979285Y-97323000D02*
X22479285Y-97323000D01*
X22979285Y-97323000D02*
X22979285Y-96823000D01*
X22979285Y-97823000D02*
X22979285Y-97323000D01*
X23479285Y-81193000D02*
X22979285Y-81193000D01*
X23479285Y-97323000D02*
X22979285Y-97323000D01*
X26154285Y-82908000D02*
X25654285Y-82908000D01*
X26154285Y-82908000D02*
X26154285Y-82408000D01*
X26154285Y-83408000D02*
X26154285Y-82908000D01*
X26154285Y-95608000D02*
X25654285Y-95608000D01*
X26154285Y-95608000D02*
X26154285Y-95108000D01*
X26154285Y-96108000D02*
X26154285Y-95608000D01*
X26654285Y-82908000D02*
X26154285Y-82908000D01*
X26654285Y-95608000D02*
X26154285Y-95608000D01*
X41394285Y-84178000D02*
X40894285Y-84178000D01*
X41394285Y-84178000D02*
X41394285Y-83678000D01*
X41394285Y-84678000D02*
X41394285Y-84178000D01*
X41394285Y-86210000D02*
X40894285Y-86210000D01*
X41394285Y-86210000D02*
X41394285Y-85710000D01*
X41394285Y-86710000D02*
X41394285Y-86210000D01*
X41394285Y-88242000D02*
X40894285Y-88242000D01*
X41394285Y-88242000D02*
X41394285Y-87742000D01*
X41394285Y-88742000D02*
X41394285Y-88242000D01*
X41394285Y-90274000D02*
X40894285Y-90274000D01*
X41394285Y-90274000D02*
X41394285Y-89774000D01*
X41394285Y-90774000D02*
X41394285Y-90274000D01*
X41394285Y-92306000D02*
X40894285Y-92306000D01*
X41394285Y-92306000D02*
X41394285Y-91806000D01*
X41394285Y-92806000D02*
X41394285Y-92306000D01*
X41394285Y-94338000D02*
X40894285Y-94338000D01*
X41394285Y-94338000D02*
X41394285Y-93838000D01*
X41394285Y-94838000D02*
X41394285Y-94338000D01*
X41894285Y-84178000D02*
X41394285Y-84178000D01*
X41894285Y-86210000D02*
X41394285Y-86210000D01*
X41894285Y-88242000D02*
X41394285Y-88242000D01*
X41894285Y-90274000D02*
X41394285Y-90274000D01*
X41894285Y-92306000D02*
X41394285Y-92306000D01*
X41894285Y-94338000D02*
X41394285Y-94338000D01*
X42664285Y-89258000D02*
X42164285Y-89258000D01*
X42664285Y-89258000D02*
X42664285Y-88758000D01*
X42664285Y-89758000D02*
X42664285Y-89258000D01*
X43164285Y-89258000D02*
X42664285Y-89258000D01*
X43934285Y-83162000D02*
X43434285Y-83162000D01*
X43934285Y-83162000D02*
X43934285Y-82662000D01*
X43934285Y-83662000D02*
X43934285Y-83162000D01*
X43934285Y-85194000D02*
X43434285Y-85194000D01*
X43934285Y-85194000D02*
X43934285Y-84694000D01*
X43934285Y-85694000D02*
X43934285Y-85194000D01*
X43934285Y-87226000D02*
X43434285Y-87226000D01*
X43934285Y-87226000D02*
X43934285Y-86726000D01*
X43934285Y-87726000D02*
X43934285Y-87226000D01*
X43934285Y-91290000D02*
X43434285Y-91290000D01*
X43934285Y-91290000D02*
X43934285Y-90790000D01*
X43934285Y-91790000D02*
X43934285Y-91290000D01*
X43934285Y-93322000D02*
X43434285Y-93322000D01*
X43934285Y-93322000D02*
X43934285Y-92822000D01*
X43934285Y-93822000D02*
X43934285Y-93322000D01*
X43934285Y-95354000D02*
X43434285Y-95354000D01*
X43934285Y-95354000D02*
X43934285Y-94854000D01*
X43934285Y-95854000D02*
X43934285Y-95354000D01*
X44434285Y-83162000D02*
X43934285Y-83162000D01*
X44434285Y-85194000D02*
X43934285Y-85194000D01*
X44434285Y-87226000D02*
X43934285Y-87226000D01*
X44434285Y-91290000D02*
X43934285Y-91290000D01*
X44434285Y-93322000D02*
X43934285Y-93322000D01*
X44434285Y-95354000D02*
X43934285Y-95354000D01*
X46474285Y-83162000D02*
X45974285Y-83162000D01*
X46474285Y-83162000D02*
X46474285Y-82662000D01*
X46474285Y-83662000D02*
X46474285Y-83162000D01*
X46474285Y-85702000D02*
X45974285Y-85702000D01*
X46474285Y-85702000D02*
X46474285Y-85202000D01*
X46474285Y-86202000D02*
X46474285Y-85702000D01*
X46474285Y-92814000D02*
X45974285Y-92814000D01*
X46474285Y-92814000D02*
X46474285Y-92314000D01*
X46474285Y-93314000D02*
X46474285Y-92814000D01*
X46474285Y-95354000D02*
X45974285Y-95354000D01*
X46474285Y-95354000D02*
X46474285Y-94854000D01*
X46474285Y-95854000D02*
X46474285Y-95354000D01*
X46974285Y-83162000D02*
X46474285Y-83162000D01*
X46974285Y-85702000D02*
X46474285Y-85702000D01*
X46974285Y-92814000D02*
X46474285Y-92814000D01*
X46974285Y-95354000D02*
X46474285Y-95354000D01*
X23779285Y-81193000D02*
G75*
G02*
X22179285Y-81193000I-800000J0D01*
G01*
X22179285Y-81193000D02*
G75*
G02*
X23779285Y-81193000I800000J0D01*
G01*
X23779285Y-97323000D02*
G75*
G02*
X22179285Y-97323000I-800000J0D01*
G01*
X22179285Y-97323000D02*
G75*
G02*
X23779285Y-97323000I800000J0D01*
G01*
X27754285Y-82908000D02*
G75*
G02*
X24554285Y-82908000I-1600000J0D01*
G01*
X24554285Y-82908000D02*
G75*
G02*
X27754285Y-82908000I1600000J0D01*
G01*
X27754285Y-95608000D02*
G75*
G02*
X24554285Y-95608000I-1600000J0D01*
G01*
X24554285Y-95608000D02*
G75*
G02*
X27754285Y-95608000I1600000J0D01*
G01*
X41844285Y-84178000D02*
G75*
G02*
X40944285Y-84178000I-450000J0D01*
G01*
X40944285Y-84178000D02*
G75*
G02*
X41844285Y-84178000I450000J0D01*
G01*
X41844285Y-94338000D02*
G75*
G02*
X40944285Y-94338000I-450000J0D01*
G01*
X40944285Y-94338000D02*
G75*
G02*
X41844285Y-94338000I450000J0D01*
G01*
X44384285Y-83162000D02*
G75*
G02*
X43484285Y-83162000I-450000J0D01*
G01*
X43484285Y-83162000D02*
G75*
G02*
X44384285Y-83162000I450000J0D01*
G01*
X44384285Y-95354000D02*
G75*
G02*
X43484285Y-95354000I-450000J0D01*
G01*
X43484285Y-95354000D02*
G75*
G02*
X44384285Y-95354000I450000J0D01*
G01*
X47024285Y-83162000D02*
G75*
G02*
X45924285Y-83162000I-550000J0D01*
G01*
X45924285Y-83162000D02*
G75*
G02*
X47024285Y-83162000I550000J0D01*
G01*
X47024285Y-95354000D02*
G75*
G02*
X45924285Y-95354000I-550000J0D01*
G01*
X45924285Y-95354000D02*
G75*
G02*
X47024285Y-95354000I550000J0D01*
G01*
D12*
%TO.C,U23*%
X83364285Y-88033000D02*
X83364285Y-88333000D01*
X83364285Y-88683000D02*
X83364285Y-88983000D01*
X83364285Y-89333000D02*
X83364285Y-89633000D01*
X83364285Y-89983000D02*
X83364285Y-90283000D01*
X83664285Y-88183000D02*
X83364285Y-88033000D01*
X83664285Y-88183000D02*
X83364285Y-88333000D01*
X83664285Y-88833000D02*
X83364285Y-88683000D01*
X83664285Y-88833000D02*
X83364285Y-88983000D01*
X83664285Y-89483000D02*
X83364285Y-89333000D01*
X83664285Y-89483000D02*
X83364285Y-89633000D01*
X83664285Y-90133000D02*
X83364285Y-89983000D01*
X83664285Y-90133000D02*
X83364285Y-90283000D01*
X83964285Y-88033000D02*
X83364285Y-88033000D01*
X83964285Y-88033000D02*
X83964285Y-88333000D01*
X83964285Y-88333000D02*
X83364285Y-88333000D01*
X83964285Y-88683000D02*
X83364285Y-88683000D01*
X83964285Y-88683000D02*
X83964285Y-88983000D01*
X83964285Y-88983000D02*
X83364285Y-88983000D01*
X83964285Y-89333000D02*
X83364285Y-89333000D01*
X83964285Y-89333000D02*
X83964285Y-89633000D01*
X83964285Y-89633000D02*
X83364285Y-89633000D01*
X83964285Y-89983000D02*
X83364285Y-89983000D01*
X83964285Y-89983000D02*
X83964285Y-90283000D01*
X83964285Y-90283000D02*
X83364285Y-90283000D01*
X84214285Y-87933000D02*
X84214285Y-90383000D01*
X85064285Y-88658000D02*
X85064285Y-89158000D01*
X85064285Y-89158000D02*
X84564285Y-89158000D01*
X85064285Y-89158000D02*
X85064285Y-89658000D01*
X85564285Y-89158000D02*
X85064285Y-89158000D01*
X85914285Y-87933000D02*
X84214285Y-87933000D01*
X85914285Y-87933000D02*
X85914285Y-90383000D01*
X85914285Y-90383000D02*
X84214285Y-90383000D01*
X86164285Y-88033000D02*
X86164285Y-88333000D01*
X86164285Y-88683000D02*
X86164285Y-88983000D01*
X86164285Y-89333000D02*
X86164285Y-89633000D01*
X86164285Y-89983000D02*
X86164285Y-90283000D01*
X86764285Y-88033000D02*
X86164285Y-88033000D01*
X86764285Y-88033000D02*
X86464285Y-88183000D01*
X86764285Y-88033000D02*
X86764285Y-88333000D01*
X86764285Y-88333000D02*
X86164285Y-88333000D01*
X86764285Y-88333000D02*
X86464285Y-88183000D01*
X86764285Y-88683000D02*
X86164285Y-88683000D01*
X86764285Y-88683000D02*
X86464285Y-88833000D01*
X86764285Y-88683000D02*
X86764285Y-88983000D01*
X86764285Y-88983000D02*
X86164285Y-88983000D01*
X86764285Y-88983000D02*
X86464285Y-88833000D01*
X86764285Y-89333000D02*
X86164285Y-89333000D01*
X86764285Y-89333000D02*
X86464285Y-89483000D01*
X86764285Y-89333000D02*
X86764285Y-89633000D01*
X86764285Y-89633000D02*
X86164285Y-89633000D01*
X86764285Y-89633000D02*
X86464285Y-89483000D01*
X86764285Y-89983000D02*
X86164285Y-89983000D01*
X86764285Y-89983000D02*
X86464285Y-90133000D01*
X86764285Y-89983000D02*
X86764285Y-90283000D01*
X86764285Y-90283000D02*
X86164285Y-90283000D01*
X86764285Y-90283000D02*
X86464285Y-90133000D01*
D10*
%TO.C,Y4*%
X54964285Y-85883000D02*
X54964285Y-87033000D01*
X54964285Y-85883000D02*
X56364285Y-85883000D01*
X54964285Y-87033000D02*
X56364285Y-87033000D01*
X54964285Y-87483000D02*
X54964285Y-88633000D01*
X54964285Y-87483000D02*
X56364285Y-87483000D01*
X54964285Y-88633000D02*
X56364285Y-88633000D01*
X55164285Y-86458000D02*
X55664285Y-86458000D01*
X55164285Y-88058000D02*
X55664285Y-88058000D01*
X55664285Y-85958000D02*
X55664285Y-86458000D01*
X55664285Y-86458000D02*
X55664285Y-86958000D01*
X55664285Y-86458000D02*
X56164285Y-86458000D01*
X55664285Y-87558000D02*
X55664285Y-88058000D01*
X55664285Y-88058000D02*
X55664285Y-88558000D01*
X55664285Y-88058000D02*
X56164285Y-88058000D01*
X55664285Y-88058000D02*
X57864285Y-88058000D01*
X56264285Y-87258000D02*
X56764285Y-87258000D01*
X56364285Y-85883000D02*
X56364285Y-87033000D01*
X56364285Y-87483000D02*
X56364285Y-88633000D01*
X56764285Y-86758000D02*
X56764285Y-87258000D01*
X56764285Y-87258000D02*
X56764285Y-87758000D01*
X56764285Y-87258000D02*
X57264285Y-87258000D01*
X57164285Y-85883000D02*
X57164285Y-87033000D01*
X57164285Y-85883000D02*
X58564285Y-85883000D01*
X57164285Y-87033000D02*
X58564285Y-87033000D01*
X57164285Y-87483000D02*
X57164285Y-88633000D01*
X57164285Y-87483000D02*
X58564285Y-87483000D01*
X57164285Y-88633000D02*
X58564285Y-88633000D01*
X57364285Y-86458000D02*
X57864285Y-86458000D01*
X57364285Y-88058000D02*
X57864285Y-88058000D01*
X57694285Y-86508000D02*
X58194285Y-86508000D01*
X57864285Y-85958000D02*
X57864285Y-86458000D01*
X57864285Y-86458000D02*
X57864285Y-86958000D01*
X57864285Y-86458000D02*
X58364285Y-86458000D01*
X57864285Y-87558000D02*
X57864285Y-88058000D01*
X57864285Y-88058000D02*
X57864285Y-88558000D01*
X57864285Y-88058000D02*
X58364285Y-88058000D01*
X58564285Y-85883000D02*
X58564285Y-87033000D01*
X58564285Y-87483000D02*
X58564285Y-88633000D01*
D12*
%TO.C,L1*%
X60964285Y-90158000D02*
X60964285Y-88908000D01*
X60964285Y-92608000D02*
X60964285Y-91358000D01*
X60964285Y-92608000D02*
X62364285Y-91983000D01*
X62364285Y-89533000D02*
X60964285Y-88908000D01*
X62364285Y-89533000D02*
X63764285Y-88908000D01*
X62364285Y-90758000D02*
X61864285Y-90758000D01*
X62364285Y-90758000D02*
X62364285Y-90258000D01*
X62364285Y-91258000D02*
X62364285Y-90758000D01*
X62864285Y-90758000D02*
X62364285Y-90758000D01*
X63764285Y-88908000D02*
X60964285Y-88908000D01*
X63764285Y-90158000D02*
X60964285Y-90158000D01*
X63764285Y-90158000D02*
X63764285Y-88908000D01*
X63764285Y-91358000D02*
X60964285Y-91358000D01*
X63764285Y-92608000D02*
X60964285Y-92608000D01*
X63764285Y-92608000D02*
X62364285Y-91983000D01*
X63764285Y-92608000D02*
X63764285Y-91358000D01*
D10*
%TO.C,LD5*%
X104364285Y-44883000D02*
X104364285Y-44083000D01*
X104364285Y-46533000D02*
X104364285Y-45733000D01*
X104764285Y-44483000D02*
X104364285Y-44083000D01*
X104764285Y-44483000D02*
X105164285Y-44083000D01*
X104764285Y-45308000D02*
X104264285Y-45308000D01*
X104764285Y-45308000D02*
X104764285Y-44808000D01*
X104764285Y-45733000D02*
X104764285Y-44883000D01*
X104764285Y-45808000D02*
X104764285Y-45308000D01*
X104764285Y-46133000D02*
X104364285Y-45733000D01*
X104764285Y-46133000D02*
X105164285Y-45733000D01*
X105164285Y-44083000D02*
X104364285Y-44083000D01*
X105164285Y-44883000D02*
X104364285Y-44883000D01*
X105164285Y-44883000D02*
X105164285Y-44083000D01*
X105164285Y-45733000D02*
X104364285Y-45733000D01*
X105164285Y-46533000D02*
X104364285Y-46533000D01*
X105164285Y-46533000D02*
X105164285Y-45733000D01*
X105264285Y-45308000D02*
X104764285Y-45308000D01*
%TO.C,LD4*%
X114114285Y-44818000D02*
X114114285Y-44018000D01*
X114114285Y-46468000D02*
X114114285Y-45668000D01*
X114514285Y-44418000D02*
X114114285Y-44018000D01*
X114514285Y-44418000D02*
X114914285Y-44018000D01*
X114514285Y-45243000D02*
X114014285Y-45243000D01*
X114514285Y-45243000D02*
X114514285Y-44743000D01*
X114514285Y-45668000D02*
X114514285Y-44818000D01*
X114514285Y-45743000D02*
X114514285Y-45243000D01*
X114514285Y-46068000D02*
X114114285Y-45668000D01*
X114514285Y-46068000D02*
X114914285Y-45668000D01*
X114914285Y-44018000D02*
X114114285Y-44018000D01*
X114914285Y-44818000D02*
X114114285Y-44818000D01*
X114914285Y-44818000D02*
X114914285Y-44018000D01*
X114914285Y-45668000D02*
X114114285Y-45668000D01*
X114914285Y-46468000D02*
X114114285Y-46468000D01*
X114914285Y-46468000D02*
X114914285Y-45668000D01*
X115014285Y-45243000D02*
X114514285Y-45243000D01*
%TO.C,J12*%
X53064285Y-53733000D02*
X53564285Y-53733000D01*
X53064285Y-54533000D02*
X53564285Y-54533000D01*
X53064285Y-55333000D02*
X53564285Y-55333000D01*
X53064285Y-56133000D02*
X53564285Y-56133000D01*
X53064285Y-56933000D02*
X53564285Y-56933000D01*
X53064285Y-57733000D02*
X53564285Y-57733000D01*
X53064285Y-58533000D02*
X53564285Y-58533000D01*
X53064285Y-59333000D02*
X53564285Y-59333000D01*
X53064285Y-60133000D02*
X53564285Y-60133000D01*
X53064285Y-60933000D02*
X53564285Y-60933000D01*
X53564285Y-53733000D02*
X54064285Y-53733000D01*
X53564285Y-54533000D02*
X54064285Y-54533000D01*
X53564285Y-55333000D02*
X54064285Y-55333000D01*
X53564285Y-56133000D02*
X54064285Y-56133000D01*
X53564285Y-56933000D02*
X54064285Y-56933000D01*
X53564285Y-57733000D02*
X54064285Y-57733000D01*
X53564285Y-58533000D02*
X54064285Y-58533000D01*
X53564285Y-59333000D02*
X54064285Y-59333000D01*
X53564285Y-60133000D02*
X54064285Y-60133000D01*
X53564285Y-60933000D02*
X54064285Y-60933000D01*
X53564285Y-61433000D02*
X53564285Y-53233000D01*
X57164285Y-52333000D02*
X57664285Y-52333000D01*
X57164285Y-57128000D02*
X57664285Y-57128000D01*
X57164285Y-61933000D02*
X57664285Y-61933000D01*
X57664285Y-52333000D02*
X57664285Y-51833000D01*
X57664285Y-52333000D02*
X58164285Y-52333000D01*
X57664285Y-52833000D02*
X57664285Y-52333000D01*
X57664285Y-57128000D02*
X57664285Y-56628000D01*
X57664285Y-57128000D02*
X58164285Y-57128000D01*
X57664285Y-57628000D02*
X57664285Y-57128000D01*
X57664285Y-61933000D02*
X57664285Y-61433000D01*
X57664285Y-61933000D02*
X58164285Y-61933000D01*
X57664285Y-62433000D02*
X57664285Y-61933000D01*
X61264285Y-53333000D02*
X61764285Y-53333000D01*
X61264285Y-54133000D02*
X61764285Y-54133000D01*
X61264285Y-54933000D02*
X61764285Y-54933000D01*
X61264285Y-55733000D02*
X61764285Y-55733000D01*
X61264285Y-56533000D02*
X61764285Y-56533000D01*
X61264285Y-57333000D02*
X61764285Y-57333000D01*
X61264285Y-58133000D02*
X61764285Y-58133000D01*
X61264285Y-58933000D02*
X61764285Y-58933000D01*
X61264285Y-59733000D02*
X61764285Y-59733000D01*
X61264285Y-60533000D02*
X61764285Y-60533000D01*
X61764285Y-53333000D02*
X62264285Y-53333000D01*
X61764285Y-54133000D02*
X62264285Y-54133000D01*
X61764285Y-54933000D02*
X62264285Y-54933000D01*
X61764285Y-55733000D02*
X62264285Y-55733000D01*
X61764285Y-56533000D02*
X62264285Y-56533000D01*
X61764285Y-57333000D02*
X62264285Y-57333000D01*
X61764285Y-58133000D02*
X62264285Y-58133000D01*
X61764285Y-58933000D02*
X62264285Y-58933000D01*
X61764285Y-59733000D02*
X62264285Y-59733000D01*
X61764285Y-60533000D02*
X62264285Y-60533000D01*
X61764285Y-61033000D02*
X61764285Y-52833000D01*
X58439285Y-52333000D02*
G75*
G02*
X56889285Y-52333000I-775000J0D01*
G01*
X56889285Y-52333000D02*
G75*
G02*
X58439285Y-52333000I775000J0D01*
G01*
X58439285Y-61933000D02*
G75*
G02*
X56889285Y-61933000I-775000J0D01*
G01*
X56889285Y-61933000D02*
G75*
G02*
X58439285Y-61933000I775000J0D01*
G01*
%TO.C,Y5*%
X34964285Y-99658000D02*
X37364285Y-99658000D01*
X34964285Y-101358000D02*
X34964285Y-99658000D01*
X34964285Y-101358000D02*
X37364285Y-101358000D01*
X34964285Y-103358000D02*
X37364285Y-103358000D01*
X34964285Y-105058000D02*
X34964285Y-103358000D01*
X34964285Y-105058000D02*
X37364285Y-105058000D01*
X35664285Y-100508000D02*
X36164285Y-100508000D01*
X35664285Y-102358000D02*
X36164285Y-102358000D01*
X35664285Y-104208000D02*
X36164285Y-104208000D01*
X36164285Y-100508000D02*
X36164285Y-100008000D01*
X36164285Y-100508000D02*
X36664285Y-100508000D01*
X36164285Y-101008000D02*
X36164285Y-100508000D01*
X36164285Y-102358000D02*
X36164285Y-101858000D01*
X36164285Y-102358000D02*
X36664285Y-102358000D01*
X36164285Y-102858000D02*
X36164285Y-102358000D01*
X36164285Y-104208000D02*
X36164285Y-103708000D01*
X36164285Y-104208000D02*
X36664285Y-104208000D01*
X36164285Y-104708000D02*
X36164285Y-104208000D01*
X37364285Y-101358000D02*
X37364285Y-99658000D01*
X37364285Y-105058000D02*
X37364285Y-103358000D01*
%TO.C,J11*%
X15264285Y-49354000D02*
X15264285Y-64902000D01*
X15264285Y-49354000D02*
X17664285Y-49354000D01*
X15264285Y-64902000D02*
X17664285Y-64902000D01*
X53064285Y-53323000D02*
X53564285Y-53323000D01*
X53064285Y-54123000D02*
X53564285Y-54123000D01*
X53064285Y-54923000D02*
X53564285Y-54923000D01*
X53064285Y-55723000D02*
X53564285Y-55723000D01*
X53064285Y-56523000D02*
X53564285Y-56523000D01*
X53064285Y-57323000D02*
X53564285Y-57323000D01*
X53064285Y-58123000D02*
X53564285Y-58123000D01*
X53064285Y-58923000D02*
X53564285Y-58923000D01*
X53064285Y-59723000D02*
X53564285Y-59723000D01*
X53064285Y-60523000D02*
X53564285Y-60523000D01*
X53564285Y-52823000D02*
X53564285Y-61023000D01*
X53564285Y-53323000D02*
X54064285Y-53323000D01*
X53564285Y-54123000D02*
X54064285Y-54123000D01*
X53564285Y-54923000D02*
X54064285Y-54923000D01*
X53564285Y-55723000D02*
X54064285Y-55723000D01*
X53564285Y-56523000D02*
X54064285Y-56523000D01*
X53564285Y-57323000D02*
X54064285Y-57323000D01*
X53564285Y-58123000D02*
X54064285Y-58123000D01*
X53564285Y-58923000D02*
X54064285Y-58923000D01*
X53564285Y-59723000D02*
X54064285Y-59723000D01*
X53564285Y-60523000D02*
X54064285Y-60523000D01*
X57164285Y-52323000D02*
X57664285Y-52323000D01*
X57164285Y-57128000D02*
X57664285Y-57128000D01*
X57164285Y-61923000D02*
X57664285Y-61923000D01*
X57664285Y-51823000D02*
X57664285Y-52323000D01*
X57664285Y-52323000D02*
X57664285Y-52823000D01*
X57664285Y-52323000D02*
X58164285Y-52323000D01*
X57664285Y-56628000D02*
X57664285Y-57128000D01*
X57664285Y-57128000D02*
X57664285Y-57628000D01*
X57664285Y-57128000D02*
X58164285Y-57128000D01*
X57664285Y-61423000D02*
X57664285Y-61923000D01*
X57664285Y-61923000D02*
X57664285Y-62423000D01*
X57664285Y-61923000D02*
X58164285Y-61923000D01*
X61264285Y-53723000D02*
X61764285Y-53723000D01*
X61264285Y-54523000D02*
X61764285Y-54523000D01*
X61264285Y-55323000D02*
X61764285Y-55323000D01*
X61264285Y-56123000D02*
X61764285Y-56123000D01*
X61264285Y-56923000D02*
X61764285Y-56923000D01*
X61264285Y-57723000D02*
X61764285Y-57723000D01*
X61264285Y-58523000D02*
X61764285Y-58523000D01*
X61264285Y-59323000D02*
X61764285Y-59323000D01*
X61264285Y-60123000D02*
X61764285Y-60123000D01*
X61264285Y-60923000D02*
X61764285Y-60923000D01*
X61764285Y-53223000D02*
X61764285Y-61423000D01*
X61764285Y-53723000D02*
X62264285Y-53723000D01*
X61764285Y-54523000D02*
X62264285Y-54523000D01*
X61764285Y-55323000D02*
X62264285Y-55323000D01*
X61764285Y-56123000D02*
X62264285Y-56123000D01*
X61764285Y-56923000D02*
X62264285Y-56923000D01*
X61764285Y-57723000D02*
X62264285Y-57723000D01*
X61764285Y-58523000D02*
X62264285Y-58523000D01*
X61764285Y-59323000D02*
X62264285Y-59323000D01*
X61764285Y-60123000D02*
X62264285Y-60123000D01*
X61764285Y-60923000D02*
X62264285Y-60923000D01*
X63164285Y-49354000D02*
X63964285Y-49354000D01*
X63164285Y-64902000D02*
X63964285Y-64902000D01*
X63964285Y-49354000D02*
X63964285Y-51351000D01*
X63964285Y-62905000D02*
X63964285Y-64902000D01*
X58439285Y-52323000D02*
G75*
G02*
X56889285Y-52323000I-775000J0D01*
G01*
X56889285Y-52323000D02*
G75*
G02*
X58439285Y-52323000I775000J0D01*
G01*
X58439285Y-61923000D02*
G75*
G02*
X56889285Y-61923000I-775000J0D01*
G01*
X56889285Y-61923000D02*
G75*
G02*
X58439285Y-61923000I775000J0D01*
G01*
%TO.C,Y1*%
X75764285Y-102608000D02*
X75764285Y-101708000D01*
X75764285Y-103458000D02*
X75764285Y-102958000D01*
X75764285Y-104708000D02*
X75764285Y-103808000D01*
X76264285Y-102158000D02*
X75764285Y-102158000D01*
X76264285Y-102158000D02*
X76264285Y-101658000D01*
X76264285Y-102658000D02*
X76264285Y-102158000D01*
X76264285Y-103208000D02*
X75764285Y-103208000D01*
X76264285Y-103208000D02*
X76264285Y-102708000D01*
X76264285Y-103708000D02*
X76264285Y-103208000D01*
X76264285Y-104258000D02*
X75764285Y-104258000D01*
X76264285Y-104258000D02*
X76264285Y-103758000D01*
X76264285Y-104758000D02*
X76264285Y-104258000D01*
X76764285Y-101708000D02*
X75764285Y-101708000D01*
X76764285Y-102158000D02*
X76264285Y-102158000D01*
X76764285Y-102608000D02*
X75764285Y-102608000D01*
X76764285Y-102608000D02*
X76764285Y-101708000D01*
X76764285Y-102958000D02*
X75764285Y-102958000D01*
X76764285Y-103208000D02*
X76264285Y-103208000D01*
X76764285Y-103458000D02*
X75764285Y-103458000D01*
X76764285Y-103458000D02*
X76764285Y-102958000D01*
X76764285Y-103808000D02*
X75764285Y-103808000D01*
X76764285Y-104258000D02*
X76264285Y-104258000D01*
X76764285Y-104708000D02*
X75764285Y-104708000D01*
X76764285Y-104708000D02*
X76764285Y-103808000D01*
X77214285Y-103208000D02*
X76860285Y-102854000D01*
X77214285Y-103208000D02*
X76860285Y-103562000D01*
X77568285Y-102854000D02*
X77214285Y-103208000D01*
X77568285Y-103562000D02*
X77214285Y-103208000D01*
X77664285Y-102608000D02*
X77664285Y-101708000D01*
X77664285Y-103458000D02*
X77664285Y-102958000D01*
X77664285Y-104708000D02*
X77664285Y-103808000D01*
X78164285Y-102158000D02*
X77664285Y-102158000D01*
X78164285Y-102158000D02*
X78164285Y-101658000D01*
X78164285Y-102658000D02*
X78164285Y-102158000D01*
X78164285Y-103208000D02*
X77664285Y-103208000D01*
X78164285Y-103208000D02*
X78164285Y-102708000D01*
X78164285Y-103708000D02*
X78164285Y-103208000D01*
X78164285Y-104258000D02*
X77664285Y-104258000D01*
X78164285Y-104258000D02*
X78164285Y-103758000D01*
X78164285Y-104758000D02*
X78164285Y-104258000D01*
X78664285Y-101708000D02*
X77664285Y-101708000D01*
X78664285Y-102158000D02*
X78164285Y-102158000D01*
X78664285Y-102608000D02*
X77664285Y-102608000D01*
X78664285Y-102608000D02*
X78664285Y-101708000D01*
X78664285Y-102958000D02*
X77664285Y-102958000D01*
X78664285Y-103208000D02*
X78164285Y-103208000D01*
X78664285Y-103458000D02*
X77664285Y-103458000D01*
X78664285Y-103458000D02*
X78664285Y-102958000D01*
X78664285Y-103808000D02*
X77664285Y-103808000D01*
X78664285Y-104258000D02*
X78164285Y-104258000D01*
X78664285Y-104708000D02*
X77664285Y-104708000D01*
X78664285Y-104708000D02*
X78664285Y-103808000D01*
%TO.C,J13*%
X53064285Y-67578000D02*
X53564285Y-67578000D01*
X53064285Y-68378000D02*
X53564285Y-68378000D01*
X53064285Y-69178000D02*
X53564285Y-69178000D01*
X53064285Y-69978000D02*
X53564285Y-69978000D01*
X53064285Y-70778000D02*
X53564285Y-70778000D01*
X53064285Y-71578000D02*
X53564285Y-71578000D01*
X53064285Y-72378000D02*
X53564285Y-72378000D01*
X53064285Y-73178000D02*
X53564285Y-73178000D01*
X53064285Y-73978000D02*
X53564285Y-73978000D01*
X53064285Y-74778000D02*
X53564285Y-74778000D01*
X53564285Y-67078000D02*
X53564285Y-75278000D01*
X53564285Y-67578000D02*
X54064285Y-67578000D01*
X53564285Y-68378000D02*
X54064285Y-68378000D01*
X53564285Y-69178000D02*
X54064285Y-69178000D01*
X53564285Y-69978000D02*
X54064285Y-69978000D01*
X53564285Y-70778000D02*
X54064285Y-70778000D01*
X53564285Y-71578000D02*
X54064285Y-71578000D01*
X53564285Y-72378000D02*
X54064285Y-72378000D01*
X53564285Y-73178000D02*
X54064285Y-73178000D01*
X53564285Y-73978000D02*
X54064285Y-73978000D01*
X53564285Y-74778000D02*
X54064285Y-74778000D01*
X57164285Y-66578000D02*
X57664285Y-66578000D01*
X57164285Y-71383000D02*
X57664285Y-71383000D01*
X57164285Y-76178000D02*
X57664285Y-76178000D01*
X57664285Y-66078000D02*
X57664285Y-66578000D01*
X57664285Y-66578000D02*
X57664285Y-67078000D01*
X57664285Y-66578000D02*
X58164285Y-66578000D01*
X57664285Y-70883000D02*
X57664285Y-71383000D01*
X57664285Y-71383000D02*
X57664285Y-71883000D01*
X57664285Y-71383000D02*
X58164285Y-71383000D01*
X57664285Y-75678000D02*
X57664285Y-76178000D01*
X57664285Y-76178000D02*
X57664285Y-76678000D01*
X57664285Y-76178000D02*
X58164285Y-76178000D01*
X61264285Y-67978000D02*
X61764285Y-67978000D01*
X61264285Y-68778000D02*
X61764285Y-68778000D01*
X61264285Y-69578000D02*
X61764285Y-69578000D01*
X61264285Y-70378000D02*
X61764285Y-70378000D01*
X61264285Y-71178000D02*
X61764285Y-71178000D01*
X61264285Y-71978000D02*
X61764285Y-71978000D01*
X61264285Y-72778000D02*
X61764285Y-72778000D01*
X61264285Y-73578000D02*
X61764285Y-73578000D01*
X61264285Y-74378000D02*
X61764285Y-74378000D01*
X61264285Y-75178000D02*
X61764285Y-75178000D01*
X61764285Y-67478000D02*
X61764285Y-75678000D01*
X61764285Y-67978000D02*
X62264285Y-67978000D01*
X61764285Y-68778000D02*
X62264285Y-68778000D01*
X61764285Y-69578000D02*
X62264285Y-69578000D01*
X61764285Y-70378000D02*
X62264285Y-70378000D01*
X61764285Y-71178000D02*
X62264285Y-71178000D01*
X61764285Y-71978000D02*
X62264285Y-71978000D01*
X61764285Y-72778000D02*
X62264285Y-72778000D01*
X61764285Y-73578000D02*
X62264285Y-73578000D01*
X61764285Y-74378000D02*
X62264285Y-74378000D01*
X61764285Y-75178000D02*
X62264285Y-75178000D01*
X58439285Y-66578000D02*
G75*
G02*
X56889285Y-66578000I-775000J0D01*
G01*
X56889285Y-66578000D02*
G75*
G02*
X58439285Y-66578000I775000J0D01*
G01*
X58439285Y-76178000D02*
G75*
G02*
X56889285Y-76178000I-775000J0D01*
G01*
X56889285Y-76178000D02*
G75*
G02*
X58439285Y-76178000I775000J0D01*
G01*
%TD*%
M02*
