%TF.GenerationSoftware,KiCad,Pcbnew,9.0.0*%
%TF.CreationDate,2025-07-03T18:11:10+02:00*%
%TF.ProjectId,Obsidian,4f627369-6469-4616-9e2e-6b696361645f,rev?*%
%TF.SameCoordinates,Original*%
%TF.FileFunction,Other,User*%
%FSLAX46Y46*%
G04 Gerber Fmt 4.6, Leading zero omitted, Abs format (unit mm)*
G04 Created by KiCad (PCBNEW 9.0.0) date 2025-07-03 18:11:10*
%MOMM*%
%LPD*%
G01*
G04 APERTURE LIST*
%ADD10C,0.050000*%
%ADD11C,0.100000*%
G04 APERTURE END LIST*
D10*
%TO.C,C103*%
X86154285Y-87198000D02*
X86154285Y-88118000D01*
X86154285Y-87198000D02*
X87974285Y-87198000D01*
X86154285Y-88118000D02*
X87974285Y-88118000D01*
X87974285Y-87198000D02*
X87974285Y-88118000D01*
%TO.C,C32*%
X53954285Y-42998000D02*
X53954285Y-43918000D01*
X53954285Y-42998000D02*
X55774285Y-42998000D01*
X53954285Y-43918000D02*
X55774285Y-43918000D01*
X55774285Y-42998000D02*
X55774285Y-43918000D01*
%TO.C,R180*%
X90854285Y-123248000D02*
X90854285Y-124168000D01*
X90854285Y-123248000D02*
X92674285Y-123248000D01*
X90854285Y-124168000D02*
X92674285Y-124168000D01*
X92674285Y-123248000D02*
X92674285Y-124168000D01*
%TO.C,C95*%
X101714285Y-80908000D02*
X101714285Y-81408000D01*
X101714285Y-80908000D02*
X103014285Y-80908000D01*
X101714285Y-81408000D02*
X103014285Y-81408000D01*
X103014285Y-80908000D02*
X103014285Y-81408000D01*
%TO.C,C122*%
X85014285Y-85158000D02*
X85014285Y-87158000D01*
X85014285Y-85158000D02*
X88514285Y-85158000D01*
X85014285Y-87158000D02*
X88514285Y-87158000D01*
X88514285Y-85158000D02*
X88514285Y-87158000D01*
%TO.C,C240*%
X104314285Y-106708000D02*
X104314285Y-108008000D01*
X104814285Y-106708000D02*
X104314285Y-106708000D01*
X104814285Y-106708000D02*
X104814285Y-108008000D01*
X104814285Y-108008000D02*
X104314285Y-108008000D01*
%TO.C,C108*%
X98304285Y-78948000D02*
X98304285Y-80768000D01*
X99224285Y-78948000D02*
X98304285Y-78948000D01*
X99224285Y-78948000D02*
X99224285Y-80768000D01*
X99224285Y-80768000D02*
X98304285Y-80768000D01*
%TO.C,C126*%
X90914285Y-77755117D02*
X90914285Y-78255117D01*
X90914285Y-77755117D02*
X92214285Y-77755117D01*
X90914285Y-78255117D02*
X92214285Y-78255117D01*
X92214285Y-77755117D02*
X92214285Y-78255117D01*
%TO.C,C38*%
X59914285Y-80558000D02*
X61814285Y-80558000D01*
X59914285Y-83958000D02*
X59914285Y-80558000D01*
X59914285Y-83958000D02*
X61814285Y-83958000D01*
X61814285Y-83958000D02*
X61814285Y-80558000D01*
%TO.C,C245*%
X103414285Y-109908000D02*
X103914285Y-109908000D01*
X103414285Y-111208000D02*
X103414285Y-109908000D01*
X103414285Y-111208000D02*
X103914285Y-111208000D01*
X103914285Y-111208000D02*
X103914285Y-109908000D01*
%TO.C,C63*%
X96654285Y-110818000D02*
X96654285Y-109898000D01*
X98474285Y-109898000D02*
X96654285Y-109898000D01*
X98474285Y-110818000D02*
X96654285Y-110818000D01*
X98474285Y-110818000D02*
X98474285Y-109898000D01*
%TO.C,C34*%
X59054285Y-85318000D02*
X59054285Y-84398000D01*
X60874285Y-84398000D02*
X59054285Y-84398000D01*
X60874285Y-85318000D02*
X59054285Y-85318000D01*
X60874285Y-85318000D02*
X60874285Y-84398000D01*
%TO.C,C66*%
X106704285Y-117348000D02*
X106704285Y-119168000D01*
X107624285Y-117348000D02*
X106704285Y-117348000D01*
X107624285Y-117348000D02*
X107624285Y-119168000D01*
X107624285Y-119168000D02*
X106704285Y-119168000D01*
%TO.C,C168*%
X88954285Y-88398000D02*
X88954285Y-89318000D01*
X88954285Y-88398000D02*
X90774285Y-88398000D01*
X88954285Y-89318000D02*
X90774285Y-89318000D01*
X90774285Y-88398000D02*
X90774285Y-89318000D01*
%TO.C,C94*%
X96114285Y-83308000D02*
X96114285Y-83808000D01*
X96114285Y-83308000D02*
X97414285Y-83308000D01*
X96114285Y-83808000D02*
X97414285Y-83808000D01*
X97414285Y-83308000D02*
X97414285Y-83808000D01*
%TO.C,C244*%
X110314285Y-109108000D02*
X110314285Y-110408000D01*
X110814285Y-109108000D02*
X110314285Y-109108000D01*
X110814285Y-109108000D02*
X110814285Y-110408000D01*
X110814285Y-110408000D02*
X110314285Y-110408000D01*
%TO.C,L16*%
X96454285Y-82298000D02*
X96454285Y-83218000D01*
X96454285Y-82298000D02*
X98274285Y-82298000D01*
X96454285Y-83218000D02*
X98274285Y-83218000D01*
X98274285Y-82298000D02*
X98274285Y-83218000D01*
%TO.C,C5*%
X61294285Y-95168000D02*
X61294285Y-94148000D01*
X63234285Y-94148000D02*
X61294285Y-94148000D01*
X63234285Y-95168000D02*
X61294285Y-95168000D01*
X63234285Y-95168000D02*
X63234285Y-94148000D01*
%TO.C,R55*%
X99154285Y-107818000D02*
X99154285Y-106898000D01*
X100974285Y-106898000D02*
X99154285Y-106898000D01*
X100974285Y-107818000D02*
X99154285Y-107818000D01*
X100974285Y-107818000D02*
X100974285Y-106898000D01*
%TO.C,C165*%
X95114285Y-87308000D02*
X95114285Y-88608000D01*
X95614285Y-87308000D02*
X95114285Y-87308000D01*
X95614285Y-87308000D02*
X95614285Y-88608000D01*
X95614285Y-88608000D02*
X95114285Y-88608000D01*
%TO.C,C121*%
X107314285Y-82608000D02*
X107314285Y-82108000D01*
X108614285Y-82108000D02*
X107314285Y-82108000D01*
X108614285Y-82608000D02*
X107314285Y-82608000D01*
X108614285Y-82608000D02*
X108614285Y-82108000D01*
%TO.C,C139*%
X105014285Y-75808000D02*
X105014285Y-75308000D01*
X106314285Y-75308000D02*
X105014285Y-75308000D01*
X106314285Y-75808000D02*
X105014285Y-75808000D01*
X106314285Y-75808000D02*
X106314285Y-75308000D01*
%TO.C,C249*%
X107614285Y-108308000D02*
X107614285Y-109608000D01*
X108114285Y-108308000D02*
X107614285Y-108308000D01*
X108114285Y-108308000D02*
X108114285Y-109608000D01*
X108114285Y-109608000D02*
X107614285Y-109608000D01*
%TO.C,C230*%
X104614285Y-101408000D02*
X104614285Y-100908000D01*
X105914285Y-100908000D02*
X104614285Y-100908000D01*
X105914285Y-101408000D02*
X104614285Y-101408000D01*
X105914285Y-101408000D02*
X105914285Y-100908000D01*
%TO.C,R90*%
X95204285Y-71148000D02*
X95204285Y-72968000D01*
X96124285Y-71148000D02*
X95204285Y-71148000D01*
X96124285Y-71148000D02*
X96124285Y-72968000D01*
X96124285Y-72968000D02*
X95204285Y-72968000D01*
%TO.C,R58*%
X106304285Y-114248000D02*
X106304285Y-116068000D01*
X107224285Y-114248000D02*
X106304285Y-114248000D01*
X107224285Y-114248000D02*
X107224285Y-116068000D01*
X107224285Y-116068000D02*
X106304285Y-116068000D01*
%TO.C,C92*%
X100114285Y-80908000D02*
X100114285Y-81408000D01*
X100114285Y-80908000D02*
X101414285Y-80908000D01*
X100114285Y-81408000D02*
X101414285Y-81408000D01*
X101414285Y-80908000D02*
X101414285Y-81408000D01*
%TO.C,C68*%
X101704285Y-117348000D02*
X101704285Y-119168000D01*
X102624285Y-117348000D02*
X101704285Y-117348000D01*
X102624285Y-117348000D02*
X102624285Y-119168000D01*
X102624285Y-119168000D02*
X101704285Y-119168000D01*
%TO.C,C153*%
X102414285Y-95708000D02*
X102914285Y-95708000D01*
X102414285Y-97008000D02*
X102414285Y-95708000D01*
X102414285Y-97008000D02*
X102914285Y-97008000D01*
X102914285Y-97008000D02*
X102914285Y-95708000D01*
%TO.C,R11*%
X64154285Y-96518000D02*
X64154285Y-95598000D01*
X65974285Y-95598000D02*
X64154285Y-95598000D01*
X65974285Y-96518000D02*
X64154285Y-96518000D01*
X65974285Y-96518000D02*
X65974285Y-95598000D01*
%TO.C,C123*%
X97504285Y-71948000D02*
X97504285Y-73768000D01*
X98424285Y-71948000D02*
X97504285Y-71948000D01*
X98424285Y-71948000D02*
X98424285Y-73768000D01*
X98424285Y-73768000D02*
X97504285Y-73768000D01*
%TO.C,C14*%
X51854285Y-92998000D02*
X51854285Y-93918000D01*
X51854285Y-92998000D02*
X53674285Y-92998000D01*
X51854285Y-93918000D02*
X53674285Y-93918000D01*
X53674285Y-92998000D02*
X53674285Y-93918000D01*
%TO.C,R171*%
X77204285Y-49148000D02*
X77204285Y-50968000D01*
X78124285Y-49148000D02*
X77204285Y-49148000D01*
X78124285Y-49148000D02*
X78124285Y-50968000D01*
X78124285Y-50968000D02*
X77204285Y-50968000D01*
%TO.C,C100*%
X96914285Y-84108000D02*
X96914285Y-84608000D01*
X96914285Y-84108000D02*
X98214285Y-84108000D01*
X96914285Y-84608000D02*
X98214285Y-84608000D01*
X98214285Y-84108000D02*
X98214285Y-84608000D01*
%TO.C,C120*%
X94514285Y-82508000D02*
X94514285Y-83008000D01*
X94514285Y-82508000D02*
X95814285Y-82508000D01*
X94514285Y-83008000D02*
X95814285Y-83008000D01*
X95814285Y-82508000D02*
X95814285Y-83008000D01*
%TO.C,R54*%
X109304285Y-114248000D02*
X109304285Y-116068000D01*
X110224285Y-114248000D02*
X109304285Y-114248000D01*
X110224285Y-114248000D02*
X110224285Y-116068000D01*
X110224285Y-116068000D02*
X109304285Y-116068000D01*
%TO.C,C119*%
X80764285Y-83058000D02*
X80764285Y-85058000D01*
X80764285Y-83058000D02*
X84264285Y-83058000D01*
X80764285Y-85058000D02*
X84264285Y-85058000D01*
X84264285Y-83058000D02*
X84264285Y-85058000D01*
%TO.C,C128*%
X100114285Y-76008000D02*
X100114285Y-77308000D01*
X100614285Y-76008000D02*
X100114285Y-76008000D01*
X100614285Y-76008000D02*
X100614285Y-77308000D01*
X100614285Y-77308000D02*
X100114285Y-77308000D01*
%TO.C,C131*%
X90454285Y-73498000D02*
X90454285Y-74418000D01*
X90454285Y-73498000D02*
X92274285Y-73498000D01*
X90454285Y-74418000D02*
X92274285Y-74418000D01*
X92274285Y-73498000D02*
X92274285Y-74418000D01*
%TO.C,C236*%
X109414285Y-103408000D02*
X109414285Y-103908000D01*
X109414285Y-103408000D02*
X110714285Y-103408000D01*
X109414285Y-103908000D02*
X110714285Y-103908000D01*
X110714285Y-103408000D02*
X110714285Y-103908000D01*
%TO.C,C110*%
X96064285Y-91208000D02*
X98064285Y-91208000D01*
X96064285Y-94708000D02*
X96064285Y-91208000D01*
X96064285Y-94708000D02*
X98064285Y-94708000D01*
X98064285Y-94708000D02*
X98064285Y-91208000D01*
%TO.C,C90*%
X98514285Y-80908000D02*
X98514285Y-81408000D01*
X98514285Y-80908000D02*
X99814285Y-80908000D01*
X98514285Y-81408000D02*
X99814285Y-81408000D01*
X99814285Y-80908000D02*
X99814285Y-81408000D01*
%TO.C,C40*%
X52104285Y-45748000D02*
X52104285Y-47568000D01*
X53024285Y-45748000D02*
X52104285Y-45748000D01*
X53024285Y-45748000D02*
X53024285Y-47568000D01*
X53024285Y-47568000D02*
X52104285Y-47568000D01*
%TO.C,R72*%
X110904285Y-105648000D02*
X111824285Y-105648000D01*
X110904285Y-107468000D02*
X110904285Y-105648000D01*
X110904285Y-107468000D02*
X111824285Y-107468000D01*
X111824285Y-107468000D02*
X111824285Y-105648000D01*
%TO.C,C239*%
X103614285Y-105808000D02*
X103614285Y-106308000D01*
X103614285Y-105808000D02*
X104914285Y-105808000D01*
X103614285Y-106308000D02*
X104914285Y-106308000D01*
X104914285Y-105808000D02*
X104914285Y-106308000D01*
%TO.C,C118*%
X82354285Y-85098000D02*
X82354285Y-86018000D01*
X82354285Y-85098000D02*
X84174285Y-85098000D01*
X82354285Y-86018000D02*
X84174285Y-86018000D01*
X84174285Y-85098000D02*
X84174285Y-86018000D01*
%TO.C,R1*%
X91464285Y-102508000D02*
X91464285Y-101008000D01*
X94464285Y-101008000D02*
X91464285Y-101008000D01*
X94464285Y-102508000D02*
X91464285Y-102508000D01*
X94464285Y-102508000D02*
X94464285Y-101008000D01*
%TO.C,R146*%
X44404285Y-118748000D02*
X44404285Y-120568000D01*
X45324285Y-118748000D02*
X44404285Y-118748000D01*
X45324285Y-118748000D02*
X45324285Y-120568000D01*
X45324285Y-120568000D02*
X44404285Y-120568000D01*
%TO.C,L8*%
X54214285Y-80408000D02*
X54214285Y-84308000D01*
X54214285Y-84308000D02*
X56914285Y-84308000D01*
X56914285Y-80408000D02*
X54214285Y-80408000D01*
X56914285Y-84308000D02*
X56914285Y-80408000D01*
%TO.C,R15*%
X64154285Y-98598000D02*
X64154285Y-99518000D01*
X64154285Y-98598000D02*
X65974285Y-98598000D01*
X64154285Y-99518000D02*
X65974285Y-99518000D01*
X65974285Y-98598000D02*
X65974285Y-99518000D01*
%TO.C,R178*%
X63954285Y-105298000D02*
X64874285Y-105298000D01*
X63954285Y-107118000D02*
X63954285Y-105298000D01*
X63954285Y-107118000D02*
X64874285Y-107118000D01*
X64874285Y-107118000D02*
X64874285Y-105298000D01*
%TO.C,C105*%
X98304285Y-81648000D02*
X98304285Y-83468000D01*
X99224285Y-81648000D02*
X98304285Y-81648000D01*
X99224285Y-81648000D02*
X99224285Y-83468000D01*
X99224285Y-83468000D02*
X98304285Y-83468000D01*
%TO.C,C144*%
X104514285Y-90208000D02*
X104514285Y-89708000D01*
X105814285Y-89708000D02*
X104514285Y-89708000D01*
X105814285Y-90208000D02*
X104514285Y-90208000D01*
X105814285Y-90208000D02*
X105814285Y-89708000D01*
%TO.C,C137*%
X92914285Y-82208000D02*
X92914285Y-81708000D01*
X94214285Y-81708000D02*
X92914285Y-81708000D01*
X94214285Y-82208000D02*
X92914285Y-82208000D01*
X94214285Y-82208000D02*
X94214285Y-81708000D01*
%TO.C,C154*%
X99304285Y-81708000D02*
X99304285Y-82208000D01*
X99304285Y-81708000D02*
X100604285Y-81708000D01*
X99304285Y-82208000D02*
X100604285Y-82208000D01*
X100604285Y-81708000D02*
X100604285Y-82208000D01*
%TO.C,C72*%
X35704285Y-97998000D02*
X35704285Y-98918000D01*
X35704285Y-97998000D02*
X37524285Y-97998000D01*
X35704285Y-98918000D02*
X37524285Y-98918000D01*
X37524285Y-97998000D02*
X37524285Y-98918000D01*
%TO.C,C167*%
X88954285Y-89398000D02*
X88954285Y-90318000D01*
X88954285Y-89398000D02*
X90774285Y-89398000D01*
X88954285Y-90318000D02*
X90774285Y-90318000D01*
X90774285Y-89398000D02*
X90774285Y-90318000D01*
%TO.C,L15*%
X97631785Y-95458000D02*
X97631785Y-97458000D01*
X97631785Y-95458000D02*
X101131785Y-95458000D01*
X97631785Y-97458000D02*
X101131785Y-97458000D01*
X101131785Y-95458000D02*
X101131785Y-97458000D01*
%TO.C,U22*%
X25614285Y-103538000D02*
X25614285Y-98038000D01*
X33114285Y-98038000D02*
X25614285Y-98038000D01*
X33114285Y-103538000D02*
X25614285Y-103538000D01*
X33114285Y-103538000D02*
X33114285Y-98038000D01*
%TO.C,L9*%
X57114285Y-80408000D02*
X57114285Y-84308000D01*
X57114285Y-84308000D02*
X59814285Y-84308000D01*
X59814285Y-80408000D02*
X57114285Y-80408000D01*
X59814285Y-84308000D02*
X59814285Y-80408000D01*
%TO.C,R169*%
X92654285Y-117498000D02*
X92654285Y-118418000D01*
X92654285Y-117498000D02*
X94474285Y-117498000D01*
X92654285Y-118418000D02*
X94474285Y-118418000D01*
X94474285Y-117498000D02*
X94474285Y-118418000D01*
%TO.C,C235*%
X110114285Y-105008000D02*
X110114285Y-106308000D01*
X110614285Y-105008000D02*
X110114285Y-105008000D01*
X110614285Y-105008000D02*
X110614285Y-106308000D01*
X110614285Y-106308000D02*
X110114285Y-106308000D01*
%TO.C,R145*%
X90854285Y-123168000D02*
X90854285Y-122248000D01*
X92674285Y-122248000D02*
X90854285Y-122248000D01*
X92674285Y-123168000D02*
X90854285Y-123168000D01*
X92674285Y-123168000D02*
X92674285Y-122248000D01*
%TO.C,C250*%
X102114285Y-104808000D02*
X102114285Y-106108000D01*
X102614285Y-104808000D02*
X102114285Y-104808000D01*
X102614285Y-104808000D02*
X102614285Y-106108000D01*
X102614285Y-106108000D02*
X102114285Y-106108000D01*
%TO.C,C134*%
X93514285Y-75308000D02*
X93514285Y-76608000D01*
X94014285Y-75308000D02*
X93514285Y-75308000D01*
X94014285Y-75308000D02*
X94014285Y-76608000D01*
X94014285Y-76608000D02*
X93514285Y-76608000D01*
%TO.C,C166*%
X96414285Y-89108000D02*
X96914285Y-89108000D01*
X96414285Y-90408000D02*
X96414285Y-89108000D01*
X96414285Y-90408000D02*
X96914285Y-90408000D01*
X96914285Y-90408000D02*
X96914285Y-89108000D01*
%TO.C,R53*%
X99154285Y-111818000D02*
X99154285Y-110898000D01*
X100974285Y-110898000D02*
X99154285Y-110898000D01*
X100974285Y-111818000D02*
X99154285Y-111818000D01*
X100974285Y-111818000D02*
X100974285Y-110898000D01*
%TO.C,C124*%
X104814285Y-84708000D02*
X105314285Y-84708000D01*
X104814285Y-86008000D02*
X104814285Y-84708000D01*
X104814285Y-86008000D02*
X105314285Y-86008000D01*
X105314285Y-86008000D02*
X105314285Y-84708000D01*
%TO.C,C130*%
X105914285Y-78608000D02*
X105914285Y-78108000D01*
X107214285Y-78108000D02*
X105914285Y-78108000D01*
X107214285Y-78608000D02*
X105914285Y-78608000D01*
X107214285Y-78608000D02*
X107214285Y-78108000D01*
%TO.C,L6*%
X58014285Y-44008000D02*
X58014285Y-47908000D01*
X58014285Y-47908000D02*
X60714285Y-47908000D01*
X60714285Y-44008000D02*
X58014285Y-44008000D01*
X60714285Y-47908000D02*
X60714285Y-44008000D01*
%TO.C,C164*%
X93114285Y-89058000D02*
X93114285Y-90358000D01*
X93614285Y-89058000D02*
X93114285Y-89058000D01*
X93614285Y-89058000D02*
X93614285Y-90358000D01*
X93614285Y-90358000D02*
X93114285Y-90358000D01*
%TO.C,C138*%
X90921609Y-78759217D02*
X90921609Y-79259217D01*
X90921609Y-78759217D02*
X92221609Y-78759217D01*
X90921609Y-79259217D02*
X92221609Y-79259217D01*
X92221609Y-78759217D02*
X92221609Y-79259217D01*
%TO.C,C159*%
X94514285Y-85708000D02*
X94514285Y-87008000D01*
X95014285Y-85708000D02*
X94514285Y-85708000D01*
X95014285Y-85708000D02*
X95014285Y-87008000D01*
X95014285Y-87008000D02*
X94514285Y-87008000D01*
%TO.C,C145*%
X106114285Y-86608000D02*
X106114285Y-86108000D01*
X107414285Y-86108000D02*
X106114285Y-86108000D01*
X107414285Y-86608000D02*
X106114285Y-86608000D01*
X107414285Y-86608000D02*
X107414285Y-86108000D01*
%TO.C,C232*%
X103714285Y-101908000D02*
X104214285Y-101908000D01*
X103714285Y-103208000D02*
X103714285Y-101908000D01*
X103714285Y-103208000D02*
X104214285Y-103208000D01*
X104214285Y-103208000D02*
X104214285Y-101908000D01*
%TO.C,C161*%
X88954285Y-86198000D02*
X88954285Y-87118000D01*
X88954285Y-86198000D02*
X90774285Y-86198000D01*
X88954285Y-87118000D02*
X90774285Y-87118000D01*
X90774285Y-86198000D02*
X90774285Y-87118000D01*
%TO.C,R144*%
X60104285Y-118448000D02*
X60104285Y-120268000D01*
X61024285Y-118448000D02*
X60104285Y-118448000D01*
X61024285Y-118448000D02*
X61024285Y-120268000D01*
X61024285Y-120268000D02*
X60104285Y-120268000D01*
%TO.C,C42*%
X62004285Y-80748000D02*
X62924285Y-80748000D01*
X62004285Y-82568000D02*
X62004285Y-80748000D01*
X62004285Y-82568000D02*
X62924285Y-82568000D01*
X62924285Y-82568000D02*
X62924285Y-80748000D01*
%TO.C,C115*%
X96114285Y-79308000D02*
X96114285Y-80608000D01*
X96614285Y-79308000D02*
X96114285Y-79308000D01*
X96614285Y-79308000D02*
X96614285Y-80608000D01*
X96614285Y-80608000D02*
X96114285Y-80608000D01*
%TO.C,C148*%
X100114285Y-84908000D02*
X100114285Y-86208000D01*
X100614285Y-84908000D02*
X100114285Y-84908000D01*
X100614285Y-84908000D02*
X100614285Y-86208000D01*
X100614285Y-86208000D02*
X100114285Y-86208000D01*
%TO.C,C242*%
X110314285Y-110708000D02*
X110314285Y-112008000D01*
X110814285Y-110708000D02*
X110314285Y-110708000D01*
X110814285Y-110708000D02*
X110814285Y-112008000D01*
X110814285Y-112008000D02*
X110314285Y-112008000D01*
%TO.C,C143*%
X100914285Y-88308000D02*
X101414285Y-88308000D01*
X100914285Y-89608000D02*
X100914285Y-88308000D01*
X100914285Y-89608000D02*
X101414285Y-89608000D01*
X101414285Y-89608000D02*
X101414285Y-88308000D01*
%TO.C,C238*%
X110214285Y-101008000D02*
X110214285Y-102308000D01*
X110714285Y-101008000D02*
X110214285Y-101008000D01*
X110714285Y-101008000D02*
X110714285Y-102308000D01*
X110714285Y-102308000D02*
X110214285Y-102308000D01*
%TO.C,C186*%
X76064285Y-100508000D02*
X76064285Y-101008000D01*
X76064285Y-100508000D02*
X77364285Y-100508000D01*
X76064285Y-101008000D02*
X77364285Y-101008000D01*
X77364285Y-100508000D02*
X77364285Y-101008000D01*
%TO.C,U9*%
X100944285Y-92058000D02*
X104784285Y-92058000D01*
X100944285Y-95458000D02*
X100944285Y-92058000D01*
X104784285Y-92058000D02*
X104784285Y-95458000D01*
X104784285Y-95458000D02*
X100944285Y-95458000D01*
%TO.C,C107*%
X99954285Y-83318000D02*
X99954285Y-82398000D01*
X101774285Y-82398000D02*
X99954285Y-82398000D01*
X101774285Y-83318000D02*
X99954285Y-83318000D01*
X101774285Y-83318000D02*
X101774285Y-82398000D01*
%TO.C,C147*%
X102414285Y-84108000D02*
X102414285Y-85408000D01*
X102914285Y-84108000D02*
X102414285Y-84108000D01*
X102914285Y-84108000D02*
X102914285Y-85408000D01*
X102914285Y-85408000D02*
X102414285Y-85408000D01*
%TO.C,C142*%
X106954285Y-84898000D02*
X106954285Y-85818000D01*
X106954285Y-84898000D02*
X108774285Y-84898000D01*
X106954285Y-85818000D02*
X108774285Y-85818000D01*
X108774285Y-84898000D02*
X108774285Y-85818000D01*
%TO.C,R16*%
X64154285Y-95518000D02*
X64154285Y-94598000D01*
X65974285Y-94598000D02*
X64154285Y-94598000D01*
X65974285Y-95518000D02*
X64154285Y-95518000D01*
X65974285Y-95518000D02*
X65974285Y-94598000D01*
%TO.C,C179*%
X43604285Y-116048000D02*
X43604285Y-117868000D01*
X44524285Y-116048000D02*
X43604285Y-116048000D01*
X44524285Y-116048000D02*
X44524285Y-117868000D01*
X44524285Y-117868000D02*
X43604285Y-117868000D01*
%TO.C,R112*%
X70204285Y-113248000D02*
X71124285Y-113248000D01*
X70204285Y-115068000D02*
X70204285Y-113248000D01*
X70204285Y-115068000D02*
X71124285Y-115068000D01*
X71124285Y-115068000D02*
X71124285Y-113248000D01*
%TO.C,C104*%
X106954285Y-84818000D02*
X106954285Y-83898000D01*
X108774285Y-83898000D02*
X106954285Y-83898000D01*
X108774285Y-84818000D02*
X106954285Y-84818000D01*
X108774285Y-84818000D02*
X108774285Y-83898000D01*
%TO.C,C33*%
X53254285Y-84398000D02*
X53254285Y-85318000D01*
X53254285Y-84398000D02*
X55074285Y-84398000D01*
X53254285Y-85318000D02*
X55074285Y-85318000D01*
X55074285Y-84398000D02*
X55074285Y-85318000D01*
%TO.C,R165*%
X89004285Y-49348000D02*
X89004285Y-51168000D01*
X89924285Y-49348000D02*
X89004285Y-49348000D01*
X89924285Y-49348000D02*
X89924285Y-51168000D01*
X89924285Y-51168000D02*
X89004285Y-51168000D01*
%TO.C,C89*%
X97714285Y-79308000D02*
X97714285Y-80608000D01*
X98214285Y-79308000D02*
X97714285Y-79308000D01*
X98214285Y-79308000D02*
X98214285Y-80608000D01*
X98214285Y-80608000D02*
X97714285Y-80608000D01*
%TO.C,C96*%
X100914285Y-85408000D02*
X100914285Y-84908000D01*
X102214285Y-84908000D02*
X100914285Y-84908000D01*
X102214285Y-85408000D02*
X100914285Y-85408000D01*
X102214285Y-85408000D02*
X102214285Y-84908000D01*
%TO.C,TP4*%
X58514285Y-86808000D02*
G75*
G02*
X56014285Y-86808000I-1250000J0D01*
G01*
X56014285Y-86808000D02*
G75*
G02*
X58514285Y-86808000I1250000J0D01*
G01*
%TO.C,R70*%
X99154285Y-109818000D02*
X99154285Y-108898000D01*
X100974285Y-108898000D02*
X99154285Y-108898000D01*
X100974285Y-109818000D02*
X99154285Y-109818000D01*
X100974285Y-109818000D02*
X100974285Y-108898000D01*
%TO.C,C136*%
X96114285Y-74508000D02*
X96114285Y-75808000D01*
X96614285Y-74508000D02*
X96114285Y-74508000D01*
X96614285Y-74508000D02*
X96614285Y-75808000D01*
X96614285Y-75808000D02*
X96114285Y-75808000D01*
%TO.C,R95*%
X62404285Y-104610500D02*
X63324285Y-104610500D01*
X62404285Y-106430500D02*
X62404285Y-104610500D01*
X62404285Y-106430500D02*
X63324285Y-106430500D01*
X63324285Y-106430500D02*
X63324285Y-104610500D01*
%TO.C,C146*%
X103314285Y-82108000D02*
X103814285Y-82108000D01*
X103314285Y-83408000D02*
X103314285Y-82108000D01*
X103314285Y-83408000D02*
X103814285Y-83408000D01*
X103814285Y-83408000D02*
X103814285Y-82108000D01*
%TO.C,R69*%
X99154285Y-108818000D02*
X99154285Y-107898000D01*
X100974285Y-107898000D02*
X99154285Y-107898000D01*
X100974285Y-108818000D02*
X99154285Y-108818000D01*
X100974285Y-108818000D02*
X100974285Y-107898000D01*
%TO.C,C169*%
X91314285Y-88908000D02*
X91814285Y-88908000D01*
X91314285Y-90208000D02*
X91314285Y-88908000D01*
X91314285Y-90208000D02*
X91814285Y-90208000D01*
X91814285Y-90208000D02*
X91814285Y-88908000D01*
%TO.C,R97*%
X60304285Y-106610500D02*
X61224285Y-106610500D01*
X60304285Y-108430500D02*
X60304285Y-106610500D01*
X60304285Y-108430500D02*
X61224285Y-108430500D01*
X61224285Y-108430500D02*
X61224285Y-106610500D01*
%TO.C,C15*%
X51854285Y-95198000D02*
X51854285Y-96118000D01*
X51854285Y-95198000D02*
X53674285Y-95198000D01*
X51854285Y-96118000D02*
X53674285Y-96118000D01*
X53674285Y-95198000D02*
X53674285Y-96118000D01*
%TO.C,C149*%
X104814285Y-86808000D02*
X105314285Y-86808000D01*
X104814285Y-88108000D02*
X104814285Y-86808000D01*
X104814285Y-88108000D02*
X105314285Y-88108000D01*
X105314285Y-88108000D02*
X105314285Y-86808000D01*
%TO.C,R168*%
X106954285Y-105748000D02*
X107874285Y-105748000D01*
X106954285Y-107568000D02*
X106954285Y-105748000D01*
X106954285Y-107568000D02*
X107874285Y-107568000D01*
X107874285Y-107568000D02*
X107874285Y-105748000D01*
%TO.C,C31*%
X59754285Y-43918000D02*
X59754285Y-42998000D01*
X61574285Y-42998000D02*
X59754285Y-42998000D01*
X61574285Y-43918000D02*
X59754285Y-43918000D01*
X61574285Y-43918000D02*
X61574285Y-42998000D01*
%TO.C,R71*%
X99154285Y-106818000D02*
X99154285Y-105898000D01*
X100974285Y-105898000D02*
X99154285Y-105898000D01*
X100974285Y-106818000D02*
X99154285Y-106818000D01*
X100974285Y-106818000D02*
X100974285Y-105898000D01*
%TO.C,R91*%
X40514285Y-114808000D02*
X40514285Y-118308000D01*
X42414285Y-114808000D02*
X40514285Y-114808000D01*
X42414285Y-114808000D02*
X42414285Y-118308000D01*
X42414285Y-118308000D02*
X40514285Y-118308000D01*
%TO.C,R170*%
X76204285Y-49148000D02*
X76204285Y-50968000D01*
X77124285Y-49148000D02*
X76204285Y-49148000D01*
X77124285Y-49148000D02*
X77124285Y-50968000D01*
X77124285Y-50968000D02*
X76204285Y-50968000D01*
%TO.C,C91*%
X101814285Y-83158000D02*
X101814285Y-83658000D01*
X101814285Y-83158000D02*
X103114285Y-83158000D01*
X101814285Y-83658000D02*
X103114285Y-83658000D01*
X103114285Y-83158000D02*
X103114285Y-83658000D01*
%TO.C,C233*%
X104514285Y-102708000D02*
X105014285Y-102708000D01*
X104514285Y-104008000D02*
X104514285Y-102708000D01*
X104514285Y-104008000D02*
X105014285Y-104008000D01*
X105014285Y-104008000D02*
X105014285Y-102708000D01*
%TO.C,R52*%
X110304285Y-114248000D02*
X110304285Y-116068000D01*
X111224285Y-114248000D02*
X110304285Y-114248000D01*
X111224285Y-114248000D02*
X111224285Y-116068000D01*
X111224285Y-116068000D02*
X110304285Y-116068000D01*
%TO.C,C36*%
X53114285Y-44358000D02*
X53114285Y-47758000D01*
X55014285Y-44358000D02*
X53114285Y-44358000D01*
X55014285Y-44358000D02*
X55014285Y-47758000D01*
X55014285Y-47758000D02*
X53114285Y-47758000D01*
%TO.C,Y5*%
X34314285Y-99408000D02*
X38014285Y-99408000D01*
X34314285Y-105308000D02*
X34314285Y-99408000D01*
X34314285Y-105308000D02*
X38014285Y-105308000D01*
X38014285Y-105308000D02*
X38014285Y-99408000D01*
%TO.C,L11*%
X104814285Y-92508000D02*
X106314285Y-92508000D01*
X104814285Y-95608000D02*
X104814285Y-92508000D01*
X104814285Y-95608000D02*
X106314285Y-95608000D01*
X106314285Y-95608000D02*
X106314285Y-92508000D01*
%TO.C,C8*%
X61354285Y-94018000D02*
X61354285Y-93098000D01*
X63174285Y-93098000D02*
X61354285Y-93098000D01*
X63174285Y-94018000D02*
X61354285Y-94018000D01*
X63174285Y-94018000D02*
X63174285Y-93098000D01*
%TO.C,C106*%
X106954285Y-83818000D02*
X106954285Y-82898000D01*
X108774285Y-82898000D02*
X106954285Y-82898000D01*
X108774285Y-83818000D02*
X106954285Y-83818000D01*
X108774285Y-83818000D02*
X108774285Y-82898000D01*
%TO.C,C70*%
X24554285Y-98498000D02*
X25474285Y-98498000D01*
X24554285Y-100318000D02*
X24554285Y-98498000D01*
X24554285Y-100318000D02*
X25474285Y-100318000D01*
X25474285Y-100318000D02*
X25474285Y-98498000D01*
%TO.C,R108*%
X71204285Y-113248000D02*
X72124285Y-113248000D01*
X71204285Y-115068000D02*
X71204285Y-113248000D01*
X71204285Y-115068000D02*
X72124285Y-115068000D01*
X72124285Y-115068000D02*
X72124285Y-113248000D01*
%TO.C,R13*%
X64154285Y-98518000D02*
X64154285Y-97598000D01*
X65974285Y-97598000D02*
X64154285Y-97598000D01*
X65974285Y-98518000D02*
X64154285Y-98518000D01*
X65974285Y-98518000D02*
X65974285Y-97598000D01*
%TO.C,R10*%
X64154285Y-97518000D02*
X64154285Y-96598000D01*
X65974285Y-96598000D02*
X64154285Y-96598000D01*
X65974285Y-97518000D02*
X64154285Y-97518000D01*
X65974285Y-97518000D02*
X65974285Y-96598000D01*
%TO.C,C246*%
X103414285Y-111608000D02*
X103914285Y-111608000D01*
X103414285Y-112908000D02*
X103414285Y-111608000D01*
X103414285Y-112908000D02*
X103914285Y-112908000D01*
X103914285Y-112908000D02*
X103914285Y-111608000D01*
%TO.C,C71*%
X33304285Y-103448000D02*
X34224285Y-103448000D01*
X33304285Y-105268000D02*
X33304285Y-103448000D01*
X33304285Y-105268000D02*
X34224285Y-105268000D01*
X34224285Y-105268000D02*
X34224285Y-103448000D01*
%TO.C,C129*%
X104214285Y-81508000D02*
X104214285Y-81008000D01*
X105514285Y-81008000D02*
X104214285Y-81008000D01*
X105514285Y-81508000D02*
X104214285Y-81508000D01*
X105514285Y-81508000D02*
X105514285Y-81008000D01*
%TO.C,C99*%
X100114285Y-79308000D02*
X100114285Y-80608000D01*
X100614285Y-79308000D02*
X100114285Y-79308000D01*
X100614285Y-79308000D02*
X100614285Y-80608000D01*
X100614285Y-80608000D02*
X100114285Y-80608000D01*
%TO.C,R114*%
X87704285Y-88248000D02*
X87704285Y-90068000D01*
X88624285Y-88248000D02*
X87704285Y-88248000D01*
X88624285Y-88248000D02*
X88624285Y-90068000D01*
X88624285Y-90068000D02*
X87704285Y-90068000D01*
%TO.C,Y1*%
X75514285Y-105058000D02*
X75514285Y-101358000D01*
X78914285Y-101358000D02*
X75514285Y-101358000D01*
X78914285Y-105058000D02*
X75514285Y-105058000D01*
X78914285Y-105058000D02*
X78914285Y-101358000D01*
%TO.C,C151*%
X99754285Y-92288000D02*
X100774285Y-92288000D01*
X99754285Y-94228000D02*
X99754285Y-92288000D01*
X99754285Y-94228000D02*
X100774285Y-94228000D01*
X100774285Y-94228000D02*
X100774285Y-92288000D01*
%TO.C,C229*%
X109314285Y-100508000D02*
X109314285Y-100008000D01*
X110614285Y-100008000D02*
X109314285Y-100008000D01*
X110614285Y-100508000D02*
X109314285Y-100508000D01*
X110614285Y-100508000D02*
X110614285Y-100008000D01*
%TO.C,C158*%
X91327889Y-86875157D02*
X92247128Y-87794396D01*
X91681442Y-86521604D02*
X91327889Y-86875157D01*
X91681442Y-86521604D02*
X92600681Y-87440843D01*
X92600681Y-87440843D02*
X92247128Y-87794396D01*
%TO.C,C133*%
X108354285Y-78818000D02*
X108354285Y-77898000D01*
X110174285Y-77898000D02*
X108354285Y-77898000D01*
X110174285Y-78818000D02*
X108354285Y-78818000D01*
X110174285Y-78818000D02*
X110174285Y-77898000D01*
%TO.C,C125*%
X90614285Y-76808000D02*
X90614285Y-77308000D01*
X90614285Y-76808000D02*
X91914285Y-76808000D01*
X90614285Y-77308000D02*
X91914285Y-77308000D01*
X91914285Y-76808000D02*
X91914285Y-77308000D01*
%TO.C,R50*%
X105304285Y-114248000D02*
X105304285Y-116068000D01*
X106224285Y-114248000D02*
X105304285Y-114248000D01*
X106224285Y-114248000D02*
X106224285Y-116068000D01*
X106224285Y-116068000D02*
X105304285Y-116068000D01*
%TO.C,R172*%
X78204285Y-49148000D02*
X78204285Y-50968000D01*
X79124285Y-49148000D02*
X78204285Y-49148000D01*
X79124285Y-49148000D02*
X79124285Y-50968000D01*
X79124285Y-50968000D02*
X78204285Y-50968000D01*
%TO.C,C135*%
X96914285Y-76908000D02*
X96914285Y-78208000D01*
X97414285Y-76908000D02*
X96914285Y-76908000D01*
X97414285Y-76908000D02*
X97414285Y-78208000D01*
X97414285Y-78208000D02*
X96914285Y-78208000D01*
%TO.C,C113*%
X101564285Y-79108000D02*
X101564285Y-79608000D01*
X101564285Y-79108000D02*
X102864285Y-79108000D01*
X101564285Y-79608000D02*
X102864285Y-79608000D01*
X102864285Y-79108000D02*
X102864285Y-79608000D01*
%TO.C,R92*%
X42604285Y-116048000D02*
X43524285Y-116048000D01*
X42604285Y-117868000D02*
X42604285Y-116048000D01*
X42604285Y-117868000D02*
X43524285Y-117868000D01*
X43524285Y-117868000D02*
X43524285Y-116048000D01*
%TO.C,C97*%
X101064285Y-80008000D02*
X101064285Y-80508000D01*
X101064285Y-80008000D02*
X102364285Y-80008000D01*
X101064285Y-80508000D02*
X102364285Y-80508000D01*
X102364285Y-80008000D02*
X102364285Y-80508000D01*
%TO.C,C162*%
X88954285Y-87398000D02*
X88954285Y-88318000D01*
X88954285Y-87398000D02*
X90774285Y-87398000D01*
X88954285Y-88318000D02*
X90774285Y-88318000D01*
X90774285Y-87398000D02*
X90774285Y-88318000D01*
%TO.C,C67*%
X104704285Y-117348000D02*
X104704285Y-119168000D01*
X105624285Y-117348000D02*
X104704285Y-117348000D01*
X105624285Y-117348000D02*
X105624285Y-119168000D01*
X105624285Y-119168000D02*
X104704285Y-119168000D01*
%TO.C,R164*%
X88004285Y-49348000D02*
X88004285Y-51168000D01*
X88924285Y-49348000D02*
X88004285Y-49348000D01*
X88924285Y-49348000D02*
X88924285Y-51168000D01*
X88924285Y-51168000D02*
X88004285Y-51168000D01*
%TO.C,C243*%
X108314285Y-106408000D02*
X108314285Y-105908000D01*
X109614285Y-105908000D02*
X108314285Y-105908000D01*
X109614285Y-106408000D02*
X108314285Y-106408000D01*
X109614285Y-106408000D02*
X109614285Y-105908000D01*
%TO.C,R179*%
X58254285Y-118448000D02*
X58254285Y-119368000D01*
X58254285Y-118448000D02*
X60074285Y-118448000D01*
X58254285Y-119368000D02*
X60074285Y-119368000D01*
X60074285Y-118448000D02*
X60074285Y-119368000D01*
%TO.C,C98*%
X96114285Y-80908000D02*
X96114285Y-82208000D01*
X96614285Y-80908000D02*
X96114285Y-80908000D01*
X96614285Y-80908000D02*
X96614285Y-82208000D01*
X96614285Y-82208000D02*
X96114285Y-82208000D01*
%TO.C,C231*%
X103614285Y-100208000D02*
X104114285Y-100208000D01*
X103614285Y-101508000D02*
X103614285Y-100208000D01*
X103614285Y-101508000D02*
X104114285Y-101508000D01*
X104114285Y-101508000D02*
X104114285Y-100208000D01*
%TO.C,C102*%
X94514285Y-83308000D02*
X94514285Y-83808000D01*
X94514285Y-83308000D02*
X95814285Y-83308000D01*
X94514285Y-83808000D02*
X95814285Y-83808000D01*
X95814285Y-83308000D02*
X95814285Y-83808000D01*
%TO.C,C152*%
X101154285Y-95488000D02*
X102174285Y-95488000D01*
X101154285Y-97428000D02*
X101154285Y-95488000D01*
X101154285Y-97428000D02*
X102174285Y-97428000D01*
X102174285Y-97428000D02*
X102174285Y-95488000D01*
%TO.C,R100*%
X93604285Y-119598000D02*
X93604285Y-120518000D01*
X93604285Y-119598000D02*
X95424285Y-119598000D01*
X93604285Y-120518000D02*
X95424285Y-120518000D01*
X95424285Y-119598000D02*
X95424285Y-120518000D01*
%TO.C,C237*%
X109414285Y-102608000D02*
X109414285Y-103108000D01*
X109414285Y-102608000D02*
X110714285Y-102608000D01*
X109414285Y-103108000D02*
X110714285Y-103108000D01*
X110714285Y-102608000D02*
X110714285Y-103108000D01*
%TO.C,C61*%
X107604285Y-103048000D02*
X107604285Y-104868000D01*
X108524285Y-103048000D02*
X107604285Y-103048000D01*
X108524285Y-103048000D02*
X108524285Y-104868000D01*
X108524285Y-104868000D02*
X107604285Y-104868000D01*
%TO.C,C93*%
X94514285Y-84908000D02*
X94514285Y-85408000D01*
X94514285Y-84908000D02*
X95814285Y-84908000D01*
X94514285Y-85408000D02*
X95814285Y-85408000D01*
X95814285Y-84908000D02*
X95814285Y-85408000D01*
%TO.C,C163*%
X94714285Y-89108000D02*
X94714285Y-90408000D01*
X95214285Y-89108000D02*
X94714285Y-89108000D01*
X95214285Y-89108000D02*
X95214285Y-90408000D01*
X95214285Y-90408000D02*
X94714285Y-90408000D01*
%TO.C,R142*%
X94054285Y-103313000D02*
X94054285Y-105133000D01*
X94974285Y-103313000D02*
X94054285Y-103313000D01*
X94974285Y-103313000D02*
X94974285Y-105133000D01*
X94974285Y-105133000D02*
X94054285Y-105133000D01*
%TO.C,C41*%
X51204285Y-80448000D02*
X52124285Y-80448000D01*
X51204285Y-82268000D02*
X51204285Y-80448000D01*
X51204285Y-82268000D02*
X52124285Y-82268000D01*
X52124285Y-82268000D02*
X52124285Y-80448000D01*
%TO.C,C241*%
X111214285Y-110708000D02*
X111214285Y-112008000D01*
X111714285Y-110708000D02*
X111214285Y-110708000D01*
X111714285Y-110708000D02*
X111714285Y-112008000D01*
X111714285Y-112008000D02*
X111214285Y-112008000D01*
%TO.C,C101*%
X96914285Y-84908000D02*
X97414285Y-84908000D01*
X96914285Y-86208000D02*
X96914285Y-84908000D01*
X96914285Y-86208000D02*
X97414285Y-86208000D01*
X97414285Y-86208000D02*
X97414285Y-84908000D01*
%TO.C,C156*%
X84954285Y-82098000D02*
X84954285Y-83018000D01*
X84954285Y-82098000D02*
X86774285Y-82098000D01*
X84954285Y-83018000D02*
X86774285Y-83018000D01*
X86774285Y-82098000D02*
X86774285Y-83018000D01*
%TO.C,C157*%
X92914285Y-85708000D02*
X92914285Y-87008000D01*
X93414285Y-85708000D02*
X92914285Y-85708000D01*
X93414285Y-85708000D02*
X93414285Y-87008000D01*
X93414285Y-87008000D02*
X92914285Y-87008000D01*
%TO.C,C160*%
X95314285Y-85708000D02*
X95314285Y-87008000D01*
X95814285Y-85708000D02*
X95314285Y-85708000D01*
X95814285Y-85708000D02*
X95814285Y-87008000D01*
X95814285Y-87008000D02*
X95314285Y-87008000D01*
%TO.C,C140*%
X103314285Y-78408000D02*
X103814285Y-78408000D01*
X103314285Y-79708000D02*
X103314285Y-78408000D01*
X103314285Y-79708000D02*
X103814285Y-79708000D01*
X103814285Y-79708000D02*
X103814285Y-78408000D01*
%TO.C,C155*%
X96914285Y-81708000D02*
X96914285Y-82208000D01*
X96914285Y-81708000D02*
X98214285Y-81708000D01*
X96914285Y-82208000D02*
X98214285Y-82208000D01*
X98214285Y-81708000D02*
X98214285Y-82208000D01*
%TO.C,R166*%
X90004285Y-49348000D02*
X90004285Y-51168000D01*
X90924285Y-49348000D02*
X90004285Y-49348000D01*
X90924285Y-49348000D02*
X90924285Y-51168000D01*
X90924285Y-51168000D02*
X90004285Y-51168000D01*
%TO.C,C132*%
X107554285Y-76118000D02*
X107554285Y-75198000D01*
X109374285Y-75198000D02*
X107554285Y-75198000D01*
X109374285Y-76118000D02*
X107554285Y-76118000D01*
X109374285Y-76118000D02*
X109374285Y-75198000D01*
%TO.C,R86*%
X94004285Y-71198000D02*
X94924285Y-71198000D01*
X94004285Y-73018000D02*
X94004285Y-71198000D01*
X94004285Y-73018000D02*
X94924285Y-73018000D01*
X94924285Y-73018000D02*
X94924285Y-71198000D01*
%TO.C,R74*%
X33204285Y-101148000D02*
X34124285Y-101148000D01*
X33204285Y-102968000D02*
X33204285Y-101148000D01*
X33204285Y-102968000D02*
X34124285Y-102968000D01*
X34124285Y-102968000D02*
X34124285Y-101148000D01*
%TO.C,R17*%
X64154285Y-94518000D02*
X64154285Y-93598000D01*
X65974285Y-93598000D02*
X64154285Y-93598000D01*
X65974285Y-94518000D02*
X64154285Y-94518000D01*
X65974285Y-94518000D02*
X65974285Y-93598000D01*
%TO.C,R94*%
X61264285Y-117958000D02*
X61264285Y-116058000D01*
X64764285Y-116058000D02*
X61264285Y-116058000D01*
X64764285Y-117958000D02*
X61264285Y-117958000D01*
X64764285Y-117958000D02*
X64764285Y-116058000D01*
%TO.C,C178*%
X58204285Y-116085500D02*
X58204285Y-117905500D01*
X59124285Y-116085500D02*
X58204285Y-116085500D01*
X59124285Y-116085500D02*
X59124285Y-117905500D01*
X59124285Y-117905500D02*
X58204285Y-117905500D01*
%TO.C,C141*%
X106554285Y-89448000D02*
X106554285Y-91268000D01*
X107474285Y-89448000D02*
X106554285Y-89448000D01*
X107474285Y-89448000D02*
X107474285Y-91268000D01*
X107474285Y-91268000D02*
X106554285Y-91268000D01*
%TO.C,R2*%
X95054285Y-103313000D02*
X95974285Y-103313000D01*
X95054285Y-105133000D02*
X95054285Y-103313000D01*
X95054285Y-105133000D02*
X95974285Y-105133000D01*
X95974285Y-105133000D02*
X95974285Y-103313000D01*
%TO.C,R62*%
X104304285Y-114248000D02*
X104304285Y-116068000D01*
X105224285Y-114248000D02*
X104304285Y-114248000D01*
X105224285Y-114248000D02*
X105224285Y-116068000D01*
X105224285Y-116068000D02*
X104304285Y-116068000D01*
%TO.C,C35*%
X60814285Y-44458000D02*
X60814285Y-47858000D01*
X62714285Y-44458000D02*
X60814285Y-44458000D01*
X62714285Y-44458000D02*
X62714285Y-47858000D01*
X62714285Y-47858000D02*
X60814285Y-47858000D01*
%TO.C,C112*%
X99314285Y-79308000D02*
X99814285Y-79308000D01*
X99314285Y-80608000D02*
X99314285Y-79308000D01*
X99314285Y-80608000D02*
X99814285Y-80608000D01*
X99814285Y-80608000D02*
X99814285Y-79308000D01*
%TO.C,R181*%
X43404285Y-118748000D02*
X44324285Y-118748000D01*
X43404285Y-120568000D02*
X43404285Y-118748000D01*
X43404285Y-120568000D02*
X44324285Y-120568000D01*
X44324285Y-120568000D02*
X44324285Y-118748000D01*
%TO.C,R111*%
X69204285Y-113248000D02*
X70124285Y-113248000D01*
X69204285Y-115068000D02*
X69204285Y-113248000D01*
X69204285Y-115068000D02*
X70124285Y-115068000D01*
X70124285Y-115068000D02*
X70124285Y-113248000D01*
D11*
%TO.C,J13*%
X52339285Y-65628000D02*
X52339285Y-77128000D01*
X52339285Y-65628000D02*
X63039285Y-65628000D01*
X52339285Y-77128000D02*
X63039285Y-77128000D01*
X63039285Y-65628000D02*
X63039285Y-77128000D01*
D10*
%TO.C,R98*%
X92604285Y-120848000D02*
X92604285Y-121768000D01*
X92604285Y-120848000D02*
X94424285Y-120848000D01*
X92604285Y-121768000D02*
X94424285Y-121768000D01*
X94424285Y-120848000D02*
X94424285Y-121768000D01*
%TO.C,R109*%
X72204285Y-113248000D02*
X73124285Y-113248000D01*
X72204285Y-115068000D02*
X72204285Y-113248000D01*
X72204285Y-115068000D02*
X73124285Y-115068000D01*
X73124285Y-115068000D02*
X73124285Y-113248000D01*
%TO.C,C116*%
X96914285Y-79308000D02*
X97414285Y-79308000D01*
X96914285Y-80608000D02*
X96914285Y-79308000D01*
X96914285Y-80608000D02*
X97414285Y-80608000D01*
X97414285Y-80608000D02*
X97414285Y-79308000D01*
%TO.C,R67*%
X107279285Y-114248000D02*
X107279285Y-116068000D01*
X108199285Y-114248000D02*
X107279285Y-114248000D01*
X108199285Y-114248000D02*
X108199285Y-116068000D01*
X108199285Y-116068000D02*
X107279285Y-116068000D01*
%TO.C,R93*%
X59204285Y-116085500D02*
X60124285Y-116085500D01*
X59204285Y-117905500D02*
X59204285Y-116085500D01*
X59204285Y-117905500D02*
X60124285Y-117905500D01*
X60124285Y-117905500D02*
X60124285Y-116085500D01*
%TO.C,R75*%
X31054285Y-103598000D02*
X31054285Y-104518000D01*
X31054285Y-103598000D02*
X32874285Y-103598000D01*
X31054285Y-104518000D02*
X32874285Y-104518000D01*
X32874285Y-103598000D02*
X32874285Y-104518000D01*
%TO.C,C109*%
X85014285Y-83058000D02*
X85014285Y-85058000D01*
X85014285Y-83058000D02*
X88514285Y-83058000D01*
X85014285Y-85058000D02*
X88514285Y-85058000D01*
X88514285Y-83058000D02*
X88514285Y-85058000D01*
%TO.C,C114*%
X93727889Y-80475157D02*
X94647128Y-81394396D01*
X94081442Y-80121604D02*
X93727889Y-80475157D01*
X94081442Y-80121604D02*
X95000681Y-81040843D01*
X95000681Y-81040843D02*
X94647128Y-81394396D01*
%TO.C,C37*%
X52214285Y-80458000D02*
X54114285Y-80458000D01*
X52214285Y-83858000D02*
X52214285Y-80458000D01*
X52214285Y-83858000D02*
X54114285Y-83858000D01*
X54114285Y-83858000D02*
X54114285Y-80458000D01*
%TO.C,C150*%
X94514285Y-82208000D02*
X94514285Y-81708000D01*
X95814285Y-81708000D02*
X94514285Y-81708000D01*
X95814285Y-82208000D02*
X94514285Y-82208000D01*
X95814285Y-82208000D02*
X95814285Y-81708000D01*
%TO.C,R68*%
X103304285Y-114248000D02*
X103304285Y-116068000D01*
X104224285Y-114248000D02*
X103304285Y-114248000D01*
X104224285Y-114248000D02*
X104224285Y-116068000D01*
X104224285Y-116068000D02*
X103304285Y-116068000D01*
%TO.C,C117*%
X82354285Y-86098000D02*
X82354285Y-87018000D01*
X82354285Y-86098000D02*
X84174285Y-86098000D01*
X82354285Y-87018000D02*
X84174285Y-87018000D01*
X84174285Y-86098000D02*
X84174285Y-87018000D01*
%TO.C,C69*%
X109704285Y-117348000D02*
X109704285Y-119168000D01*
X110624285Y-117348000D02*
X109704285Y-117348000D01*
X110624285Y-117348000D02*
X110624285Y-119168000D01*
X110624285Y-119168000D02*
X109704285Y-119168000D01*
%TO.C,R96*%
X61304285Y-106610500D02*
X62224285Y-106610500D01*
X61304285Y-108430500D02*
X61304285Y-106610500D01*
X61304285Y-108430500D02*
X62224285Y-108430500D01*
X62224285Y-108430500D02*
X62224285Y-106610500D01*
%TO.C,R51*%
X99154285Y-110818000D02*
X99154285Y-109898000D01*
X100974285Y-109898000D02*
X99154285Y-109898000D01*
X100974285Y-110818000D02*
X99154285Y-110818000D01*
X100974285Y-110818000D02*
X100974285Y-109898000D01*
%TO.C,L7*%
X55214285Y-44008000D02*
X55214285Y-47908000D01*
X55214285Y-47908000D02*
X57914285Y-47908000D01*
X57914285Y-44008000D02*
X55214285Y-44008000D01*
X57914285Y-47908000D02*
X57914285Y-44008000D01*
%TO.C,R143*%
X59304285Y-106598000D02*
X59304285Y-108418000D01*
X60224285Y-106598000D02*
X59304285Y-106598000D01*
X60224285Y-106598000D02*
X60224285Y-108418000D01*
X60224285Y-108418000D02*
X59304285Y-108418000D01*
%TO.C,C62*%
X96594285Y-109268000D02*
X96594285Y-108248000D01*
X98534285Y-108248000D02*
X96594285Y-108248000D01*
X98534285Y-109268000D02*
X96594285Y-109268000D01*
X98534285Y-109268000D02*
X98534285Y-108248000D01*
%TO.C,R153*%
X108304285Y-114248000D02*
X108304285Y-116068000D01*
X109224285Y-114248000D02*
X108304285Y-114248000D01*
X109224285Y-114248000D02*
X109224285Y-116068000D01*
X109224285Y-116068000D02*
X108304285Y-116068000D01*
%TO.C,C39*%
X62804285Y-45948000D02*
X62804285Y-47768000D01*
X63724285Y-45948000D02*
X62804285Y-45948000D01*
X63724285Y-45948000D02*
X63724285Y-47768000D01*
X63724285Y-47768000D02*
X62804285Y-47768000D01*
%TO.C,C127*%
X102514285Y-75308000D02*
X102514285Y-76608000D01*
X103014285Y-75308000D02*
X102514285Y-75308000D01*
X103014285Y-75308000D02*
X103014285Y-76608000D01*
X103014285Y-76608000D02*
X102514285Y-76608000D01*
%TO.C,C234*%
X103614285Y-104158000D02*
X104114285Y-104158000D01*
X103614285Y-105458000D02*
X103614285Y-104158000D01*
X103614285Y-105458000D02*
X104114285Y-105458000D01*
X104114285Y-105458000D02*
X104114285Y-104158000D01*
%TO.C,R101*%
X93604285Y-118598000D02*
X93604285Y-119518000D01*
X93604285Y-118598000D02*
X95424285Y-118598000D01*
X93604285Y-119518000D02*
X95424285Y-119518000D01*
X95424285Y-118598000D02*
X95424285Y-119518000D01*
%TO.C,C11*%
X51794285Y-96348000D02*
X51794285Y-97368000D01*
X51794285Y-96348000D02*
X53734285Y-96348000D01*
X51794285Y-97368000D02*
X53734285Y-97368000D01*
X53734285Y-96348000D02*
X53734285Y-97368000D01*
%TD*%
M02*
