%TF.GenerationSoftware,KiCad,Pcbnew,9.0.0*%
%TF.CreationDate,2025-07-03T18:11:10+02:00*%
%TF.ProjectId,Obsidian,4f627369-6469-4616-9e2e-6b696361645f,rev?*%
%TF.SameCoordinates,Original*%
%TF.FileFunction,Other,User*%
%FSLAX46Y46*%
G04 Gerber Fmt 4.6, Leading zero omitted, Abs format (unit mm)*
G04 Created by KiCad (PCBNEW 9.0.0) date 2025-07-03 18:11:10*
%MOMM*%
%LPD*%
G01*
G04 APERTURE LIST*
%ADD10C,0.050000*%
%ADD11C,0.100000*%
G04 APERTURE END LIST*
D10*
%TO.C,R156*%
X108654285Y-51483000D02*
X110474285Y-51483000D01*
X108654285Y-52403000D02*
X108654285Y-51483000D01*
X108654285Y-52403000D02*
X110474285Y-52403000D01*
X110474285Y-52403000D02*
X110474285Y-51483000D01*
%TO.C,C13*%
X55804285Y-89248000D02*
X55804285Y-91068000D01*
X55804285Y-89248000D02*
X56724285Y-89248000D01*
X55804285Y-91068000D02*
X56724285Y-91068000D01*
X56724285Y-89248000D02*
X56724285Y-91068000D01*
%TO.C,R61*%
X110604285Y-114248000D02*
X110604285Y-116068000D01*
X110604285Y-114248000D02*
X111524285Y-114248000D01*
X110604285Y-116068000D02*
X111524285Y-116068000D01*
X111524285Y-114248000D02*
X111524285Y-116068000D01*
%TO.C,U3*%
X80214285Y-65378000D02*
X80214285Y-71738000D01*
X80214285Y-71738000D02*
X83714285Y-71738000D01*
X83714285Y-65378000D02*
X80214285Y-65378000D01*
X83714285Y-71738000D02*
X83714285Y-65378000D01*
%TO.C,R129*%
X76054285Y-62998000D02*
X77874285Y-62998000D01*
X76054285Y-63918000D02*
X76054285Y-62998000D01*
X76054285Y-63918000D02*
X77874285Y-63918000D01*
X77874285Y-63918000D02*
X77874285Y-62998000D01*
%TO.C,R131*%
X74154285Y-61098000D02*
X75974285Y-61098000D01*
X74154285Y-62018000D02*
X74154285Y-61098000D01*
X74154285Y-62018000D02*
X75974285Y-62018000D01*
X75974285Y-62018000D02*
X75974285Y-61098000D01*
%TO.C,U12*%
X69464285Y-100023000D02*
X73664285Y-100023000D01*
X69464285Y-103523000D02*
X69464285Y-100023000D01*
X69464285Y-103523000D02*
X73664285Y-103523000D01*
X73664285Y-103523000D02*
X73664285Y-100023000D01*
%TO.C,C19*%
X53114285Y-44358000D02*
X53114285Y-47758000D01*
X53114285Y-44358000D02*
X55014285Y-44358000D01*
X53114285Y-47758000D02*
X55014285Y-47758000D01*
X55014285Y-44358000D02*
X55014285Y-47758000D01*
%TO.C,TP2*%
X100014285Y-56308000D02*
G75*
G02*
X97514285Y-56308000I-1250000J0D01*
G01*
X97514285Y-56308000D02*
G75*
G02*
X100014285Y-56308000I1250000J0D01*
G01*
%TO.C,TP12*%
X80714285Y-87658000D02*
G75*
G02*
X78214285Y-87658000I-1250000J0D01*
G01*
X78214285Y-87658000D02*
G75*
G02*
X80714285Y-87658000I1250000J0D01*
G01*
%TO.C,R182*%
X56584285Y-99398000D02*
X58404285Y-99398000D01*
X56584285Y-100318000D02*
X56584285Y-99398000D01*
X56584285Y-100318000D02*
X58404285Y-100318000D01*
X58404285Y-100318000D02*
X58404285Y-99398000D01*
%TO.C,R19*%
X48754285Y-83998000D02*
X48754285Y-84918000D01*
X50574285Y-83998000D02*
X48754285Y-83998000D01*
X50574285Y-83998000D02*
X50574285Y-84918000D01*
X50574285Y-84918000D02*
X48754285Y-84918000D01*
%TO.C,C227*%
X97429285Y-61413000D02*
X97429285Y-63233000D01*
X97429285Y-61413000D02*
X98349285Y-61413000D01*
X97429285Y-63233000D02*
X98349285Y-63233000D01*
X98349285Y-61413000D02*
X98349285Y-63233000D01*
%TO.C,U16*%
X68214285Y-106608000D02*
X74514285Y-106608000D01*
X68214285Y-112908000D02*
X68214285Y-106608000D01*
X68214285Y-112908000D02*
X74514285Y-112908000D01*
X74514285Y-112908000D02*
X74514285Y-106608000D01*
%TO.C,C209*%
X70114285Y-105908000D02*
X70114285Y-104608000D01*
X70614285Y-104608000D02*
X70114285Y-104608000D01*
X70614285Y-105908000D02*
X70114285Y-105908000D01*
X70614285Y-105908000D02*
X70614285Y-104608000D01*
%TO.C,R135*%
X74154285Y-58198000D02*
X75974285Y-58198000D01*
X74154285Y-59118000D02*
X74154285Y-58198000D01*
X74154285Y-59118000D02*
X75974285Y-59118000D01*
X75974285Y-59118000D02*
X75974285Y-58198000D01*
%TO.C,L17*%
X70764285Y-116208000D02*
X73764285Y-116208000D01*
X70764285Y-117708000D02*
X70764285Y-116208000D01*
X70764285Y-117708000D02*
X73764285Y-117708000D01*
X73764285Y-117708000D02*
X73764285Y-116208000D01*
%TO.C,C199*%
X77164285Y-116208000D02*
X77164285Y-119308000D01*
X77164285Y-116208000D02*
X78764285Y-116208000D01*
X77164285Y-119308000D02*
X78764285Y-119308000D01*
X78764285Y-116208000D02*
X78764285Y-119308000D01*
%TO.C,C188*%
X77604285Y-99098000D02*
X79424285Y-99098000D01*
X77604285Y-100018000D02*
X77604285Y-99098000D01*
X77604285Y-100018000D02*
X79424285Y-100018000D01*
X79424285Y-100018000D02*
X79424285Y-99098000D01*
%TO.C,R28*%
X89966785Y-51548000D02*
X89966785Y-53368000D01*
X89966785Y-51548000D02*
X90886785Y-51548000D01*
X89966785Y-53368000D02*
X90886785Y-53368000D01*
X90886785Y-51548000D02*
X90886785Y-53368000D01*
%TO.C,J6*%
X123339285Y-66213000D02*
X123339285Y-82463000D01*
X123339285Y-82463000D02*
X138189285Y-82463000D01*
X138189285Y-66213000D02*
X123339285Y-66213000D01*
X138189285Y-82463000D02*
X138189285Y-66213000D01*
%TO.C,C218*%
X85154285Y-91023000D02*
X86974285Y-91023000D01*
X85154285Y-91943000D02*
X85154285Y-91023000D01*
X85154285Y-91943000D02*
X86974285Y-91943000D01*
X86974285Y-91943000D02*
X86974285Y-91023000D01*
%TO.C,TP10*%
X50114285Y-101358000D02*
G75*
G02*
X47614285Y-101358000I-1250000J0D01*
G01*
X47614285Y-101358000D02*
G75*
G02*
X50114285Y-101358000I1250000J0D01*
G01*
%TO.C,R113*%
X82804285Y-71848000D02*
X82804285Y-73668000D01*
X82804285Y-71848000D02*
X83724285Y-71848000D01*
X82804285Y-73668000D02*
X83724285Y-73668000D01*
X83724285Y-71848000D02*
X83724285Y-73668000D01*
%TO.C,L3*%
X58014285Y-44008000D02*
X60714285Y-44008000D01*
X58014285Y-47908000D02*
X58014285Y-44008000D01*
X60714285Y-44008000D02*
X60714285Y-47908000D01*
X60714285Y-47908000D02*
X58014285Y-47908000D01*
%TO.C,R150*%
X110604285Y-123848000D02*
X110604285Y-125668000D01*
X110604285Y-123848000D02*
X111524285Y-123848000D01*
X110604285Y-125668000D02*
X111524285Y-125668000D01*
X111524285Y-123848000D02*
X111524285Y-125668000D01*
%TO.C,C78*%
X34904285Y-98748000D02*
X34904285Y-100568000D01*
X34904285Y-98748000D02*
X35824285Y-98748000D01*
X34904285Y-100568000D02*
X35824285Y-100568000D01*
X35824285Y-98748000D02*
X35824285Y-100568000D01*
%TO.C,U18*%
X76664285Y-68308000D02*
X76664285Y-72408000D01*
X76664285Y-72408000D02*
X80064285Y-72408000D01*
X80064285Y-68308000D02*
X76664285Y-68308000D01*
X80064285Y-72408000D02*
X80064285Y-68308000D01*
%TO.C,C3*%
X53734285Y-88168000D02*
X53734285Y-86348000D01*
X54654285Y-86348000D02*
X53734285Y-86348000D01*
X54654285Y-88168000D02*
X53734285Y-88168000D01*
X54654285Y-88168000D02*
X54654285Y-86348000D01*
%TO.C,R175*%
X81554285Y-45598000D02*
X81554285Y-46518000D01*
X83374285Y-45598000D02*
X81554285Y-45598000D01*
X83374285Y-45598000D02*
X83374285Y-46518000D01*
X83374285Y-46518000D02*
X81554285Y-46518000D01*
%TO.C,U19*%
X75876785Y-46008000D02*
X81176785Y-46008000D01*
X75876785Y-51308000D02*
X75876785Y-46008000D01*
X75876785Y-51308000D02*
X81176785Y-51308000D01*
X81176785Y-51308000D02*
X81176785Y-46008000D01*
%TO.C,R34*%
X93316785Y-48498000D02*
X95136785Y-48498000D01*
X93316785Y-49418000D02*
X93316785Y-48498000D01*
X93316785Y-49418000D02*
X95136785Y-49418000D01*
X95136785Y-49418000D02*
X95136785Y-48498000D01*
%TO.C,C84*%
X42904285Y-100368000D02*
X42904285Y-98548000D01*
X43824285Y-98548000D02*
X42904285Y-98548000D01*
X43824285Y-100368000D02*
X42904285Y-100368000D01*
X43824285Y-100368000D02*
X43824285Y-98548000D01*
%TO.C,TP5*%
X110914285Y-55358000D02*
G75*
G02*
X108414285Y-55358000I-1250000J0D01*
G01*
X108414285Y-55358000D02*
G75*
G02*
X110914285Y-55358000I1250000J0D01*
G01*
%TO.C,C177*%
X57114285Y-106158000D02*
X57114285Y-102758000D01*
X59014285Y-102758000D02*
X57114285Y-102758000D01*
X59014285Y-106158000D02*
X57114285Y-106158000D01*
X59014285Y-106158000D02*
X59014285Y-102758000D01*
%TO.C,Q2*%
X112914285Y-51258000D02*
X112914285Y-47358000D01*
X116414285Y-47358000D02*
X112914285Y-47358000D01*
X116414285Y-51258000D02*
X112914285Y-51258000D01*
X116414285Y-51258000D02*
X116414285Y-47358000D01*
%TO.C,C10*%
X53804285Y-89248000D02*
X53804285Y-91068000D01*
X53804285Y-89248000D02*
X54724285Y-89248000D01*
X53804285Y-91068000D02*
X54724285Y-91068000D01*
X54724285Y-89248000D02*
X54724285Y-91068000D01*
%TO.C,R76*%
X35964285Y-100318000D02*
X35964285Y-98498000D01*
X36884285Y-98498000D02*
X35964285Y-98498000D01*
X36884285Y-100318000D02*
X35964285Y-100318000D01*
X36884285Y-100318000D02*
X36884285Y-98498000D01*
%TO.C,Y2*%
X75014285Y-100108000D02*
X79414285Y-100108000D01*
X75014285Y-106308000D02*
X75014285Y-100108000D01*
X75014285Y-106308000D02*
X79414285Y-106308000D01*
X79414285Y-106308000D02*
X79414285Y-100108000D01*
%TO.C,C22*%
X53954285Y-42998000D02*
X55774285Y-42998000D01*
X53954285Y-43918000D02*
X53954285Y-42998000D01*
X53954285Y-43918000D02*
X55774285Y-43918000D01*
X55774285Y-43918000D02*
X55774285Y-42998000D01*
%TO.C,C191*%
X81444285Y-111793000D02*
X81444285Y-113093000D01*
X81444285Y-111793000D02*
X81944285Y-111793000D01*
X81444285Y-113093000D02*
X81944285Y-113093000D01*
X81944285Y-111793000D02*
X81944285Y-113093000D01*
%TO.C,C247*%
X52704285Y-88168000D02*
X52704285Y-86348000D01*
X53624285Y-86348000D02*
X52704285Y-86348000D01*
X53624285Y-88168000D02*
X52704285Y-88168000D01*
X53624285Y-88168000D02*
X53624285Y-86348000D01*
%TO.C,R147*%
X25504285Y-122748000D02*
X25504285Y-124568000D01*
X25504285Y-122748000D02*
X26424285Y-122748000D01*
X25504285Y-124568000D02*
X26424285Y-124568000D01*
X26424285Y-122748000D02*
X26424285Y-124568000D01*
%TO.C,R154*%
X48554285Y-107698000D02*
X50374285Y-107698000D01*
X48554285Y-108618000D02*
X48554285Y-107698000D01*
X48554285Y-108618000D02*
X50374285Y-108618000D01*
X50374285Y-108618000D02*
X50374285Y-107698000D01*
%TO.C,C2*%
X93614285Y-103223000D02*
X97014285Y-103223000D01*
X93614285Y-105223000D02*
X93614285Y-103223000D01*
X93614285Y-105223000D02*
X97014285Y-105223000D01*
X97014285Y-105223000D02*
X97014285Y-103223000D01*
%TO.C,TP11*%
X100514285Y-100058000D02*
G75*
G02*
X98014285Y-100058000I-1250000J0D01*
G01*
X98014285Y-100058000D02*
G75*
G02*
X100514285Y-100058000I1250000J0D01*
G01*
%TO.C,R167*%
X104604285Y-114248000D02*
X104604285Y-116068000D01*
X104604285Y-114248000D02*
X105524285Y-114248000D01*
X104604285Y-116068000D02*
X105524285Y-116068000D01*
X105524285Y-114248000D02*
X105524285Y-116068000D01*
%TO.C,C208*%
X75114285Y-109708000D02*
X76414285Y-109708000D01*
X75114285Y-110208000D02*
X75114285Y-109708000D01*
X75114285Y-110208000D02*
X76414285Y-110208000D01*
X76414285Y-110208000D02*
X76414285Y-109708000D01*
%TO.C,R87*%
X110854285Y-82198000D02*
X112674285Y-82198000D01*
X110854285Y-83118000D02*
X110854285Y-82198000D01*
X110854285Y-83118000D02*
X112674285Y-83118000D01*
X112674285Y-83118000D02*
X112674285Y-82198000D01*
%TO.C,C174*%
X59314285Y-106620500D02*
X62714285Y-106620500D01*
X59314285Y-108620500D02*
X59314285Y-106620500D01*
X59314285Y-108620500D02*
X62714285Y-108620500D01*
X62714285Y-108620500D02*
X62714285Y-106620500D01*
%TO.C,C198*%
X84014285Y-66508000D02*
X84014285Y-65208000D01*
X84514285Y-65208000D02*
X84014285Y-65208000D01*
X84514285Y-66508000D02*
X84014285Y-66508000D01*
X84514285Y-66508000D02*
X84514285Y-65208000D01*
%TO.C,C202*%
X70704285Y-113248000D02*
X70704285Y-115068000D01*
X70704285Y-113248000D02*
X71624285Y-113248000D01*
X70704285Y-115068000D02*
X71624285Y-115068000D01*
X71624285Y-113248000D02*
X71624285Y-115068000D01*
%TO.C,R20*%
X48254285Y-94598000D02*
X48254285Y-95518000D01*
X50074285Y-94598000D02*
X48254285Y-94598000D01*
X50074285Y-94598000D02*
X50074285Y-95518000D01*
X50074285Y-95518000D02*
X48254285Y-95518000D01*
%TO.C,R174*%
X81554285Y-46598000D02*
X81554285Y-47518000D01*
X83374285Y-46598000D02*
X81554285Y-46598000D01*
X83374285Y-46598000D02*
X83374285Y-47518000D01*
X83374285Y-47518000D02*
X81554285Y-47518000D01*
%TO.C,R102*%
X84234285Y-103433000D02*
X84234285Y-105253000D01*
X84234285Y-103433000D02*
X85154285Y-103433000D01*
X84234285Y-105253000D02*
X85154285Y-105253000D01*
X85154285Y-103433000D02*
X85154285Y-105253000D01*
%TO.C,C193*%
X74754285Y-108398000D02*
X74754285Y-109318000D01*
X76574285Y-108398000D02*
X74754285Y-108398000D01*
X76574285Y-108398000D02*
X76574285Y-109318000D01*
X76574285Y-109318000D02*
X74754285Y-109318000D01*
%TO.C,C176*%
X42864285Y-118658000D02*
X46264285Y-118658000D01*
X42864285Y-120658000D02*
X42864285Y-118658000D01*
X42864285Y-120658000D02*
X46264285Y-120658000D01*
X46264285Y-120658000D02*
X46264285Y-118658000D01*
%TO.C,R25*%
X85616785Y-47998000D02*
X85616785Y-48918000D01*
X87436785Y-47998000D02*
X85616785Y-47998000D01*
X87436785Y-47998000D02*
X87436785Y-48918000D01*
X87436785Y-48918000D02*
X85616785Y-48918000D01*
%TO.C,C74*%
X42954285Y-111298000D02*
X42954285Y-112218000D01*
X44774285Y-111298000D02*
X42954285Y-111298000D01*
X44774285Y-111298000D02*
X44774285Y-112218000D01*
X44774285Y-112218000D02*
X42954285Y-112218000D01*
%TO.C,R8*%
X64154285Y-93598000D02*
X64154285Y-94518000D01*
X65974285Y-93598000D02*
X64154285Y-93598000D01*
X65974285Y-93598000D02*
X65974285Y-94518000D01*
X65974285Y-94518000D02*
X64154285Y-94518000D01*
%TO.C,R4*%
X64154285Y-95598000D02*
X64154285Y-96518000D01*
X65974285Y-95598000D02*
X64154285Y-95598000D01*
X65974285Y-95598000D02*
X65974285Y-96518000D01*
X65974285Y-96518000D02*
X64154285Y-96518000D01*
%TO.C,R124*%
X76054285Y-66498000D02*
X77874285Y-66498000D01*
X76054285Y-67418000D02*
X76054285Y-66498000D01*
X76054285Y-67418000D02*
X77874285Y-67418000D01*
X77874285Y-67418000D02*
X77874285Y-66498000D01*
%TO.C,C207*%
X68804285Y-113248000D02*
X68804285Y-115068000D01*
X68804285Y-113248000D02*
X69724285Y-113248000D01*
X68804285Y-115068000D02*
X69724285Y-115068000D01*
X69724285Y-113248000D02*
X69724285Y-115068000D01*
%TO.C,R32*%
X93316785Y-50498000D02*
X95136785Y-50498000D01*
X93316785Y-51418000D02*
X93316785Y-50498000D01*
X93316785Y-51418000D02*
X95136785Y-51418000D01*
X95136785Y-51418000D02*
X95136785Y-50498000D01*
%TO.C,C80*%
X32654285Y-107698000D02*
X34474285Y-107698000D01*
X32654285Y-108618000D02*
X32654285Y-107698000D01*
X32654285Y-108618000D02*
X34474285Y-108618000D01*
X34474285Y-108618000D02*
X34474285Y-107698000D01*
%TO.C,R155*%
X108004285Y-44048000D02*
X108004285Y-45868000D01*
X108004285Y-44048000D02*
X108924285Y-44048000D01*
X108004285Y-45868000D02*
X108924285Y-45868000D01*
X108924285Y-44048000D02*
X108924285Y-45868000D01*
%TO.C,R162*%
X85079285Y-62823000D02*
X85079285Y-64643000D01*
X85079285Y-62823000D02*
X85999285Y-62823000D01*
X85079285Y-64643000D02*
X85999285Y-64643000D01*
X85999285Y-62823000D02*
X85999285Y-64643000D01*
%TO.C,J2*%
X23624285Y-99338000D02*
X14684285Y-99338000D01*
X14684285Y-109978000D01*
X23624285Y-109978000D01*
X23624285Y-99338000D01*
%TO.C,D1*%
X24714285Y-106658000D02*
X24714285Y-102858000D01*
X28214285Y-102858000D02*
X24714285Y-102858000D01*
X28214285Y-106658000D02*
X24714285Y-106658000D01*
X28214285Y-106658000D02*
X28214285Y-102858000D01*
%TO.C,C205*%
X65254285Y-110298000D02*
X67074285Y-110298000D01*
X65254285Y-111218000D02*
X65254285Y-110298000D01*
X65254285Y-111218000D02*
X67074285Y-111218000D01*
X67074285Y-111218000D02*
X67074285Y-110298000D01*
%TO.C,R31*%
X99554285Y-51423000D02*
X99554285Y-53243000D01*
X99554285Y-51423000D02*
X100474285Y-51423000D01*
X99554285Y-53243000D02*
X100474285Y-53243000D01*
X100474285Y-51423000D02*
X100474285Y-53243000D01*
%TO.C,C185*%
X80844285Y-107993000D02*
X80844285Y-108493000D01*
X82144285Y-107993000D02*
X80844285Y-107993000D01*
X82144285Y-107993000D02*
X82144285Y-108493000D01*
X82144285Y-108493000D02*
X80844285Y-108493000D01*
%TO.C,R78*%
X32654285Y-104198000D02*
X34474285Y-104198000D01*
X32654285Y-105118000D02*
X32654285Y-104198000D01*
X32654285Y-105118000D02*
X34474285Y-105118000D01*
X34474285Y-105118000D02*
X34474285Y-104198000D01*
%TO.C,L5*%
X54214285Y-80408000D02*
X56914285Y-80408000D01*
X54214285Y-84308000D02*
X54214285Y-80408000D01*
X56914285Y-80408000D02*
X56914285Y-84308000D01*
X56914285Y-84308000D02*
X54214285Y-84308000D01*
%TO.C,R45*%
X73816785Y-49198000D02*
X73816785Y-50118000D01*
X75636785Y-49198000D02*
X73816785Y-49198000D01*
X75636785Y-49198000D02*
X75636785Y-50118000D01*
X75636785Y-50118000D02*
X73816785Y-50118000D01*
%TO.C,R105*%
X67204285Y-112968000D02*
X67204285Y-111148000D01*
X68124285Y-111148000D02*
X67204285Y-111148000D01*
X68124285Y-112968000D02*
X67204285Y-112968000D01*
X68124285Y-112968000D02*
X68124285Y-111148000D01*
%TO.C,J4*%
X123339285Y-111933000D02*
X123339285Y-128183000D01*
X123339285Y-128183000D02*
X138189285Y-128183000D01*
X138189285Y-111933000D02*
X123339285Y-111933000D01*
X138189285Y-128183000D02*
X138189285Y-111933000D01*
%TO.C,C221*%
X77366785Y-44960000D02*
X79186785Y-44960000D01*
X77366785Y-45880000D02*
X77366785Y-44960000D01*
X77366785Y-45880000D02*
X79186785Y-45880000D01*
X79186785Y-45880000D02*
X79186785Y-44960000D01*
%TO.C,R122*%
X96254285Y-46898000D02*
X96254285Y-47818000D01*
X98074285Y-46898000D02*
X96254285Y-46898000D01*
X98074285Y-46898000D02*
X98074285Y-47818000D01*
X98074285Y-47818000D02*
X96254285Y-47818000D01*
%TO.C,R44*%
X81516785Y-50598000D02*
X83336785Y-50598000D01*
X81516785Y-51518000D02*
X81516785Y-50598000D01*
X81516785Y-51518000D02*
X83336785Y-51518000D01*
X83336785Y-51518000D02*
X83336785Y-50598000D01*
%TO.C,C7*%
X53754285Y-99928000D02*
X53754285Y-97988000D01*
X54774285Y-97988000D02*
X53754285Y-97988000D01*
X54774285Y-99928000D02*
X53754285Y-99928000D01*
X54774285Y-99928000D02*
X54774285Y-97988000D01*
%TO.C,Y6*%
X80864285Y-62808000D02*
X80864285Y-65208000D01*
X80864285Y-62808000D02*
X83664285Y-62808000D01*
X80864285Y-65208000D02*
X83664285Y-65208000D01*
X83664285Y-62808000D02*
X83664285Y-65208000D01*
%TO.C,C111*%
X85114285Y-82858000D02*
X88614285Y-82858000D01*
X85114285Y-84858000D02*
X85114285Y-82858000D01*
X85114285Y-84858000D02*
X88614285Y-84858000D01*
X88614285Y-84858000D02*
X88614285Y-82858000D01*
%TO.C,U25*%
X52964285Y-112908000D02*
X52964285Y-108708000D01*
X56564285Y-108708000D02*
X52964285Y-108708000D01*
X56564285Y-112908000D02*
X52964285Y-112908000D01*
X56564285Y-112908000D02*
X56564285Y-108708000D01*
%TO.C,Q3*%
X105764285Y-51258000D02*
X105764285Y-47358000D01*
X109264285Y-47358000D02*
X105764285Y-47358000D01*
X109264285Y-51258000D02*
X105764285Y-51258000D01*
X109264285Y-51258000D02*
X109264285Y-47358000D01*
%TO.C,C85*%
X32404285Y-102248000D02*
X32404285Y-104068000D01*
X32404285Y-102248000D02*
X33324285Y-102248000D01*
X32404285Y-104068000D02*
X33324285Y-104068000D01*
X33324285Y-102248000D02*
X33324285Y-104068000D01*
%TO.C,R152*%
X36304285Y-112148000D02*
X36304285Y-113968000D01*
X36304285Y-112148000D02*
X37224285Y-112148000D01*
X36304285Y-113968000D02*
X37224285Y-113968000D01*
X37224285Y-112148000D02*
X37224285Y-113968000D01*
%TO.C,R121*%
X83804285Y-75568000D02*
X83804285Y-73748000D01*
X84724285Y-73748000D02*
X83804285Y-73748000D01*
X84724285Y-75568000D02*
X83804285Y-75568000D01*
X84724285Y-75568000D02*
X84724285Y-73748000D01*
%TO.C,R14*%
X48254285Y-95598000D02*
X50074285Y-95598000D01*
X48254285Y-96518000D02*
X48254285Y-95598000D01*
X48254285Y-96518000D02*
X50074285Y-96518000D01*
X50074285Y-96518000D02*
X50074285Y-95598000D01*
%TO.C,LD1*%
X22864285Y-122708000D02*
X22864285Y-125458000D01*
X22864285Y-122708000D02*
X24164285Y-122708000D01*
X22864285Y-125458000D02*
X24164285Y-125458000D01*
X24164285Y-122708000D02*
X24164285Y-125458000D01*
%TO.C,C225*%
X101704285Y-124918000D02*
X101704285Y-123098000D01*
X102624285Y-123098000D02*
X101704285Y-123098000D01*
X102624285Y-124918000D02*
X101704285Y-124918000D01*
X102624285Y-124918000D02*
X102624285Y-123098000D01*
%TO.C,R158*%
X113604285Y-51483000D02*
X113604285Y-52403000D01*
X115424285Y-51483000D02*
X113604285Y-51483000D01*
X115424285Y-51483000D02*
X115424285Y-52403000D01*
X115424285Y-52403000D02*
X113604285Y-52403000D01*
%TO.C,C196*%
X79744285Y-105393000D02*
X79744285Y-104093000D01*
X80244285Y-104093000D02*
X79744285Y-104093000D01*
X80244285Y-105393000D02*
X79744285Y-105393000D01*
X80244285Y-105393000D02*
X80244285Y-104093000D01*
%TO.C,U21*%
X34964285Y-100758000D02*
X45264285Y-100758000D01*
X34964285Y-111058000D02*
X34964285Y-100758000D01*
X34964285Y-111058000D02*
X45264285Y-111058000D01*
X45264285Y-111058000D02*
X45264285Y-100758000D01*
%TO.C,C26*%
X59054285Y-84398000D02*
X59054285Y-85318000D01*
X60874285Y-84398000D02*
X59054285Y-84398000D01*
X60874285Y-84398000D02*
X60874285Y-85318000D01*
X60874285Y-85318000D02*
X59054285Y-85318000D01*
%TO.C,R118*%
X65254285Y-108298000D02*
X65254285Y-109218000D01*
X67074285Y-108298000D02*
X65254285Y-108298000D01*
X67074285Y-108298000D02*
X67074285Y-109218000D01*
X67074285Y-109218000D02*
X65254285Y-109218000D01*
%TO.C,C29*%
X62004285Y-82568000D02*
X62004285Y-80748000D01*
X62924285Y-80748000D02*
X62004285Y-80748000D01*
X62924285Y-82568000D02*
X62004285Y-82568000D01*
X62924285Y-82568000D02*
X62924285Y-80748000D01*
%TO.C,C9*%
X54804285Y-99868000D02*
X54804285Y-98048000D01*
X55724285Y-98048000D02*
X54804285Y-98048000D01*
X55724285Y-99868000D02*
X54804285Y-99868000D01*
X55724285Y-99868000D02*
X55724285Y-98048000D01*
%TO.C,C172*%
X54414285Y-118008000D02*
X54414285Y-114608000D01*
X56314285Y-114608000D02*
X54414285Y-114608000D01*
X56314285Y-118008000D02*
X54414285Y-118008000D01*
X56314285Y-118008000D02*
X56314285Y-114608000D01*
%TO.C,R63*%
X108604285Y-114248000D02*
X108604285Y-116068000D01*
X108604285Y-114248000D02*
X109524285Y-114248000D01*
X108604285Y-116068000D02*
X109524285Y-116068000D01*
X109524285Y-114248000D02*
X109524285Y-116068000D01*
%TO.C,R83*%
X24454285Y-101598000D02*
X24454285Y-102518000D01*
X26274285Y-101598000D02*
X24454285Y-101598000D01*
X26274285Y-101598000D02*
X26274285Y-102518000D01*
X26274285Y-102518000D02*
X24454285Y-102518000D01*
%TO.C,J5*%
X123339285Y-89073000D02*
X123339285Y-105323000D01*
X123339285Y-105323000D02*
X138189285Y-105323000D01*
X138189285Y-89073000D02*
X123339285Y-89073000D01*
X138189285Y-105323000D02*
X138189285Y-89073000D01*
%TO.C,R65*%
X99154285Y-108298000D02*
X99154285Y-109218000D01*
X100974285Y-108298000D02*
X99154285Y-108298000D01*
X100974285Y-108298000D02*
X100974285Y-109218000D01*
X100974285Y-109218000D02*
X99154285Y-109218000D01*
%TO.C,L2*%
X55214285Y-44008000D02*
X57914285Y-44008000D01*
X55214285Y-47908000D02*
X55214285Y-44008000D01*
X57914285Y-44008000D02*
X57914285Y-47908000D01*
X57914285Y-47908000D02*
X55214285Y-47908000D01*
%TO.C,D2*%
X35884285Y-117668000D02*
X35884285Y-114248000D01*
X37644285Y-114248000D02*
X35884285Y-114248000D01*
X37644285Y-117668000D02*
X35884285Y-117668000D01*
X37644285Y-117668000D02*
X37644285Y-114248000D01*
%TO.C,R106*%
X73704285Y-104348000D02*
X73704285Y-106168000D01*
X73704285Y-104348000D02*
X74624285Y-104348000D01*
X73704285Y-106168000D02*
X74624285Y-106168000D01*
X74624285Y-104348000D02*
X74624285Y-106168000D01*
%TO.C,C201*%
X76664285Y-111508000D02*
X76664285Y-108408000D01*
X78264285Y-108408000D02*
X76664285Y-108408000D01*
X78264285Y-111508000D02*
X76664285Y-111508000D01*
X78264285Y-111508000D02*
X78264285Y-108408000D01*
%TO.C,R41*%
X101954285Y-51423000D02*
X101954285Y-53243000D01*
X101954285Y-51423000D02*
X102874285Y-51423000D01*
X101954285Y-53243000D02*
X102874285Y-53243000D01*
X102874285Y-51423000D02*
X102874285Y-53243000D01*
%TO.C,R140*%
X94904285Y-64048000D02*
X94904285Y-65868000D01*
X94904285Y-64048000D02*
X95824285Y-64048000D01*
X94904285Y-65868000D02*
X95824285Y-65868000D01*
X95824285Y-64048000D02*
X95824285Y-65868000D01*
%TO.C,TP9*%
X63314285Y-111658000D02*
G75*
G02*
X60814285Y-111658000I-1250000J0D01*
G01*
X60814285Y-111658000D02*
G75*
G02*
X63314285Y-111658000I1250000J0D01*
G01*
%TO.C,R132*%
X74154285Y-60098000D02*
X74154285Y-61018000D01*
X75974285Y-60098000D02*
X74154285Y-60098000D01*
X75974285Y-60098000D02*
X75974285Y-61018000D01*
X75974285Y-61018000D02*
X74154285Y-61018000D01*
%TO.C,SW2*%
X78350000Y-55050000D02*
X79800000Y-55050000D01*
X78350000Y-57150000D02*
X78350000Y-55050000D01*
X78350000Y-57150000D02*
X79800000Y-57150000D01*
X79800000Y-53360000D02*
X87800000Y-53360000D01*
X79800000Y-55050000D02*
X79800000Y-53360000D01*
X79800000Y-57150000D02*
X79800000Y-58840000D01*
X79800000Y-58840000D02*
X87800000Y-58840000D01*
X87800000Y-55050000D02*
X87800000Y-53360000D01*
X87800000Y-55050000D02*
X89250000Y-55050000D01*
X87800000Y-57150000D02*
X89250000Y-57150000D01*
X87800000Y-58840000D02*
X87800000Y-57150000D01*
X89250000Y-57150000D02*
X89250000Y-55050000D01*
%TO.C,R134*%
X76054285Y-61098000D02*
X77874285Y-61098000D01*
X76054285Y-62018000D02*
X76054285Y-61098000D01*
X76054285Y-62018000D02*
X77874285Y-62018000D01*
X77874285Y-62018000D02*
X77874285Y-61098000D01*
%TO.C,R85*%
X110854285Y-83198000D02*
X112674285Y-83198000D01*
X110854285Y-84118000D02*
X110854285Y-83198000D01*
X110854285Y-84118000D02*
X112674285Y-84118000D01*
X112674285Y-84118000D02*
X112674285Y-83198000D01*
%TO.C,C182*%
X67404285Y-100463000D02*
X67404285Y-102283000D01*
X67404285Y-100463000D02*
X68324285Y-100463000D01*
X67404285Y-102283000D02*
X68324285Y-102283000D01*
X68324285Y-100463000D02*
X68324285Y-102283000D01*
%TO.C,R47*%
X73816785Y-50198000D02*
X73816785Y-51118000D01*
X75636785Y-50198000D02*
X73816785Y-50198000D01*
X75636785Y-50198000D02*
X75636785Y-51118000D01*
X75636785Y-51118000D02*
X73816785Y-51118000D01*
%TO.C,U28*%
X93764285Y-55958000D02*
X93764285Y-63758000D01*
X93764285Y-55958000D02*
X97364285Y-55958000D01*
X93764285Y-63758000D02*
X97364285Y-63758000D01*
X97364285Y-55958000D02*
X97364285Y-63758000D01*
%TO.C,J14*%
X30639285Y-121008000D02*
X46889285Y-121008000D01*
X30639285Y-127108000D02*
X30639285Y-121008000D01*
X46889285Y-121008000D02*
X46889285Y-127108000D01*
X46889285Y-127108000D02*
X30639285Y-127108000D01*
%TO.C,R110*%
X72204285Y-115068000D02*
X72204285Y-113248000D01*
X73124285Y-113248000D02*
X72204285Y-113248000D01*
X73124285Y-115068000D02*
X72204285Y-115068000D01*
X73124285Y-115068000D02*
X73124285Y-113248000D01*
%TO.C,C88*%
X33504285Y-107668000D02*
X33504285Y-105848000D01*
X34424285Y-105848000D02*
X33504285Y-105848000D01*
X34424285Y-107668000D02*
X33504285Y-107668000D01*
X34424285Y-107668000D02*
X34424285Y-105848000D01*
%TO.C,C17*%
X61994285Y-87548000D02*
X61994285Y-88568000D01*
X63934285Y-87548000D02*
X61994285Y-87548000D01*
X63934285Y-87548000D02*
X63934285Y-88568000D01*
X63934285Y-88568000D02*
X61994285Y-88568000D01*
%TO.C,C222*%
X89266785Y-44948000D02*
X91086785Y-44948000D01*
X89266785Y-45868000D02*
X89266785Y-44948000D01*
X89266785Y-45868000D02*
X91086785Y-45868000D01*
X91086785Y-45868000D02*
X91086785Y-44948000D01*
%TO.C,R21*%
X85616785Y-45998000D02*
X85616785Y-46918000D01*
X87436785Y-45998000D02*
X85616785Y-45998000D01*
X87436785Y-45998000D02*
X87436785Y-46918000D01*
X87436785Y-46918000D02*
X85616785Y-46918000D01*
%TO.C,R66*%
X106604285Y-114248000D02*
X106604285Y-116068000D01*
X106604285Y-114248000D02*
X107524285Y-114248000D01*
X106604285Y-116068000D02*
X107524285Y-116068000D01*
X107524285Y-114248000D02*
X107524285Y-116068000D01*
%TO.C,R6*%
X64154285Y-97598000D02*
X64154285Y-98518000D01*
X65974285Y-97598000D02*
X64154285Y-97598000D01*
X65974285Y-97598000D02*
X65974285Y-98518000D01*
X65974285Y-98518000D02*
X64154285Y-98518000D01*
%TO.C,U17*%
X87776785Y-46008000D02*
X93076785Y-46008000D01*
X87776785Y-51308000D02*
X87776785Y-46008000D01*
X87776785Y-51308000D02*
X93076785Y-51308000D01*
X93076785Y-51308000D02*
X93076785Y-46008000D01*
%TO.C,R79*%
X32654285Y-108698000D02*
X32654285Y-109618000D01*
X34474285Y-108698000D02*
X32654285Y-108698000D01*
X34474285Y-108698000D02*
X34474285Y-109618000D01*
X34474285Y-109618000D02*
X32654285Y-109618000D01*
%TO.C,R82*%
X24554285Y-108098000D02*
X26374285Y-108098000D01*
X24554285Y-109018000D02*
X24554285Y-108098000D01*
X24554285Y-109018000D02*
X26374285Y-109018000D01*
X26374285Y-109018000D02*
X26374285Y-108098000D01*
%TO.C,U8*%
X25864285Y-97958000D02*
X25864285Y-101558000D01*
X30064285Y-97958000D02*
X25864285Y-97958000D01*
X30064285Y-97958000D02*
X30064285Y-101558000D01*
X30064285Y-101558000D02*
X25864285Y-101558000D01*
%TO.C,R81*%
X26484285Y-101598000D02*
X28304285Y-101598000D01*
X26484285Y-102518000D02*
X26484285Y-101598000D01*
X26484285Y-102518000D02*
X28304285Y-102518000D01*
X28304285Y-102518000D02*
X28304285Y-101598000D01*
%TO.C,R176*%
X88454285Y-115598000D02*
X88454285Y-116518000D01*
X90274285Y-115598000D02*
X88454285Y-115598000D01*
X90274285Y-115598000D02*
X90274285Y-116518000D01*
X90274285Y-116518000D02*
X88454285Y-116518000D01*
%TO.C,R18*%
X48754285Y-85098000D02*
X50574285Y-85098000D01*
X48754285Y-86018000D02*
X48754285Y-85098000D01*
X48754285Y-86018000D02*
X50574285Y-86018000D01*
X50574285Y-86018000D02*
X50574285Y-85098000D01*
%TO.C,C194*%
X84444285Y-105543000D02*
X84444285Y-106843000D01*
X84444285Y-105543000D02*
X84944285Y-105543000D01*
X84444285Y-106843000D02*
X84944285Y-106843000D01*
X84944285Y-105543000D02*
X84944285Y-106843000D01*
%TO.C,Q4*%
X31364285Y-114183000D02*
X31364285Y-117983000D01*
X31364285Y-117983000D02*
X35564285Y-117983000D01*
X35564285Y-114183000D02*
X31364285Y-114183000D01*
X35564285Y-117983000D02*
X35564285Y-114183000D01*
%TO.C,C87*%
X32504285Y-107668000D02*
X32504285Y-105848000D01*
X33424285Y-105848000D02*
X32504285Y-105848000D01*
X33424285Y-107668000D02*
X32504285Y-107668000D01*
X33424285Y-107668000D02*
X33424285Y-105848000D01*
%TO.C,R73*%
X100254285Y-96698000D02*
X100254285Y-97618000D01*
X102074285Y-96698000D02*
X100254285Y-96698000D01*
X102074285Y-96698000D02*
X102074285Y-97618000D01*
X102074285Y-97618000D02*
X100254285Y-97618000D01*
%TO.C,J15*%
X53499285Y-121008000D02*
X69749285Y-121008000D01*
X53499285Y-127108000D02*
X53499285Y-121008000D01*
X69749285Y-121008000D02*
X69749285Y-127108000D01*
X69749285Y-127108000D02*
X53499285Y-127108000D01*
%TO.C,R136*%
X74154285Y-57198000D02*
X74154285Y-58118000D01*
X75974285Y-57198000D02*
X74154285Y-57198000D01*
X75974285Y-57198000D02*
X75974285Y-58118000D01*
X75974285Y-58118000D02*
X74154285Y-58118000D01*
%TO.C,R26*%
X85616785Y-48998000D02*
X85616785Y-49918000D01*
X87436785Y-48998000D02*
X85616785Y-48998000D01*
X87436785Y-48998000D02*
X87436785Y-49918000D01*
X87436785Y-49918000D02*
X85616785Y-49918000D01*
%TO.C,C181*%
X93364285Y-118533000D02*
X96764285Y-118533000D01*
X93364285Y-120433000D02*
X93364285Y-118533000D01*
X93364285Y-120433000D02*
X96764285Y-120433000D01*
X96764285Y-120433000D02*
X96764285Y-118533000D01*
%TO.C,C223*%
X110494285Y-125848000D02*
X110494285Y-126868000D01*
X112434285Y-125848000D02*
X110494285Y-125848000D01*
X112434285Y-125848000D02*
X112434285Y-126868000D01*
X112434285Y-126868000D02*
X110494285Y-126868000D01*
%TO.C,R117*%
X84004285Y-68948000D02*
X85824285Y-68948000D01*
X84004285Y-69868000D02*
X84004285Y-68948000D01*
X84004285Y-69868000D02*
X85824285Y-69868000D01*
X85824285Y-69868000D02*
X85824285Y-68948000D01*
%TO.C,C77*%
X45654285Y-104698000D02*
X45654285Y-105618000D01*
X47474285Y-104698000D02*
X45654285Y-104698000D01*
X47474285Y-104698000D02*
X47474285Y-105618000D01*
X47474285Y-105618000D02*
X45654285Y-105618000D01*
%TO.C,C1*%
X90964285Y-102658000D02*
X90964285Y-99258000D01*
X92864285Y-99258000D02*
X90964285Y-99258000D01*
X92864285Y-102658000D02*
X90964285Y-102658000D01*
X92864285Y-102658000D02*
X92864285Y-99258000D01*
%TO.C,TP8*%
X98614285Y-117258000D02*
G75*
G02*
X96114285Y-117258000I-1250000J0D01*
G01*
X96114285Y-117258000D02*
G75*
G02*
X98614285Y-117258000I1250000J0D01*
G01*
%TO.C,C248*%
X84079285Y-62823000D02*
X84079285Y-64643000D01*
X84079285Y-62823000D02*
X84999285Y-62823000D01*
X84079285Y-64643000D02*
X84999285Y-64643000D01*
X84999285Y-62823000D02*
X84999285Y-64643000D01*
%TO.C,R24*%
X96254285Y-48998000D02*
X96254285Y-49918000D01*
X98074285Y-48998000D02*
X96254285Y-48998000D01*
X98074285Y-48998000D02*
X98074285Y-49918000D01*
X98074285Y-49918000D02*
X96254285Y-49918000D01*
%TO.C,U14*%
X80519285Y-106343000D02*
X80519285Y-99943000D01*
X84119285Y-99943000D02*
X80519285Y-99943000D01*
X84119285Y-106343000D02*
X80519285Y-106343000D01*
X84119285Y-106343000D02*
X84119285Y-99943000D01*
%TO.C,C192*%
X74014285Y-117758000D02*
X77114285Y-117758000D01*
X74014285Y-119358000D02*
X74014285Y-117758000D01*
X74014285Y-119358000D02*
X77114285Y-119358000D01*
X77114285Y-119358000D02*
X77114285Y-117758000D01*
%TO.C,R148*%
X53354285Y-107623000D02*
X53354285Y-108543000D01*
X55174285Y-107623000D02*
X53354285Y-107623000D01*
X55174285Y-107623000D02*
X55174285Y-108543000D01*
X55174285Y-108543000D02*
X53354285Y-108543000D01*
%TO.C,R137*%
X76054285Y-57198000D02*
X77874285Y-57198000D01*
X76054285Y-58118000D02*
X76054285Y-57198000D01*
X76054285Y-58118000D02*
X77874285Y-58118000D01*
X77874285Y-58118000D02*
X77874285Y-57198000D01*
%TO.C,Q1*%
X109264285Y-51258000D02*
X109264285Y-47358000D01*
X112764285Y-47358000D02*
X109264285Y-47358000D01*
X112764285Y-51258000D02*
X109264285Y-51258000D01*
X112764285Y-51258000D02*
X112764285Y-47358000D01*
%TO.C,R30*%
X96254285Y-49998000D02*
X96254285Y-50918000D01*
X98074285Y-49998000D02*
X96254285Y-49998000D01*
X98074285Y-49998000D02*
X98074285Y-50918000D01*
X98074285Y-50918000D02*
X96254285Y-50918000D01*
%TO.C,C73*%
X43904285Y-100368000D02*
X43904285Y-98548000D01*
X44824285Y-98548000D02*
X43904285Y-98548000D01*
X44824285Y-100368000D02*
X43904285Y-100368000D01*
X44824285Y-100368000D02*
X44824285Y-98548000D01*
%TO.C,R12*%
X58104285Y-91068000D02*
X58104285Y-89248000D01*
X59024285Y-89248000D02*
X58104285Y-89248000D01*
X59024285Y-91068000D02*
X58104285Y-91068000D01*
X59024285Y-91068000D02*
X59024285Y-89248000D01*
%TO.C,C224*%
X110494285Y-120748000D02*
X110494285Y-121768000D01*
X112434285Y-120748000D02*
X110494285Y-120748000D01*
X112434285Y-120748000D02*
X112434285Y-121768000D01*
X112434285Y-121768000D02*
X110494285Y-121768000D01*
%TO.C,C86*%
X33404285Y-102248000D02*
X33404285Y-104068000D01*
X33404285Y-102248000D02*
X34324285Y-102248000D01*
X33404285Y-104068000D02*
X34324285Y-104068000D01*
X34324285Y-102248000D02*
X34324285Y-104068000D01*
%TO.C,R99*%
X81234285Y-109633000D02*
X81234285Y-111453000D01*
X81234285Y-109633000D02*
X82154285Y-109633000D01*
X81234285Y-111453000D02*
X82154285Y-111453000D01*
X82154285Y-109633000D02*
X82154285Y-111453000D01*
%TO.C,TP6*%
X51814285Y-117158000D02*
G75*
G02*
X49314285Y-117158000I-1250000J0D01*
G01*
X49314285Y-117158000D02*
G75*
G02*
X51814285Y-117158000I1250000J0D01*
G01*
%TO.C,R151*%
X110554285Y-121898000D02*
X110554285Y-122818000D01*
X112374285Y-121898000D02*
X110554285Y-121898000D01*
X112374285Y-121898000D02*
X112374285Y-122818000D01*
X112374285Y-122818000D02*
X110554285Y-122818000D01*
%TO.C,U24*%
X48139285Y-112908000D02*
X48139285Y-108708000D01*
X51739285Y-108708000D02*
X48139285Y-108708000D01*
X51739285Y-112908000D02*
X48139285Y-112908000D01*
X51739285Y-112908000D02*
X51739285Y-108708000D01*
%TO.C,Y3*%
X88114285Y-107008000D02*
X94814285Y-107008000D01*
X88114285Y-114708000D02*
X88114285Y-107008000D01*
X88114285Y-114708000D02*
X94814285Y-114708000D01*
X94814285Y-114708000D02*
X94814285Y-107008000D01*
%TO.C,C189*%
X84444285Y-103043000D02*
X84444285Y-101743000D01*
X84944285Y-101743000D02*
X84444285Y-101743000D01*
X84944285Y-103043000D02*
X84444285Y-103043000D01*
X84944285Y-103043000D02*
X84944285Y-101743000D01*
%TO.C,R38*%
X79366785Y-53368000D02*
X79366785Y-51548000D01*
X80286785Y-51548000D02*
X79366785Y-51548000D01*
X80286785Y-53368000D02*
X79366785Y-53368000D01*
X80286785Y-53368000D02*
X80286785Y-51548000D01*
%TO.C,C184*%
X73804285Y-100363000D02*
X73804285Y-102183000D01*
X73804285Y-100363000D02*
X74724285Y-100363000D01*
X73804285Y-102183000D02*
X74724285Y-102183000D01*
X74724285Y-100363000D02*
X74724285Y-102183000D01*
%TO.C,C12*%
X60604285Y-98268000D02*
X60604285Y-96448000D01*
X61524285Y-96448000D02*
X60604285Y-96448000D01*
X61524285Y-98268000D02*
X60604285Y-98268000D01*
X61524285Y-98268000D02*
X61524285Y-96448000D01*
%TO.C,R161*%
X103154285Y-44048000D02*
X103154285Y-45868000D01*
X103154285Y-44048000D02*
X104074285Y-44048000D01*
X103154285Y-45868000D02*
X104074285Y-45868000D01*
X104074285Y-44048000D02*
X104074285Y-45868000D01*
%TO.C,L4*%
X57114285Y-80408000D02*
X59814285Y-80408000D01*
X57114285Y-84308000D02*
X57114285Y-80408000D01*
X59814285Y-80408000D02*
X59814285Y-84308000D01*
X59814285Y-84308000D02*
X57114285Y-84308000D01*
%TO.C,C180*%
X90864285Y-120858000D02*
X90864285Y-124258000D01*
X90864285Y-120858000D02*
X92864285Y-120858000D01*
X90864285Y-124258000D02*
X92864285Y-124258000D01*
X92864285Y-120858000D02*
X92864285Y-124258000D01*
%TO.C,C81*%
X23954285Y-98398000D02*
X25774285Y-98398000D01*
X23954285Y-99318000D02*
X23954285Y-98398000D01*
X23954285Y-99318000D02*
X25774285Y-99318000D01*
X25774285Y-99318000D02*
X25774285Y-98398000D01*
%TO.C,R84*%
X97404285Y-64048000D02*
X97404285Y-65868000D01*
X97404285Y-64048000D02*
X98324285Y-64048000D01*
X97404285Y-65868000D02*
X98324285Y-65868000D01*
X98324285Y-64048000D02*
X98324285Y-65868000D01*
%TO.C,U26*%
X98414285Y-46008000D02*
X103714285Y-46008000D01*
X98414285Y-51308000D02*
X98414285Y-46008000D01*
X98414285Y-51308000D02*
X103714285Y-51308000D01*
X103714285Y-51308000D02*
X103714285Y-46008000D01*
%TO.C,TP3*%
X92264285Y-56308000D02*
G75*
G02*
X89764285Y-56308000I-1250000J0D01*
G01*
X89764285Y-56308000D02*
G75*
G02*
X92264285Y-56308000I1250000J0D01*
G01*
%TO.C,U2*%
X101864285Y-98158000D02*
X101864285Y-114158000D01*
X101864285Y-114158000D02*
X111864285Y-114158000D01*
X111864285Y-98158000D02*
X101864285Y-98158000D01*
X111864285Y-114158000D02*
X111864285Y-98158000D01*
%TO.C,R157*%
X112654285Y-44333000D02*
X112654285Y-46153000D01*
X112654285Y-44333000D02*
X113574285Y-44333000D01*
X112654285Y-46153000D02*
X113574285Y-46153000D01*
X113574285Y-44333000D02*
X113574285Y-46153000D01*
%TO.C,C228*%
X37704285Y-115748000D02*
X37704285Y-117568000D01*
X37704285Y-115748000D02*
X38624285Y-115748000D01*
X37704285Y-117568000D02*
X38624285Y-117568000D01*
X38624285Y-115748000D02*
X38624285Y-117568000D01*
%TO.C,R116*%
X81804285Y-71848000D02*
X81804285Y-73668000D01*
X81804285Y-71848000D02*
X82724285Y-71848000D01*
X81804285Y-73668000D02*
X82724285Y-73668000D01*
X82724285Y-71848000D02*
X82724285Y-73668000D01*
%TO.C,C216*%
X78254285Y-72498000D02*
X80074285Y-72498000D01*
X78254285Y-73418000D02*
X78254285Y-72498000D01*
X78254285Y-73418000D02*
X80074285Y-73418000D01*
X80074285Y-73418000D02*
X80074285Y-72498000D01*
%TO.C,U13*%
X82314285Y-116708000D02*
X82314285Y-109208000D01*
X87814285Y-109208000D02*
X82314285Y-109208000D01*
X87814285Y-116708000D02*
X82314285Y-116708000D01*
X87814285Y-116708000D02*
X87814285Y-109208000D01*
%TO.C,R43*%
X73816785Y-48198000D02*
X73816785Y-49118000D01*
X75636785Y-48198000D02*
X73816785Y-48198000D01*
X75636785Y-48198000D02*
X75636785Y-49118000D01*
X75636785Y-49118000D02*
X73816785Y-49118000D01*
%TO.C,R39*%
X100954285Y-51423000D02*
X100954285Y-53243000D01*
X100954285Y-51423000D02*
X101874285Y-51423000D01*
X100954285Y-53243000D02*
X101874285Y-53243000D01*
X101874285Y-51423000D02*
X101874285Y-53243000D01*
%TO.C,R46*%
X81516785Y-49598000D02*
X83336785Y-49598000D01*
X81516785Y-50518000D02*
X81516785Y-49598000D01*
X81516785Y-50518000D02*
X83336785Y-50518000D01*
X83336785Y-50518000D02*
X83336785Y-49598000D01*
%TO.C,R89*%
X110859285Y-80198000D02*
X110859285Y-81118000D01*
X112679285Y-80198000D02*
X110859285Y-80198000D01*
X112679285Y-80198000D02*
X112679285Y-81118000D01*
X112679285Y-81118000D02*
X110859285Y-81118000D01*
%TO.C,R48*%
X81516785Y-48598000D02*
X83336785Y-48598000D01*
X81516785Y-49518000D02*
X81516785Y-48598000D01*
X81516785Y-49518000D02*
X83336785Y-49518000D01*
X83336785Y-49518000D02*
X83336785Y-48598000D01*
%TO.C,C76*%
X39904285Y-98548000D02*
X39904285Y-100368000D01*
X39904285Y-98548000D02*
X40824285Y-98548000D01*
X39904285Y-100368000D02*
X40824285Y-100368000D01*
X40824285Y-98548000D02*
X40824285Y-100368000D01*
%TO.C,C226*%
X110554285Y-122898000D02*
X110554285Y-123818000D01*
X112374285Y-122898000D02*
X110554285Y-122898000D01*
X112374285Y-122898000D02*
X112374285Y-123818000D01*
X112374285Y-123818000D02*
X110554285Y-123818000D01*
%TO.C,C175*%
X58564285Y-118558000D02*
X61964285Y-118558000D01*
X58564285Y-120558000D02*
X58564285Y-118558000D01*
X58564285Y-120558000D02*
X61964285Y-120558000D01*
X61964285Y-120558000D02*
X61964285Y-118558000D01*
%TO.C,R7*%
X64154285Y-98598000D02*
X64154285Y-99518000D01*
X65974285Y-98598000D02*
X64154285Y-98598000D01*
X65974285Y-98598000D02*
X65974285Y-99518000D01*
X65974285Y-99518000D02*
X64154285Y-99518000D01*
%TO.C,C219*%
X83154285Y-91023000D02*
X83154285Y-91943000D01*
X84974285Y-91023000D02*
X83154285Y-91023000D01*
X84974285Y-91023000D02*
X84974285Y-91943000D01*
X84974285Y-91943000D02*
X83154285Y-91943000D01*
%TO.C,R125*%
X74154285Y-66498000D02*
X75974285Y-66498000D01*
X74154285Y-67418000D02*
X74154285Y-66498000D01*
X74154285Y-67418000D02*
X75974285Y-67418000D01*
X75974285Y-67418000D02*
X75974285Y-66498000D01*
%TO.C,C28*%
X52214285Y-83858000D02*
X52214285Y-80458000D01*
X54114285Y-80458000D02*
X52214285Y-80458000D01*
X54114285Y-83858000D02*
X52214285Y-83858000D01*
X54114285Y-83858000D02*
X54114285Y-80458000D01*
%TO.C,C212*%
X75114285Y-111008000D02*
X76414285Y-111008000D01*
X75114285Y-111508000D02*
X75114285Y-111008000D01*
X75114285Y-111508000D02*
X76414285Y-111508000D01*
X76414285Y-111508000D02*
X76414285Y-111008000D01*
%TO.C,C204*%
X82804285Y-75568000D02*
X82804285Y-73748000D01*
X83724285Y-73748000D02*
X82804285Y-73748000D01*
X83724285Y-75568000D02*
X82804285Y-75568000D01*
X83724285Y-75568000D02*
X83724285Y-73748000D01*
%TO.C,R103*%
X89134285Y-103433000D02*
X89134285Y-105253000D01*
X89134285Y-103433000D02*
X90054285Y-103433000D01*
X89134285Y-105253000D02*
X90054285Y-105253000D01*
X90054285Y-103433000D02*
X90054285Y-105253000D01*
%TO.C,R56*%
X99154285Y-106298000D02*
X99154285Y-107218000D01*
X100974285Y-106298000D02*
X99154285Y-106298000D01*
X100974285Y-106298000D02*
X100974285Y-107218000D01*
X100974285Y-107218000D02*
X99154285Y-107218000D01*
%TO.C,C82*%
X33504285Y-98248000D02*
X33504285Y-100068000D01*
X33504285Y-98248000D02*
X34424285Y-98248000D01*
X33504285Y-100068000D02*
X34424285Y-100068000D01*
X34424285Y-98248000D02*
X34424285Y-100068000D01*
%TO.C,L10*%
X31404285Y-102248000D02*
X31404285Y-104068000D01*
X31404285Y-102248000D02*
X32324285Y-102248000D01*
X31404285Y-104068000D02*
X32324285Y-104068000D01*
X32324285Y-102248000D02*
X32324285Y-104068000D01*
%TO.C,L13*%
X31504285Y-107668000D02*
X31504285Y-105848000D01*
X32424285Y-105848000D02*
X31504285Y-105848000D01*
X32424285Y-107668000D02*
X31504285Y-107668000D01*
X32424285Y-107668000D02*
X32424285Y-105848000D01*
%TO.C,R64*%
X102604285Y-114248000D02*
X102604285Y-116068000D01*
X102604285Y-114248000D02*
X103524285Y-114248000D01*
X102604285Y-116068000D02*
X103524285Y-116068000D01*
X103524285Y-114248000D02*
X103524285Y-116068000D01*
%TO.C,C220*%
X100204285Y-44960000D02*
X102024285Y-44960000D01*
X100204285Y-45880000D02*
X100204285Y-44960000D01*
X100204285Y-45880000D02*
X102024285Y-45880000D01*
X102024285Y-45880000D02*
X102024285Y-44960000D01*
%TO.C,R9*%
X64154285Y-94598000D02*
X64154285Y-95518000D01*
X65974285Y-94598000D02*
X64154285Y-94598000D01*
X65974285Y-94598000D02*
X65974285Y-95518000D01*
X65974285Y-95518000D02*
X64154285Y-95518000D01*
%TO.C,L18*%
X73964285Y-116208000D02*
X76964285Y-116208000D01*
X73964285Y-117708000D02*
X73964285Y-116208000D01*
X73964285Y-117708000D02*
X76964285Y-117708000D01*
X76964285Y-117708000D02*
X76964285Y-116208000D01*
%TO.C,R160*%
X60654285Y-85498000D02*
X60654285Y-86418000D01*
X62474285Y-85498000D02*
X60654285Y-85498000D01*
X62474285Y-85498000D02*
X62474285Y-86418000D01*
X62474285Y-86418000D02*
X60654285Y-86418000D01*
%TO.C,C23*%
X60814285Y-44458000D02*
X60814285Y-47858000D01*
X60814285Y-44458000D02*
X62714285Y-44458000D01*
X60814285Y-47858000D02*
X62714285Y-47858000D01*
X62714285Y-44458000D02*
X62714285Y-47858000D01*
%TO.C,TP14*%
X53114285Y-106458000D02*
G75*
G02*
X50614285Y-106458000I-1250000J0D01*
G01*
X50614285Y-106458000D02*
G75*
G02*
X53114285Y-106458000I1250000J0D01*
G01*
%TO.C,R104*%
X76504285Y-106398000D02*
X76504285Y-107318000D01*
X78324285Y-106398000D02*
X76504285Y-106398000D01*
X78324285Y-106398000D02*
X78324285Y-107318000D01*
X78324285Y-107318000D02*
X76504285Y-107318000D01*
%TO.C,R60*%
X107604285Y-114248000D02*
X107604285Y-116068000D01*
X107604285Y-114248000D02*
X108524285Y-114248000D01*
X107604285Y-116068000D02*
X108524285Y-116068000D01*
X108524285Y-114248000D02*
X108524285Y-116068000D01*
%TO.C,C171*%
X40714285Y-118158000D02*
X40714285Y-114758000D01*
X42614285Y-114758000D02*
X40714285Y-114758000D01*
X42614285Y-118158000D02*
X40714285Y-118158000D01*
X42614285Y-118158000D02*
X42614285Y-114758000D01*
%TO.C,LD2*%
X56714285Y-112033000D02*
X56714285Y-109083000D01*
X58014285Y-109083000D02*
X56714285Y-109083000D01*
X58014285Y-112033000D02*
X56714285Y-112033000D01*
X58014285Y-112033000D02*
X58014285Y-109083000D01*
%TO.C,TP7*%
X85214285Y-81758000D02*
G75*
G02*
X82714285Y-81758000I-1250000J0D01*
G01*
X82714285Y-81758000D02*
G75*
G02*
X85214285Y-81758000I1250000J0D01*
G01*
%TO.C,R128*%
X74154285Y-62998000D02*
X74154285Y-63918000D01*
X75974285Y-62998000D02*
X74154285Y-62998000D01*
X75974285Y-62998000D02*
X75974285Y-63918000D01*
X75974285Y-63918000D02*
X74154285Y-63918000D01*
%TO.C,C75*%
X37354285Y-111298000D02*
X37354285Y-112218000D01*
X39174285Y-111298000D02*
X37354285Y-111298000D01*
X39174285Y-111298000D02*
X39174285Y-112218000D01*
X39174285Y-112218000D02*
X37354285Y-112218000D01*
%TO.C,R22*%
X85616785Y-46998000D02*
X87436785Y-46998000D01*
X85616785Y-47918000D02*
X85616785Y-46998000D01*
X85616785Y-47918000D02*
X87436785Y-47918000D01*
X87436785Y-47918000D02*
X87436785Y-46998000D01*
%TO.C,C24*%
X62804285Y-45948000D02*
X62804285Y-47768000D01*
X62804285Y-45948000D02*
X63724285Y-45948000D01*
X62804285Y-47768000D02*
X63724285Y-47768000D01*
X63724285Y-45948000D02*
X63724285Y-47768000D01*
%TO.C,C27*%
X59914285Y-83958000D02*
X59914285Y-80558000D01*
X61814285Y-80558000D02*
X59914285Y-80558000D01*
X61814285Y-83958000D02*
X59914285Y-83958000D01*
X61814285Y-83958000D02*
X61814285Y-80558000D01*
%TO.C,L14*%
X30314285Y-97908000D02*
X33214285Y-97908000D01*
X30314285Y-100208000D02*
X30314285Y-97908000D01*
X30314285Y-100208000D02*
X33214285Y-100208000D01*
X33214285Y-100208000D02*
X33214285Y-97908000D01*
%TO.C,R127*%
X74154285Y-63998000D02*
X75974285Y-63998000D01*
X74154285Y-64918000D02*
X74154285Y-63998000D01*
X74154285Y-64918000D02*
X75974285Y-64918000D01*
X75974285Y-64918000D02*
X75974285Y-63998000D01*
%TO.C,R133*%
X76054285Y-60098000D02*
X77874285Y-60098000D01*
X76054285Y-61018000D02*
X76054285Y-60098000D01*
X76054285Y-61018000D02*
X77874285Y-61018000D01*
X77874285Y-61018000D02*
X77874285Y-60098000D01*
%TO.C,LD3*%
X109214285Y-46833000D02*
X109214285Y-43883000D01*
X110514285Y-43883000D02*
X109214285Y-43883000D01*
X110514285Y-46833000D02*
X109214285Y-46833000D01*
X110514285Y-46833000D02*
X110514285Y-43883000D01*
%TO.C,L20*%
X74364285Y-113408000D02*
X77364285Y-113408000D01*
X74364285Y-114908000D02*
X74364285Y-113408000D01*
X74364285Y-114908000D02*
X77364285Y-114908000D01*
X77364285Y-114908000D02*
X77364285Y-113408000D01*
%TO.C,SW1*%
X39689285Y-44408000D02*
X41139285Y-44408000D01*
X39689285Y-46508000D02*
X39689285Y-44408000D01*
X39689285Y-46508000D02*
X41139285Y-46508000D01*
X41139285Y-42718000D02*
X49139285Y-42718000D01*
X41139285Y-44408000D02*
X41139285Y-42718000D01*
X41139285Y-46508000D02*
X41139285Y-48198000D01*
X41139285Y-48198000D02*
X49139285Y-48198000D01*
X49139285Y-44408000D02*
X49139285Y-42718000D01*
X49139285Y-44408000D02*
X50589285Y-44408000D01*
X49139285Y-46508000D02*
X50589285Y-46508000D01*
X49139285Y-48198000D02*
X49139285Y-46508000D01*
X50589285Y-46508000D02*
X50589285Y-44408000D01*
%TO.C,C170*%
X38714285Y-118158000D02*
X38714285Y-114758000D01*
X40614285Y-114758000D02*
X38714285Y-114758000D01*
X40614285Y-118158000D02*
X38714285Y-118158000D01*
X40614285Y-118158000D02*
X40614285Y-114758000D01*
%TO.C,R126*%
X74154285Y-65498000D02*
X74154285Y-66418000D01*
X75974285Y-65498000D02*
X74154285Y-65498000D01*
X75974285Y-65498000D02*
X75974285Y-66418000D01*
X75974285Y-66418000D02*
X74154285Y-66418000D01*
%TO.C,U23*%
X83114285Y-87408000D02*
X83114285Y-90908000D01*
X87014285Y-87408000D02*
X83114285Y-87408000D01*
X87014285Y-87408000D02*
X87014285Y-90908000D01*
X87014285Y-90908000D02*
X83114285Y-90908000D01*
%TO.C,C4*%
X58934285Y-85973000D02*
X58934285Y-87793000D01*
X58934285Y-85973000D02*
X59854285Y-85973000D01*
X58934285Y-87793000D02*
X59854285Y-87793000D01*
X59854285Y-85973000D02*
X59854285Y-87793000D01*
%TO.C,R177*%
X94954285Y-105798000D02*
X94954285Y-106718000D01*
X96774285Y-105798000D02*
X94954285Y-105798000D01*
X96774285Y-105798000D02*
X96774285Y-106718000D01*
X96774285Y-106718000D02*
X94954285Y-106718000D01*
%TO.C,D3*%
X48214285Y-113308000D02*
X48214285Y-115208000D01*
X48214285Y-113308000D02*
X51414285Y-113308000D01*
X48214285Y-115208000D02*
X51414285Y-115208000D01*
X51414285Y-113308000D02*
X51414285Y-115208000D01*
%TO.C,R80*%
X24584285Y-106998000D02*
X26404285Y-106998000D01*
X24584285Y-107918000D02*
X24584285Y-106998000D01*
X24584285Y-107918000D02*
X26404285Y-107918000D01*
X26404285Y-107918000D02*
X26404285Y-106998000D01*
%TO.C,R138*%
X76054285Y-58198000D02*
X77874285Y-58198000D01*
X76054285Y-59118000D02*
X76054285Y-58198000D01*
X76054285Y-59118000D02*
X77874285Y-59118000D01*
X77874285Y-59118000D02*
X77874285Y-58198000D01*
%TO.C,R37*%
X78266785Y-51548000D02*
X78266785Y-53368000D01*
X78266785Y-51548000D02*
X79186785Y-51548000D01*
X78266785Y-53368000D02*
X79186785Y-53368000D01*
X79186785Y-51548000D02*
X79186785Y-53368000D01*
%TO.C,U1*%
X90264285Y-74258000D02*
X90264285Y-91258000D01*
X90264285Y-91258000D02*
X107264285Y-91258000D01*
X107264285Y-74258000D02*
X90264285Y-74258000D01*
X107264285Y-91258000D02*
X107264285Y-74258000D01*
%TO.C,C183*%
X68614285Y-100723000D02*
X68614285Y-102023000D01*
X68614285Y-100723000D02*
X69114285Y-100723000D01*
X68614285Y-102023000D02*
X69114285Y-102023000D01*
X69114285Y-100723000D02*
X69114285Y-102023000D01*
%TO.C,C214*%
X81804285Y-75568000D02*
X81804285Y-73748000D01*
X82724285Y-73748000D02*
X81804285Y-73748000D01*
X82724285Y-75568000D02*
X81804285Y-75568000D01*
X82724285Y-75568000D02*
X82724285Y-73748000D01*
%TO.C,R5*%
X64154285Y-96598000D02*
X64154285Y-97518000D01*
X65974285Y-96598000D02*
X64154285Y-96598000D01*
X65974285Y-96598000D02*
X65974285Y-97518000D01*
X65974285Y-97518000D02*
X64154285Y-97518000D01*
%TO.C,R149*%
X101704285Y-121148000D02*
X101704285Y-122968000D01*
X101704285Y-121148000D02*
X102624285Y-121148000D01*
X101704285Y-122968000D02*
X102624285Y-122968000D01*
X102624285Y-121148000D02*
X102624285Y-122968000D01*
%TO.C,C25*%
X53254285Y-84398000D02*
X55074285Y-84398000D01*
X53254285Y-85318000D02*
X53254285Y-84398000D01*
X53254285Y-85318000D02*
X55074285Y-85318000D01*
X55074285Y-85318000D02*
X55074285Y-84398000D01*
%TO.C,C210*%
X73414285Y-113408000D02*
X73414285Y-114708000D01*
X73414285Y-113408000D02*
X73914285Y-113408000D01*
X73414285Y-114708000D02*
X73914285Y-114708000D01*
X73914285Y-113408000D02*
X73914285Y-114708000D01*
%TO.C,R159*%
X74804285Y-108268000D02*
X74804285Y-106448000D01*
X75724285Y-106448000D02*
X74804285Y-106448000D01*
X75724285Y-108268000D02*
X74804285Y-108268000D01*
X75724285Y-108268000D02*
X75724285Y-106448000D01*
%TO.C,R120*%
X80804285Y-75568000D02*
X80804285Y-73748000D01*
X81724285Y-73748000D02*
X80804285Y-73748000D01*
X81724285Y-75568000D02*
X80804285Y-75568000D01*
X81724285Y-75568000D02*
X81724285Y-73748000D01*
%TO.C,C200*%
X78864285Y-116208000D02*
X78864285Y-119308000D01*
X78864285Y-116208000D02*
X80464285Y-116208000D01*
X78864285Y-119308000D02*
X80464285Y-119308000D01*
X80464285Y-116208000D02*
X80464285Y-119308000D01*
%TO.C,C21*%
X59754285Y-42998000D02*
X59754285Y-43918000D01*
X61574285Y-42998000D02*
X59754285Y-42998000D01*
X61574285Y-42998000D02*
X61574285Y-43918000D01*
X61574285Y-43918000D02*
X59754285Y-43918000D01*
%TO.C,C215*%
X80814285Y-72108000D02*
X80814285Y-73408000D01*
X80814285Y-72108000D02*
X81314285Y-72108000D01*
X80814285Y-73408000D02*
X81314285Y-73408000D01*
X81314285Y-72108000D02*
X81314285Y-73408000D01*
%TO.C,Y4*%
X54714285Y-85633000D02*
X54714285Y-88883000D01*
X54714285Y-85633000D02*
X58814285Y-85633000D01*
X54714285Y-88883000D02*
X58814285Y-88883000D01*
X58814285Y-85633000D02*
X58814285Y-88883000D01*
%TO.C,C18*%
X62054285Y-86498000D02*
X62054285Y-87418000D01*
X63874285Y-86498000D02*
X62054285Y-86498000D01*
X63874285Y-86498000D02*
X63874285Y-87418000D01*
X63874285Y-87418000D02*
X62054285Y-87418000D01*
%TO.C,U27*%
X100664285Y-57558000D02*
X112464285Y-57558000D01*
X100664285Y-68558000D02*
X100664285Y-57558000D01*
X100664285Y-68558000D02*
X112464285Y-68558000D01*
X112464285Y-68558000D02*
X112464285Y-57558000D01*
%TO.C,U20*%
X102814285Y-120508000D02*
X102814285Y-126008000D01*
X110314285Y-120508000D02*
X102814285Y-120508000D01*
X110314285Y-120508000D02*
X110314285Y-126008000D01*
X110314285Y-126008000D02*
X102814285Y-126008000D01*
%TO.C,C16*%
X48754285Y-82898000D02*
X48754285Y-83818000D01*
X50574285Y-82898000D02*
X48754285Y-82898000D01*
X50574285Y-82898000D02*
X50574285Y-83818000D01*
X50574285Y-83818000D02*
X48754285Y-83818000D01*
%TO.C,L1*%
X60714285Y-92858000D02*
X60714285Y-88658000D01*
X64014285Y-88658000D02*
X60714285Y-88658000D01*
X64014285Y-92858000D02*
X60714285Y-92858000D01*
X64014285Y-92858000D02*
X64014285Y-88658000D01*
%TO.C,C30*%
X51204285Y-82318000D02*
X51204285Y-80498000D01*
X52124285Y-80498000D02*
X51204285Y-80498000D01*
X52124285Y-82318000D02*
X51204285Y-82318000D01*
X52124285Y-82318000D02*
X52124285Y-80498000D01*
%TO.C,R130*%
X76054285Y-63998000D02*
X77874285Y-63998000D01*
X76054285Y-64918000D02*
X76054285Y-63998000D01*
X76054285Y-64918000D02*
X77874285Y-64918000D01*
X77874285Y-64918000D02*
X77874285Y-63998000D01*
%TO.C,LD5*%
X104114285Y-46783000D02*
X104114285Y-43833000D01*
X105414285Y-43833000D02*
X104114285Y-43833000D01*
X105414285Y-46783000D02*
X104114285Y-46783000D01*
X105414285Y-46783000D02*
X105414285Y-43833000D01*
%TO.C,R141*%
X92004285Y-65868000D02*
X92004285Y-64048000D01*
X92924285Y-64048000D02*
X92004285Y-64048000D01*
X92924285Y-65868000D02*
X92004285Y-65868000D01*
X92924285Y-65868000D02*
X92924285Y-64048000D01*
%TO.C,C173*%
X56364285Y-118008000D02*
X56364285Y-114608000D01*
X58264285Y-114608000D02*
X56364285Y-114608000D01*
X58264285Y-118008000D02*
X56364285Y-118008000D01*
X58264285Y-118008000D02*
X58264285Y-114608000D01*
%TO.C,R33*%
X93316785Y-49498000D02*
X95136785Y-49498000D01*
X93316785Y-50418000D02*
X93316785Y-49498000D01*
X93316785Y-50418000D02*
X95136785Y-50418000D01*
X95136785Y-50418000D02*
X95136785Y-49498000D01*
%TO.C,R115*%
X91554285Y-114898000D02*
X91554285Y-115818000D01*
X93374285Y-114898000D02*
X91554285Y-114898000D01*
X93374285Y-114898000D02*
X93374285Y-115818000D01*
X93374285Y-115818000D02*
X91554285Y-115818000D01*
%TO.C,R77*%
X37064285Y-100318000D02*
X37064285Y-98498000D01*
X37984285Y-98498000D02*
X37064285Y-98498000D01*
X37984285Y-100318000D02*
X37064285Y-100318000D01*
X37984285Y-100318000D02*
X37984285Y-98498000D01*
%TO.C,C217*%
X77954285Y-67198000D02*
X79774285Y-67198000D01*
X77954285Y-68118000D02*
X77954285Y-67198000D01*
X77954285Y-68118000D02*
X79774285Y-68118000D01*
X79774285Y-68118000D02*
X79774285Y-67198000D01*
%TO.C,C203*%
X74914285Y-111758000D02*
X78014285Y-111758000D01*
X74914285Y-113358000D02*
X74914285Y-111758000D01*
X74914285Y-113358000D02*
X78014285Y-113358000D01*
X78014285Y-113358000D02*
X78014285Y-111758000D01*
%TO.C,R59*%
X103604285Y-114248000D02*
X103604285Y-116068000D01*
X103604285Y-114248000D02*
X104524285Y-114248000D01*
X103604285Y-116068000D02*
X104524285Y-116068000D01*
X104524285Y-114248000D02*
X104524285Y-116068000D01*
%TO.C,R123*%
X76054285Y-65498000D02*
X77874285Y-65498000D01*
X76054285Y-66418000D02*
X76054285Y-65498000D01*
X76054285Y-66418000D02*
X77874285Y-66418000D01*
X77874285Y-66418000D02*
X77874285Y-65498000D01*
%TO.C,R139*%
X93804285Y-64048000D02*
X93804285Y-65868000D01*
X93804285Y-64048000D02*
X94724285Y-64048000D01*
X93804285Y-65868000D02*
X94724285Y-65868000D01*
X94724285Y-64048000D02*
X94724285Y-65868000D01*
%TO.C,R163*%
X85079285Y-66543000D02*
X85079285Y-64723000D01*
X85999285Y-64723000D02*
X85079285Y-64723000D01*
X85999285Y-66543000D02*
X85079285Y-66543000D01*
X85999285Y-66543000D02*
X85999285Y-64723000D01*
%TO.C,LD4*%
X113864285Y-46718000D02*
X113864285Y-43768000D01*
X115164285Y-43768000D02*
X113864285Y-43768000D01*
X115164285Y-46718000D02*
X113864285Y-46718000D01*
X115164285Y-46718000D02*
X115164285Y-43768000D01*
%TO.C,R49*%
X105604285Y-114248000D02*
X105604285Y-116068000D01*
X105604285Y-114248000D02*
X106524285Y-114248000D01*
X105604285Y-116068000D02*
X106524285Y-116068000D01*
X106524285Y-114248000D02*
X106524285Y-116068000D01*
%TO.C,R35*%
X73816785Y-46198000D02*
X73816785Y-47118000D01*
X75636785Y-46198000D02*
X73816785Y-46198000D01*
X75636785Y-46198000D02*
X75636785Y-47118000D01*
X75636785Y-47118000D02*
X73816785Y-47118000D01*
%TO.C,R23*%
X96254285Y-47973000D02*
X96254285Y-48893000D01*
X98074285Y-47973000D02*
X96254285Y-47973000D01*
X98074285Y-47973000D02*
X98074285Y-48893000D01*
X98074285Y-48893000D02*
X96254285Y-48893000D01*
%TO.C,R119*%
X65254285Y-111298000D02*
X65254285Y-112218000D01*
X67074285Y-111298000D02*
X65254285Y-111298000D01*
X67074285Y-111298000D02*
X67074285Y-112218000D01*
X67074285Y-112218000D02*
X65254285Y-112218000D01*
%TO.C,R29*%
X90966785Y-53368000D02*
X90966785Y-51548000D01*
X91886785Y-51548000D02*
X90966785Y-51548000D01*
X91886785Y-53368000D02*
X90966785Y-53368000D01*
X91886785Y-53368000D02*
X91886785Y-51548000D01*
%TO.C,R88*%
X110854285Y-81198000D02*
X112674285Y-81198000D01*
X110854285Y-82118000D02*
X110854285Y-81198000D01*
X110854285Y-82118000D02*
X112674285Y-82118000D01*
X112674285Y-82118000D02*
X112674285Y-81198000D01*
%TO.C,C195*%
X70664285Y-117783000D02*
X70664285Y-119383000D01*
X73764285Y-117783000D02*
X70664285Y-117783000D01*
X73764285Y-117783000D02*
X73764285Y-119383000D01*
X73764285Y-119383000D02*
X70664285Y-119383000D01*
%TO.C,R36*%
X73816785Y-47198000D02*
X75636785Y-47198000D01*
X73816785Y-48118000D02*
X73816785Y-47198000D01*
X73816785Y-48118000D02*
X75636785Y-48118000D01*
X75636785Y-48118000D02*
X75636785Y-47198000D01*
%TO.C,R57*%
X109604285Y-114248000D02*
X109604285Y-116068000D01*
X109604285Y-114248000D02*
X110524285Y-114248000D01*
X109604285Y-116068000D02*
X110524285Y-116068000D01*
X110524285Y-114248000D02*
X110524285Y-116068000D01*
%TO.C,U7*%
X54064285Y-91358000D02*
X60464285Y-91358000D01*
X54064285Y-97758000D02*
X54064285Y-91358000D01*
X54064285Y-97758000D02*
X60464285Y-97758000D01*
X60464285Y-97758000D02*
X60464285Y-91358000D01*
%TO.C,L12*%
X23954285Y-99498000D02*
X25774285Y-99498000D01*
X23954285Y-100418000D02*
X23954285Y-99498000D01*
X23954285Y-100418000D02*
X25774285Y-100418000D01*
X25774285Y-100418000D02*
X25774285Y-99498000D01*
%TO.C,R3*%
X54804285Y-91068000D02*
X54804285Y-89248000D01*
X55724285Y-89248000D02*
X54804285Y-89248000D01*
X55724285Y-91068000D02*
X54804285Y-91068000D01*
X55724285Y-91068000D02*
X55724285Y-89248000D01*
%TO.C,C190*%
X89344285Y-103043000D02*
X89344285Y-101743000D01*
X89844285Y-101743000D02*
X89344285Y-101743000D01*
X89844285Y-103043000D02*
X89344285Y-103043000D01*
X89844285Y-103043000D02*
X89844285Y-101743000D01*
%TO.C,R40*%
X103854285Y-49273000D02*
X105674285Y-49273000D01*
X103854285Y-50193000D02*
X103854285Y-49273000D01*
X103854285Y-50193000D02*
X105674285Y-50193000D01*
X105674285Y-50193000D02*
X105674285Y-49273000D01*
%TO.C,TP13*%
X80414285Y-75958000D02*
G75*
G02*
X77914285Y-75958000I-1250000J0D01*
G01*
X77914285Y-75958000D02*
G75*
G02*
X80414285Y-75958000I1250000J0D01*
G01*
%TO.C,C79*%
X45654285Y-107198000D02*
X45654285Y-108118000D01*
X47474285Y-107198000D02*
X45654285Y-107198000D01*
X47474285Y-107198000D02*
X47474285Y-108118000D01*
X47474285Y-108118000D02*
X45654285Y-108118000D01*
%TO.C,R173*%
X81554285Y-47598000D02*
X81554285Y-48518000D01*
X83374285Y-47598000D02*
X81554285Y-47598000D01*
X83374285Y-47598000D02*
X83374285Y-48518000D01*
X83374285Y-48518000D02*
X81554285Y-48518000D01*
%TO.C,R42*%
X103854285Y-48273000D02*
X105674285Y-48273000D01*
X103854285Y-49193000D02*
X103854285Y-48273000D01*
X103854285Y-49193000D02*
X105674285Y-49193000D01*
X105674285Y-49193000D02*
X105674285Y-48273000D01*
%TO.C,R27*%
X85616785Y-49998000D02*
X85616785Y-50918000D01*
X87436785Y-49998000D02*
X85616785Y-49998000D01*
X87436785Y-49998000D02*
X87436785Y-50918000D01*
X87436785Y-50918000D02*
X85616785Y-50918000D01*
%TO.C,U15*%
X85394285Y-106343000D02*
X85394285Y-99943000D01*
X88994285Y-99943000D02*
X85394285Y-99943000D01*
X88994285Y-106343000D02*
X85394285Y-106343000D01*
X88994285Y-106343000D02*
X88994285Y-99943000D01*
%TO.C,TP1*%
X30739285Y-107558000D02*
G75*
G02*
X28239285Y-107558000I-1250000J0D01*
G01*
X28239285Y-107558000D02*
G75*
G02*
X30739285Y-107558000I1250000J0D01*
G01*
%TO.C,C20*%
X52104285Y-45748000D02*
X52104285Y-47568000D01*
X52104285Y-45748000D02*
X53024285Y-45748000D01*
X52104285Y-47568000D02*
X53024285Y-47568000D01*
X53024285Y-45748000D02*
X53024285Y-47568000D01*
%TO.C,J7*%
X123339285Y-43353000D02*
X123339285Y-59603000D01*
X123339285Y-59603000D02*
X138189285Y-59603000D01*
X138189285Y-43353000D02*
X123339285Y-43353000D01*
X138189285Y-59603000D02*
X138189285Y-43353000D01*
%TO.C,C206*%
X71914285Y-105908000D02*
X71914285Y-104608000D01*
X72414285Y-104608000D02*
X71914285Y-104608000D01*
X72414285Y-105908000D02*
X71914285Y-105908000D01*
X72414285Y-105908000D02*
X72414285Y-104608000D01*
%TO.C,C64*%
X111604285Y-116068000D02*
X111604285Y-114248000D01*
X112524285Y-114248000D02*
X111604285Y-114248000D01*
X112524285Y-116068000D02*
X111604285Y-116068000D01*
X112524285Y-116068000D02*
X112524285Y-114248000D01*
%TO.C,J10*%
X14814285Y-111058000D02*
X14814285Y-121058000D01*
X14814285Y-121058000D02*
X23514285Y-121058000D01*
X23514285Y-122358000D02*
X23514285Y-121058000D01*
X28714285Y-121058000D02*
X30514285Y-121058000D01*
X28714285Y-122358000D02*
X23514285Y-122358000D01*
X28714285Y-122358000D02*
X28714285Y-121058000D01*
X30514285Y-111058000D02*
X14814285Y-111058000D01*
X30514285Y-121058000D02*
X30514285Y-111058000D01*
%TO.C,C65*%
X103604285Y-116648000D02*
X103604285Y-118468000D01*
X103604285Y-116648000D02*
X104524285Y-116648000D01*
X103604285Y-118468000D02*
X104524285Y-118468000D01*
X104524285Y-116648000D02*
X104524285Y-118468000D01*
%TO.C,C6*%
X61354285Y-93098000D02*
X61354285Y-94018000D01*
X63174285Y-93098000D02*
X61354285Y-93098000D01*
X63174285Y-93098000D02*
X63174285Y-94018000D01*
X63174285Y-94018000D02*
X61354285Y-94018000D01*
%TO.C,C197*%
X93064285Y-106108000D02*
X94364285Y-106108000D01*
X93064285Y-106608000D02*
X93064285Y-106108000D01*
X93064285Y-106608000D02*
X94364285Y-106608000D01*
X94364285Y-106608000D02*
X94364285Y-106108000D01*
D11*
%TO.C,J12*%
X52339285Y-51383000D02*
X63039285Y-51383000D01*
X52339285Y-62883000D02*
X52339285Y-51383000D01*
X52339285Y-62883000D02*
X63039285Y-62883000D01*
X63039285Y-62883000D02*
X63039285Y-51383000D01*
D10*
%TO.C,C187*%
X82544285Y-107443000D02*
X85644285Y-107443000D01*
X82544285Y-109043000D02*
X82544285Y-107443000D01*
X82544285Y-109043000D02*
X85644285Y-109043000D01*
X85644285Y-109043000D02*
X85644285Y-107443000D01*
%TO.C,R107*%
X72704285Y-104348000D02*
X72704285Y-106168000D01*
X72704285Y-104348000D02*
X73624285Y-104348000D01*
X72704285Y-106168000D02*
X73624285Y-106168000D01*
X73624285Y-104348000D02*
X73624285Y-106168000D01*
%TO.C,C211*%
X67414285Y-109508000D02*
X67414285Y-108208000D01*
X67914285Y-108208000D02*
X67414285Y-108208000D01*
X67914285Y-109508000D02*
X67414285Y-109508000D01*
X67914285Y-109508000D02*
X67914285Y-108208000D01*
%TO.C,C213*%
X65254285Y-109298000D02*
X67074285Y-109298000D01*
X65254285Y-110218000D02*
X65254285Y-109298000D01*
X65254285Y-110218000D02*
X67074285Y-110218000D01*
X67074285Y-110218000D02*
X67074285Y-109298000D01*
%TO.C,C83*%
X30264285Y-100308000D02*
X33664285Y-100308000D01*
X30264285Y-102208000D02*
X30264285Y-100308000D01*
X30264285Y-102208000D02*
X33664285Y-102208000D01*
X33664285Y-102208000D02*
X33664285Y-100308000D01*
%TD*%
M02*
