M48
; DRILL file {KiCad 9.0.0} date 2025-07-03T18:11:04+0200
; FORMAT={-:-/ absolute / inch / decimal}
; #@! TF.CreationDate,2025-07-03T18:11:04+02:00
; #@! TF.GenerationSoftware,Kicad,Pcbnew,9.0.0
; #@! TF.FileFunction,MixedPlating,1,8
FMAT,2
INCH
; #@! TA.AperFunction,Plated,PTH,ViaDrill
T1C0.0079
; #@! TA.AperFunction,Plated,PTH,ComponentDrill
T2C0.0079
; #@! TA.AperFunction,Plated,PTH,ViaDrill
T3C0.0118
; #@! TA.AperFunction,Plated,PTH,ComponentDrill
T4C0.0236
; #@! TA.AperFunction,Plated,PTH,ComponentDrill
T5C0.0276
; #@! TA.AperFunction,Plated,PTH,ComponentDrill
T6C0.0354
; #@! TA.AperFunction,Plated,PTH,ComponentDrill
T7C0.0374
; #@! TA.AperFunction,Plated,PTH,ComponentDrill
T8C0.0394
; #@! TA.AperFunction,Plated,PTH,ComponentDrill
T9C0.0413
; #@! TA.AperFunction,Plated,PTH,ComponentDrill
T10C0.0433
; #@! TA.AperFunction,Plated,PTH,ComponentDrill
T11C0.0630
; #@! TA.AperFunction,Plated,PTH,ComponentDrill
T12C0.1260
; #@! TA.AperFunction,NonPlated,NPTH,ComponentDrill
T13C0.0256
; #@! TA.AperFunction,NonPlated,NPTH,ComponentDrill
T14C0.0610
; #@! TA.AperFunction,NonPlated,NPTH,ComponentDrill
T15C0.1260
%
G90
G05
T1
X0.9512Y-4.8507
X0.9553Y-4.0889
X0.9553Y-4.2739
X0.9774Y-4.17
X0.9802Y-3.9969
X0.9868Y-3.9604
X1.0023Y-4.0426
X1.0458Y-4.2306
X1.0458Y-4.2739
X1.1364Y-4.018
X1.1836Y-3.9275
X1.1915Y-3.9865
X1.2584Y-4.2424
X1.2781Y-4.2976
X1.2809Y-4.1219
X1.2821Y-4.2582
X1.3175Y-4.2208
X1.3372Y-3.8645
X1.3558Y-4.0436
X1.3609Y-4.2388
X1.3637Y-3.9422
X1.3637Y-4.1007
X1.3647Y-3.9826
X1.3706Y-3.9058
X1.3726Y-4.0622
X1.3726Y-4.2582
X1.3726Y-4.2976
X1.3765Y-3.8603
X1.3765Y-4.1991
X1.3769Y-4.3179
X1.3815Y-4.022
X1.408Y-4.392
X1.431Y-4.3785
X1.4475Y-4.4092
X1.4592Y-3.8527
X1.4709Y-4.3761
X1.4895Y-4.4222
X1.4986Y-3.896
X1.4986Y-3.9629
X1.5065Y-4.5495
X1.5183Y-3.9235
X1.5239Y-4.4212
X1.5537Y-1.7897
X1.5655Y-4.5968
X1.5686Y-3.9328
X1.5687Y-3.8979
X1.5895Y-4.3736
X1.6861Y-3.9332
X1.6876Y-3.9669
X1.6876Y-4.3999
X1.7073Y-3.8763
X1.7132Y-4.7739
X1.7416Y-4.6577
X1.7466Y-3.8763
X1.7657Y-4.656
X1.7663Y-4.3999
X1.7705Y-3.9329
X1.786Y-4.0417
X1.786Y-4.6519
X1.7899Y-4.2779
X1.8151Y-4.2161
X1.8156Y-4.1164
X1.8511Y-4.1172
X1.8511Y-4.217
X1.8647Y-4.1952
X1.8799Y-4.1791
X1.8923Y-4.6204
X1.8951Y-3.4747
X1.908Y-4.2582
X1.921Y-3.4747
X1.9238Y-4.0377
X1.9658Y-4.2253
X1.975Y-3.8606
X1.9828Y-3.7818
X1.9986Y-3.3684
X2.0025Y-3.2818
X2.0025Y-4.2503
X2.0043Y-4.4502
X2.0104Y-1.7897
X2.0253Y-3.6803
X2.0315Y-3.9469
X2.034Y-3.7661
X2.038Y-3.4511
X2.0498Y-2.1637
X2.0498Y-2.1952
X2.0498Y-2.2267
X2.0498Y-2.2582
X2.0498Y-2.2897
X2.0498Y-2.3212
X2.0498Y-2.3527
X2.0498Y-2.7231
X2.0498Y-2.7546
X2.0498Y-2.7861
X2.0498Y-2.8176
X2.0498Y-2.8491
X2.0498Y-2.8806
X2.0498Y-2.9121
X2.0576Y-3.8409
X2.0931Y-4.2543
X2.1088Y-3.5692
X2.1088Y-3.9157
X2.1104Y-3.8779
X2.1206Y-3.6834
X2.1206Y-3.7621
X2.134Y-3.393
X2.1364Y-3.5102
X2.1364Y-3.8527
X2.1364Y-4.4669
X2.1718Y-2.148
X2.1718Y-2.1794
X2.1718Y-2.2109
X2.1718Y-2.2424
X2.1718Y-2.2739
X2.1718Y-2.3054
X2.1718Y-2.3369
X2.1718Y-2.707
X2.1718Y-2.7385
X2.1718Y-2.77
X2.1718Y-2.8015
X2.1718Y-2.833
X2.1718Y-2.8645
X2.1718Y-2.896
X2.1758Y-3.5102
X2.1758Y-3.9354
X2.1931Y-4.4469
X2.1961Y-3.9394
X2.1994Y-3.6676
X2.1994Y-3.7818
X2.2033Y-3.7228
X2.2111Y-3.5102
X2.2159Y-3.5888
X2.2169Y-3.9392
X2.2319Y-3.896
X2.2477Y-3.8645
X2.2506Y-3.6676
X2.2545Y-3.7228
X2.2545Y-3.7818
X2.2624Y-3.8881
X2.2781Y-3.5298
X2.2781Y-3.5771
X2.2831Y-3.8748
X2.286Y-4.3842
X2.2949Y-3.593
X2.2978Y-3.896
X2.3096Y-3.6676
X2.3096Y-3.7228
X2.3096Y-3.7818
X2.3175Y-3.8802
X2.3214Y-3.5023
X2.3385Y-3.4714
X2.349Y-3.9491
X2.3529Y-4.2784
X2.3608Y-4.6499
X2.3625Y-4.1812
X2.3805Y-3.8212
X2.3805Y-3.8527
X2.3844Y-4.6578
X2.4002Y-3.4196
X2.4002Y-3.4432
X2.4002Y-3.4669
X2.4041Y-4.648
X2.4183Y-4.1862
X2.4199Y-3.6834
X2.4277Y-3.4196
X2.4277Y-3.4669
X2.4281Y-3.4427
X2.4317Y-3.6637
X2.4319Y-4.2784
X2.4406Y-4.1875
X2.4671Y-3.3842
X2.471Y-3.892
X2.4947Y-3.6834
X2.4966Y-3.398
X2.5143Y-3.7346
X2.5143Y-3.8212
X2.5143Y-3.8606
X2.5143Y-3.8881
X2.5143Y-4.1991
X2.5183Y-3.7031
X2.5183Y-3.7818
X2.538Y-4.1361
X2.5527Y-4.3279
X2.5527Y-4.3539
X2.5537Y-4.6066
X2.5596Y-2.9235
X2.5643Y-4.157
X2.5643Y-2.2779
X2.5655Y-2.9499
X2.5655Y-2.9759
X2.5695Y-2.7897
X2.5721Y-2.7634
X2.5758Y-2.2988
X2.5793Y-3.925
X2.581Y-3.6595
X2.5852Y-2.8832
X2.5852Y-2.9092
X2.5852Y-4.2582
X2.5891Y-4.4235
X2.5903Y-2.2779
X2.5905Y-2.7451
X2.6128Y-1.7543
X2.6128Y-2.6637
X2.6206Y-2.7464
X2.6234Y-2.9708
X2.6279Y-2.2751
X2.6285Y-2.2255
X2.6285Y-2.2515
X2.6325Y-3.7424
X2.6325Y-3.7818
X2.6325Y-3.8212
X2.6325Y-3.8606
X2.6325Y-3.8999
X2.6344Y-2.2031
X2.6351Y-2.6624
X2.6403Y-4.2109
X2.643Y-2.9577
X2.6456Y-3.9733
X2.6469Y-4.2985
X2.6482Y-2.8724
X2.6535Y-2.6808
X2.6613Y-2.976
X2.6639Y-3.9157
X2.6639Y-4.2503
X2.6718Y-3.9472
X2.6718Y-4.0338
X2.6825Y-2.1036
X2.6825Y-2.2149
X2.6876Y-4.2503
X2.6876Y-4.4314
X2.7024Y-4.4762
X2.7084Y-2.1036
X2.7084Y-2.2149
X2.7112Y-4.0259
X2.7132Y-2.0771
X2.721Y-2.4747
X2.7254Y-2.1978
X2.7269Y-4.5338
X2.7344Y-4.0067
X2.74Y-4.1349
X2.7427Y-2.4263
X2.7427Y-2.4523
X2.7525Y-2.4039
X2.7595Y-4.4475
X2.7742Y-2.7464
X2.7742Y-2.8074
X2.7742Y-4.6676
X2.7803Y-4.448
X2.7821Y-4.6046
X2.7903Y-4.1573
X2.7917Y-4.1293
X2.7939Y-2.7649
X2.7939Y-2.7909
X2.8017Y-4.5338
X2.8096Y-4.6991
X2.8136Y-4.5731
X2.8136Y-4.6322
X2.8196Y-4.4466
X2.8226Y-4.1303
X2.8239Y-4.158
X2.8254Y-1.9039
X2.8403Y-4.4485
X2.8608Y-1.9078
X2.8613Y-4.5344
X2.8726Y-2.4235
X2.8805Y-4.1046
X2.8923Y-2.5928
X2.8962Y-1.9157
X2.9002Y-1.8763
X2.9002Y-2.2306
X2.9002Y-4.5259
X2.9199Y-4.1046
X2.9238Y-1.8133
X2.9238Y-4.0298
X2.9317Y-4.2897
X2.9356Y-2.6676
X2.9395Y-2.3606
X2.9435Y-4.3704
X2.9474Y-2.5692
X2.9566Y-4.4664
X2.9592Y-2.4708
X2.969Y-4.3108
X2.973Y-2.8704
X2.9828Y-1.8527
X2.9868Y-1.8802
X2.9868Y-1.9039
X2.9873Y-2.82
X2.9873Y-2.846
X2.9878Y-1.9251
X2.9888Y-4.1875
X2.9898Y-1.9458
X2.9907Y-2.0653
X2.9932Y-1.9865
X2.9947Y-2.6913
X2.9962Y-4.3108
X2.9986Y-4.5731
X3.0045Y-2.8015
X3.0065Y-3.9196
X3.0065Y-4.6991
X3.0104Y-2.4511
X3.0104Y-2.5613
X3.0143Y-2.7267
X3.0154Y-4.3808
X3.0167Y-4.5273
X3.0183Y-2.3409
X3.0301Y-4.1401
X3.034Y-2.018
X3.034Y-3.9511
X3.0351Y-4.022
X3.0415Y-1.7885
X3.0439Y-3.0102
X3.0439Y-3.083
X3.0498Y-4.2661
X3.0498Y-4.4944
X3.0576Y-3.0326
X3.0576Y-3.0586
X3.0616Y-2.6676
X3.0616Y-3.7305
X3.0656Y-2.8724
X3.0668Y-2.0429
X3.0695Y-4.5731
X3.0695Y-4.6991
X3.0734Y-4.4314
X3.0768Y-2.0834
X3.0802Y-1.9146
X3.0816Y-2.022
X3.1088Y-2.6035
X3.1088Y-2.6294
X3.1128Y-4.1046
X3.1247Y-1.7882
X3.1254Y-1.8089
X3.1285Y-2.505
X3.1285Y-2.531
X3.1285Y-3.9196
X3.1364Y-4.5731
X3.1364Y-4.6991
X3.1479Y-2.6637
X3.1495Y-4.0882
X3.1497Y-4.1614
X3.1668Y-2.0831
X3.1679Y-1.8487
X3.1712Y-2.8785
X3.1758Y-4.6046
X3.1784Y-4.2621
X3.1797Y-3.4472
X3.1968Y-4.4131
X3.1968Y-4.4407
X3.1974Y-1.9688
X3.2018Y-1.9386
X3.2027Y-3.9281
X3.2033Y-2.0102
X3.2112Y-2.4629
X3.2132Y-3.2732
X3.2132Y-3.3485
X3.2269Y-3.8999
X3.2388Y-2.1086
X3.2388Y-3.3684
X3.2388Y-3.4078
X3.2454Y-3.0535
X3.2545Y-3.9078
X3.2688Y-3.497
X3.2714Y-3.0535
X3.286Y-1.8527
X3.2899Y-2.0102
X3.2939Y-3.8999
X3.3017Y-2.5417
X3.3057Y-3.9235
X3.3142Y-3.2894
X3.3142Y-3.3288
X3.3156Y-4.167
X3.3173Y-4.1945
X3.3175Y-1.7661
X3.3175Y-3.3684
X3.3175Y-3.4078
X3.3214Y-3.0613
X3.3344Y-3.996
X3.3374Y-2.579
X3.3382Y-2.6068
X3.3451Y-3.392
X3.3451Y-3.4157
X3.349Y-3.2897
X3.349Y-3.3291
X3.3649Y-1.8677
X3.3687Y-2.4659
X3.3687Y-2.6214
X3.3725Y-4.2615
X3.3881Y-2.0038
X3.3884Y-1.8054
X3.3951Y-4.0185
X3.4041Y-2.7621
X3.412Y-2.6086
X3.4199Y-2.6322
X3.4199Y-2.9669
X3.4211Y-3.2555
X3.424Y-4.5975
X3.4242Y-4.2967
X3.4435Y-1.8566
X3.4458Y-3.4723
X3.4513Y-1.8291
X3.4513Y-1.9039
X3.4513Y-1.9246
X3.4553Y-1.9472
X3.471Y-3.4669
X3.471Y-4.5692
X3.4819Y-3.3328
X3.4828Y-2.018
X3.4828Y-3.3015
X3.4828Y-3.3763
X3.4834Y-3.4103
X3.4868Y-4.0889
X3.4968Y-3.4782
X3.4986Y-3.4983
X3.4986Y-3.5377
X3.4986Y-4.0456
X3.5065Y-4.2109
X3.509Y-1.7874
X3.5115Y-3.3954
X3.5136Y-2.0211
X3.5157Y-2.2579
X3.5183Y-4.5259
X3.5276Y-3.9965
X3.5279Y-2.0567
X3.5343Y-2.022
X3.5382Y-2.0869
X3.5557Y-4.1578
X3.558Y-2.0225
X3.5616Y-1.9157
X3.5679Y-4.8352
X3.5714Y-4.8704
X3.5773Y-3.4983
X3.5773Y-3.5377
X3.5789Y-2.8821
X3.5813Y-3.4117
X3.5917Y-1.7874
X3.6049Y-2.9747
X3.6049Y-3.0062
X3.6049Y-3.0377
X3.6049Y-3.1322
X3.6049Y-3.1637
X3.6049Y-3.1952
X3.6049Y-3.3212
X3.6049Y-3.4157
X3.6049Y-3.5102
X3.6049Y-3.5417
X3.6092Y-3.3556
X3.6128Y-2.8172
X3.6167Y-1.7897
X3.6241Y-2.0834
X3.6246Y-1.7503
X3.627Y-2.0463
X3.6364Y-1.7976
X3.6364Y-2.9747
X3.6364Y-3.0062
X3.6364Y-3.0377
X3.6364Y-3.1322
X3.6364Y-3.1637
X3.6364Y-3.1952
X3.6364Y-3.3212
X3.6364Y-3.3527
X3.6364Y-3.3842
X3.6364Y-3.4157
X3.6364Y-3.4472
X3.6364Y-3.4787
X3.6374Y-1.8455
X3.6383Y-2.9135
X3.6403Y-2.5141
X3.6482Y-4.1873
X3.66Y-4.8072
X3.66Y-4.828
X3.66Y-4.8487
X3.6679Y-1.9669
X3.6679Y-3.0377
X3.6679Y-3.0692
X3.6679Y-3.1007
X3.6679Y-3.1322
X3.6679Y-3.1637
X3.6679Y-3.1952
X3.6679Y-3.2267
X3.6679Y-3.2897
X3.6679Y-3.3212
X3.6679Y-3.3527
X3.6679Y-3.3842
X3.6679Y-3.4157
X3.6679Y-3.4472
X3.6679Y-3.4787
X3.6679Y-3.5102
X3.6679Y-3.5417
X3.6727Y-1.9409
X3.6915Y-1.8468
X3.6915Y-2.0298
X3.6915Y-2.9393
X3.6965Y-4.0535
X3.6971Y-3.1007
X3.6994Y-3.0062
X3.6994Y-3.0377
X3.6994Y-3.0692
X3.6994Y-3.1322
X3.6994Y-3.1637
X3.6994Y-3.1952
X3.6994Y-3.2582
X3.6994Y-3.2897
X3.6994Y-3.3212
X3.6994Y-3.3527
X3.6994Y-3.3842
X3.6994Y-3.4157
X3.6994Y-3.4472
X3.6994Y-3.4787
X3.7033Y-1.7995
X3.7073Y-1.8763
X3.7112Y-2.5968
X3.7209Y-4.1485
X3.7228Y-2.941
X3.7235Y-2.4159
X3.7237Y-2.1854
X3.724Y-2.7986
X3.7269Y-4.1873
X3.7309Y-3.0062
X3.7309Y-3.0377
X3.7309Y-3.0692
X3.7309Y-3.1007
X3.7309Y-3.1322
X3.7309Y-3.1637
X3.7309Y-3.1952
X3.7309Y-3.2267
X3.7309Y-3.2897
X3.7309Y-3.3527
X3.7309Y-3.3842
X3.7309Y-3.4157
X3.7309Y-3.4472
X3.7309Y-3.4787
X3.7309Y-3.5102
X3.7309Y-3.5436
X3.7317Y-3.3179
X3.7395Y-2.8987
X3.7466Y-2.9629
X3.7487Y-4.054
X3.749Y-2.1854
X3.7506Y-2.0062
X3.7506Y-2.394
X3.7545Y-2.5987
X3.7545Y-2.9393
X3.7624Y-3.0377
X3.7624Y-3.0692
X3.7624Y-3.1007
X3.7624Y-3.1322
X3.7624Y-3.1637
X3.7624Y-3.1952
X3.7624Y-3.2267
X3.7624Y-3.2897
X3.7624Y-3.3212
X3.7624Y-3.3527
X3.7624Y-3.3842
X3.7624Y-3.4157
X3.7624Y-3.4472
X3.7624Y-3.4787
X3.7663Y-2.7976
X3.7742Y-4.0574
X3.7758Y-2.1857
X3.7821Y-3.6952
X3.7899Y-4.1499
X3.7928Y-2.6704
X3.7939Y-2.9393
X3.7939Y-2.9747
X3.7939Y-3.0062
X3.7939Y-3.0377
X3.7939Y-3.0692
X3.7939Y-3.1007
X3.7939Y-3.1322
X3.7939Y-3.1637
X3.7939Y-3.1952
X3.7939Y-3.2267
X3.7939Y-3.2897
X3.7939Y-3.3212
X3.7939Y-3.3527
X3.7939Y-3.3842
X3.7939Y-3.4157
X3.7939Y-3.4472
X3.7939Y-3.4787
X3.7939Y-3.5102
X3.7947Y-3.5431
X3.7961Y-3.2582
X3.8012Y-2.1854
X3.8017Y-3.5928
X3.8017Y-4.2818
X3.8017Y-4.3448
X3.8075Y-1.8365
X3.8214Y-3.7424
X3.8254Y-2.896
X3.8254Y-3.0692
X3.8254Y-3.1007
X3.8254Y-3.1322
X3.8254Y-3.1637
X3.8254Y-3.1952
X3.8254Y-3.2267
X3.8254Y-3.2897
X3.8254Y-3.3212
X3.8254Y-3.3527
X3.8254Y-3.3842
X3.8254Y-3.4157
X3.8254Y-3.4472
X3.8254Y-3.4787
X3.8263Y-3.7986
X3.8279Y-2.6936
X3.8411Y-2.9117
X3.8529Y-2.5141
X3.8546Y-2.6888
X3.8558Y-2.8301
X3.8569Y-2.9629
X3.8569Y-3.0062
X3.8569Y-3.0377
X3.8569Y-3.0692
X3.8569Y-3.1007
X3.8569Y-3.1322
X3.8569Y-3.1637
X3.8569Y-3.1952
X3.8569Y-3.2267
X3.8569Y-3.2897
X3.8569Y-3.3212
X3.8569Y-3.3527
X3.8569Y-3.3842
X3.8569Y-3.4157
X3.8569Y-3.4472
X3.8569Y-3.4787
X3.8569Y-3.5102
X3.8569Y-3.5417
X3.8569Y-3.5968
X3.8609Y-2.809
X3.8687Y-1.9393
X3.8726Y-1.8684
X3.8726Y-1.9039
X3.8765Y-1.9865
X3.8765Y-2.4354
X3.8765Y-2.4708
X3.8836Y-3.0739
X3.904Y-4.0357
X3.9041Y-3.6165
X3.9199Y-3.0377
X3.9199Y-3.0692
X3.9199Y-3.1007
X3.9199Y-3.1322
X3.9199Y-3.1637
X3.9199Y-3.1952
X3.9199Y-3.2267
X3.9199Y-3.3212
X3.9199Y-3.3527
X3.9199Y-3.3842
X3.9199Y-3.4157
X3.9199Y-3.4472
X3.9199Y-3.4787
X3.92Y-2.703
X3.9209Y-3.2593
X3.9223Y-1.7874
X3.9395Y-2.0141
X3.9512Y-2.8779
X3.9513Y-2.6932
X3.9513Y-3.0377
X3.9513Y-3.0692
X3.9513Y-3.1007
X3.9513Y-3.1322
X3.9513Y-3.1637
X3.9513Y-3.1952
X3.9513Y-3.2267
X3.9513Y-3.2897
X3.9513Y-3.3212
X3.9513Y-3.3527
X3.9513Y-3.3842
X3.9513Y-3.4157
X3.9513Y-3.4472
X3.9513Y-3.4787
X3.9513Y-3.5102
X3.9513Y-3.5417
X3.9513Y-4.7582
X3.9553Y-3.8527
X3.9577Y-2.3584
X3.9632Y-2.0789
X3.966Y-2.9653
X3.9671Y-2.022
X3.9828Y-3.0692
X3.9828Y-3.1007
X3.9828Y-3.1322
X3.9828Y-3.1637
X3.9828Y-3.1952
X3.9828Y-3.2267
X3.9828Y-3.2897
X3.9828Y-3.3212
X3.9828Y-3.3527
X3.9828Y-3.3842
X3.9828Y-3.4157
X3.9828Y-3.4472
X3.9828Y-3.4787
X3.9878Y-4.2031
X3.9897Y-4.2818
X3.9907Y-2.018
X4.0012Y-4.7857
X4.0012Y-4.825
X4.0012Y-4.8644
X4.0012Y-4.8998
X4.0025Y-3.8448
X4.0104Y-2.7134
X4.0105Y-4.1382
X4.0143Y-3.0377
X4.0143Y-3.0692
X4.0143Y-3.1007
X4.0143Y-3.1322
X4.0143Y-3.1637
X4.0143Y-3.1952
X4.0143Y-3.2267
X4.0143Y-3.2582
X4.0143Y-3.2897
X4.0143Y-3.3212
X4.0143Y-3.3527
X4.0143Y-3.3842
X4.0143Y-3.4157
X4.0143Y-3.4472
X4.0143Y-3.4787
X4.0143Y-3.5102
X4.0183Y-2.018
X4.0222Y-4.6991
X4.0229Y-1.7881
X4.034Y-2.6922
X4.0458Y-3.0062
X4.0458Y-3.0377
X4.0458Y-3.0692
X4.0458Y-3.1007
X4.0458Y-3.1322
X4.0458Y-3.1637
X4.0458Y-3.1952
X4.0458Y-3.2267
X4.0458Y-3.2582
X4.0458Y-3.2897
X4.0458Y-3.3212
X4.0458Y-3.3527
X4.0458Y-3.3842
X4.0458Y-3.4157
X4.0458Y-3.4472
X4.0458Y-3.4787
X4.0458Y-3.5102
X4.0498Y-2.955
X4.0684Y-4.1716
X4.0773Y-2.6991
X4.0773Y-3.0377
X4.0773Y-3.0692
X4.0773Y-3.1007
X4.0773Y-3.1637
X4.0773Y-3.1952
X4.0773Y-3.2897
X4.0773Y-3.3212
X4.0773Y-3.3527
X4.0773Y-3.3842
X4.0773Y-3.4157
X4.0773Y-3.4472
X4.0773Y-3.4787
X4.0793Y-1.8326
X4.0813Y-1.9039
X4.0813Y-1.9275
X4.0813Y-1.955
X4.0813Y-4.4865
X4.092Y-4.214
X4.0929Y-3.7877
X4.0931Y-2.5062
X4.095Y-4.2423
X4.097Y-3.959
X4.097Y-3.9905
X4.097Y-4.022
X4.097Y-4.0535
X4.097Y-4.085
X4.097Y-4.1165
X4.097Y-4.148
X4.097Y-4.3054
X4.097Y-4.3369
X4.097Y-4.3684
X4.097Y-4.3999
X4.097Y-4.4314
X4.0979Y-4.6751
X4.1076Y-3.2859
X4.1078Y-3.2546
X4.1088Y-3.4494
X4.1088Y-3.0377
X4.1088Y-3.0692
X4.1088Y-3.1007
X4.1088Y-3.1322
X4.1088Y-3.1637
X4.1088Y-3.1952
X4.1088Y-3.3212
X4.1088Y-3.3527
X4.1088Y-3.3842
X4.1088Y-3.4157
X4.1088Y-3.4787
X4.1088Y-3.5102
X4.1088Y-3.5417
X4.1196Y-3.8144
X4.1285Y-3.959
X4.1285Y-3.9905
X4.1285Y-4.022
X4.1285Y-4.0535
X4.1285Y-4.085
X4.1285Y-4.1165
X4.1285Y-4.148
X4.1285Y-4.1794
X4.1285Y-4.2109
X4.1285Y-4.2424
X4.1285Y-4.3054
X4.1285Y-4.3369
X4.1285Y-4.3684
X4.1285Y-4.3999
X4.1285Y-4.4314
X4.1403Y-2.9747
X4.1403Y-3.1322
X4.1403Y-3.3212
X4.1403Y-3.4787
X4.1403Y-4.6952
X4.1424Y-1.8959
X4.1561Y-3.7818
X4.1591Y-4.0841
X4.16Y-3.959
X4.16Y-3.9905
X4.16Y-4.022
X4.16Y-4.0532
X4.16Y-4.1794
X4.16Y-4.2109
X4.16Y-4.2424
X4.16Y-4.2739
X4.16Y-4.3054
X4.16Y-4.3369
X4.16Y-4.3684
X4.16Y-4.3999
X4.16Y-4.4314
X4.1718Y-2.9747
X4.1718Y-3.5417
X4.1785Y-3.4058
X4.1791Y-3.2449
X4.1793Y-3.2031
X4.1797Y-3.085
X4.187Y-3.2857
X4.1954Y-2.1991
X4.1957Y-4.114
X4.2038Y-3.3187
X4.2073Y-3.3606
X4.2083Y-4.2907
X4.2191Y-3.4196
X4.2191Y-4.6952
X4.223Y-3.2424
X4.2266Y-3.5918
X4.2269Y-2.9787
X4.2338Y-4.2424
X4.2348Y-3.085
X4.2388Y-4.1519
X4.2427Y-4.3251
X4.2466Y-4.0456
X4.2545Y-4.1322
X4.2545Y-4.2424
X4.2545Y-4.4019
X4.2556Y-4.212
X4.2584Y-3.085
X4.2683Y-2.0444
X4.2702Y-1.8133
X4.2722Y-2.1184
X4.2821Y-3.2411
X4.2838Y-4.148
X4.2857Y-3.9569
X4.286Y-4.0535
X4.286Y-4.1165
X4.286Y-4.2739
X4.286Y-4.3369
X4.286Y-4.3684
X4.286Y-4.3999
X4.2862Y-4.2089
X4.2899Y-3.2818
X4.2939Y-4.4628
X4.3017Y-3.3606
X4.3127Y-4.6751
X4.3136Y-2.9787
X4.3175Y-4.2087
X4.3175Y-3.959
X4.3175Y-3.9905
X4.3175Y-4.022
X4.3175Y-4.0535
X4.3175Y-4.085
X4.3175Y-4.148
X4.3175Y-4.2739
X4.3175Y-4.3369
X4.3175Y-4.3684
X4.3175Y-4.3999
X4.3181Y-4.1801
X4.3214Y-4.4314
X4.3323Y-3.1945
X4.3385Y-4.8764
X4.3411Y-3.085
X4.3437Y-4.9747
X4.349Y-3.959
X4.349Y-3.9905
X4.349Y-4.022
X4.349Y-4.0535
X4.349Y-4.085
X4.349Y-4.1165
X4.349Y-4.148
X4.349Y-4.1794
X4.349Y-4.3054
X4.349Y-4.3369
X4.349Y-4.3684
X4.349Y-4.3999
X4.3502Y-3.2097
X4.3529Y-4.2739
X4.3569Y-3.2621
X4.3569Y-4.2424
X4.3608Y-1.9905
X4.3682Y-3.2936
X4.3686Y-4.9957
X4.3726Y-4.4875
X4.3805Y-4.27
X4.408Y-4.3487
X4.412Y-4.4905
X4.4159Y-4.3684
X4.4211Y-4.3145
X4.4212Y-4.8567
X4.4251Y-4.774
X4.4251Y-4.8173
X4.4291Y-4.9748
X4.4308Y-2.6076
X4.4326Y-1.9867
X4.4395Y-2.4078
X4.4405Y-3.1759
X4.4405Y-3.2552
X4.4533Y-1.8231
X4.4789Y-4.4511
X4.4907Y-4.0298
X4.4947Y-4.0889
X4.4947Y-4.1165
X4.4947Y-4.1519
X4.4947Y-4.1873
X4.4947Y-4.2188
X4.5025Y-2.0003
X4.5143Y-2.2346
X4.5419Y-2.9354
X4.5458Y-2.9629
X4.5498Y-2.0456
X4.5498Y-3.6243
X4.5626Y-3.5997
X4.5645Y-2.398
X4.5773Y-3.022
X4.5773Y-3.0574
X4.5774Y-1.9971
X4.5863Y-3.6036
X4.5872Y-3.5751
X4.5931Y-2.396
X4.5931Y-3.0377
X4.5931Y-3.0771
X4.6128Y-3.2188
X4.6128Y-3.5731
X4.6167Y-2.3802
X4.6167Y-3.1125
X4.6167Y-3.3724
X4.6187Y-3.5476
X4.6206Y-2.9826
X4.6206Y-3.1755
X4.6206Y-3.2582
X4.6218Y-3.1988
X4.6325Y-3.0968
X4.6325Y-3.1519
X4.6354Y-2.9639
X4.6364Y-2.396
X4.6364Y-3.0062
X4.6364Y-3.2424
X4.6364Y-3.3527
X4.6403Y-3.5456
X4.6443Y-2.085
X4.6521Y-3.522
T2
X1.7013Y-4.5115
X1.7013Y-4.5312
X1.7013Y-4.5509
X1.7407Y-4.5115
X1.7407Y-4.5312
X1.7407Y-4.5509
X2.3195Y-4.5037
X2.3195Y-4.5233
X2.3195Y-4.543
X2.3549Y-4.0416
X2.3549Y-4.0612
X2.3549Y-4.0809
X2.3588Y-4.5037
X2.3588Y-4.5233
X2.3588Y-4.543
X2.3943Y-4.0416
X2.3943Y-4.0612
X2.3943Y-4.0809
X3.6836Y-3.9078
X3.6836Y-3.9275
X3.6836Y-3.9472
X3.723Y-3.9078
X3.723Y-3.9275
X3.723Y-3.9472
X3.7649Y-4.7641
X3.7649Y-4.8035
X3.7846Y-4.7641
X3.7846Y-4.8035
X3.8043Y-4.7641
X3.8043Y-4.8035
T3
X0.9317Y-4.0259
X0.9317Y-4.2149
X1.2004Y-4.0436
X1.3136Y-3.9393
X1.3411Y-3.9393
X1.3411Y-3.9669
X1.3608Y-4.6558
X1.3608Y-4.6834
X1.3608Y-4.7149
X1.3923Y-4.6558
X1.3923Y-4.6834
X1.3923Y-4.7149
X1.4238Y-4.6558
X1.4238Y-4.6834
X1.4238Y-4.7149
X1.4553Y-4.6558
X1.4553Y-4.6834
X1.4553Y-4.7149
X1.5065Y-4.0968
X1.5065Y-4.1657
X1.5065Y-4.2444
X1.5488Y-4.4321
X1.5488Y-4.4596
X1.5498Y-4.6834
X1.5498Y-4.7149
X1.5754Y-4.0968
X1.5754Y-4.1657
X1.5754Y-4.2444
X1.5813Y-4.6834
X1.5813Y-4.7149
X1.5852Y-4.4314
X1.5852Y-4.459
X1.6147Y-4.6834
X1.6147Y-4.7149
X1.6167Y-4.4314
X1.6167Y-4.459
X1.6443Y-4.0968
X1.6443Y-4.1657
X1.6443Y-4.2444
X1.6462Y-4.6834
X1.6462Y-4.7149
X1.6482Y-4.4314
X1.6482Y-4.459
X1.6777Y-4.6834
X1.6777Y-4.7149
X1.6797Y-4.4314
X1.6797Y-4.459
X1.7109Y-4.4575
X1.7112Y-4.4314
X1.7424Y-4.4575
X1.7427Y-4.4314
X1.8085Y-4.6742
X1.8085Y-4.7037
X1.8085Y-4.7333
X1.8381Y-4.6742
X1.8381Y-4.7037
X1.8381Y-4.7333
X2.0088Y-2.6598
X2.0104Y-3.2228
X2.038Y-2.943
X2.0419Y-2.1007
X2.0439Y-1.8172
X2.0498Y-2.3842
X2.0498Y-3.27
X2.0891Y-1.7779
X2.0931Y-3.3054
X2.0931Y-3.3409
X2.1187Y-1.7109
X2.1285Y-1.7424
X2.1639Y-4.4747
X2.1639Y-4.5023
X2.1679Y-4.6755
X2.1679Y-4.707
X2.1699Y-1.9078
X2.1758Y-3.148
X2.1797Y-3.3409
X2.1994Y-4.6755
X2.1994Y-4.707
X2.2003Y-4.4741
X2.2003Y-4.5016
X2.2073Y-1.7109
X2.2073Y-2.1989
X2.2073Y-2.8763
X2.2073Y-3.3409
X2.2318Y-4.4741
X2.2318Y-4.5016
X2.2325Y-1.9078
X2.2328Y-4.6755
X2.2328Y-4.707
X2.2348Y-1.7109
X2.2348Y-3.3409
X2.2364Y-4.0127
X2.2364Y-4.0402
X2.2364Y-4.0717
X2.2427Y-3.1716
X2.2475Y-4.2141
X2.2475Y-4.2456
X2.2624Y-1.7109
X2.2624Y-1.9196
X2.2624Y-3.3409
X2.2633Y-4.4741
X2.2633Y-4.5016
X2.2643Y-4.6755
X2.2643Y-4.707
X2.2663Y-2.1989
X2.2663Y-2.8763
X2.2674Y-3.1469
X2.2679Y-4.0127
X2.2679Y-4.0402
X2.279Y-4.1865
X2.279Y-4.2141
X2.279Y-4.2456
X2.2899Y-1.7109
X2.2899Y-3.3409
X2.2948Y-4.4741
X2.2948Y-4.5016
X2.2958Y-4.6755
X2.2958Y-4.707
X2.2994Y-4.0127
X2.2994Y-4.0402
X2.3105Y-4.1865
X2.3105Y-4.2141
X2.3105Y-4.2456
X2.3175Y-1.7109
X2.3175Y-3.3409
X2.3263Y-4.4741
X2.3293Y-2.1481
X2.3293Y-2.896
X2.3309Y-4.0127
X2.3309Y-4.0402
X2.3451Y-1.7109
X2.3578Y-4.4741
X2.3624Y-4.0127
X2.3687Y-2.1481
X2.3687Y-2.3832
X2.3687Y-2.896
X2.3939Y-4.0127
X2.3962Y-3.3054
X2.4041Y-3.3409
X2.4264Y-4.6665
X2.4264Y-4.696
X2.4264Y-4.7256
X2.4297Y-1.7109
X2.4317Y-1.7464
X2.4356Y-3.2739
X2.4559Y-4.6665
X2.4559Y-4.696
X2.4559Y-4.7256
X2.4612Y-4.205
X2.4612Y-4.2346
X2.4612Y-4.2641
X2.4632Y-2.459
X2.4632Y-3.1558
X2.4671Y-2.0731
X2.471Y-1.7818
X2.4828Y-2.9432
X2.4848Y-2.6607
X2.4868Y-3.2326
X2.4907Y-1.8035
X2.4907Y-2.8645
X2.4907Y-4.205
X2.4907Y-4.2346
X2.4907Y-4.2641
X2.4915Y-2.7695
X2.4947Y-1.8999
X2.4947Y-2.3054
X2.5073Y-2.192
X2.7506Y-4.2661
X2.7506Y-4.3212
X2.7506Y-4.3763
X2.8096Y-4.2677
X2.8096Y-4.3212
X2.8096Y-4.3763
X2.8647Y-4.2677
X2.8647Y-4.3212
X2.8647Y-4.3763
X3.1994Y-2.9826
X3.2151Y-3.4669
X3.2151Y-3.4983
X3.2151Y-3.5298
X3.2151Y-3.5613
X3.2271Y-2.8197
X3.2427Y-3.4669
X3.2427Y-3.4983
X3.2427Y-3.5298
X3.2427Y-3.5613
X3.3372Y-3.4787
X3.3372Y-3.5102
X3.3372Y-3.5417
X3.3508Y-2.9578
X3.4376Y-3.4974
X3.4376Y-3.5259
X3.4376Y-3.5554
X3.471Y-3.5525
X3.4848Y-4.7267
X3.4848Y-4.7562
X3.5143Y-4.7267
X3.5143Y-4.7562
X3.5439Y-4.7267
X3.5439Y-4.7562
X3.5616Y-3.8802
X3.5616Y-3.9078
X3.5616Y-3.9393
X3.5931Y-3.8802
X3.5931Y-3.9078
X3.597Y-4.081
X3.597Y-4.1125
X3.6049Y-4.6755
X3.6049Y-4.707
X3.6049Y-4.7385
X3.6246Y-3.8802
X3.6246Y-3.9078
X3.6285Y-4.0535
X3.6285Y-4.081
X3.6285Y-4.1125
X3.6364Y-4.6755
X3.6364Y-4.707
X3.6364Y-4.7385
X3.6561Y-3.8802
X3.6561Y-3.9078
X3.66Y-4.0535
X3.66Y-4.081
X3.66Y-4.1125
X3.6639Y-4.707
X3.6639Y-4.7385
X3.6876Y-3.8802
X3.7191Y-3.8802
X3.8124Y-4.0708
X3.8124Y-4.1004
X3.8124Y-4.1299
X3.8136Y-4.6834
X3.8136Y-4.707
X3.8136Y-4.7346
X3.8419Y-4.0708
X3.8419Y-4.1004
X3.8419Y-4.1299
X3.8451Y-4.6834
X3.8451Y-4.707
X3.8451Y-4.7346
X3.8451Y-4.7661
X3.8451Y-4.7976
X3.8884Y-4.1952
X3.8884Y-4.2739
X3.8884Y-4.3625
X3.8884Y-4.4511
X3.9474Y-4.5102
X4.0065Y-4.5692
X4.0655Y-4.6086
X4.0773Y-4.7267
X4.1443Y-4.6086
X4.1639Y-4.8251
X4.1639Y-4.8763
X4.1994Y-4.8251
X4.1994Y-4.8763
X4.223Y-4.6086
X4.2309Y-4.8251
X4.2309Y-4.8763
X4.2821Y-4.6086
X4.3411Y-4.6086
T5
X1.161Y-4.2346
T6
X1.6297Y-3.3141
X1.6297Y-3.3941
X1.6297Y-3.4741
X1.6297Y-3.5541
X1.6297Y-3.6341
X1.6297Y-3.7141
X1.7297Y-3.2741
X1.7297Y-3.3541
X1.7297Y-3.4341
X1.7297Y-3.5941
X1.7297Y-3.6741
X1.7297Y-3.7541
T7
X1.2506Y-2.5298
X1.2506Y-2.5298
X1.6443Y-2.5298
X1.6443Y-2.5298
X1.9513Y-1.9688
X1.9513Y-3.0909
X2.038Y-2.5298
X2.038Y-2.5298
X2.1364Y-1.9688
X2.1364Y-3.0909
X2.3332Y-1.9688
X2.3332Y-3.0909
X2.4317Y-2.5298
X2.4317Y-2.5298
X2.5143Y-2.0606
X2.5143Y-2.2491
X2.5143Y-2.2495
X2.5143Y-2.4381
X2.5143Y-2.6216
X2.5143Y-2.8102
X2.5143Y-2.8106
X2.5143Y-2.9991
T8
X1.2771Y-4.8334
X1.2771Y-4.9334
X1.3771Y-4.8334
X1.3771Y-4.9334
X1.4771Y-4.8334
X1.4771Y-4.9334
X1.5771Y-4.8334
X1.5771Y-4.9334
X1.6771Y-4.8334
X1.6771Y-4.9334
X1.7771Y-4.8334
X1.7771Y-4.9334
X2.1771Y-4.8334
X2.1771Y-4.9334
X2.2771Y-4.8334
X2.2771Y-4.9334
X2.3771Y-4.8334
X2.3771Y-4.9334
X2.4771Y-4.8334
X2.4771Y-4.9334
X2.5771Y-4.8334
X2.5771Y-4.9334
X2.6771Y-4.8334
X2.6771Y-4.9334
X2.8006Y-2.1919
X2.8006Y-2.2919
X2.8006Y-2.3919
X2.8006Y-2.4919
X2.8006Y-2.5919
X2.8006Y-2.6919
X2.8006Y-2.8919
X2.8006Y-2.9919
X2.8006Y-3.0919
X2.8006Y-3.1919
X2.8006Y-3.2919
X2.8006Y-3.3919
X2.8006Y-3.4919
X2.8006Y-3.5919
X4.7006Y-2.1919
X4.7006Y-2.2919
X4.7006Y-2.3919
X4.7006Y-2.4919
X4.7006Y-2.5919
X4.7006Y-2.6919
X4.7006Y-2.7919
X4.7006Y-2.8919
X4.7006Y-3.0517
X4.7006Y-3.1517
X4.7006Y-3.2517
X4.7006Y-3.3517
X4.7006Y-3.4517
X4.7006Y-3.5517
X4.7006Y-3.6517
X4.7006Y-3.7517
X4.7006Y-3.8517
X4.7006Y-3.9517
X4.9267Y-1.7757
X4.9267Y-1.8757
X4.9267Y-1.9757
X4.9267Y-2.0757
X4.9267Y-2.1757
X4.9267Y-2.2757
X4.9267Y-2.6757
X4.9267Y-2.7757
X4.9267Y-2.8757
X4.9267Y-2.9757
X4.9267Y-3.0757
X4.9267Y-3.1757
X4.9267Y-3.5757
X4.9267Y-3.6757
X4.9267Y-3.7757
X4.9267Y-3.8757
X4.9267Y-3.9757
X4.9267Y-4.0757
X4.9267Y-4.4757
X4.9267Y-4.5757
X4.9267Y-4.6757
X4.9267Y-4.7757
X4.9267Y-4.8757
X4.9267Y-4.9757
X5.0267Y-1.7757
X5.0267Y-1.8757
X5.0267Y-1.9757
X5.0267Y-2.0757
X5.0267Y-2.1757
X5.0267Y-2.2757
X5.0267Y-2.6757
X5.0267Y-2.7757
X5.0267Y-2.8757
X5.0267Y-2.9757
X5.0267Y-3.0757
X5.0267Y-3.1757
X5.0267Y-3.5757
X5.0267Y-3.6757
X5.0267Y-3.7757
X5.0267Y-3.8757
X5.0267Y-3.9757
X5.0267Y-4.0757
X5.0267Y-4.4757
X5.0267Y-4.5757
X5.0267Y-4.6757
X5.0267Y-4.7757
X5.0267Y-4.8757
X5.0267Y-4.9757
T9
X1.0537Y-1.9688
X1.0537Y-2.192
X1.0537Y-2.3066
X1.0537Y-2.7531
X1.0537Y-2.8676
X1.0537Y-3.0909
X1.2506Y-1.9688
X1.2506Y-3.0909
X1.4474Y-1.9688
X1.4474Y-3.0909
X1.6443Y-1.9688
X1.6443Y-2.0936
X1.6443Y-2.1924
X1.6443Y-2.3062
X1.6443Y-2.405
X1.6443Y-2.6546
X1.6443Y-2.7535
X1.6443Y-2.8672
X1.6443Y-2.9661
X1.6443Y-3.0909
X1.8411Y-1.9688
X1.8411Y-3.0909
X2.038Y-1.9688
X2.038Y-3.0909
X2.4317Y-1.9688
X2.4317Y-3.0909
T10
X1.8297Y-3.2741
X1.8297Y-3.3741
X1.8297Y-3.6541
X1.8297Y-3.7541
T11
X0.9047Y-3.1966
X0.9047Y-3.8316
T12
X0.7584Y-4.8842
X1.034Y-1.8133
X4.6954Y-1.8133
X4.6954Y-4.8842
T13
X0.8452Y-4.0066
X0.8452Y-4.2342
T14
X2.2702Y-2.06
X2.2702Y-2.0604
X2.2702Y-2.4379
X2.2702Y-2.4383
X2.2702Y-2.6212
X2.2702Y-2.6216
X2.2702Y-2.9991
X2.2702Y-2.9995
T15
X1.0297Y-3.2641
X1.0297Y-3.7641
T4
G00X0.7161Y-3.9503
M15
G01X0.6846Y-3.9503
M16
G05
G00X0.7161Y-4.2905
M15
G01X0.6846Y-4.2905
M16
G05
G00X0.8866Y-3.9503
M15
G01X0.8433Y-3.9503
M16
G05
G00X0.8866Y-4.2905
M15
G01X0.8433Y-4.2905
M16
G05
T8
G00X0.8943Y-4.5259
M15
G01X0.8943Y-4.6125
M16
G05
G00X1.0714Y-4.7582
M15
G01X0.9848Y-4.7582
M16
G05
G00X1.1423Y-4.518
M15
G01X1.1423Y-4.6204
M16
G05
M30
