%TF.GenerationSoftware,KiCad,Pcbnew,9.0.0*%
%TF.CreationDate,2025-07-03T18:11:10+02:00*%
%TF.ProjectId,Obsidian,4f627369-6469-4616-9e2e-6b696361645f,rev?*%
%TF.SameCoordinates,Original*%
%TF.FileFunction,Other,User*%
%FSLAX46Y46*%
G04 Gerber Fmt 4.6, Leading zero omitted, Abs format (unit mm)*
G04 Created by KiCad (PCBNEW 9.0.0) date 2025-07-03 18:11:10*
%MOMM*%
%LPD*%
G01*
G04 APERTURE LIST*
%ADD10C,0.150000*%
%ADD11C,0.100000*%
G04 APERTURE END LIST*
D10*
X144597675Y-89486570D02*
X144550056Y-89581808D01*
X144550056Y-89581808D02*
X144502437Y-89629427D01*
X144502437Y-89629427D02*
X144407199Y-89677046D01*
X144407199Y-89677046D02*
X144359580Y-89677046D01*
X144359580Y-89677046D02*
X144264342Y-89629427D01*
X144264342Y-89629427D02*
X144216723Y-89581808D01*
X144216723Y-89581808D02*
X144169104Y-89486570D01*
X144169104Y-89486570D02*
X144169104Y-89296094D01*
X144169104Y-89296094D02*
X144216723Y-89200856D01*
X144216723Y-89200856D02*
X144264342Y-89153237D01*
X144264342Y-89153237D02*
X144359580Y-89105618D01*
X144359580Y-89105618D02*
X144407199Y-89105618D01*
X144407199Y-89105618D02*
X144502437Y-89153237D01*
X144502437Y-89153237D02*
X144550056Y-89200856D01*
X144550056Y-89200856D02*
X144597675Y-89296094D01*
X144597675Y-89296094D02*
X144597675Y-89486570D01*
X144597675Y-89486570D02*
X144645294Y-89581808D01*
X144645294Y-89581808D02*
X144692913Y-89629427D01*
X144692913Y-89629427D02*
X144788151Y-89677046D01*
X144788151Y-89677046D02*
X144978627Y-89677046D01*
X144978627Y-89677046D02*
X145073865Y-89629427D01*
X145073865Y-89629427D02*
X145121485Y-89581808D01*
X145121485Y-89581808D02*
X145169104Y-89486570D01*
X145169104Y-89486570D02*
X145169104Y-89296094D01*
X145169104Y-89296094D02*
X145121485Y-89200856D01*
X145121485Y-89200856D02*
X145073865Y-89153237D01*
X145073865Y-89153237D02*
X144978627Y-89105618D01*
X144978627Y-89105618D02*
X144788151Y-89105618D01*
X144788151Y-89105618D02*
X144692913Y-89153237D01*
X144692913Y-89153237D02*
X144645294Y-89200856D01*
X144645294Y-89200856D02*
X144597675Y-89296094D01*
X144169104Y-88248475D02*
X144169104Y-88438951D01*
X144169104Y-88438951D02*
X144216723Y-88534189D01*
X144216723Y-88534189D02*
X144264342Y-88581808D01*
X144264342Y-88581808D02*
X144407199Y-88677046D01*
X144407199Y-88677046D02*
X144597675Y-88724665D01*
X144597675Y-88724665D02*
X144978627Y-88724665D01*
X144978627Y-88724665D02*
X145073865Y-88677046D01*
X145073865Y-88677046D02*
X145121485Y-88629427D01*
X145121485Y-88629427D02*
X145169104Y-88534189D01*
X145169104Y-88534189D02*
X145169104Y-88343713D01*
X145169104Y-88343713D02*
X145121485Y-88248475D01*
X145121485Y-88248475D02*
X145073865Y-88200856D01*
X145073865Y-88200856D02*
X144978627Y-88153237D01*
X144978627Y-88153237D02*
X144740532Y-88153237D01*
X144740532Y-88153237D02*
X144645294Y-88200856D01*
X144645294Y-88200856D02*
X144597675Y-88248475D01*
X144597675Y-88248475D02*
X144550056Y-88343713D01*
X144550056Y-88343713D02*
X144550056Y-88534189D01*
X144550056Y-88534189D02*
X144597675Y-88629427D01*
X144597675Y-88629427D02*
X144645294Y-88677046D01*
X144645294Y-88677046D02*
X144740532Y-88724665D01*
X145073865Y-87724665D02*
X145121485Y-87677046D01*
X145121485Y-87677046D02*
X145169104Y-87724665D01*
X145169104Y-87724665D02*
X145121485Y-87772284D01*
X145121485Y-87772284D02*
X145073865Y-87724665D01*
X145073865Y-87724665D02*
X145169104Y-87724665D01*
X144169104Y-87057999D02*
X144169104Y-86962761D01*
X144169104Y-86962761D02*
X144216723Y-86867523D01*
X144216723Y-86867523D02*
X144264342Y-86819904D01*
X144264342Y-86819904D02*
X144359580Y-86772285D01*
X144359580Y-86772285D02*
X144550056Y-86724666D01*
X144550056Y-86724666D02*
X144788151Y-86724666D01*
X144788151Y-86724666D02*
X144978627Y-86772285D01*
X144978627Y-86772285D02*
X145073865Y-86819904D01*
X145073865Y-86819904D02*
X145121485Y-86867523D01*
X145121485Y-86867523D02*
X145169104Y-86962761D01*
X145169104Y-86962761D02*
X145169104Y-87057999D01*
X145169104Y-87057999D02*
X145121485Y-87153237D01*
X145121485Y-87153237D02*
X145073865Y-87200856D01*
X145073865Y-87200856D02*
X144978627Y-87248475D01*
X144978627Y-87248475D02*
X144788151Y-87296094D01*
X144788151Y-87296094D02*
X144550056Y-87296094D01*
X144550056Y-87296094D02*
X144359580Y-87248475D01*
X144359580Y-87248475D02*
X144264342Y-87200856D01*
X144264342Y-87200856D02*
X144216723Y-87153237D01*
X144216723Y-87153237D02*
X144169104Y-87057999D01*
X144169104Y-86105618D02*
X144169104Y-86010380D01*
X144169104Y-86010380D02*
X144216723Y-85915142D01*
X144216723Y-85915142D02*
X144264342Y-85867523D01*
X144264342Y-85867523D02*
X144359580Y-85819904D01*
X144359580Y-85819904D02*
X144550056Y-85772285D01*
X144550056Y-85772285D02*
X144788151Y-85772285D01*
X144788151Y-85772285D02*
X144978627Y-85819904D01*
X144978627Y-85819904D02*
X145073865Y-85867523D01*
X145073865Y-85867523D02*
X145121485Y-85915142D01*
X145121485Y-85915142D02*
X145169104Y-86010380D01*
X145169104Y-86010380D02*
X145169104Y-86105618D01*
X145169104Y-86105618D02*
X145121485Y-86200856D01*
X145121485Y-86200856D02*
X145073865Y-86248475D01*
X145073865Y-86248475D02*
X144978627Y-86296094D01*
X144978627Y-86296094D02*
X144788151Y-86343713D01*
X144788151Y-86343713D02*
X144550056Y-86343713D01*
X144550056Y-86343713D02*
X144359580Y-86296094D01*
X144359580Y-86296094D02*
X144264342Y-86248475D01*
X144264342Y-86248475D02*
X144216723Y-86200856D01*
X144216723Y-86200856D02*
X144169104Y-86105618D01*
X144169104Y-85153237D02*
X144169104Y-85057999D01*
X144169104Y-85057999D02*
X144216723Y-84962761D01*
X144216723Y-84962761D02*
X144264342Y-84915142D01*
X144264342Y-84915142D02*
X144359580Y-84867523D01*
X144359580Y-84867523D02*
X144550056Y-84819904D01*
X144550056Y-84819904D02*
X144788151Y-84819904D01*
X144788151Y-84819904D02*
X144978627Y-84867523D01*
X144978627Y-84867523D02*
X145073865Y-84915142D01*
X145073865Y-84915142D02*
X145121485Y-84962761D01*
X145121485Y-84962761D02*
X145169104Y-85057999D01*
X145169104Y-85057999D02*
X145169104Y-85153237D01*
X145169104Y-85153237D02*
X145121485Y-85248475D01*
X145121485Y-85248475D02*
X145073865Y-85296094D01*
X145073865Y-85296094D02*
X144978627Y-85343713D01*
X144978627Y-85343713D02*
X144788151Y-85391332D01*
X144788151Y-85391332D02*
X144550056Y-85391332D01*
X144550056Y-85391332D02*
X144359580Y-85343713D01*
X144359580Y-85343713D02*
X144264342Y-85296094D01*
X144264342Y-85296094D02*
X144216723Y-85248475D01*
X144216723Y-85248475D02*
X144169104Y-85153237D01*
X144169104Y-84200856D02*
X144169104Y-84105618D01*
X144169104Y-84105618D02*
X144216723Y-84010380D01*
X144216723Y-84010380D02*
X144264342Y-83962761D01*
X144264342Y-83962761D02*
X144359580Y-83915142D01*
X144359580Y-83915142D02*
X144550056Y-83867523D01*
X144550056Y-83867523D02*
X144788151Y-83867523D01*
X144788151Y-83867523D02*
X144978627Y-83915142D01*
X144978627Y-83915142D02*
X145073865Y-83962761D01*
X145073865Y-83962761D02*
X145121485Y-84010380D01*
X145121485Y-84010380D02*
X145169104Y-84105618D01*
X145169104Y-84105618D02*
X145169104Y-84200856D01*
X145169104Y-84200856D02*
X145121485Y-84296094D01*
X145121485Y-84296094D02*
X145073865Y-84343713D01*
X145073865Y-84343713D02*
X144978627Y-84391332D01*
X144978627Y-84391332D02*
X144788151Y-84438951D01*
X144788151Y-84438951D02*
X144550056Y-84438951D01*
X144550056Y-84438951D02*
X144359580Y-84391332D01*
X144359580Y-84391332D02*
X144264342Y-84343713D01*
X144264342Y-84343713D02*
X144216723Y-84296094D01*
X144216723Y-84296094D02*
X144169104Y-84200856D01*
X145169104Y-82677046D02*
X144502437Y-82677046D01*
X144597675Y-82677046D02*
X144550056Y-82629427D01*
X144550056Y-82629427D02*
X144502437Y-82534189D01*
X144502437Y-82534189D02*
X144502437Y-82391332D01*
X144502437Y-82391332D02*
X144550056Y-82296094D01*
X144550056Y-82296094D02*
X144645294Y-82248475D01*
X144645294Y-82248475D02*
X145169104Y-82248475D01*
X144645294Y-82248475D02*
X144550056Y-82200856D01*
X144550056Y-82200856D02*
X144502437Y-82105618D01*
X144502437Y-82105618D02*
X144502437Y-81962761D01*
X144502437Y-81962761D02*
X144550056Y-81867522D01*
X144550056Y-81867522D02*
X144645294Y-81819903D01*
X144645294Y-81819903D02*
X145169104Y-81819903D01*
X145169104Y-81343713D02*
X144502437Y-81343713D01*
X144597675Y-81343713D02*
X144550056Y-81296094D01*
X144550056Y-81296094D02*
X144502437Y-81200856D01*
X144502437Y-81200856D02*
X144502437Y-81057999D01*
X144502437Y-81057999D02*
X144550056Y-80962761D01*
X144550056Y-80962761D02*
X144645294Y-80915142D01*
X144645294Y-80915142D02*
X145169104Y-80915142D01*
X144645294Y-80915142D02*
X144550056Y-80867523D01*
X144550056Y-80867523D02*
X144502437Y-80772285D01*
X144502437Y-80772285D02*
X144502437Y-80629428D01*
X144502437Y-80629428D02*
X144550056Y-80534189D01*
X144550056Y-80534189D02*
X144645294Y-80486570D01*
X144645294Y-80486570D02*
X145169104Y-80486570D01*
D11*
X132764285Y-128058000D02*
X146450705Y-128058000D01*
X146450705Y-42058000D02*
X132764285Y-42058000D01*
X145864285Y-128058000D02*
X145864285Y-42058000D01*
X145864285Y-128058000D02*
X145864285Y-42058000D01*
X145864285Y-128058000D02*
X145277864Y-126931496D01*
X145864285Y-128058000D02*
X146450706Y-126931496D01*
X145864285Y-42058000D02*
X146450706Y-43184504D01*
X145864285Y-42058000D02*
X145277864Y-43184504D01*
X145864285Y-128058000D02*
X145864285Y-42058000D01*
X145864285Y-128058000D02*
X145864285Y-42058000D01*
X145864285Y-128058000D02*
X145277864Y-126931496D01*
X145864285Y-128058000D02*
X146450706Y-126931496D01*
X145864285Y-42058000D02*
X146450706Y-43184504D01*
X145864285Y-42058000D02*
X145277864Y-43184504D01*
D10*
X69240475Y-139362819D02*
X68669047Y-139362819D01*
X68954761Y-139362819D02*
X68954761Y-138362819D01*
X68954761Y-138362819D02*
X68859523Y-138505676D01*
X68859523Y-138505676D02*
X68764285Y-138600914D01*
X68764285Y-138600914D02*
X68669047Y-138648533D01*
X70192856Y-139362819D02*
X69621428Y-139362819D01*
X69907142Y-139362819D02*
X69907142Y-138362819D01*
X69907142Y-138362819D02*
X69811904Y-138505676D01*
X69811904Y-138505676D02*
X69716666Y-138600914D01*
X69716666Y-138600914D02*
X69621428Y-138648533D01*
X70526190Y-138362819D02*
X71192856Y-138362819D01*
X71192856Y-138362819D02*
X70764285Y-139362819D01*
X71573809Y-139267580D02*
X71621428Y-139315200D01*
X71621428Y-139315200D02*
X71573809Y-139362819D01*
X71573809Y-139362819D02*
X71526190Y-139315200D01*
X71526190Y-139315200D02*
X71573809Y-139267580D01*
X71573809Y-139267580D02*
X71573809Y-139362819D01*
X72240475Y-138362819D02*
X72335713Y-138362819D01*
X72335713Y-138362819D02*
X72430951Y-138410438D01*
X72430951Y-138410438D02*
X72478570Y-138458057D01*
X72478570Y-138458057D02*
X72526189Y-138553295D01*
X72526189Y-138553295D02*
X72573808Y-138743771D01*
X72573808Y-138743771D02*
X72573808Y-138981866D01*
X72573808Y-138981866D02*
X72526189Y-139172342D01*
X72526189Y-139172342D02*
X72478570Y-139267580D01*
X72478570Y-139267580D02*
X72430951Y-139315200D01*
X72430951Y-139315200D02*
X72335713Y-139362819D01*
X72335713Y-139362819D02*
X72240475Y-139362819D01*
X72240475Y-139362819D02*
X72145237Y-139315200D01*
X72145237Y-139315200D02*
X72097618Y-139267580D01*
X72097618Y-139267580D02*
X72049999Y-139172342D01*
X72049999Y-139172342D02*
X72002380Y-138981866D01*
X72002380Y-138981866D02*
X72002380Y-138743771D01*
X72002380Y-138743771D02*
X72049999Y-138553295D01*
X72049999Y-138553295D02*
X72097618Y-138458057D01*
X72097618Y-138458057D02*
X72145237Y-138410438D01*
X72145237Y-138410438D02*
X72240475Y-138362819D01*
X73192856Y-138362819D02*
X73288094Y-138362819D01*
X73288094Y-138362819D02*
X73383332Y-138410438D01*
X73383332Y-138410438D02*
X73430951Y-138458057D01*
X73430951Y-138458057D02*
X73478570Y-138553295D01*
X73478570Y-138553295D02*
X73526189Y-138743771D01*
X73526189Y-138743771D02*
X73526189Y-138981866D01*
X73526189Y-138981866D02*
X73478570Y-139172342D01*
X73478570Y-139172342D02*
X73430951Y-139267580D01*
X73430951Y-139267580D02*
X73383332Y-139315200D01*
X73383332Y-139315200D02*
X73288094Y-139362819D01*
X73288094Y-139362819D02*
X73192856Y-139362819D01*
X73192856Y-139362819D02*
X73097618Y-139315200D01*
X73097618Y-139315200D02*
X73049999Y-139267580D01*
X73049999Y-139267580D02*
X73002380Y-139172342D01*
X73002380Y-139172342D02*
X72954761Y-138981866D01*
X72954761Y-138981866D02*
X72954761Y-138743771D01*
X72954761Y-138743771D02*
X73002380Y-138553295D01*
X73002380Y-138553295D02*
X73049999Y-138458057D01*
X73049999Y-138458057D02*
X73097618Y-138410438D01*
X73097618Y-138410438D02*
X73192856Y-138362819D01*
X74145237Y-138362819D02*
X74240475Y-138362819D01*
X74240475Y-138362819D02*
X74335713Y-138410438D01*
X74335713Y-138410438D02*
X74383332Y-138458057D01*
X74383332Y-138458057D02*
X74430951Y-138553295D01*
X74430951Y-138553295D02*
X74478570Y-138743771D01*
X74478570Y-138743771D02*
X74478570Y-138981866D01*
X74478570Y-138981866D02*
X74430951Y-139172342D01*
X74430951Y-139172342D02*
X74383332Y-139267580D01*
X74383332Y-139267580D02*
X74335713Y-139315200D01*
X74335713Y-139315200D02*
X74240475Y-139362819D01*
X74240475Y-139362819D02*
X74145237Y-139362819D01*
X74145237Y-139362819D02*
X74049999Y-139315200D01*
X74049999Y-139315200D02*
X74002380Y-139267580D01*
X74002380Y-139267580D02*
X73954761Y-139172342D01*
X73954761Y-139172342D02*
X73907142Y-138981866D01*
X73907142Y-138981866D02*
X73907142Y-138743771D01*
X73907142Y-138743771D02*
X73954761Y-138553295D01*
X73954761Y-138553295D02*
X74002380Y-138458057D01*
X74002380Y-138458057D02*
X74049999Y-138410438D01*
X74049999Y-138410438D02*
X74145237Y-138362819D01*
X75097618Y-138362819D02*
X75192856Y-138362819D01*
X75192856Y-138362819D02*
X75288094Y-138410438D01*
X75288094Y-138410438D02*
X75335713Y-138458057D01*
X75335713Y-138458057D02*
X75383332Y-138553295D01*
X75383332Y-138553295D02*
X75430951Y-138743771D01*
X75430951Y-138743771D02*
X75430951Y-138981866D01*
X75430951Y-138981866D02*
X75383332Y-139172342D01*
X75383332Y-139172342D02*
X75335713Y-139267580D01*
X75335713Y-139267580D02*
X75288094Y-139315200D01*
X75288094Y-139315200D02*
X75192856Y-139362819D01*
X75192856Y-139362819D02*
X75097618Y-139362819D01*
X75097618Y-139362819D02*
X75002380Y-139315200D01*
X75002380Y-139315200D02*
X74954761Y-139267580D01*
X74954761Y-139267580D02*
X74907142Y-139172342D01*
X74907142Y-139172342D02*
X74859523Y-138981866D01*
X74859523Y-138981866D02*
X74859523Y-138743771D01*
X74859523Y-138743771D02*
X74907142Y-138553295D01*
X74907142Y-138553295D02*
X74954761Y-138458057D01*
X74954761Y-138458057D02*
X75002380Y-138410438D01*
X75002380Y-138410438D02*
X75097618Y-138362819D01*
X76621428Y-139362819D02*
X76621428Y-138696152D01*
X76621428Y-138791390D02*
X76669047Y-138743771D01*
X76669047Y-138743771D02*
X76764285Y-138696152D01*
X76764285Y-138696152D02*
X76907142Y-138696152D01*
X76907142Y-138696152D02*
X77002380Y-138743771D01*
X77002380Y-138743771D02*
X77049999Y-138839009D01*
X77049999Y-138839009D02*
X77049999Y-139362819D01*
X77049999Y-138839009D02*
X77097618Y-138743771D01*
X77097618Y-138743771D02*
X77192856Y-138696152D01*
X77192856Y-138696152D02*
X77335713Y-138696152D01*
X77335713Y-138696152D02*
X77430952Y-138743771D01*
X77430952Y-138743771D02*
X77478571Y-138839009D01*
X77478571Y-138839009D02*
X77478571Y-139362819D01*
X77954761Y-139362819D02*
X77954761Y-138696152D01*
X77954761Y-138791390D02*
X78002380Y-138743771D01*
X78002380Y-138743771D02*
X78097618Y-138696152D01*
X78097618Y-138696152D02*
X78240475Y-138696152D01*
X78240475Y-138696152D02*
X78335713Y-138743771D01*
X78335713Y-138743771D02*
X78383332Y-138839009D01*
X78383332Y-138839009D02*
X78383332Y-139362819D01*
X78383332Y-138839009D02*
X78430951Y-138743771D01*
X78430951Y-138743771D02*
X78526189Y-138696152D01*
X78526189Y-138696152D02*
X78669046Y-138696152D01*
X78669046Y-138696152D02*
X78764285Y-138743771D01*
X78764285Y-138743771D02*
X78811904Y-138839009D01*
X78811904Y-138839009D02*
X78811904Y-139362819D01*
D11*
X15264285Y-128558000D02*
X15264285Y-140644420D01*
X132264285Y-140644420D02*
X132264285Y-128558000D01*
X15264285Y-140058000D02*
X132264285Y-140058000D01*
X15264285Y-140058000D02*
X132264285Y-140058000D01*
X15264285Y-140058000D02*
X16390789Y-139471579D01*
X15264285Y-140058000D02*
X16390789Y-140644421D01*
X132264285Y-140058000D02*
X131137781Y-140644421D01*
X132264285Y-140058000D02*
X131137781Y-139471579D01*
X15264285Y-140058000D02*
X132264285Y-140058000D01*
X15264285Y-140058000D02*
X132264285Y-140058000D01*
X15264285Y-140058000D02*
X16390789Y-139471579D01*
X15264285Y-140058000D02*
X16390789Y-140644421D01*
X132264285Y-140058000D02*
X131137781Y-140644421D01*
X132264285Y-140058000D02*
X131137781Y-139471579D01*
M02*
