%TF.GenerationSoftware,KiCad,Pcbnew,9.0.0*%
%TF.CreationDate,2025-07-03T18:11:09+02:00*%
%TF.ProjectId,Obsidian,4f627369-6469-4616-9e2e-6b696361645f,rev?*%
%TF.SameCoordinates,Original*%
%TF.FileFunction,Paste,Bot*%
%TF.FilePolarity,Positive*%
%FSLAX46Y46*%
G04 Gerber Fmt 4.6, Leading zero omitted, Abs format (unit mm)*
G04 Created by KiCad (PCBNEW 9.0.0) date 2025-07-03 18:11:09*
%MOMM*%
%LPD*%
G01*
G04 APERTURE LIST*
G04 Aperture macros list*
%AMRoundRect*
0 Rectangle with rounded corners*
0 $1 Rounding radius*
0 $2 $3 $4 $5 $6 $7 $8 $9 X,Y pos of 4 corners*
0 Add a 4 corners polygon primitive as box body*
4,1,4,$2,$3,$4,$5,$6,$7,$8,$9,$2,$3,0*
0 Add four circle primitives for the rounded corners*
1,1,$1+$1,$2,$3*
1,1,$1+$1,$4,$5*
1,1,$1+$1,$6,$7*
1,1,$1+$1,$8,$9*
0 Add four rect primitives between the rounded corners*
20,1,$1+$1,$2,$3,$4,$5,0*
20,1,$1+$1,$4,$5,$6,$7,0*
20,1,$1+$1,$6,$7,$8,$9,0*
20,1,$1+$1,$8,$9,$2,$3,0*%
%AMRotRect*
0 Rectangle, with rotation*
0 The origin of the aperture is its center*
0 $1 length*
0 $2 width*
0 $3 Rotation angle, in degrees counterclockwise*
0 Add horizontal line*
21,1,$1,$2,0,0,$3*%
G04 Aperture macros list end*
%ADD10R,0.620000X0.620000*%
%ADD11R,0.580000X0.620000*%
%ADD12R,0.500000X0.450000*%
%ADD13R,1.150000X1.450000*%
%ADD14R,0.450000X0.500000*%
%ADD15R,1.400000X1.050000*%
%ADD16R,0.600000X0.620000*%
%ADD17R,0.710000X0.720000*%
%ADD18R,0.620000X0.580000*%
%ADD19R,1.450000X1.150000*%
%ADD20R,0.900000X1.000000*%
%ADD21RoundRect,0.250000X0.850000X-0.375000X0.850000X0.375000X-0.850000X0.375000X-0.850000X-0.375000X0*%
%ADD22R,0.950000X1.450000*%
%ADD23R,1.550000X0.600000*%
%ADD24RoundRect,0.250000X-0.850000X0.375000X-0.850000X-0.375000X0.850000X-0.375000X0.850000X0.375000X0*%
%ADD25RoundRect,0.150000X-0.587500X-0.150000X0.587500X-0.150000X0.587500X0.150000X-0.587500X0.150000X0*%
%ADD26R,1.400000X0.950000*%
%ADD27R,2.400000X1.700000*%
%ADD28R,1.000000X0.950000*%
%ADD29R,2.000000X0.500000*%
%ADD30R,1.000000X0.900000*%
%ADD31R,0.720000X0.710000*%
%ADD32RotRect,0.500000X0.450000X315.000000*%
%ADD33R,0.950000X1.400000*%
%ADD34R,1.500000X0.400000*%
G04 APERTURE END LIST*
D10*
%TO.C,C103*%
X86614285Y-87658000D03*
X87514285Y-87658000D03*
%TD*%
%TO.C,C32*%
X54414285Y-43458000D03*
X55314285Y-43458000D03*
%TD*%
D11*
%TO.C,R180*%
X91294285Y-123708000D03*
X92234285Y-123708000D03*
%TD*%
D12*
%TO.C,C95*%
X102014285Y-81158000D03*
X102714285Y-81158000D03*
%TD*%
D13*
%TO.C,C122*%
X85864285Y-86158000D03*
X87664285Y-86158000D03*
%TD*%
D14*
%TO.C,C240*%
X104564285Y-107008000D03*
X104564285Y-107708000D03*
%TD*%
D10*
%TO.C,C108*%
X98764285Y-79408000D03*
X98764285Y-80308000D03*
%TD*%
D12*
%TO.C,C126*%
X91214285Y-78005117D03*
X91914285Y-78005117D03*
%TD*%
D15*
%TO.C,C38*%
X60864285Y-83158000D03*
X60864285Y-81358000D03*
%TD*%
D14*
%TO.C,C245*%
X103664285Y-110908000D03*
X103664285Y-110208000D03*
%TD*%
D10*
%TO.C,C63*%
X98014285Y-110358000D03*
X97114285Y-110358000D03*
%TD*%
%TO.C,C34*%
X60414285Y-84858000D03*
X59514285Y-84858000D03*
%TD*%
%TO.C,C66*%
X107164285Y-117808000D03*
X107164285Y-118708000D03*
%TD*%
%TO.C,C168*%
X89414285Y-88858000D03*
X90314285Y-88858000D03*
%TD*%
D12*
%TO.C,C94*%
X96414285Y-83558000D03*
X97114285Y-83558000D03*
%TD*%
D14*
%TO.C,C244*%
X110564285Y-109408000D03*
X110564285Y-110108000D03*
%TD*%
D16*
%TO.C,L16*%
X96904285Y-82758000D03*
X97824285Y-82758000D03*
%TD*%
D17*
%TO.C,C5*%
X62724285Y-94658000D03*
X61804285Y-94658000D03*
%TD*%
D11*
%TO.C,R55*%
X100534285Y-107358000D03*
X99594285Y-107358000D03*
%TD*%
D14*
%TO.C,C165*%
X95364285Y-87608000D03*
X95364285Y-88308000D03*
%TD*%
D12*
%TO.C,C121*%
X108314285Y-82358000D03*
X107614285Y-82358000D03*
%TD*%
%TO.C,C139*%
X106014285Y-75558000D03*
X105314285Y-75558000D03*
%TD*%
D14*
%TO.C,C249*%
X107864285Y-108608000D03*
X107864285Y-109308000D03*
%TD*%
D12*
%TO.C,C230*%
X105614285Y-101158000D03*
X104914285Y-101158000D03*
%TD*%
D18*
%TO.C,R90*%
X95664285Y-71588000D03*
X95664285Y-72528000D03*
%TD*%
%TO.C,R58*%
X106764285Y-114688000D03*
X106764285Y-115628000D03*
%TD*%
D12*
%TO.C,C92*%
X100414285Y-81158000D03*
X101114285Y-81158000D03*
%TD*%
D10*
%TO.C,C68*%
X102164285Y-117808000D03*
X102164285Y-118708000D03*
%TD*%
D14*
%TO.C,C153*%
X102664285Y-96708000D03*
X102664285Y-96008000D03*
%TD*%
D11*
%TO.C,R11*%
X65534285Y-96058000D03*
X64594285Y-96058000D03*
%TD*%
D10*
%TO.C,C123*%
X97964285Y-72408000D03*
X97964285Y-73308000D03*
%TD*%
%TO.C,C14*%
X52314285Y-93458000D03*
X53214285Y-93458000D03*
%TD*%
D18*
%TO.C,R171*%
X77664285Y-49588000D03*
X77664285Y-50528000D03*
%TD*%
D12*
%TO.C,C100*%
X97214285Y-84358000D03*
X97914285Y-84358000D03*
%TD*%
%TO.C,C120*%
X94814285Y-82758000D03*
X95514285Y-82758000D03*
%TD*%
D18*
%TO.C,R54*%
X109764285Y-114688000D03*
X109764285Y-115628000D03*
%TD*%
D13*
%TO.C,C119*%
X81614285Y-84058000D03*
X83414285Y-84058000D03*
%TD*%
D14*
%TO.C,C128*%
X100364285Y-76308000D03*
X100364285Y-77008000D03*
%TD*%
D10*
%TO.C,C131*%
X90914285Y-73958000D03*
X91814285Y-73958000D03*
%TD*%
D12*
%TO.C,C236*%
X109714285Y-103658000D03*
X110414285Y-103658000D03*
%TD*%
D19*
%TO.C,C110*%
X97064285Y-93858000D03*
X97064285Y-92058000D03*
%TD*%
D12*
%TO.C,C90*%
X98814285Y-81158000D03*
X99514285Y-81158000D03*
%TD*%
D10*
%TO.C,C40*%
X52564285Y-46208000D03*
X52564285Y-47108000D03*
%TD*%
D18*
%TO.C,R72*%
X111364285Y-107028000D03*
X111364285Y-106088000D03*
%TD*%
D12*
%TO.C,C239*%
X103914285Y-106058000D03*
X104614285Y-106058000D03*
%TD*%
D10*
%TO.C,C118*%
X82814285Y-85558000D03*
X83714285Y-85558000D03*
%TD*%
D20*
%TO.C,R1*%
X93764285Y-101758000D03*
X92164285Y-101758000D03*
%TD*%
D18*
%TO.C,R146*%
X44864285Y-119188000D03*
X44864285Y-120128000D03*
%TD*%
D21*
%TO.C,L8*%
X55564285Y-83433000D03*
X55564285Y-81283000D03*
%TD*%
D11*
%TO.C,R15*%
X64594285Y-99058000D03*
X65534285Y-99058000D03*
%TD*%
D18*
%TO.C,R178*%
X64414285Y-106678000D03*
X64414285Y-105738000D03*
%TD*%
D10*
%TO.C,C105*%
X98764285Y-82108000D03*
X98764285Y-83008000D03*
%TD*%
D12*
%TO.C,C144*%
X105514285Y-89958000D03*
X104814285Y-89958000D03*
%TD*%
%TO.C,C137*%
X93914285Y-81958000D03*
X93214285Y-81958000D03*
%TD*%
%TO.C,C154*%
X99604285Y-81958000D03*
X100304285Y-81958000D03*
%TD*%
D10*
%TO.C,C72*%
X36164285Y-98458000D03*
X37064285Y-98458000D03*
%TD*%
%TO.C,C167*%
X89414285Y-89858000D03*
X90314285Y-89858000D03*
%TD*%
D22*
%TO.C,L15*%
X98381785Y-96458000D03*
X100381785Y-96458000D03*
%TD*%
D23*
%TO.C,U22*%
X32064285Y-98883000D03*
X32064285Y-100153000D03*
X32064285Y-101423000D03*
X32064285Y-102693000D03*
X26664285Y-102693000D03*
X26664285Y-101423000D03*
X26664285Y-100153000D03*
X26664285Y-98883000D03*
%TD*%
D21*
%TO.C,L9*%
X58464285Y-83433000D03*
X58464285Y-81283000D03*
%TD*%
D11*
%TO.C,R169*%
X93094285Y-117958000D03*
X94034285Y-117958000D03*
%TD*%
D14*
%TO.C,C235*%
X110364285Y-105308000D03*
X110364285Y-106008000D03*
%TD*%
D11*
%TO.C,R145*%
X92234285Y-122708000D03*
X91294285Y-122708000D03*
%TD*%
D14*
%TO.C,C250*%
X102364285Y-105108000D03*
X102364285Y-105808000D03*
%TD*%
%TO.C,C134*%
X93764285Y-75608000D03*
X93764285Y-76308000D03*
%TD*%
%TO.C,C166*%
X96664285Y-90108000D03*
X96664285Y-89408000D03*
%TD*%
D11*
%TO.C,R53*%
X100534285Y-111358000D03*
X99594285Y-111358000D03*
%TD*%
D14*
%TO.C,C124*%
X105064285Y-85708000D03*
X105064285Y-85008000D03*
%TD*%
D12*
%TO.C,C130*%
X106914285Y-78358000D03*
X106214285Y-78358000D03*
%TD*%
D24*
%TO.C,L6*%
X59364285Y-44883000D03*
X59364285Y-47033000D03*
%TD*%
D14*
%TO.C,C164*%
X93364285Y-89358000D03*
X93364285Y-90058000D03*
%TD*%
D12*
%TO.C,C138*%
X91221609Y-79009217D03*
X91921609Y-79009217D03*
%TD*%
D14*
%TO.C,C159*%
X94764285Y-86008000D03*
X94764285Y-86708000D03*
%TD*%
D12*
%TO.C,C145*%
X107114285Y-86358000D03*
X106414285Y-86358000D03*
%TD*%
D14*
%TO.C,C232*%
X103964285Y-102908000D03*
X103964285Y-102208000D03*
%TD*%
D10*
%TO.C,C161*%
X89414285Y-86658000D03*
X90314285Y-86658000D03*
%TD*%
D18*
%TO.C,R144*%
X60564285Y-118888000D03*
X60564285Y-119828000D03*
%TD*%
D10*
%TO.C,C42*%
X62464285Y-82108000D03*
X62464285Y-81208000D03*
%TD*%
D14*
%TO.C,C115*%
X96364285Y-79608000D03*
X96364285Y-80308000D03*
%TD*%
%TO.C,C148*%
X100364285Y-85208000D03*
X100364285Y-85908000D03*
%TD*%
%TO.C,C242*%
X110564285Y-111008000D03*
X110564285Y-111708000D03*
%TD*%
%TO.C,C143*%
X101164285Y-89308000D03*
X101164285Y-88608000D03*
%TD*%
%TO.C,C238*%
X110464285Y-101308000D03*
X110464285Y-102008000D03*
%TD*%
D12*
%TO.C,C186*%
X76364285Y-100758000D03*
X77064285Y-100758000D03*
%TD*%
D25*
%TO.C,U9*%
X101926785Y-94708000D03*
X101926785Y-92808000D03*
X103801785Y-93758000D03*
%TD*%
D10*
%TO.C,C107*%
X101314285Y-82858000D03*
X100414285Y-82858000D03*
%TD*%
D14*
%TO.C,C147*%
X102664285Y-84408000D03*
X102664285Y-85108000D03*
%TD*%
D10*
%TO.C,C142*%
X107414285Y-85358000D03*
X108314285Y-85358000D03*
%TD*%
D11*
%TO.C,R16*%
X65534285Y-95058000D03*
X64594285Y-95058000D03*
%TD*%
D10*
%TO.C,C179*%
X44064285Y-116508000D03*
X44064285Y-117408000D03*
%TD*%
D18*
%TO.C,R112*%
X70664285Y-114628000D03*
X70664285Y-113688000D03*
%TD*%
D10*
%TO.C,C104*%
X108314285Y-84358000D03*
X107414285Y-84358000D03*
%TD*%
%TO.C,C33*%
X53714285Y-84858000D03*
X54614285Y-84858000D03*
%TD*%
D18*
%TO.C,R165*%
X89464285Y-49788000D03*
X89464285Y-50728000D03*
%TD*%
D14*
%TO.C,C89*%
X97964285Y-79608000D03*
X97964285Y-80308000D03*
%TD*%
D12*
%TO.C,C96*%
X101914285Y-85158000D03*
X101214285Y-85158000D03*
%TD*%
D11*
%TO.C,R70*%
X100534285Y-109358000D03*
X99594285Y-109358000D03*
%TD*%
D14*
%TO.C,C136*%
X96364285Y-74808000D03*
X96364285Y-75508000D03*
%TD*%
D18*
%TO.C,R95*%
X62864285Y-105990500D03*
X62864285Y-105050500D03*
%TD*%
D14*
%TO.C,C146*%
X103564285Y-83108000D03*
X103564285Y-82408000D03*
%TD*%
D11*
%TO.C,R69*%
X100534285Y-108358000D03*
X99594285Y-108358000D03*
%TD*%
D14*
%TO.C,C169*%
X91564285Y-89908000D03*
X91564285Y-89208000D03*
%TD*%
D18*
%TO.C,R97*%
X60764285Y-107990500D03*
X60764285Y-107050500D03*
%TD*%
D10*
%TO.C,C15*%
X52314285Y-95658000D03*
X53214285Y-95658000D03*
%TD*%
D14*
%TO.C,C149*%
X105064285Y-87808000D03*
X105064285Y-87108000D03*
%TD*%
D18*
%TO.C,R168*%
X107414285Y-107128000D03*
X107414285Y-106188000D03*
%TD*%
D10*
%TO.C,C31*%
X61114285Y-43458000D03*
X60214285Y-43458000D03*
%TD*%
D11*
%TO.C,R71*%
X100534285Y-106358000D03*
X99594285Y-106358000D03*
%TD*%
D26*
%TO.C,R91*%
X41464285Y-115558000D03*
X41464285Y-117558000D03*
%TD*%
D18*
%TO.C,R170*%
X76664285Y-49588000D03*
X76664285Y-50528000D03*
%TD*%
D12*
%TO.C,C91*%
X102114285Y-83408000D03*
X102814285Y-83408000D03*
%TD*%
D14*
%TO.C,C233*%
X104764285Y-103708000D03*
X104764285Y-103008000D03*
%TD*%
D18*
%TO.C,R52*%
X110764285Y-114688000D03*
X110764285Y-115628000D03*
%TD*%
D15*
%TO.C,C36*%
X54064285Y-45158000D03*
X54064285Y-46958000D03*
%TD*%
D27*
%TO.C,Y5*%
X36164285Y-104208000D03*
X36164285Y-100508000D03*
%TD*%
D28*
%TO.C,L11*%
X105564285Y-94858000D03*
X105564285Y-93258000D03*
%TD*%
D10*
%TO.C,C8*%
X62714285Y-93558000D03*
X61814285Y-93558000D03*
%TD*%
%TO.C,C106*%
X108314285Y-83358000D03*
X107414285Y-83358000D03*
%TD*%
%TO.C,C70*%
X25014285Y-99858000D03*
X25014285Y-98958000D03*
%TD*%
D18*
%TO.C,R108*%
X71664285Y-114628000D03*
X71664285Y-113688000D03*
%TD*%
D11*
%TO.C,R13*%
X65534285Y-98058000D03*
X64594285Y-98058000D03*
%TD*%
%TO.C,R10*%
X65534285Y-97058000D03*
X64594285Y-97058000D03*
%TD*%
D29*
%TO.C,J11*%
X53564285Y-60523000D03*
X53564285Y-59723000D03*
X53564285Y-58923000D03*
X53564285Y-58123000D03*
X53564285Y-57323000D03*
X53564285Y-56523000D03*
X53564285Y-55723000D03*
X53564285Y-54923000D03*
X53564285Y-54123000D03*
X53564285Y-53323000D03*
X61764285Y-53723000D03*
X61764285Y-54523000D03*
X61764285Y-55323000D03*
X61764285Y-56123000D03*
X61764285Y-56923000D03*
X61764285Y-57723000D03*
X61764285Y-58523000D03*
X61764285Y-59323000D03*
X61764285Y-60123000D03*
X61764285Y-60923000D03*
%TD*%
D14*
%TO.C,C246*%
X103664285Y-112608000D03*
X103664285Y-111908000D03*
%TD*%
D10*
%TO.C,C71*%
X33764285Y-104808000D03*
X33764285Y-103908000D03*
%TD*%
D12*
%TO.C,C129*%
X105214285Y-81258000D03*
X104514285Y-81258000D03*
%TD*%
D14*
%TO.C,C99*%
X100364285Y-79608000D03*
X100364285Y-80308000D03*
%TD*%
D18*
%TO.C,R114*%
X88164285Y-88688000D03*
X88164285Y-89628000D03*
%TD*%
D30*
%TO.C,Y1*%
X78164285Y-102158000D03*
X78164285Y-104258000D03*
X76264285Y-104258000D03*
X76264285Y-102158000D03*
%TD*%
D31*
%TO.C,C151*%
X100264285Y-93718000D03*
X100264285Y-92798000D03*
%TD*%
D12*
%TO.C,C229*%
X110314285Y-100258000D03*
X109614285Y-100258000D03*
%TD*%
D32*
%TO.C,C158*%
X91716798Y-86910513D03*
X92211772Y-87405487D03*
%TD*%
D10*
%TO.C,C133*%
X109714285Y-78358000D03*
X108814285Y-78358000D03*
%TD*%
D12*
%TO.C,C125*%
X90914285Y-77058000D03*
X91614285Y-77058000D03*
%TD*%
D18*
%TO.C,R50*%
X105764285Y-114688000D03*
X105764285Y-115628000D03*
%TD*%
%TO.C,R172*%
X78664285Y-49588000D03*
X78664285Y-50528000D03*
%TD*%
D14*
%TO.C,C135*%
X97164285Y-77208000D03*
X97164285Y-77908000D03*
%TD*%
D12*
%TO.C,C113*%
X101864285Y-79358000D03*
X102564285Y-79358000D03*
%TD*%
D18*
%TO.C,R92*%
X43064285Y-117428000D03*
X43064285Y-116488000D03*
%TD*%
D12*
%TO.C,C97*%
X101364285Y-80258000D03*
X102064285Y-80258000D03*
%TD*%
D10*
%TO.C,C162*%
X89414285Y-87858000D03*
X90314285Y-87858000D03*
%TD*%
%TO.C,C67*%
X105164285Y-117808000D03*
X105164285Y-118708000D03*
%TD*%
D18*
%TO.C,R164*%
X88464285Y-49788000D03*
X88464285Y-50728000D03*
%TD*%
D12*
%TO.C,C243*%
X109314285Y-106158000D03*
X108614285Y-106158000D03*
%TD*%
D11*
%TO.C,R179*%
X58694285Y-118908000D03*
X59634285Y-118908000D03*
%TD*%
D14*
%TO.C,C98*%
X96364285Y-81208000D03*
X96364285Y-81908000D03*
%TD*%
%TO.C,C231*%
X103864285Y-101208000D03*
X103864285Y-100508000D03*
%TD*%
D12*
%TO.C,C102*%
X94814285Y-83558000D03*
X95514285Y-83558000D03*
%TD*%
D31*
%TO.C,C152*%
X101664285Y-96918000D03*
X101664285Y-95998000D03*
%TD*%
D11*
%TO.C,R100*%
X94044285Y-120058000D03*
X94984285Y-120058000D03*
%TD*%
D12*
%TO.C,C237*%
X109714285Y-102858000D03*
X110414285Y-102858000D03*
%TD*%
D10*
%TO.C,C61*%
X108064285Y-103508000D03*
X108064285Y-104408000D03*
%TD*%
D12*
%TO.C,C93*%
X94814285Y-85158000D03*
X95514285Y-85158000D03*
%TD*%
D14*
%TO.C,C163*%
X94964285Y-89408000D03*
X94964285Y-90108000D03*
%TD*%
D18*
%TO.C,R142*%
X94514285Y-103753000D03*
X94514285Y-104693000D03*
%TD*%
D10*
%TO.C,C41*%
X51664285Y-81808000D03*
X51664285Y-80908000D03*
%TD*%
D14*
%TO.C,C241*%
X111464285Y-111008000D03*
X111464285Y-111708000D03*
%TD*%
%TO.C,C101*%
X97164285Y-85908000D03*
X97164285Y-85208000D03*
%TD*%
D10*
%TO.C,C156*%
X85414285Y-82558000D03*
X86314285Y-82558000D03*
%TD*%
D14*
%TO.C,C157*%
X93164285Y-86008000D03*
X93164285Y-86708000D03*
%TD*%
%TO.C,C160*%
X95564285Y-86008000D03*
X95564285Y-86708000D03*
%TD*%
%TO.C,C140*%
X103564285Y-79408000D03*
X103564285Y-78708000D03*
%TD*%
D12*
%TO.C,C155*%
X97214285Y-81958000D03*
X97914285Y-81958000D03*
%TD*%
D18*
%TO.C,R166*%
X90464285Y-49788000D03*
X90464285Y-50728000D03*
%TD*%
D10*
%TO.C,C132*%
X108914285Y-75658000D03*
X108014285Y-75658000D03*
%TD*%
D18*
%TO.C,R86*%
X94464285Y-72578000D03*
X94464285Y-71638000D03*
%TD*%
%TO.C,R74*%
X33664285Y-102528000D03*
X33664285Y-101588000D03*
%TD*%
D11*
%TO.C,R17*%
X65534285Y-94058000D03*
X64594285Y-94058000D03*
%TD*%
D33*
%TO.C,R94*%
X64014285Y-117008000D03*
X62014285Y-117008000D03*
%TD*%
D10*
%TO.C,C178*%
X58664285Y-116545500D03*
X58664285Y-117445500D03*
%TD*%
%TO.C,C141*%
X107014285Y-89908000D03*
X107014285Y-90808000D03*
%TD*%
D18*
%TO.C,R2*%
X95514285Y-104693000D03*
X95514285Y-103753000D03*
%TD*%
%TO.C,R62*%
X104764285Y-114688000D03*
X104764285Y-115628000D03*
%TD*%
D15*
%TO.C,C35*%
X61764285Y-45258000D03*
X61764285Y-47058000D03*
%TD*%
D14*
%TO.C,C112*%
X99564285Y-80308000D03*
X99564285Y-79608000D03*
%TD*%
D18*
%TO.C,R181*%
X43864285Y-120128000D03*
X43864285Y-119188000D03*
%TD*%
%TO.C,R111*%
X69664285Y-114628000D03*
X69664285Y-113688000D03*
%TD*%
D29*
%TO.C,J13*%
X53564285Y-74778000D03*
X53564285Y-73978000D03*
X53564285Y-73178000D03*
X53564285Y-72378000D03*
X53564285Y-71578000D03*
X53564285Y-70778000D03*
X53564285Y-69978000D03*
X53564285Y-69178000D03*
X53564285Y-68378000D03*
X53564285Y-67578000D03*
X61764285Y-67978000D03*
D34*
X61764285Y-68778000D03*
X61764285Y-69578000D03*
D29*
X61764285Y-70378000D03*
X61764285Y-71178000D03*
X61764285Y-71978000D03*
X61764285Y-72778000D03*
D34*
X61764285Y-73578000D03*
X61764285Y-74378000D03*
D29*
X61764285Y-75178000D03*
%TD*%
D11*
%TO.C,R98*%
X93044285Y-121308000D03*
X93984285Y-121308000D03*
%TD*%
D18*
%TO.C,R109*%
X72664285Y-114628000D03*
X72664285Y-113688000D03*
%TD*%
D14*
%TO.C,C116*%
X97164285Y-80308000D03*
X97164285Y-79608000D03*
%TD*%
D18*
%TO.C,R67*%
X107739285Y-114688000D03*
X107739285Y-115628000D03*
%TD*%
%TO.C,R93*%
X59664285Y-117465500D03*
X59664285Y-116525500D03*
%TD*%
D11*
%TO.C,R75*%
X31494285Y-104058000D03*
X32434285Y-104058000D03*
%TD*%
D13*
%TO.C,C109*%
X85864285Y-84058000D03*
X87664285Y-84058000D03*
%TD*%
D32*
%TO.C,C114*%
X94116798Y-80510513D03*
X94611772Y-81005487D03*
%TD*%
D15*
%TO.C,C37*%
X53164285Y-83058000D03*
X53164285Y-81258000D03*
%TD*%
D12*
%TO.C,C150*%
X95514285Y-81958000D03*
X94814285Y-81958000D03*
%TD*%
D18*
%TO.C,R68*%
X103764285Y-114688000D03*
X103764285Y-115628000D03*
%TD*%
D10*
%TO.C,C117*%
X82814285Y-86558000D03*
X83714285Y-86558000D03*
%TD*%
%TO.C,C69*%
X110164285Y-117808000D03*
X110164285Y-118708000D03*
%TD*%
D18*
%TO.C,R96*%
X61764285Y-107990500D03*
X61764285Y-107050500D03*
%TD*%
D11*
%TO.C,R51*%
X100534285Y-110358000D03*
X99594285Y-110358000D03*
%TD*%
D24*
%TO.C,L7*%
X56564285Y-44883000D03*
X56564285Y-47033000D03*
%TD*%
D18*
%TO.C,R143*%
X59764285Y-107038000D03*
X59764285Y-107978000D03*
%TD*%
D17*
%TO.C,C62*%
X98024285Y-108758000D03*
X97104285Y-108758000D03*
%TD*%
D18*
%TO.C,R153*%
X108764285Y-114688000D03*
X108764285Y-115628000D03*
%TD*%
D10*
%TO.C,C39*%
X63264285Y-46408000D03*
X63264285Y-47308000D03*
%TD*%
D14*
%TO.C,C127*%
X102764285Y-75608000D03*
X102764285Y-76308000D03*
%TD*%
%TO.C,C234*%
X103864285Y-105158000D03*
X103864285Y-104458000D03*
%TD*%
D11*
%TO.C,R101*%
X94044285Y-119058000D03*
X94984285Y-119058000D03*
%TD*%
D17*
%TO.C,C11*%
X52304285Y-96858000D03*
X53224285Y-96858000D03*
%TD*%
M02*
