ISO-10303-21;
HEADER;
FILE_DESCRIPTION(('FreeCAD Model'),'2;1');
FILE_NAME('Open CASCADE Shape Model','2026-03-12T18:44:35',('Author'),(
    ''),'Open CASCADE STEP processor 7.8','FreeCAD','Unknown');
FILE_SCHEMA(('AUTOMOTIVE_DESIGN { 1 0 10303 214 1 1 1 1 }'));
ENDSEC;
DATA;
#1 = APPLICATION_PROTOCOL_DEFINITION('international standard',
  'automotive_design',2000,#2);
#2 = APPLICATION_CONTEXT(
  'core data for automotive mechanical design processes');
#3 = SHAPE_DEFINITION_REPRESENTATION(#4,#10);
#4 = PRODUCT_DEFINITION_SHAPE('','',#5);
#5 = PRODUCT_DEFINITION('design','',#6,#9);
#6 = PRODUCT_DEFINITION_FORMATION('','',#7);
#7 = PRODUCT('Shell','Shell','',(#8));
#8 = PRODUCT_CONTEXT('',#2,'mechanical');
#9 = PRODUCT_DEFINITION_CONTEXT('part definition',#2,'design');
#10 = MANIFOLD_SURFACE_SHAPE_REPRESENTATION('',(#11,#15),#1131);
#11 = AXIS2_PLACEMENT_3D('',#12,#13,#14);
#12 = CARTESIAN_POINT('',(0.,0.,0.));
#13 = DIRECTION('',(0.,0.,1.));
#14 = DIRECTION('',(1.,0.,-0.));
#15 = SHELL_BASED_SURFACE_MODEL('',(#16));
#16 = CLOSED_SHELL('',(#17,#89,#129,#224,#255,#302,#326,#343,#374,#386,
    #419,#482,#506,#518,#542,#561,#592,#623,#654,#687,#718,#749,#780,
    #804,#821,#838,#869,#900,#933,#964,#995,#1026,#1059,#1081,#1098,
    #1115));
#17 = ADVANCED_FACE('',(#18),#84,.F.);
#18 = FACE_BOUND('',#19,.T.);
#19 = EDGE_LOOP('',(#20,#30,#38,#46,#54,#62,#70,#78));
#20 = ORIENTED_EDGE('',*,*,#21,.T.);
#21 = EDGE_CURVE('',#22,#24,#26,.T.);
#22 = VERTEX_POINT('',#23);
#23 = CARTESIAN_POINT('',(1.199999982119,0.949999985844,0.14999999851));
#24 = VERTEX_POINT('',#25);
#25 = CARTESIAN_POINT('',(1.049999984354,0.949999985844,0.14999999851));
#26 = LINE('',#27,#28);
#27 = CARTESIAN_POINT('',(1.275372579062,0.949999985844,0.14999999851));
#28 = VECTOR('',#29,1.);
#29 = DIRECTION('',(-1.,0.,-6.614726013542E-16));
#30 = ORIENTED_EDGE('',*,*,#31,.T.);
#31 = EDGE_CURVE('',#24,#32,#34,.T.);
#32 = VERTEX_POINT('',#33);
#33 = CARTESIAN_POINT('',(1.049999984354,-0.949999985844,0.14999999851)
  );
#34 = LINE('',#35,#36);
#35 = CARTESIAN_POINT('',(1.049999984354,0.949999985844,0.14999999851));
#36 = VECTOR('',#37,1.);
#37 = DIRECTION('',(-0.,-1.,-0.));
#38 = ORIENTED_EDGE('',*,*,#39,.F.);
#39 = EDGE_CURVE('',#40,#32,#42,.T.);
#40 = VERTEX_POINT('',#41);
#41 = CARTESIAN_POINT('',(1.199999982119,-0.949999985844,0.14999999851)
  );
#42 = LINE('',#43,#44);
#43 = CARTESIAN_POINT('',(1.275372579062,-0.949999985844,0.14999999851)
  );
#44 = VECTOR('',#45,1.);
#45 = DIRECTION('',(-1.,0.,-6.614726013542E-16));
#46 = ORIENTED_EDGE('',*,*,#47,.T.);
#47 = EDGE_CURVE('',#40,#48,#50,.T.);
#48 = VERTEX_POINT('',#49);
#49 = CARTESIAN_POINT('',(1.199999982119,-0.999999985099,0.14999999851)
  );
#50 = LINE('',#51,#52);
#51 = CARTESIAN_POINT('',(1.199999982119,2.081668140153E-16,
    0.14999999851));
#52 = VECTOR('',#53,1.);
#53 = DIRECTION('',(1.734723475977E-16,-1.,0.));
#54 = ORIENTED_EDGE('',*,*,#55,.T.);
#55 = EDGE_CURVE('',#48,#56,#58,.T.);
#56 = VERTEX_POINT('',#57);
#57 = CARTESIAN_POINT('',(0.999999985099,-0.999999985099,0.14999999851)
  );
#58 = LINE('',#59,#60);
#59 = CARTESIAN_POINT('',(1.799999973178,-0.999999985099,0.14999999851)
  );
#60 = VECTOR('',#61,1.);
#61 = DIRECTION('',(-1.,0.,0.));
#62 = ORIENTED_EDGE('',*,*,#63,.T.);
#63 = EDGE_CURVE('',#56,#64,#66,.T.);
#64 = VERTEX_POINT('',#65);
#65 = CARTESIAN_POINT('',(0.999999985099,0.999999985099,0.14999999851));
#66 = LINE('',#67,#68);
#67 = CARTESIAN_POINT('',(0.999999985099,-0.999999985099,0.14999999851)
  );
#68 = VECTOR('',#69,1.);
#69 = DIRECTION('',(3.252606517457E-16,1.,0.));
#70 = ORIENTED_EDGE('',*,*,#71,.T.);
#71 = EDGE_CURVE('',#64,#72,#74,.T.);
#72 = VERTEX_POINT('',#73);
#73 = CARTESIAN_POINT('',(1.199999982119,0.999999985099,0.14999999851));
#74 = LINE('',#75,#76);
#75 = CARTESIAN_POINT('',(1.799999973178,0.999999985099,0.14999999851));
#76 = VECTOR('',#77,1.);
#77 = DIRECTION('',(1.,2.710505431214E-16,0.));
#78 = ORIENTED_EDGE('',*,*,#79,.T.);
#79 = EDGE_CURVE('',#72,#22,#80,.T.);
#80 = LINE('',#81,#82);
#81 = CARTESIAN_POINT('',(1.199999982119,2.081668140153E-16,
    0.14999999851));
#82 = VECTOR('',#83,1.);
#83 = DIRECTION('',(1.734723475977E-16,-1.,0.));
#84 = PLANE('',#85);
#85 = AXIS2_PLACEMENT_3D('',#86,#87,#88);
#86 = CARTESIAN_POINT('',(0.,0.,0.14999999851));
#87 = DIRECTION('',(0.,0.,1.));
#88 = DIRECTION('',(1.,0.,0.));
#89 = ADVANCED_FACE('',(#90),#124,.F.);
#90 = FACE_BOUND('',#91,.T.);
#91 = EDGE_LOOP('',(#92,#93,#101,#109,#117));
#92 = ORIENTED_EDGE('',*,*,#71,.F.);
#93 = ORIENTED_EDGE('',*,*,#94,.T.);
#94 = EDGE_CURVE('',#64,#95,#97,.T.);
#95 = VERTEX_POINT('',#96);
#96 = CARTESIAN_POINT('',(0.999999985099,0.999999985099,5.E-02));
#97 = LINE('',#98,#99);
#98 = CARTESIAN_POINT('',(0.999999985099,0.999999985099,0.14999999851));
#99 = VECTOR('',#100,1.);
#100 = DIRECTION('',(-0.,-0.,-1.));
#101 = ORIENTED_EDGE('',*,*,#102,.T.);
#102 = EDGE_CURVE('',#95,#103,#105,.T.);
#103 = VERTEX_POINT('',#104);
#104 = CARTESIAN_POINT('',(1.399999979138,0.999999985099,5.E-02));
#105 = LINE('',#106,#107);
#106 = CARTESIAN_POINT('',(1.799999973178,0.999999985099,5.E-02));
#107 = VECTOR('',#108,1.);
#108 = DIRECTION('',(1.,2.710505431214E-16,0.));
#109 = ORIENTED_EDGE('',*,*,#110,.F.);
#110 = EDGE_CURVE('',#111,#103,#113,.T.);
#111 = VERTEX_POINT('',#112);
#112 = CARTESIAN_POINT('',(1.399999979138,0.999999985099,0.34999999553)
  );
#113 = LINE('',#114,#115);
#114 = CARTESIAN_POINT('',(1.399999979138,0.999999985099,2.199999967963)
  );
#115 = VECTOR('',#116,1.);
#116 = DIRECTION('',(0.,0.,-1.));
#117 = ORIENTED_EDGE('',*,*,#118,.T.);
#118 = EDGE_CURVE('',#111,#72,#119,.T.);
#119 = CIRCLE('',#120,0.19999999702);
#120 = AXIS2_PLACEMENT_3D('',#121,#122,#123);
#121 = CARTESIAN_POINT('',(1.199999982119,0.999999985099,0.34999999553)
  );
#122 = DIRECTION('',(-2.710505431214E-16,1.,0.));
#123 = DIRECTION('',(-1.,-2.710505431214E-16,-0.));
#124 = PLANE('',#125);
#125 = AXIS2_PLACEMENT_3D('',#126,#127,#128);
#126 = CARTESIAN_POINT('',(1.799999973178,0.999999985099,0.14999999851)
  );
#127 = DIRECTION('',(-2.710505431214E-16,1.,0.));
#128 = DIRECTION('',(-1.,-2.710505431214E-16,0.));
#129 = ADVANCED_FACE('',(#130),#219,.T.);
#130 = FACE_BOUND('',#131,.T.);
#131 = EDGE_LOOP('',(#132,#142,#150,#158,#166,#172,#173,#181,#189,#197,
    #205,#213));
#132 = ORIENTED_EDGE('',*,*,#133,.F.);
#133 = EDGE_CURVE('',#134,#136,#138,.T.);
#134 = VERTEX_POINT('',#135);
#135 = CARTESIAN_POINT('',(-0.999999985099,0.999999985099,5.E-02));
#136 = VERTEX_POINT('',#137);
#137 = CARTESIAN_POINT('',(-0.999999985099,-0.999999985099,5.E-02));
#138 = LINE('',#139,#140);
#139 = CARTESIAN_POINT('',(-0.999999985099,-0.999999985099,5.E-02));
#140 = VECTOR('',#141,1.);
#141 = DIRECTION('',(-1.084202172486E-16,-1.,-0.));
#142 = ORIENTED_EDGE('',*,*,#143,.T.);
#143 = EDGE_CURVE('',#134,#144,#146,.T.);
#144 = VERTEX_POINT('',#145);
#145 = CARTESIAN_POINT('',(-1.399999979138,0.999999985099,5.E-02));
#146 = LINE('',#147,#148);
#147 = CARTESIAN_POINT('',(5.421010781648E-16,0.999999985099,5.E-02));
#148 = VECTOR('',#149,1.);
#149 = DIRECTION('',(-1.,5.421010862428E-16,0.));
#150 = ORIENTED_EDGE('',*,*,#151,.F.);
#151 = EDGE_CURVE('',#152,#144,#154,.T.);
#152 = VERTEX_POINT('',#153);
#153 = CARTESIAN_POINT('',(-1.399999979138,1.249999981374,5.E-02));
#154 = LINE('',#155,#156);
#155 = CARTESIAN_POINT('',(-1.399999979138,1.249999981374,5.E-02));
#156 = VECTOR('',#157,1.);
#157 = DIRECTION('',(1.734723475977E-16,-1.,0.));
#158 = ORIENTED_EDGE('',*,*,#159,.F.);
#159 = EDGE_CURVE('',#160,#152,#162,.T.);
#160 = VERTEX_POINT('',#161);
#161 = CARTESIAN_POINT('',(1.399999979138,1.249999981374,5.E-02));
#162 = LINE('',#163,#164);
#163 = CARTESIAN_POINT('',(-1.399999979138,1.249999981374,5.E-02));
#164 = VECTOR('',#165,1.);
#165 = DIRECTION('',(-1.,-0.,-0.));
#166 = ORIENTED_EDGE('',*,*,#167,.F.);
#167 = EDGE_CURVE('',#103,#160,#168,.T.);
#168 = LINE('',#169,#170);
#169 = CARTESIAN_POINT('',(1.399999979138,1.249999981374,5.E-02));
#170 = VECTOR('',#171,1.);
#171 = DIRECTION('',(-1.734723475977E-16,1.,0.));
#172 = ORIENTED_EDGE('',*,*,#102,.F.);
#173 = ORIENTED_EDGE('',*,*,#174,.F.);
#174 = EDGE_CURVE('',#175,#95,#177,.T.);
#175 = VERTEX_POINT('',#176);
#176 = CARTESIAN_POINT('',(0.999999985099,-0.999999985099,5.E-02));
#177 = LINE('',#178,#179);
#178 = CARTESIAN_POINT('',(0.999999985099,-0.999999985099,5.E-02));
#179 = VECTOR('',#180,1.);
#180 = DIRECTION('',(3.252606517457E-16,1.,0.));
#181 = ORIENTED_EDGE('',*,*,#182,.T.);
#182 = EDGE_CURVE('',#175,#183,#185,.T.);
#183 = VERTEX_POINT('',#184);
#184 = CARTESIAN_POINT('',(1.399999979138,-0.999999985099,5.E-02));
#185 = LINE('',#186,#187);
#186 = CARTESIAN_POINT('',(0.,-0.999999985099,5.E-02));
#187 = VECTOR('',#188,1.);
#188 = DIRECTION('',(1.,0.,0.));
#189 = ORIENTED_EDGE('',*,*,#190,.F.);
#190 = EDGE_CURVE('',#191,#183,#193,.T.);
#191 = VERTEX_POINT('',#192);
#192 = CARTESIAN_POINT('',(1.399999979138,-1.249999981374,5.E-02));
#193 = LINE('',#194,#195);
#194 = CARTESIAN_POINT('',(1.399999979138,1.249999981374,5.E-02));
#195 = VECTOR('',#196,1.);
#196 = DIRECTION('',(-1.734723475977E-16,1.,0.));
#197 = ORIENTED_EDGE('',*,*,#198,.F.);
#198 = EDGE_CURVE('',#199,#191,#201,.T.);
#199 = VERTEX_POINT('',#200);
#200 = CARTESIAN_POINT('',(-1.399999979138,-1.249999981374,5.E-02));
#201 = LINE('',#202,#203);
#202 = CARTESIAN_POINT('',(-1.399999979138,-1.249999981374,5.E-02));
#203 = VECTOR('',#204,1.);
#204 = DIRECTION('',(1.,0.,0.));
#205 = ORIENTED_EDGE('',*,*,#206,.F.);
#206 = EDGE_CURVE('',#207,#199,#209,.T.);
#207 = VERTEX_POINT('',#208);
#208 = CARTESIAN_POINT('',(-1.399999979138,-0.999999985099,5.E-02));
#209 = LINE('',#210,#211);
#210 = CARTESIAN_POINT('',(-1.399999979138,1.249999981374,5.E-02));
#211 = VECTOR('',#212,1.);
#212 = DIRECTION('',(1.734723475977E-16,-1.,0.));
#213 = ORIENTED_EDGE('',*,*,#214,.F.);
#214 = EDGE_CURVE('',#136,#207,#215,.T.);
#215 = LINE('',#216,#217);
#216 = CARTESIAN_POINT('',(-1.799999973178,-0.999999985099,5.E-02));
#217 = VECTOR('',#218,1.);
#218 = DIRECTION('',(-1.,2.710505431214E-16,0.));
#219 = PLANE('',#220);
#220 = AXIS2_PLACEMENT_3D('',#221,#222,#223);
#221 = CARTESIAN_POINT('',(9.10018886204E-17,3.640075544816E-17,5.E-02)
  );
#222 = DIRECTION('',(-0.,-0.,-1.));
#223 = DIRECTION('',(-1.,0.,0.));
#224 = ADVANCED_FACE('',(#225),#250,.F.);
#225 = FACE_BOUND('',#226,.T.);
#226 = EDGE_LOOP('',(#227,#228,#236,#244));
#227 = ORIENTED_EDGE('',*,*,#159,.T.);
#228 = ORIENTED_EDGE('',*,*,#229,.F.);
#229 = EDGE_CURVE('',#230,#152,#232,.T.);
#230 = VERTEX_POINT('',#231);
#231 = CARTESIAN_POINT('',(-1.399999979138,1.249999981374,2.199999967963
    ));
#232 = LINE('',#233,#234);
#233 = CARTESIAN_POINT('',(-1.399999979138,1.249999981374,2.199999967963
    ));
#234 = VECTOR('',#235,1.);
#235 = DIRECTION('',(-0.,-0.,-1.));
#236 = ORIENTED_EDGE('',*,*,#237,.F.);
#237 = EDGE_CURVE('',#238,#230,#240,.T.);
#238 = VERTEX_POINT('',#239);
#239 = CARTESIAN_POINT('',(1.399999979138,1.249999981374,2.199999967963)
  );
#240 = LINE('',#241,#242);
#241 = CARTESIAN_POINT('',(-1.399999979138,1.249999981374,2.199999967963
    ));
#242 = VECTOR('',#243,1.);
#243 = DIRECTION('',(-1.,-0.,-0.));
#244 = ORIENTED_EDGE('',*,*,#245,.T.);
#245 = EDGE_CURVE('',#238,#160,#246,.T.);
#246 = LINE('',#247,#248);
#247 = CARTESIAN_POINT('',(1.399999979138,1.249999981374,2.199999967963)
  );
#248 = VECTOR('',#249,1.);
#249 = DIRECTION('',(-0.,-0.,-1.));
#250 = PLANE('',#251);
#251 = AXIS2_PLACEMENT_3D('',#252,#253,#254);
#252 = CARTESIAN_POINT('',(-1.399999979138,1.249999981374,2.199999967963
    ));
#253 = DIRECTION('',(0.,-1.,0.));
#254 = DIRECTION('',(0.,0.,-1.));
#255 = ADVANCED_FACE('',(#256),#297,.F.);
#256 = FACE_BOUND('',#257,.T.);
#257 = EDGE_LOOP('',(#258,#266,#274,#280,#281,#289,#295,#296));
#258 = ORIENTED_EDGE('',*,*,#259,.T.);
#259 = EDGE_CURVE('',#144,#260,#262,.T.);
#260 = VERTEX_POINT('',#261);
#261 = CARTESIAN_POINT('',(-1.399999979138,0.999999985099,0.34999999553)
  );
#262 = LINE('',#263,#264);
#263 = CARTESIAN_POINT('',(-1.399999979138,0.999999985099,2.199999967963
    ));
#264 = VECTOR('',#265,1.);
#265 = DIRECTION('',(0.,0.,1.));
#266 = ORIENTED_EDGE('',*,*,#267,.T.);
#267 = EDGE_CURVE('',#260,#268,#270,.T.);
#268 = VERTEX_POINT('',#269);
#269 = CARTESIAN_POINT('',(-1.399999979138,-0.999999985099,0.34999999553
    ));
#270 = LINE('',#271,#272);
#271 = CARTESIAN_POINT('',(-1.399999979138,-0.999999985099,0.34999999553
    ));
#272 = VECTOR('',#273,1.);
#273 = DIRECTION('',(1.734723475977E-16,-1.,0.));
#274 = ORIENTED_EDGE('',*,*,#275,.T.);
#275 = EDGE_CURVE('',#268,#207,#276,.T.);
#276 = LINE('',#277,#278);
#277 = CARTESIAN_POINT('',(-1.399999979138,-0.999999985099,
    2.199999967963));
#278 = VECTOR('',#279,1.);
#279 = DIRECTION('',(0.,0.,-1.));
#280 = ORIENTED_EDGE('',*,*,#206,.T.);
#281 = ORIENTED_EDGE('',*,*,#282,.F.);
#282 = EDGE_CURVE('',#283,#199,#285,.T.);
#283 = VERTEX_POINT('',#284);
#284 = CARTESIAN_POINT('',(-1.399999979138,-1.249999981374,
    2.199999967963));
#285 = LINE('',#286,#287);
#286 = CARTESIAN_POINT('',(-1.399999979138,-1.249999981374,
    2.199999967963));
#287 = VECTOR('',#288,1.);
#288 = DIRECTION('',(-0.,-0.,-1.));
#289 = ORIENTED_EDGE('',*,*,#290,.F.);
#290 = EDGE_CURVE('',#230,#283,#291,.T.);
#291 = LINE('',#292,#293);
#292 = CARTESIAN_POINT('',(-1.399999979138,1.249999981374,2.199999967963
    ));
#293 = VECTOR('',#294,1.);
#294 = DIRECTION('',(1.734723475977E-16,-1.,0.));
#295 = ORIENTED_EDGE('',*,*,#229,.T.);
#296 = ORIENTED_EDGE('',*,*,#151,.T.);
#297 = PLANE('',#298);
#298 = AXIS2_PLACEMENT_3D('',#299,#300,#301);
#299 = CARTESIAN_POINT('',(-1.399999979138,1.249999981374,2.199999967963
    ));
#300 = DIRECTION('',(1.,1.734723475977E-16,0.));
#301 = DIRECTION('',(-1.734723475977E-16,1.,0.));
#302 = ADVANCED_FACE('',(#303),#321,.F.);
#303 = FACE_BOUND('',#304,.T.);
#304 = EDGE_LOOP('',(#305,#306,#314,#320));
#305 = ORIENTED_EDGE('',*,*,#198,.T.);
#306 = ORIENTED_EDGE('',*,*,#307,.F.);
#307 = EDGE_CURVE('',#308,#191,#310,.T.);
#308 = VERTEX_POINT('',#309);
#309 = CARTESIAN_POINT('',(1.399999979138,-1.249999981374,2.199999967963
    ));
#310 = LINE('',#311,#312);
#311 = CARTESIAN_POINT('',(1.399999979138,-1.249999981374,2.199999967963
    ));
#312 = VECTOR('',#313,1.);
#313 = DIRECTION('',(-0.,-0.,-1.));
#314 = ORIENTED_EDGE('',*,*,#315,.F.);
#315 = EDGE_CURVE('',#283,#308,#316,.T.);
#316 = LINE('',#317,#318);
#317 = CARTESIAN_POINT('',(-1.399999979138,-1.249999981374,
    2.199999967963));
#318 = VECTOR('',#319,1.);
#319 = DIRECTION('',(1.,0.,0.));
#320 = ORIENTED_EDGE('',*,*,#282,.T.);
#321 = PLANE('',#322);
#322 = AXIS2_PLACEMENT_3D('',#323,#324,#325);
#323 = CARTESIAN_POINT('',(-1.399999979138,-1.249999981374,
    2.199999967963));
#324 = DIRECTION('',(0.,1.,0.));
#325 = DIRECTION('',(0.,0.,1.));
#326 = ADVANCED_FACE('',(#327),#338,.T.);
#327 = FACE_BOUND('',#328,.T.);
#328 = EDGE_LOOP('',(#329,#335,#336,#337));
#329 = ORIENTED_EDGE('',*,*,#330,.T.);
#330 = EDGE_CURVE('',#308,#238,#331,.T.);
#331 = LINE('',#332,#333);
#332 = CARTESIAN_POINT('',(1.399999979138,1.249999981374,2.199999967963)
  );
#333 = VECTOR('',#334,1.);
#334 = DIRECTION('',(-1.734723475977E-16,1.,0.));
#335 = ORIENTED_EDGE('',*,*,#237,.T.);
#336 = ORIENTED_EDGE('',*,*,#290,.T.);
#337 = ORIENTED_EDGE('',*,*,#315,.T.);
#338 = PLANE('',#339);
#339 = AXIS2_PLACEMENT_3D('',#340,#341,#342);
#340 = CARTESIAN_POINT('',(0.,0.,2.199999967963));
#341 = DIRECTION('',(0.,0.,1.));
#342 = DIRECTION('',(1.,0.,0.));
#343 = ADVANCED_FACE('',(#344),#369,.F.);
#344 = FACE_BOUND('',#345,.T.);
#345 = EDGE_LOOP('',(#346,#347,#353,#354,#363));
#346 = ORIENTED_EDGE('',*,*,#182,.F.);
#347 = ORIENTED_EDGE('',*,*,#348,.F.);
#348 = EDGE_CURVE('',#56,#175,#349,.T.);
#349 = LINE('',#350,#351);
#350 = CARTESIAN_POINT('',(0.999999985099,-0.999999985099,0.14999999851)
  );
#351 = VECTOR('',#352,1.);
#352 = DIRECTION('',(-0.,-0.,-1.));
#353 = ORIENTED_EDGE('',*,*,#55,.F.);
#354 = ORIENTED_EDGE('',*,*,#355,.T.);
#355 = EDGE_CURVE('',#48,#356,#358,.T.);
#356 = VERTEX_POINT('',#357);
#357 = CARTESIAN_POINT('',(1.399999979138,-0.999999985099,0.34999999553)
  );
#358 = CIRCLE('',#359,0.19999999702);
#359 = AXIS2_PLACEMENT_3D('',#360,#361,#362);
#360 = CARTESIAN_POINT('',(1.199999982119,-0.999999985099,0.34999999553)
  );
#361 = DIRECTION('',(0.,-1.,0.));
#362 = DIRECTION('',(0.,0.,-1.));
#363 = ORIENTED_EDGE('',*,*,#364,.F.);
#364 = EDGE_CURVE('',#183,#356,#365,.T.);
#365 = LINE('',#366,#367);
#366 = CARTESIAN_POINT('',(1.399999979138,-0.999999985099,2.199999967963
    ));
#367 = VECTOR('',#368,1.);
#368 = DIRECTION('',(0.,0.,1.));
#369 = PLANE('',#370);
#370 = AXIS2_PLACEMENT_3D('',#371,#372,#373);
#371 = CARTESIAN_POINT('',(1.799999973178,-0.999999985099,0.14999999851)
  );
#372 = DIRECTION('',(0.,-1.,0.));
#373 = DIRECTION('',(0.,0.,-1.));
#374 = ADVANCED_FACE('',(#375),#381,.F.);
#375 = FACE_BOUND('',#376,.T.);
#376 = EDGE_LOOP('',(#377,#378,#379,#380));
#377 = ORIENTED_EDGE('',*,*,#174,.T.);
#378 = ORIENTED_EDGE('',*,*,#94,.F.);
#379 = ORIENTED_EDGE('',*,*,#63,.F.);
#380 = ORIENTED_EDGE('',*,*,#348,.T.);
#381 = PLANE('',#382);
#382 = AXIS2_PLACEMENT_3D('',#383,#384,#385);
#383 = CARTESIAN_POINT('',(0.999999985099,-0.999999985099,0.14999999851)
  );
#384 = DIRECTION('',(-1.,3.252606517457E-16,0.));
#385 = DIRECTION('',(-3.252606517457E-16,-1.,0.));
#386 = ADVANCED_FACE('',(#387),#414,.F.);
#387 = FACE_BOUND('',#388,.T.);
#388 = EDGE_LOOP('',(#389,#390,#398,#406,#413));
#389 = ORIENTED_EDGE('',*,*,#143,.F.);
#390 = ORIENTED_EDGE('',*,*,#391,.F.);
#391 = EDGE_CURVE('',#392,#134,#394,.T.);
#392 = VERTEX_POINT('',#393);
#393 = CARTESIAN_POINT('',(-0.999999985099,0.999999985099,0.14999999851)
  );
#394 = LINE('',#395,#396);
#395 = CARTESIAN_POINT('',(-0.999999985099,0.999999985099,0.14999999851)
  );
#396 = VECTOR('',#397,1.);
#397 = DIRECTION('',(-0.,-0.,-1.));
#398 = ORIENTED_EDGE('',*,*,#399,.F.);
#399 = EDGE_CURVE('',#400,#392,#402,.T.);
#400 = VERTEX_POINT('',#401);
#401 = CARTESIAN_POINT('',(-1.199999982119,0.999999985099,0.14999999851)
  );
#402 = LINE('',#403,#404);
#403 = CARTESIAN_POINT('',(-1.799999973178,0.999999985099,0.14999999851)
  );
#404 = VECTOR('',#405,1.);
#405 = DIRECTION('',(1.,-5.421010862428E-16,0.));
#406 = ORIENTED_EDGE('',*,*,#407,.T.);
#407 = EDGE_CURVE('',#400,#260,#408,.T.);
#408 = CIRCLE('',#409,0.19999999702);
#409 = AXIS2_PLACEMENT_3D('',#410,#411,#412);
#410 = CARTESIAN_POINT('',(-1.199999982119,0.999999985099,0.34999999553)
  );
#411 = DIRECTION('',(5.421010862428E-16,1.,-0.));
#412 = DIRECTION('',(-1.,5.421010862428E-16,0.));
#413 = ORIENTED_EDGE('',*,*,#259,.F.);
#414 = PLANE('',#415);
#415 = AXIS2_PLACEMENT_3D('',#416,#417,#418);
#416 = CARTESIAN_POINT('',(-1.799999973178,0.999999985099,0.14999999851)
  );
#417 = DIRECTION('',(5.421010862428E-16,1.,0.));
#418 = DIRECTION('',(-1.,5.421010862428E-16,0.));
#419 = ADVANCED_FACE('',(#420),#477,.T.);
#420 = FACE_BOUND('',#421,.T.);
#421 = EDGE_LOOP('',(#422,#432,#440,#446,#447,#455,#463,#471));
#422 = ORIENTED_EDGE('',*,*,#423,.F.);
#423 = EDGE_CURVE('',#424,#426,#428,.T.);
#424 = VERTEX_POINT('',#425);
#425 = CARTESIAN_POINT('',(-1.049999984354,0.949999985844,0.14999999851)
  );
#426 = VERTEX_POINT('',#427);
#427 = CARTESIAN_POINT('',(-1.049999984354,-0.949999985844,0.14999999851
    ));
#428 = LINE('',#429,#430);
#429 = CARTESIAN_POINT('',(-1.049999984354,0.949999985844,0.14999999851)
  );
#430 = VECTOR('',#431,1.);
#431 = DIRECTION('',(-0.,-1.,-0.));
#432 = ORIENTED_EDGE('',*,*,#433,.F.);
#433 = EDGE_CURVE('',#434,#424,#436,.T.);
#434 = VERTEX_POINT('',#435);
#435 = CARTESIAN_POINT('',(-1.199999982119,0.949999985844,0.14999999851)
  );
#436 = LINE('',#437,#438);
#437 = CARTESIAN_POINT('',(-1.275372579062,0.949999985844,0.14999999851)
  );
#438 = VECTOR('',#439,1.);
#439 = DIRECTION('',(1.,0.,-6.614726013542E-16));
#440 = ORIENTED_EDGE('',*,*,#441,.T.);
#441 = EDGE_CURVE('',#434,#400,#442,.T.);
#442 = LINE('',#443,#444);
#443 = CARTESIAN_POINT('',(-1.199999982119,0.999999985099,0.14999999851)
  );
#444 = VECTOR('',#445,1.);
#445 = DIRECTION('',(-1.734723475977E-16,1.,0.));
#446 = ORIENTED_EDGE('',*,*,#399,.T.);
#447 = ORIENTED_EDGE('',*,*,#448,.T.);
#448 = EDGE_CURVE('',#392,#449,#451,.T.);
#449 = VERTEX_POINT('',#450);
#450 = CARTESIAN_POINT('',(-0.999999985099,-0.999999985099,0.14999999851
    ));
#451 = LINE('',#452,#453);
#452 = CARTESIAN_POINT('',(-0.999999985099,-0.999999985099,0.14999999851
    ));
#453 = VECTOR('',#454,1.);
#454 = DIRECTION('',(-1.084202172486E-16,-1.,-0.));
#455 = ORIENTED_EDGE('',*,*,#456,.T.);
#456 = EDGE_CURVE('',#449,#457,#459,.T.);
#457 = VERTEX_POINT('',#458);
#458 = CARTESIAN_POINT('',(-1.199999982119,-0.999999985099,0.14999999851
    ));
#459 = LINE('',#460,#461);
#460 = CARTESIAN_POINT('',(-1.799999973178,-0.999999985099,0.14999999851
    ));
#461 = VECTOR('',#462,1.);
#462 = DIRECTION('',(-1.,2.710505431214E-16,0.));
#463 = ORIENTED_EDGE('',*,*,#464,.T.);
#464 = EDGE_CURVE('',#457,#465,#467,.T.);
#465 = VERTEX_POINT('',#466);
#466 = CARTESIAN_POINT('',(-1.199999982119,-0.949999985844,0.14999999851
    ));
#467 = LINE('',#468,#469);
#468 = CARTESIAN_POINT('',(-1.199999982119,0.999999985099,0.14999999851)
  );
#469 = VECTOR('',#470,1.);
#470 = DIRECTION('',(-1.734723475977E-16,1.,0.));
#471 = ORIENTED_EDGE('',*,*,#472,.T.);
#472 = EDGE_CURVE('',#465,#426,#473,.T.);
#473 = LINE('',#474,#475);
#474 = CARTESIAN_POINT('',(-1.275372579062,-0.949999985844,0.14999999851
    ));
#475 = VECTOR('',#476,1.);
#476 = DIRECTION('',(1.,0.,-6.614726013542E-16));
#477 = PLANE('',#478);
#478 = AXIS2_PLACEMENT_3D('',#479,#480,#481);
#479 = CARTESIAN_POINT('',(0.,0.,0.14999999851));
#480 = DIRECTION('',(0.,0.,-1.));
#481 = DIRECTION('',(-1.,0.,0.));
#482 = ADVANCED_FACE('',(#483),#501,.F.);
#483 = FACE_BOUND('',#484,.T.);
#484 = EDGE_LOOP('',(#485,#486,#492,#493,#494));
#485 = ORIENTED_EDGE('',*,*,#456,.F.);
#486 = ORIENTED_EDGE('',*,*,#487,.T.);
#487 = EDGE_CURVE('',#449,#136,#488,.T.);
#488 = LINE('',#489,#490);
#489 = CARTESIAN_POINT('',(-0.999999985099,-0.999999985099,0.14999999851
    ));
#490 = VECTOR('',#491,1.);
#491 = DIRECTION('',(-0.,-0.,-1.));
#492 = ORIENTED_EDGE('',*,*,#214,.T.);
#493 = ORIENTED_EDGE('',*,*,#275,.F.);
#494 = ORIENTED_EDGE('',*,*,#495,.T.);
#495 = EDGE_CURVE('',#268,#457,#496,.T.);
#496 = CIRCLE('',#497,0.19999999702);
#497 = AXIS2_PLACEMENT_3D('',#498,#499,#500);
#498 = CARTESIAN_POINT('',(-1.199999982119,-0.999999985099,0.34999999553
    ));
#499 = DIRECTION('',(-2.710505431214E-16,-1.,0.));
#500 = DIRECTION('',(1.,-2.710505431214E-16,0.));
#501 = PLANE('',#502);
#502 = AXIS2_PLACEMENT_3D('',#503,#504,#505);
#503 = CARTESIAN_POINT('',(-1.799999973178,-0.999999985099,0.14999999851
    ));
#504 = DIRECTION('',(-2.710505431214E-16,-1.,0.));
#505 = DIRECTION('',(1.,-2.710505431214E-16,0.));
#506 = ADVANCED_FACE('',(#507),#513,.F.);
#507 = FACE_BOUND('',#508,.T.);
#508 = EDGE_LOOP('',(#509,#510,#511,#512));
#509 = ORIENTED_EDGE('',*,*,#133,.T.);
#510 = ORIENTED_EDGE('',*,*,#487,.F.);
#511 = ORIENTED_EDGE('',*,*,#448,.F.);
#512 = ORIENTED_EDGE('',*,*,#391,.T.);
#513 = PLANE('',#514);
#514 = AXIS2_PLACEMENT_3D('',#515,#516,#517);
#515 = CARTESIAN_POINT('',(-0.999999985099,-0.999999985099,0.14999999851
    ));
#516 = DIRECTION('',(1.,-1.084202172486E-16,0.));
#517 = DIRECTION('',(1.084202172486E-16,1.,0.));
#518 = ADVANCED_FACE('',(#519),#537,.T.);
#519 = FACE_BOUND('',#520,.T.);
#520 = EDGE_LOOP('',(#521,#522,#523,#529,#530,#531));
#521 = ORIENTED_EDGE('',*,*,#355,.F.);
#522 = ORIENTED_EDGE('',*,*,#47,.F.);
#523 = ORIENTED_EDGE('',*,*,#524,.F.);
#524 = EDGE_CURVE('',#22,#40,#525,.T.);
#525 = LINE('',#526,#527);
#526 = CARTESIAN_POINT('',(1.199999982119,2.081668140153E-16,
    0.14999999851));
#527 = VECTOR('',#528,1.);
#528 = DIRECTION('',(1.734723475977E-16,-1.,0.));
#529 = ORIENTED_EDGE('',*,*,#79,.F.);
#530 = ORIENTED_EDGE('',*,*,#118,.F.);
#531 = ORIENTED_EDGE('',*,*,#532,.F.);
#532 = EDGE_CURVE('',#356,#111,#533,.T.);
#533 = LINE('',#534,#535);
#534 = CARTESIAN_POINT('',(1.399999979138,1.249999981374,0.34999999553)
  );
#535 = VECTOR('',#536,1.);
#536 = DIRECTION('',(-1.734723475977E-16,1.,0.));
#537 = CYLINDRICAL_SURFACE('',#538,0.19999999702);
#538 = AXIS2_PLACEMENT_3D('',#539,#540,#541);
#539 = CARTESIAN_POINT('',(1.199999982119,1.249999981374,0.34999999553)
  );
#540 = DIRECTION('',(-1.734723475977E-16,1.,0.));
#541 = DIRECTION('',(-1.,-1.734723475977E-16,-0.));
#542 = ADVANCED_FACE('',(#543),#556,.T.);
#543 = FACE_BOUND('',#544,.T.);
#544 = EDGE_LOOP('',(#545,#546,#547,#548,#549,#555));
#545 = ORIENTED_EDGE('',*,*,#495,.F.);
#546 = ORIENTED_EDGE('',*,*,#267,.F.);
#547 = ORIENTED_EDGE('',*,*,#407,.F.);
#548 = ORIENTED_EDGE('',*,*,#441,.F.);
#549 = ORIENTED_EDGE('',*,*,#550,.F.);
#550 = EDGE_CURVE('',#465,#434,#551,.T.);
#551 = LINE('',#552,#553);
#552 = CARTESIAN_POINT('',(-1.199999982119,0.999999985099,0.14999999851)
  );
#553 = VECTOR('',#554,1.);
#554 = DIRECTION('',(-1.734723475977E-16,1.,0.));
#555 = ORIENTED_EDGE('',*,*,#464,.F.);
#556 = CYLINDRICAL_SURFACE('',#557,0.19999999702);
#557 = AXIS2_PLACEMENT_3D('',#558,#559,#560);
#558 = CARTESIAN_POINT('',(-1.199999982119,-2.081668140153E-16,
    0.34999999553));
#559 = DIRECTION('',(1.734723475977E-16,-1.,0.));
#560 = DIRECTION('',(1.,1.734723475977E-16,0.));
#561 = ADVANCED_FACE('',(#562),#587,.F.);
#562 = FACE_BOUND('',#563,.T.);
#563 = EDGE_LOOP('',(#564,#572,#573,#581));
#564 = ORIENTED_EDGE('',*,*,#565,.T.);
#565 = EDGE_CURVE('',#566,#465,#568,.T.);
#566 = VERTEX_POINT('',#567);
#567 = CARTESIAN_POINT('',(-1.275372579062,-0.949999985844,0.14999999851
    ));
#568 = LINE('',#569,#570);
#569 = CARTESIAN_POINT('',(-1.275372579062,-0.949999985844,0.14999999851
    ));
#570 = VECTOR('',#571,1.);
#571 = DIRECTION('',(1.,0.,-6.614726013542E-16));
#572 = ORIENTED_EDGE('',*,*,#550,.T.);
#573 = ORIENTED_EDGE('',*,*,#574,.F.);
#574 = EDGE_CURVE('',#575,#434,#577,.T.);
#575 = VERTEX_POINT('',#576);
#576 = CARTESIAN_POINT('',(-1.275372579062,0.949999985844,0.14999999851)
  );
#577 = LINE('',#578,#579);
#578 = CARTESIAN_POINT('',(-1.275372579062,0.949999985844,0.14999999851)
  );
#579 = VECTOR('',#580,1.);
#580 = DIRECTION('',(1.,0.,-6.614726013542E-16));
#581 = ORIENTED_EDGE('',*,*,#582,.T.);
#582 = EDGE_CURVE('',#575,#566,#583,.T.);
#583 = LINE('',#584,#585);
#584 = CARTESIAN_POINT('',(-1.275372579062,0.949999985844,0.14999999851)
  );
#585 = VECTOR('',#586,1.);
#586 = DIRECTION('',(-0.,-1.,-0.));
#587 = PLANE('',#588);
#588 = AXIS2_PLACEMENT_3D('',#589,#590,#591);
#589 = CARTESIAN_POINT('',(-1.275372579062,0.949999985844,0.14999999851)
  );
#590 = DIRECTION('',(-6.614726013542E-16,0.,-1.));
#591 = DIRECTION('',(-1.,0.,6.614726013542E-16));
#592 = ADVANCED_FACE('',(#593),#618,.F.);
#593 = FACE_BOUND('',#594,.T.);
#594 = EDGE_LOOP('',(#595,#603,#611,#617));
#595 = ORIENTED_EDGE('',*,*,#596,.T.);
#596 = EDGE_CURVE('',#426,#597,#599,.T.);
#597 = VERTEX_POINT('',#598);
#598 = CARTESIAN_POINT('',(-1.049999984354,-0.949999985844,
    7.450580985502E-10));
#599 = LINE('',#600,#601);
#600 = CARTESIAN_POINT('',(-1.049999984354,-0.949999985844,0.14999999851
    ));
#601 = VECTOR('',#602,1.);
#602 = DIRECTION('',(0.,0.,-1.));
#603 = ORIENTED_EDGE('',*,*,#604,.F.);
#604 = EDGE_CURVE('',#605,#597,#607,.T.);
#605 = VERTEX_POINT('',#606);
#606 = CARTESIAN_POINT('',(-1.049999984354,0.949999985844,
    7.450580985502E-10));
#607 = LINE('',#608,#609);
#608 = CARTESIAN_POINT('',(-1.049999984354,0.949999985844,
    7.450580985502E-10));
#609 = VECTOR('',#610,1.);
#610 = DIRECTION('',(-0.,-1.,-0.));
#611 = ORIENTED_EDGE('',*,*,#612,.F.);
#612 = EDGE_CURVE('',#424,#605,#613,.T.);
#613 = LINE('',#614,#615);
#614 = CARTESIAN_POINT('',(-1.049999984354,0.949999985844,0.14999999851)
  );
#615 = VECTOR('',#616,1.);
#616 = DIRECTION('',(0.,0.,-1.));
#617 = ORIENTED_EDGE('',*,*,#423,.T.);
#618 = PLANE('',#619);
#619 = AXIS2_PLACEMENT_3D('',#620,#621,#622);
#620 = CARTESIAN_POINT('',(-1.049999984354,0.949999985844,0.14999999851)
  );
#621 = DIRECTION('',(-1.,0.,0.));
#622 = DIRECTION('',(0.,0.,1.));
#623 = ADVANCED_FACE('',(#624),#649,.F.);
#624 = FACE_BOUND('',#625,.T.);
#625 = EDGE_LOOP('',(#626,#634,#642,#648));
#626 = ORIENTED_EDGE('',*,*,#627,.T.);
#627 = EDGE_CURVE('',#597,#628,#630,.T.);
#628 = VERTEX_POINT('',#629);
#629 = CARTESIAN_POINT('',(-1.275372579062,-0.949999985844,
    7.45058244267E-10));
#630 = LINE('',#631,#632);
#631 = CARTESIAN_POINT('',(-1.275372579062,-0.949999985844,
    7.45058244267E-10));
#632 = VECTOR('',#633,1.);
#633 = DIRECTION('',(-1.,0.,6.614726013542E-16));
#634 = ORIENTED_EDGE('',*,*,#635,.F.);
#635 = EDGE_CURVE('',#636,#628,#638,.T.);
#636 = VERTEX_POINT('',#637);
#637 = CARTESIAN_POINT('',(-1.275372579062,0.949999985844,
    7.45058244267E-10));
#638 = LINE('',#639,#640);
#639 = CARTESIAN_POINT('',(-1.275372579062,0.949999985844,
    7.45058244267E-10));
#640 = VECTOR('',#641,1.);
#641 = DIRECTION('',(-0.,-1.,-0.));
#642 = ORIENTED_EDGE('',*,*,#643,.F.);
#643 = EDGE_CURVE('',#605,#636,#644,.T.);
#644 = LINE('',#645,#646);
#645 = CARTESIAN_POINT('',(-1.275372579062,0.949999985844,
    7.45058244267E-10));
#646 = VECTOR('',#647,1.);
#647 = DIRECTION('',(-1.,0.,6.614726013542E-16));
#648 = ORIENTED_EDGE('',*,*,#604,.T.);
#649 = PLANE('',#650);
#650 = AXIS2_PLACEMENT_3D('',#651,#652,#653);
#651 = CARTESIAN_POINT('',(-1.275372579062,0.949999985844,
    7.45058244267E-10));
#652 = DIRECTION('',(6.614726013542E-16,0.,1.));
#653 = DIRECTION('',(1.,0.,-6.614726013542E-16));
#654 = ADVANCED_FACE('',(#655),#682,.T.);
#655 = FACE_BOUND('',#656,.T.);
#656 = EDGE_LOOP('',(#657,#666,#674,#681));
#657 = ORIENTED_EDGE('',*,*,#658,.T.);
#658 = EDGE_CURVE('',#628,#659,#661,.T.);
#659 = VERTEX_POINT('',#660);
#660 = CARTESIAN_POINT('',(-1.5751898227,-0.949999985844,0.28953014742)
  );
#661 = CIRCLE('',#662,0.29999999553);
#662 = AXIS2_PLACEMENT_3D('',#663,#664,#665);
#663 = CARTESIAN_POINT('',(-1.275372579062,-0.949999985844,
    0.299999996275));
#664 = DIRECTION('',(0.,1.,0.));
#665 = DIRECTION('',(0.,0.,-1.));
#666 = ORIENTED_EDGE('',*,*,#667,.F.);
#667 = EDGE_CURVE('',#668,#659,#670,.T.);
#668 = VERTEX_POINT('',#669);
#669 = CARTESIAN_POINT('',(-1.5751898227,0.949999985844,0.28953014742));
#670 = LINE('',#671,#672);
#671 = CARTESIAN_POINT('',(-1.5751898227,0.949999985844,0.28953014742));
#672 = VECTOR('',#673,1.);
#673 = DIRECTION('',(-0.,-1.,-0.));
#674 = ORIENTED_EDGE('',*,*,#675,.F.);
#675 = EDGE_CURVE('',#636,#668,#676,.T.);
#676 = CIRCLE('',#677,0.29999999553);
#677 = AXIS2_PLACEMENT_3D('',#678,#679,#680);
#678 = CARTESIAN_POINT('',(-1.275372579062,0.949999985844,0.299999996275
    ));
#679 = DIRECTION('',(0.,1.,0.));
#680 = DIRECTION('',(0.,0.,-1.));
#681 = ORIENTED_EDGE('',*,*,#635,.T.);
#682 = CYLINDRICAL_SURFACE('',#683,0.29999999553);
#683 = AXIS2_PLACEMENT_3D('',#684,#685,#686);
#684 = CARTESIAN_POINT('',(-1.275372579062,0.949999985844,0.299999996275
    ));
#685 = DIRECTION('',(-0.,-1.,-0.));
#686 = DIRECTION('',(0.,0.,-1.));
#687 = ADVANCED_FACE('',(#688),#713,.F.);
#688 = FACE_BOUND('',#689,.T.);
#689 = EDGE_LOOP('',(#690,#698,#706,#712));
#690 = ORIENTED_EDGE('',*,*,#691,.T.);
#691 = EDGE_CURVE('',#659,#692,#694,.T.);
#692 = VERTEX_POINT('',#693);
#693 = CARTESIAN_POINT('',(-1.599999976158,-0.949999985844,
    0.999999985844));
#694 = LINE('',#695,#696);
#695 = CARTESIAN_POINT('',(-1.599999976158,-0.949999985844,
    0.999999985844));
#696 = VECTOR('',#697,1.);
#697 = DIRECTION('',(-3.48994967025E-02,0.,0.999390827019));
#698 = ORIENTED_EDGE('',*,*,#699,.F.);
#699 = EDGE_CURVE('',#700,#692,#702,.T.);
#700 = VERTEX_POINT('',#701);
#701 = CARTESIAN_POINT('',(-1.599999976158,0.949999985844,0.999999985844
    ));
#702 = LINE('',#703,#704);
#703 = CARTESIAN_POINT('',(-1.599999976158,0.949999985844,0.999999985844
    ));
#704 = VECTOR('',#705,1.);
#705 = DIRECTION('',(-0.,-1.,-0.));
#706 = ORIENTED_EDGE('',*,*,#707,.F.);
#707 = EDGE_CURVE('',#668,#700,#708,.T.);
#708 = LINE('',#709,#710);
#709 = CARTESIAN_POINT('',(-1.599999976158,0.949999985844,0.999999985844
    ));
#710 = VECTOR('',#711,1.);
#711 = DIRECTION('',(-3.48994967025E-02,0.,0.999390827019));
#712 = ORIENTED_EDGE('',*,*,#667,.T.);
#713 = PLANE('',#714);
#714 = AXIS2_PLACEMENT_3D('',#715,#716,#717);
#715 = CARTESIAN_POINT('',(-1.599999976158,0.949999985844,0.999999985844
    ));
#716 = DIRECTION('',(0.999390827019,0.,3.48994967025E-02));
#717 = DIRECTION('',(3.48994967025E-02,0.,-0.999390827019));
#718 = ADVANCED_FACE('',(#719),#744,.F.);
#719 = FACE_BOUND('',#720,.T.);
#720 = EDGE_LOOP('',(#721,#729,#737,#743));
#721 = ORIENTED_EDGE('',*,*,#722,.T.);
#722 = EDGE_CURVE('',#692,#723,#725,.T.);
#723 = VERTEX_POINT('',#724);
#724 = CARTESIAN_POINT('',(-1.44990854675,-0.949999985844,0.999999985844
    ));
#725 = LINE('',#726,#727);
#726 = CARTESIAN_POINT('',(-1.44990854675,-0.949999985844,0.999999985844
    ));
#727 = VECTOR('',#728,1.);
#728 = DIRECTION('',(1.,0.,0.));
#729 = ORIENTED_EDGE('',*,*,#730,.F.);
#730 = EDGE_CURVE('',#731,#723,#733,.T.);
#731 = VERTEX_POINT('',#732);
#732 = CARTESIAN_POINT('',(-1.44990854675,0.949999985844,0.999999985844)
  );
#733 = LINE('',#734,#735);
#734 = CARTESIAN_POINT('',(-1.44990854675,0.949999985844,0.999999985844)
  );
#735 = VECTOR('',#736,1.);
#736 = DIRECTION('',(-0.,-1.,-0.));
#737 = ORIENTED_EDGE('',*,*,#738,.F.);
#738 = EDGE_CURVE('',#700,#731,#739,.T.);
#739 = LINE('',#740,#741);
#740 = CARTESIAN_POINT('',(-1.44990854675,0.949999985844,0.999999985844)
  );
#741 = VECTOR('',#742,1.);
#742 = DIRECTION('',(1.,0.,0.));
#743 = ORIENTED_EDGE('',*,*,#699,.T.);
#744 = PLANE('',#745);
#745 = AXIS2_PLACEMENT_3D('',#746,#747,#748);
#746 = CARTESIAN_POINT('',(-1.44990854675,0.949999985844,0.999999985844)
  );
#747 = DIRECTION('',(0.,0.,-1.));
#748 = DIRECTION('',(-1.,0.,0.));
#749 = ADVANCED_FACE('',(#750),#775,.F.);
#750 = FACE_BOUND('',#751,.T.);
#751 = EDGE_LOOP('',(#752,#760,#768,#774));
#752 = ORIENTED_EDGE('',*,*,#753,.T.);
#753 = EDGE_CURVE('',#723,#754,#756,.T.);
#754 = VERTEX_POINT('',#755);
#755 = CARTESIAN_POINT('',(-1.425281200881,-0.949999985844,
    0.294765071847));
#756 = LINE('',#757,#758);
#757 = CARTESIAN_POINT('',(-1.44990854675,-0.949999985844,0.999999985844
    ));
#758 = VECTOR('',#759,1.);
#759 = DIRECTION('',(3.48994967025E-02,0.,-0.999390827019));
#760 = ORIENTED_EDGE('',*,*,#761,.F.);
#761 = EDGE_CURVE('',#762,#754,#764,.T.);
#762 = VERTEX_POINT('',#763);
#763 = CARTESIAN_POINT('',(-1.425281200881,0.949999985844,0.294765071847
    ));
#764 = LINE('',#765,#766);
#765 = CARTESIAN_POINT('',(-1.425281200881,0.949999985844,0.294765071847
    ));
#766 = VECTOR('',#767,1.);
#767 = DIRECTION('',(-0.,-1.,-0.));
#768 = ORIENTED_EDGE('',*,*,#769,.F.);
#769 = EDGE_CURVE('',#731,#762,#770,.T.);
#770 = LINE('',#771,#772);
#771 = CARTESIAN_POINT('',(-1.44990854675,0.949999985844,0.999999985844)
  );
#772 = VECTOR('',#773,1.);
#773 = DIRECTION('',(3.48994967025E-02,0.,-0.999390827019));
#774 = ORIENTED_EDGE('',*,*,#730,.T.);
#775 = PLANE('',#776);
#776 = AXIS2_PLACEMENT_3D('',#777,#778,#779);
#777 = CARTESIAN_POINT('',(-1.44990854675,0.949999985844,0.999999985844)
  );
#778 = DIRECTION('',(-0.999390827019,0.,-3.48994967025E-02));
#779 = DIRECTION('',(-3.48994967025E-02,0.,0.999390827019));
#780 = ADVANCED_FACE('',(#781),#799,.F.);
#781 = FACE_BOUND('',#782,.F.);
#782 = EDGE_LOOP('',(#783,#784,#791,#792));
#783 = ORIENTED_EDGE('',*,*,#761,.F.);
#784 = ORIENTED_EDGE('',*,*,#785,.T.);
#785 = EDGE_CURVE('',#762,#575,#786,.T.);
#786 = CIRCLE('',#787,0.149999997765);
#787 = AXIS2_PLACEMENT_3D('',#788,#789,#790);
#788 = CARTESIAN_POINT('',(-1.275372579062,0.949999985844,0.299999996275
    ));
#789 = DIRECTION('',(0.,-1.,0.));
#790 = DIRECTION('',(0.,0.,-1.));
#791 = ORIENTED_EDGE('',*,*,#582,.T.);
#792 = ORIENTED_EDGE('',*,*,#793,.F.);
#793 = EDGE_CURVE('',#754,#566,#794,.T.);
#794 = CIRCLE('',#795,0.149999997765);
#795 = AXIS2_PLACEMENT_3D('',#796,#797,#798);
#796 = CARTESIAN_POINT('',(-1.275372579062,-0.949999985844,
    0.299999996275));
#797 = DIRECTION('',(0.,-1.,0.));
#798 = DIRECTION('',(0.,0.,-1.));
#799 = CYLINDRICAL_SURFACE('',#800,0.149999997765);
#800 = AXIS2_PLACEMENT_3D('',#801,#802,#803);
#801 = CARTESIAN_POINT('',(-1.275372579062,0.949999985844,0.299999996275
    ));
#802 = DIRECTION('',(-0.,-1.,-0.));
#803 = DIRECTION('',(0.,0.,-1.));
#804 = ADVANCED_FACE('',(#805),#816,.F.);
#805 = FACE_BOUND('',#806,.T.);
#806 = EDGE_LOOP('',(#807,#808,#809,#810,#811,#812,#813,#814,#815));
#807 = ORIENTED_EDGE('',*,*,#612,.T.);
#808 = ORIENTED_EDGE('',*,*,#643,.T.);
#809 = ORIENTED_EDGE('',*,*,#675,.T.);
#810 = ORIENTED_EDGE('',*,*,#707,.T.);
#811 = ORIENTED_EDGE('',*,*,#738,.T.);
#812 = ORIENTED_EDGE('',*,*,#769,.T.);
#813 = ORIENTED_EDGE('',*,*,#785,.T.);
#814 = ORIENTED_EDGE('',*,*,#574,.T.);
#815 = ORIENTED_EDGE('',*,*,#433,.T.);
#816 = PLANE('',#817);
#817 = AXIS2_PLACEMENT_3D('',#818,#819,#820);
#818 = CARTESIAN_POINT('',(-1.275372579062,0.949999985844,0.299999996275
    ));
#819 = DIRECTION('',(0.,-1.,0.));
#820 = DIRECTION('',(0.,0.,-1.));
#821 = ADVANCED_FACE('',(#822),#833,.T.);
#822 = FACE_BOUND('',#823,.T.);
#823 = EDGE_LOOP('',(#824,#825,#826,#827,#828,#829,#830,#831,#832));
#824 = ORIENTED_EDGE('',*,*,#596,.F.);
#825 = ORIENTED_EDGE('',*,*,#472,.F.);
#826 = ORIENTED_EDGE('',*,*,#565,.F.);
#827 = ORIENTED_EDGE('',*,*,#793,.F.);
#828 = ORIENTED_EDGE('',*,*,#753,.F.);
#829 = ORIENTED_EDGE('',*,*,#722,.F.);
#830 = ORIENTED_EDGE('',*,*,#691,.F.);
#831 = ORIENTED_EDGE('',*,*,#658,.F.);
#832 = ORIENTED_EDGE('',*,*,#627,.F.);
#833 = PLANE('',#834);
#834 = AXIS2_PLACEMENT_3D('',#835,#836,#837);
#835 = CARTESIAN_POINT('',(-1.275372579062,-0.949999985844,
    0.299999996275));
#836 = DIRECTION('',(0.,-1.,0.));
#837 = DIRECTION('',(0.,0.,-1.));
#838 = ADVANCED_FACE('',(#839),#864,.T.);
#839 = FACE_BOUND('',#840,.T.);
#840 = EDGE_LOOP('',(#841,#849,#850,#858));
#841 = ORIENTED_EDGE('',*,*,#842,.F.);
#842 = EDGE_CURVE('',#32,#843,#845,.T.);
#843 = VERTEX_POINT('',#844);
#844 = CARTESIAN_POINT('',(1.049999984354,-0.949999985844,
    7.450580985502E-10));
#845 = LINE('',#846,#847);
#846 = CARTESIAN_POINT('',(1.049999984354,-0.949999985844,0.14999999851)
  );
#847 = VECTOR('',#848,1.);
#848 = DIRECTION('',(0.,0.,-1.));
#849 = ORIENTED_EDGE('',*,*,#31,.F.);
#850 = ORIENTED_EDGE('',*,*,#851,.T.);
#851 = EDGE_CURVE('',#24,#852,#854,.T.);
#852 = VERTEX_POINT('',#853);
#853 = CARTESIAN_POINT('',(1.049999984354,0.949999985844,
    7.450580985502E-10));
#854 = LINE('',#855,#856);
#855 = CARTESIAN_POINT('',(1.049999984354,0.949999985844,0.14999999851)
  );
#856 = VECTOR('',#857,1.);
#857 = DIRECTION('',(0.,0.,-1.));
#858 = ORIENTED_EDGE('',*,*,#859,.T.);
#859 = EDGE_CURVE('',#852,#843,#860,.T.);
#860 = LINE('',#861,#862);
#861 = CARTESIAN_POINT('',(1.049999984354,0.949999985844,
    7.450580985502E-10));
#862 = VECTOR('',#863,1.);
#863 = DIRECTION('',(-0.,-1.,-0.));
#864 = PLANE('',#865);
#865 = AXIS2_PLACEMENT_3D('',#866,#867,#868);
#866 = CARTESIAN_POINT('',(1.049999984354,0.949999985844,0.14999999851)
  );
#867 = DIRECTION('',(-1.,0.,0.));
#868 = DIRECTION('',(0.,0.,1.));
#869 = ADVANCED_FACE('',(#870),#895,.T.);
#870 = FACE_BOUND('',#871,.T.);
#871 = EDGE_LOOP('',(#872,#880,#881,#889));
#872 = ORIENTED_EDGE('',*,*,#873,.T.);
#873 = EDGE_CURVE('',#874,#22,#876,.T.);
#874 = VERTEX_POINT('',#875);
#875 = CARTESIAN_POINT('',(1.275372579062,0.949999985844,0.14999999851)
  );
#876 = LINE('',#877,#878);
#877 = CARTESIAN_POINT('',(1.275372579062,0.949999985844,0.14999999851)
  );
#878 = VECTOR('',#879,1.);
#879 = DIRECTION('',(-1.,0.,-6.614726013542E-16));
#880 = ORIENTED_EDGE('',*,*,#524,.T.);
#881 = ORIENTED_EDGE('',*,*,#882,.F.);
#882 = EDGE_CURVE('',#883,#40,#885,.T.);
#883 = VERTEX_POINT('',#884);
#884 = CARTESIAN_POINT('',(1.275372579062,-0.949999985844,0.14999999851)
  );
#885 = LINE('',#886,#887);
#886 = CARTESIAN_POINT('',(1.275372579062,-0.949999985844,0.14999999851)
  );
#887 = VECTOR('',#888,1.);
#888 = DIRECTION('',(-1.,0.,-6.614726013542E-16));
#889 = ORIENTED_EDGE('',*,*,#890,.F.);
#890 = EDGE_CURVE('',#874,#883,#891,.T.);
#891 = LINE('',#892,#893);
#892 = CARTESIAN_POINT('',(1.275372579062,0.949999985844,0.14999999851)
  );
#893 = VECTOR('',#894,1.);
#894 = DIRECTION('',(-0.,-1.,-0.));
#895 = PLANE('',#896);
#896 = AXIS2_PLACEMENT_3D('',#897,#898,#899);
#897 = CARTESIAN_POINT('',(1.275372579062,0.949999985844,0.14999999851)
  );
#898 = DIRECTION('',(-6.614726013542E-16,0.,1.));
#899 = DIRECTION('',(1.,0.,6.614726013542E-16));
#900 = ADVANCED_FACE('',(#901),#928,.F.);
#901 = FACE_BOUND('',#902,.F.);
#902 = EDGE_LOOP('',(#903,#904,#913,#921));
#903 = ORIENTED_EDGE('',*,*,#890,.F.);
#904 = ORIENTED_EDGE('',*,*,#905,.F.);
#905 = EDGE_CURVE('',#906,#874,#908,.T.);
#906 = VERTEX_POINT('',#907);
#907 = CARTESIAN_POINT('',(1.425281200881,0.949999985844,0.294765071847)
  );
#908 = CIRCLE('',#909,0.149999997765);
#909 = AXIS2_PLACEMENT_3D('',#910,#911,#912);
#910 = CARTESIAN_POINT('',(1.275372579062,0.949999985844,0.299999996275)
  );
#911 = DIRECTION('',(0.,1.,0.));
#912 = DIRECTION('',(0.,0.,-1.));
#913 = ORIENTED_EDGE('',*,*,#914,.T.);
#914 = EDGE_CURVE('',#906,#915,#917,.T.);
#915 = VERTEX_POINT('',#916);
#916 = CARTESIAN_POINT('',(1.425281200881,-0.949999985844,0.294765071847
    ));
#917 = LINE('',#918,#919);
#918 = CARTESIAN_POINT('',(1.425281200881,0.949999985844,0.294765071847)
  );
#919 = VECTOR('',#920,1.);
#920 = DIRECTION('',(-0.,-1.,-0.));
#921 = ORIENTED_EDGE('',*,*,#922,.T.);
#922 = EDGE_CURVE('',#915,#883,#923,.T.);
#923 = CIRCLE('',#924,0.149999997765);
#924 = AXIS2_PLACEMENT_3D('',#925,#926,#927);
#925 = CARTESIAN_POINT('',(1.275372579062,-0.949999985844,0.299999996275
    ));
#926 = DIRECTION('',(0.,1.,0.));
#927 = DIRECTION('',(0.,0.,-1.));
#928 = CYLINDRICAL_SURFACE('',#929,0.149999997765);
#929 = AXIS2_PLACEMENT_3D('',#930,#931,#932);
#930 = CARTESIAN_POINT('',(1.275372579062,0.949999985844,0.299999996275)
  );
#931 = DIRECTION('',(-0.,-1.,-0.));
#932 = DIRECTION('',(0.,0.,-1.));
#933 = ADVANCED_FACE('',(#934),#959,.T.);
#934 = FACE_BOUND('',#935,.T.);
#935 = EDGE_LOOP('',(#936,#944,#952,#958));
#936 = ORIENTED_EDGE('',*,*,#937,.F.);
#937 = EDGE_CURVE('',#938,#915,#940,.T.);
#938 = VERTEX_POINT('',#939);
#939 = CARTESIAN_POINT('',(1.44990854675,-0.949999985844,0.999999985844)
  );
#940 = LINE('',#941,#942);
#941 = CARTESIAN_POINT('',(1.44990854675,-0.949999985844,0.999999985844)
  );
#942 = VECTOR('',#943,1.);
#943 = DIRECTION('',(-3.48994967025E-02,0.,-0.999390827019));
#944 = ORIENTED_EDGE('',*,*,#945,.F.);
#945 = EDGE_CURVE('',#946,#938,#948,.T.);
#946 = VERTEX_POINT('',#947);
#947 = CARTESIAN_POINT('',(1.44990854675,0.949999985844,0.999999985844)
  );
#948 = LINE('',#949,#950);
#949 = CARTESIAN_POINT('',(1.44990854675,0.949999985844,0.999999985844)
  );
#950 = VECTOR('',#951,1.);
#951 = DIRECTION('',(-0.,-1.,-0.));
#952 = ORIENTED_EDGE('',*,*,#953,.T.);
#953 = EDGE_CURVE('',#946,#906,#954,.T.);
#954 = LINE('',#955,#956);
#955 = CARTESIAN_POINT('',(1.44990854675,0.949999985844,0.999999985844)
  );
#956 = VECTOR('',#957,1.);
#957 = DIRECTION('',(-3.48994967025E-02,0.,-0.999390827019));
#958 = ORIENTED_EDGE('',*,*,#914,.T.);
#959 = PLANE('',#960);
#960 = AXIS2_PLACEMENT_3D('',#961,#962,#963);
#961 = CARTESIAN_POINT('',(1.44990854675,0.949999985844,0.999999985844)
  );
#962 = DIRECTION('',(-0.999390827019,0.,3.48994967025E-02));
#963 = DIRECTION('',(3.48994967025E-02,0.,0.999390827019));
#964 = ADVANCED_FACE('',(#965),#990,.T.);
#965 = FACE_BOUND('',#966,.T.);
#966 = EDGE_LOOP('',(#967,#975,#983,#989));
#967 = ORIENTED_EDGE('',*,*,#968,.F.);
#968 = EDGE_CURVE('',#969,#938,#971,.T.);
#969 = VERTEX_POINT('',#970);
#970 = CARTESIAN_POINT('',(1.599999976158,-0.949999985844,0.999999985844
    ));
#971 = LINE('',#972,#973);
#972 = CARTESIAN_POINT('',(1.44990854675,-0.949999985844,0.999999985844)
  );
#973 = VECTOR('',#974,1.);
#974 = DIRECTION('',(-1.,0.,0.));
#975 = ORIENTED_EDGE('',*,*,#976,.F.);
#976 = EDGE_CURVE('',#977,#969,#979,.T.);
#977 = VERTEX_POINT('',#978);
#978 = CARTESIAN_POINT('',(1.599999976158,0.949999985844,0.999999985844)
  );
#979 = LINE('',#980,#981);
#980 = CARTESIAN_POINT('',(1.599999976158,0.949999985844,0.999999985844)
  );
#981 = VECTOR('',#982,1.);
#982 = DIRECTION('',(-0.,-1.,-0.));
#983 = ORIENTED_EDGE('',*,*,#984,.T.);
#984 = EDGE_CURVE('',#977,#946,#985,.T.);
#985 = LINE('',#986,#987);
#986 = CARTESIAN_POINT('',(1.44990854675,0.949999985844,0.999999985844)
  );
#987 = VECTOR('',#988,1.);
#988 = DIRECTION('',(-1.,0.,0.));
#989 = ORIENTED_EDGE('',*,*,#945,.T.);
#990 = PLANE('',#991);
#991 = AXIS2_PLACEMENT_3D('',#992,#993,#994);
#992 = CARTESIAN_POINT('',(1.44990854675,0.949999985844,0.999999985844)
  );
#993 = DIRECTION('',(0.,0.,1.));
#994 = DIRECTION('',(1.,0.,0.));
#995 = ADVANCED_FACE('',(#996),#1021,.T.);
#996 = FACE_BOUND('',#997,.T.);
#997 = EDGE_LOOP('',(#998,#1006,#1014,#1020));
#998 = ORIENTED_EDGE('',*,*,#999,.F.);
#999 = EDGE_CURVE('',#1000,#969,#1002,.T.);
#1000 = VERTEX_POINT('',#1001);
#1001 = CARTESIAN_POINT('',(1.5751898227,-0.949999985844,0.28953014742)
  );
#1002 = LINE('',#1003,#1004);
#1003 = CARTESIAN_POINT('',(1.599999976158,-0.949999985844,
    0.999999985844));
#1004 = VECTOR('',#1005,1.);
#1005 = DIRECTION('',(3.48994967025E-02,0.,0.999390827019));
#1006 = ORIENTED_EDGE('',*,*,#1007,.F.);
#1007 = EDGE_CURVE('',#1008,#1000,#1010,.T.);
#1008 = VERTEX_POINT('',#1009);
#1009 = CARTESIAN_POINT('',(1.5751898227,0.949999985844,0.28953014742));
#1010 = LINE('',#1011,#1012);
#1011 = CARTESIAN_POINT('',(1.5751898227,0.949999985844,0.28953014742));
#1012 = VECTOR('',#1013,1.);
#1013 = DIRECTION('',(-0.,-1.,-0.));
#1014 = ORIENTED_EDGE('',*,*,#1015,.T.);
#1015 = EDGE_CURVE('',#1008,#977,#1016,.T.);
#1016 = LINE('',#1017,#1018);
#1017 = CARTESIAN_POINT('',(1.599999976158,0.949999985844,0.999999985844
    ));
#1018 = VECTOR('',#1019,1.);
#1019 = DIRECTION('',(3.48994967025E-02,0.,0.999390827019));
#1020 = ORIENTED_EDGE('',*,*,#976,.T.);
#1021 = PLANE('',#1022);
#1022 = AXIS2_PLACEMENT_3D('',#1023,#1024,#1025);
#1023 = CARTESIAN_POINT('',(1.599999976158,0.949999985844,0.999999985844
    ));
#1024 = DIRECTION('',(0.999390827019,0.,-3.48994967025E-02));
#1025 = DIRECTION('',(-3.48994967025E-02,0.,-0.999390827019));
#1026 = ADVANCED_FACE('',(#1027),#1054,.T.);
#1027 = FACE_BOUND('',#1028,.T.);
#1028 = EDGE_LOOP('',(#1029,#1038,#1046,#1053));
#1029 = ORIENTED_EDGE('',*,*,#1030,.F.);
#1030 = EDGE_CURVE('',#1031,#1000,#1033,.T.);
#1031 = VERTEX_POINT('',#1032);
#1032 = CARTESIAN_POINT('',(1.275372579062,-0.949999985844,
    7.45058244267E-10));
#1033 = CIRCLE('',#1034,0.29999999553);
#1034 = AXIS2_PLACEMENT_3D('',#1035,#1036,#1037);
#1035 = CARTESIAN_POINT('',(1.275372579062,-0.949999985844,
    0.299999996275));
#1036 = DIRECTION('',(0.,-1.,0.));
#1037 = DIRECTION('',(0.,0.,-1.));
#1038 = ORIENTED_EDGE('',*,*,#1039,.F.);
#1039 = EDGE_CURVE('',#1040,#1031,#1042,.T.);
#1040 = VERTEX_POINT('',#1041);
#1041 = CARTESIAN_POINT('',(1.275372579062,0.949999985844,
    7.45058244267E-10));
#1042 = LINE('',#1043,#1044);
#1043 = CARTESIAN_POINT('',(1.275372579062,0.949999985844,
    7.45058244267E-10));
#1044 = VECTOR('',#1045,1.);
#1045 = DIRECTION('',(-0.,-1.,-0.));
#1046 = ORIENTED_EDGE('',*,*,#1047,.T.);
#1047 = EDGE_CURVE('',#1040,#1008,#1048,.T.);
#1048 = CIRCLE('',#1049,0.29999999553);
#1049 = AXIS2_PLACEMENT_3D('',#1050,#1051,#1052);
#1050 = CARTESIAN_POINT('',(1.275372579062,0.949999985844,0.299999996275
    ));
#1051 = DIRECTION('',(0.,-1.,0.));
#1052 = DIRECTION('',(0.,0.,-1.));
#1053 = ORIENTED_EDGE('',*,*,#1007,.T.);
#1054 = CYLINDRICAL_SURFACE('',#1055,0.29999999553);
#1055 = AXIS2_PLACEMENT_3D('',#1056,#1057,#1058);
#1056 = CARTESIAN_POINT('',(1.275372579062,0.949999985844,0.299999996275
    ));
#1057 = DIRECTION('',(-0.,-1.,-0.));
#1058 = DIRECTION('',(0.,0.,-1.));
#1059 = ADVANCED_FACE('',(#1060),#1076,.T.);
#1060 = FACE_BOUND('',#1061,.T.);
#1061 = EDGE_LOOP('',(#1062,#1068,#1069,#1075));
#1062 = ORIENTED_EDGE('',*,*,#1063,.F.);
#1063 = EDGE_CURVE('',#843,#1031,#1064,.T.);
#1064 = LINE('',#1065,#1066);
#1065 = CARTESIAN_POINT('',(1.275372579062,-0.949999985844,
    7.45058244267E-10));
#1066 = VECTOR('',#1067,1.);
#1067 = DIRECTION('',(1.,0.,6.614726013542E-16));
#1068 = ORIENTED_EDGE('',*,*,#859,.F.);
#1069 = ORIENTED_EDGE('',*,*,#1070,.T.);
#1070 = EDGE_CURVE('',#852,#1040,#1071,.T.);
#1071 = LINE('',#1072,#1073);
#1072 = CARTESIAN_POINT('',(1.275372579062,0.949999985844,
    7.45058244267E-10));
#1073 = VECTOR('',#1074,1.);
#1074 = DIRECTION('',(1.,0.,6.614726013542E-16));
#1075 = ORIENTED_EDGE('',*,*,#1039,.T.);
#1076 = PLANE('',#1077);
#1077 = AXIS2_PLACEMENT_3D('',#1078,#1079,#1080);
#1078 = CARTESIAN_POINT('',(1.275372579062,0.949999985844,
    7.45058244267E-10));
#1079 = DIRECTION('',(6.614726013542E-16,0.,-1.));
#1080 = DIRECTION('',(-1.,0.,-6.614726013542E-16));
#1081 = ADVANCED_FACE('',(#1082),#1093,.F.);
#1082 = FACE_BOUND('',#1083,.T.);
#1083 = EDGE_LOOP('',(#1084,#1085,#1086,#1087,#1088,#1089,#1090,#1091,
    #1092));
#1084 = ORIENTED_EDGE('',*,*,#851,.F.);
#1085 = ORIENTED_EDGE('',*,*,#21,.F.);
#1086 = ORIENTED_EDGE('',*,*,#873,.F.);
#1087 = ORIENTED_EDGE('',*,*,#905,.F.);
#1088 = ORIENTED_EDGE('',*,*,#953,.F.);
#1089 = ORIENTED_EDGE('',*,*,#984,.F.);
#1090 = ORIENTED_EDGE('',*,*,#1015,.F.);
#1091 = ORIENTED_EDGE('',*,*,#1047,.F.);
#1092 = ORIENTED_EDGE('',*,*,#1070,.F.);
#1093 = PLANE('',#1094);
#1094 = AXIS2_PLACEMENT_3D('',#1095,#1096,#1097);
#1095 = CARTESIAN_POINT('',(1.275372579062,0.949999985844,0.299999996275
    ));
#1096 = DIRECTION('',(0.,-1.,0.));
#1097 = DIRECTION('',(0.,0.,-1.));
#1098 = ADVANCED_FACE('',(#1099),#1110,.T.);
#1099 = FACE_BOUND('',#1100,.T.);
#1100 = EDGE_LOOP('',(#1101,#1102,#1103,#1104,#1105,#1106,#1107,#1108,
    #1109));
#1101 = ORIENTED_EDGE('',*,*,#842,.T.);
#1102 = ORIENTED_EDGE('',*,*,#1063,.T.);
#1103 = ORIENTED_EDGE('',*,*,#1030,.T.);
#1104 = ORIENTED_EDGE('',*,*,#999,.T.);
#1105 = ORIENTED_EDGE('',*,*,#968,.T.);
#1106 = ORIENTED_EDGE('',*,*,#937,.T.);
#1107 = ORIENTED_EDGE('',*,*,#922,.T.);
#1108 = ORIENTED_EDGE('',*,*,#882,.T.);
#1109 = ORIENTED_EDGE('',*,*,#39,.T.);
#1110 = PLANE('',#1111);
#1111 = AXIS2_PLACEMENT_3D('',#1112,#1113,#1114);
#1112 = CARTESIAN_POINT('',(1.275372579062,-0.949999985844,
    0.299999996275));
#1113 = DIRECTION('',(0.,-1.,0.));
#1114 = DIRECTION('',(0.,0.,-1.));
#1115 = ADVANCED_FACE('',(#1116),#1126,.T.);
#1116 = FACE_BOUND('',#1117,.T.);
#1117 = EDGE_LOOP('',(#1118,#1119,#1120,#1121,#1122,#1123,#1124,#1125));
#1118 = ORIENTED_EDGE('',*,*,#532,.T.);
#1119 = ORIENTED_EDGE('',*,*,#110,.T.);
#1120 = ORIENTED_EDGE('',*,*,#167,.T.);
#1121 = ORIENTED_EDGE('',*,*,#245,.F.);
#1122 = ORIENTED_EDGE('',*,*,#330,.F.);
#1123 = ORIENTED_EDGE('',*,*,#307,.T.);
#1124 = ORIENTED_EDGE('',*,*,#190,.T.);
#1125 = ORIENTED_EDGE('',*,*,#364,.T.);
#1126 = PLANE('',#1127);
#1127 = AXIS2_PLACEMENT_3D('',#1128,#1129,#1130);
#1128 = CARTESIAN_POINT('',(1.399999979138,3.364312245965E-17,
    1.129545438459));
#1129 = DIRECTION('',(1.,0.,0.));
#1130 = DIRECTION('',(0.,0.,1.));
#1131 = ( GEOMETRIC_REPRESENTATION_CONTEXT(3) 
GLOBAL_UNCERTAINTY_ASSIGNED_CONTEXT((#1135)) 
GLOBAL_UNIT_ASSIGNED_CONTEXT((#1132,#1133,#1134)) REPRESENTATION_CONTEXT
('Context #1','3D Context with UNIT and UNCERTAINTY') );
#1132 = ( LENGTH_UNIT() NAMED_UNIT(*) SI_UNIT(.MILLI.,.METRE.) );
#1133 = ( NAMED_UNIT(*) PLANE_ANGLE_UNIT() SI_UNIT($,.RADIAN.) );
#1134 = ( NAMED_UNIT(*) SI_UNIT($,.STERADIAN.) SOLID_ANGLE_UNIT() );
#1135 = UNCERTAINTY_MEASURE_WITH_UNIT(LENGTH_MEASURE(1.E-07),#1132,
  'distance_accuracy_value','confusion accuracy');
#1136 = PRODUCT_RELATED_PRODUCT_CATEGORY('part',$,(#7));
#1137 = MECHANICAL_DESIGN_GEOMETRIC_PRESENTATION_REPRESENTATION('',(
    #1138,#1149,#1159,#1167,#1174,#1181,#1188,#1195,#1204,#1213,#1222,
    #1231,#1240,#1249,#1258,#1267,#1276,#1285),#1131);
#1138 = STYLED_ITEM('color',(#1139),#15);
#1139 = PRESENTATION_STYLE_ASSIGNMENT((#1140,#1146));
#1140 = SURFACE_STYLE_USAGE(.BOTH.,#1141);
#1141 = SURFACE_SIDE_STYLE('',(#1142));
#1142 = SURFACE_STYLE_FILL_AREA(#1143);
#1143 = FILL_AREA_STYLE('',(#1144));
#1144 = FILL_AREA_STYLE_COLOUR('',#1145);
#1145 = COLOUR_RGB('',0.886274513239,0.886274513239,0.886274513239);
#1146 = CURVE_STYLE('',#1147,POSITIVE_LENGTH_MEASURE(0.1),#1148);
#1147 = DRAUGHTING_PRE_DEFINED_CURVE_FONT('continuous');
#1148 = COLOUR_RGB('',9.803921802644E-02,9.803921802644E-02,
  9.803921802644E-02);
#1149 = OVER_RIDING_STYLED_ITEM('overriding color',(#1150),#89,#1138);
#1150 = PRESENTATION_STYLE_ASSIGNMENT((#1151));
#1151 = SURFACE_STYLE_USAGE(.BOTH.,#1152);
#1152 = SURFACE_SIDE_STYLE('',(#1153,#1157));
#1153 = SURFACE_STYLE_FILL_AREA(#1154);
#1154 = FILL_AREA_STYLE('',(#1155));
#1155 = FILL_AREA_STYLE_COLOUR('',#1156);
#1156 = COLOUR_RGB('',0.678430976034,0.709803998361,0.741176010593);
#1157 = SURFACE_STYLE_RENDERING_WITH_PROPERTIES(.NORMAL_SHADING.,#1156,(
    #1158));
#1158 = SURFACE_STYLE_TRANSPARENT(1.);
#1159 = OVER_RIDING_STYLED_ITEM('overriding color',(#1160),#129,#1138);
#1160 = PRESENTATION_STYLE_ASSIGNMENT((#1161));
#1161 = SURFACE_STYLE_USAGE(.BOTH.,#1162);
#1162 = SURFACE_SIDE_STYLE('',(#1163));
#1163 = SURFACE_STYLE_FILL_AREA(#1164);
#1164 = FILL_AREA_STYLE('',(#1165));
#1165 = FILL_AREA_STYLE_COLOUR('',#1166);
#1166 = DRAUGHTING_PRE_DEFINED_COLOUR('black');
#1167 = OVER_RIDING_STYLED_ITEM('overriding color',(#1168),#224,#1138);
#1168 = PRESENTATION_STYLE_ASSIGNMENT((#1169));
#1169 = SURFACE_STYLE_USAGE(.BOTH.,#1170);
#1170 = SURFACE_SIDE_STYLE('',(#1171));
#1171 = SURFACE_STYLE_FILL_AREA(#1172);
#1172 = FILL_AREA_STYLE('',(#1173));
#1173 = FILL_AREA_STYLE_COLOUR('',#1166);
#1174 = OVER_RIDING_STYLED_ITEM('overriding color',(#1175),#255,#1138);
#1175 = PRESENTATION_STYLE_ASSIGNMENT((#1176));
#1176 = SURFACE_STYLE_USAGE(.BOTH.,#1177);
#1177 = SURFACE_SIDE_STYLE('',(#1178));
#1178 = SURFACE_STYLE_FILL_AREA(#1179);
#1179 = FILL_AREA_STYLE('',(#1180));
#1180 = FILL_AREA_STYLE_COLOUR('',#1166);
#1181 = OVER_RIDING_STYLED_ITEM('overriding color',(#1182),#302,#1138);
#1182 = PRESENTATION_STYLE_ASSIGNMENT((#1183));
#1183 = SURFACE_STYLE_USAGE(.BOTH.,#1184);
#1184 = SURFACE_SIDE_STYLE('',(#1185));
#1185 = SURFACE_STYLE_FILL_AREA(#1186);
#1186 = FILL_AREA_STYLE('',(#1187));
#1187 = FILL_AREA_STYLE_COLOUR('',#1166);
#1188 = OVER_RIDING_STYLED_ITEM('overriding color',(#1189),#326,#1138);
#1189 = PRESENTATION_STYLE_ASSIGNMENT((#1190));
#1190 = SURFACE_STYLE_USAGE(.BOTH.,#1191);
#1191 = SURFACE_SIDE_STYLE('',(#1192));
#1192 = SURFACE_STYLE_FILL_AREA(#1193);
#1193 = FILL_AREA_STYLE('',(#1194));
#1194 = FILL_AREA_STYLE_COLOUR('',#1166);
#1195 = OVER_RIDING_STYLED_ITEM('overriding color',(#1196),#343,#1138);
#1196 = PRESENTATION_STYLE_ASSIGNMENT((#1197));
#1197 = SURFACE_STYLE_USAGE(.BOTH.,#1198);
#1198 = SURFACE_SIDE_STYLE('',(#1199,#1202));
#1199 = SURFACE_STYLE_FILL_AREA(#1200);
#1200 = FILL_AREA_STYLE('',(#1201));
#1201 = FILL_AREA_STYLE_COLOUR('',#1156);
#1202 = SURFACE_STYLE_RENDERING_WITH_PROPERTIES(.NORMAL_SHADING.,#1156,(
    #1203));
#1203 = SURFACE_STYLE_TRANSPARENT(1.);
#1204 = OVER_RIDING_STYLED_ITEM('overriding color',(#1205),#386,#1138);
#1205 = PRESENTATION_STYLE_ASSIGNMENT((#1206));
#1206 = SURFACE_STYLE_USAGE(.BOTH.,#1207);
#1207 = SURFACE_SIDE_STYLE('',(#1208,#1211));
#1208 = SURFACE_STYLE_FILL_AREA(#1209);
#1209 = FILL_AREA_STYLE('',(#1210));
#1210 = FILL_AREA_STYLE_COLOUR('',#1156);
#1211 = SURFACE_STYLE_RENDERING_WITH_PROPERTIES(.NORMAL_SHADING.,#1156,(
    #1212));
#1212 = SURFACE_STYLE_TRANSPARENT(1.);
#1213 = OVER_RIDING_STYLED_ITEM('overriding color',(#1214),#482,#1138);
#1214 = PRESENTATION_STYLE_ASSIGNMENT((#1215));
#1215 = SURFACE_STYLE_USAGE(.BOTH.,#1216);
#1216 = SURFACE_SIDE_STYLE('',(#1217,#1220));
#1217 = SURFACE_STYLE_FILL_AREA(#1218);
#1218 = FILL_AREA_STYLE('',(#1219));
#1219 = FILL_AREA_STYLE_COLOUR('',#1156);
#1220 = SURFACE_STYLE_RENDERING_WITH_PROPERTIES(.NORMAL_SHADING.,#1156,(
    #1221));
#1221 = SURFACE_STYLE_TRANSPARENT(1.);
#1222 = OVER_RIDING_STYLED_ITEM('overriding color',(#1223),#561,#1138);
#1223 = PRESENTATION_STYLE_ASSIGNMENT((#1224));
#1224 = SURFACE_STYLE_USAGE(.BOTH.,#1225);
#1225 = SURFACE_SIDE_STYLE('',(#1226,#1229));
#1226 = SURFACE_STYLE_FILL_AREA(#1227);
#1227 = FILL_AREA_STYLE('',(#1228));
#1228 = FILL_AREA_STYLE_COLOUR('',#1156);
#1229 = SURFACE_STYLE_RENDERING_WITH_PROPERTIES(.NORMAL_SHADING.,#1156,(
    #1230));
#1230 = SURFACE_STYLE_TRANSPARENT(1.);
#1231 = OVER_RIDING_STYLED_ITEM('overriding color',(#1232),#592,#1138);
#1232 = PRESENTATION_STYLE_ASSIGNMENT((#1233));
#1233 = SURFACE_STYLE_USAGE(.BOTH.,#1234);
#1234 = SURFACE_SIDE_STYLE('',(#1235,#1238));
#1235 = SURFACE_STYLE_FILL_AREA(#1236);
#1236 = FILL_AREA_STYLE('',(#1237));
#1237 = FILL_AREA_STYLE_COLOUR('',#1156);
#1238 = SURFACE_STYLE_RENDERING_WITH_PROPERTIES(.NORMAL_SHADING.,#1156,(
    #1239));
#1239 = SURFACE_STYLE_TRANSPARENT(1.);
#1240 = OVER_RIDING_STYLED_ITEM('overriding color',(#1241),#749,#1138);
#1241 = PRESENTATION_STYLE_ASSIGNMENT((#1242));
#1242 = SURFACE_STYLE_USAGE(.BOTH.,#1243);
#1243 = SURFACE_SIDE_STYLE('',(#1244,#1247));
#1244 = SURFACE_STYLE_FILL_AREA(#1245);
#1245 = FILL_AREA_STYLE('',(#1246));
#1246 = FILL_AREA_STYLE_COLOUR('',#1156);
#1247 = SURFACE_STYLE_RENDERING_WITH_PROPERTIES(.NORMAL_SHADING.,#1156,(
    #1248));
#1248 = SURFACE_STYLE_TRANSPARENT(1.);
#1249 = OVER_RIDING_STYLED_ITEM('overriding color',(#1250),#780,#1138);
#1250 = PRESENTATION_STYLE_ASSIGNMENT((#1251));
#1251 = SURFACE_STYLE_USAGE(.BOTH.,#1252);
#1252 = SURFACE_SIDE_STYLE('',(#1253,#1256));
#1253 = SURFACE_STYLE_FILL_AREA(#1254);
#1254 = FILL_AREA_STYLE('',(#1255));
#1255 = FILL_AREA_STYLE_COLOUR('',#1156);
#1256 = SURFACE_STYLE_RENDERING_WITH_PROPERTIES(.NORMAL_SHADING.,#1156,(
    #1257));
#1257 = SURFACE_STYLE_TRANSPARENT(1.);
#1258 = OVER_RIDING_STYLED_ITEM('overriding color',(#1259),#838,#1138);
#1259 = PRESENTATION_STYLE_ASSIGNMENT((#1260));
#1260 = SURFACE_STYLE_USAGE(.BOTH.,#1261);
#1261 = SURFACE_SIDE_STYLE('',(#1262,#1265));
#1262 = SURFACE_STYLE_FILL_AREA(#1263);
#1263 = FILL_AREA_STYLE('',(#1264));
#1264 = FILL_AREA_STYLE_COLOUR('',#1156);
#1265 = SURFACE_STYLE_RENDERING_WITH_PROPERTIES(.NORMAL_SHADING.,#1156,(
    #1266));
#1266 = SURFACE_STYLE_TRANSPARENT(1.);
#1267 = OVER_RIDING_STYLED_ITEM('overriding color',(#1268),#869,#1138);
#1268 = PRESENTATION_STYLE_ASSIGNMENT((#1269));
#1269 = SURFACE_STYLE_USAGE(.BOTH.,#1270);
#1270 = SURFACE_SIDE_STYLE('',(#1271,#1274));
#1271 = SURFACE_STYLE_FILL_AREA(#1272);
#1272 = FILL_AREA_STYLE('',(#1273));
#1273 = FILL_AREA_STYLE_COLOUR('',#1156);
#1274 = SURFACE_STYLE_RENDERING_WITH_PROPERTIES(.NORMAL_SHADING.,#1156,(
    #1275));
#1275 = SURFACE_STYLE_TRANSPARENT(1.);
#1276 = OVER_RIDING_STYLED_ITEM('overriding color',(#1277),#933,#1138);
#1277 = PRESENTATION_STYLE_ASSIGNMENT((#1278));
#1278 = SURFACE_STYLE_USAGE(.BOTH.,#1279);
#1279 = SURFACE_SIDE_STYLE('',(#1280,#1283));
#1280 = SURFACE_STYLE_FILL_AREA(#1281);
#1281 = FILL_AREA_STYLE('',(#1282));
#1282 = FILL_AREA_STYLE_COLOUR('',#1156);
#1283 = SURFACE_STYLE_RENDERING_WITH_PROPERTIES(.NORMAL_SHADING.,#1156,(
    #1284));
#1284 = SURFACE_STYLE_TRANSPARENT(1.);
#1285 = OVER_RIDING_STYLED_ITEM('overriding color',(#1286),#1115,#1138);
#1286 = PRESENTATION_STYLE_ASSIGNMENT((#1287));
#1287 = SURFACE_STYLE_USAGE(.BOTH.,#1288);
#1288 = SURFACE_SIDE_STYLE('',(#1289));
#1289 = SURFACE_STYLE_FILL_AREA(#1290);
#1290 = FILL_AREA_STYLE('',(#1291));
#1291 = FILL_AREA_STYLE_COLOUR('',#1166);
ENDSEC;
END-ISO-10303-21;
